<svg xmlns="http://www.w3.org/2000/svg" xmlns:xlink="http://www.w3.org/1999/xlink" width="25" height="21" viewBox="0 0 25 21">
  <metadata><?xpacket begin="﻿" id="W5M0MpCehiHzreSzNTczkc9d"?>
<x:xmpmeta xmlns:x="adobe:ns:meta/" x:xmptk="Adobe XMP Core 5.6-c138 79.159824, 2016/09/14-01:09:01        ">
   <rdf:RDF xmlns:rdf="http://www.w3.org/1999/02/22-rdf-syntax-ns#">
      <rdf:Description rdf:about=""/>
   </rdf:RDF>
</x:xmpmeta>
                                                                                                    
                                                                                                    
                                                                                                    
                                                                                                    
                                                                                                    
                                                                                                    
                                                                                                    
                                                                                                    
                                                                                                    
                                                                                                    
                                                                                                    
                                                                                                    
                                                                                                    
                                                                                                    
                                                                                                    
                                                                                                    
                                                                                                    
                                                                                                    
                                                                                                    
                                                                                                    
                           
<?xpacket end="w"?></metadata>
<defs>
    <style>
      .cls-1 {
        fill-rule: evenodd;
        filter: url(#filter);
      }
    </style>
    <filter id="filter" x="1785" y="348" width="25" height="21" filterUnits="userSpaceOnUse">
      <feFlood result="flood" flood-color="#e98e19"/>
      <feComposite result="composite" operator="in" in2="SourceGraphic"/>
      <feBlend result="blend" in2="SourceGraphic"/>
    </filter>
  </defs>
  <path id="Rectangle_619_copy_2" data-name="Rectangle 619 copy 2" class="cls-1" d="M1785,348h8a4,4,0,0,1,4,4v6h-8a4,4,0,0,1-4-4v-6Zm13,0h8a4,4,0,0,1,4,4v6h-8a4,4,0,0,1-4-4v-6Zm-13,11h8a4,4,0,0,1,4,4v6h-8a4,4,0,0,1-4-4v-6Zm13,0h8a4,4,0,0,1,4,4v6h-8a4,4,0,0,1-4-4v-6Z" transform="translate(-1785 -348)"/>
</svg>
