<svg xmlns="http://www.w3.org/2000/svg" xmlns:xlink="http://www.w3.org/1999/xlink" width="24" height="25" viewBox="0 0 24 25">
  <metadata><?xpacket begin="﻿" id="W5M0MpCehiHzreSzNTczkc9d"?>
<x:xmpmeta xmlns:x="adobe:ns:meta/" x:xmptk="Adobe XMP Core 5.6-c138 79.159824, 2016/09/14-01:09:01        ">
   <rdf:RDF xmlns:rdf="http://www.w3.org/1999/02/22-rdf-syntax-ns#">
      <rdf:Description rdf:about=""/>
   </rdf:RDF>
</x:xmpmeta>
                                                                                                    
                                                                                                    
                                                                                                    
                                                                                                    
                                                                                                    
                                                                                                    
                                                                                                    
                                                                                                    
                                                                                                    
                                                                                                    
                                                                                                    
                                                                                                    
                                                                                                    
                                                                                                    
                                                                                                    
                                                                                                    
                                                                                                    
                                                                                                    
                                                                                                    
                                                                                                    
                           
<?xpacket end="w"?></metadata>
<defs>
    <style>
      .cls-1 {
        fill-rule: evenodd;
        filter: url(#filter);
      }
    </style>
    <filter id="filter" x="1549" y="517" width="24" height="25" filterUnits="userSpaceOnUse">
      <feFlood result="flood" flood-color="#e98e19"/>
      <feComposite result="composite" operator="in" in2="SourceGraphic"/>
      <feBlend result="blend" in2="SourceGraphic"/>
    </filter>
  </defs>
  <path id="Forma_1" data-name="Forma 1" class="cls-1" d="M1555.42,527.512a2.118,2.118,0,0,0-.49.051v3.219a2.025,2.025,0,0,0,.38.029,1.5,1.5,0,0,0,1.64-1.728A1.4,1.4,0,0,0,1555.42,527.512Zm8.32,12.329c0.04,0,.07,0,0.1,0h7.55a1.609,1.609,0,0,0,1.61-1.606V520.694a1.608,1.608,0,0,0-1.61-1.6h-7.55c-0.03,0-.06,0-0.1,0V517L1549,518.971v21.006L1563.74,542v-2.158Zm7.65-.912h-7.55a0.866,0.866,0,0,1-.1-0.011v-6.884a14.894,14.894,0,0,1,5.65-.034l0.23,0.435c0.9,1.71,1.86,1.7,2.23,1.615a0.828,0.828,0,0,0,.14-0.042l0.05-.026c0.01-.011.03-0.024,0.04-0.036v4.295A0.69,0.69,0,0,1,1571.39,538.929Zm-7.01-7.711c1.19-1.445,2.14-2.795,2.76-3.709v0l0.01-.01c0.48,1.021,1.28,2.6,1.82,3.678h0l0.02,0.036a15.512,15.512,0,0,0-4.61.022l0.02-.024Zm2.79-6.745a0.211,0.211,0,0,1,.24-0.1,0.452,0.452,0,0,1,.34.185,1.409,1.409,0,0,1-.3,1.2h0s-0.06.094-.16,0.263A2.4,2.4,0,0,1,1567.17,524.473Zm3.14,7.809a5.589,5.589,0,0,1,1.21.636,0.805,0.805,0,0,1,.17.449v0.014C1571.54,533.407,1570.97,533.425,1570.31,532.282Zm-6.47-12.276h7.55a0.691,0.691,0,0,1,.69.689v11.833c-0.02-.03-0.04-0.056-0.05-0.069l-0.03-.038-0.04-.028a6.372,6.372,0,0,0-2.1-.983c-0.58-1.129-1.77-3.481-2.27-4.583,0.29-.449.45-0.711,0.45-0.723a1.954,1.954,0,0,0,.3-1.887,1.118,1.118,0,0,0-.91-0.532,0.9,0.9,0,0,0-.86.448,3.272,3.272,0,0,0,.16,2.424c0.02,0.052.04,0.12,0.08,0.2a50.015,50.015,0,0,1-3.07,4.153v-10.9C1563.78,520.012,1563.81,520.006,1563.84,520.006Zm-11.06,9.351a1.976,1.976,0,0,1-1.45.493,2.6,2.6,0,0,1-.34-0.024v1.686l-0.97-.027v-4.6a7.548,7.548,0,0,1,1.33-.129,2,2,0,0,1,1.36.352,1.42,1.42,0,0,1,.49,1.108A1.59,1.59,0,0,1,1552.78,529.357Zm4.54,1.731a3.38,3.38,0,0,1-2.25.588,9.311,9.311,0,0,1-1.21-.106v-4.778a9.422,9.422,0,0,1,1.45-.136,3.058,3.058,0,0,1,2,.49,2.22,2.22,0,0,1,.85,1.9A2.518,2.518,0,0,1,1557.32,531.088Zm1.6-4.482,3.26-.077v0.981l-2.07.03v1.185l1.93,0v0.972l-1.93-.014v2.086l-1.19-.033v-5.125h0Zm-7.52.953a1.577,1.577,0,0,0-.41.049V529a1.387,1.387,0,0,0,.33.028,0.759,0.759,0,0,0,.86-0.779A0.666,0.666,0,0,0,1551.4,527.559Z" transform="translate(-1549 -517)"/>
</svg>
