<svg id="Слой_1" data-name="Слой 1" xmlns="http://www.w3.org/2000/svg" viewBox="0 0 116.8 104.29"><title>icon_19</title><path d="M115.56,34.61,82.19,1.24a4.09,4.09,0,0,0-5.87,0,4,4,0,0,0-1.24,2.93V20.86H60.48q-46.47,0-57,26.27Q0,55.86,0,68.83q0,10.82,8.28,29.4c.13.31.36.82.68,1.56s.62,1.39.88,2a7.35,7.35,0,0,0,.85,1.43,2.23,2.23,0,0,0,1.83,1.11,1.89,1.89,0,0,0,1.53-.65A2.43,2.43,0,0,0,14.6,102a13.29,13.29,0,0,0-.16-1.73,13.23,13.23,0,0,1-.17-1.53q-.33-4.43-.33-8a55.33,55.33,0,0,1,1.15-11.8,35.29,35.29,0,0,1,3.16-9,22.65,22.65,0,0,1,5.22-6.58,30.7,30.7,0,0,1,6.87-4.53A37.32,37.32,0,0,1,39,56a82.42,82.42,0,0,1,10-1.4q5.05-.39,11.44-.39h14.6V70.92a4.15,4.15,0,0,0,7.11,2.93l33.37-33.37a4.09,4.09,0,0,0,0-5.87Zm0,0"/></svg>