<svg id="Слой_1" data-name="Слой 1" xmlns="http://www.w3.org/2000/svg" viewBox="0 0 24.4 23.63"><title>icon_21</title><path d="M14.8,17.74c-.65-.44-6.23-4.23-7.73-6.89L7,10.7H6.82a4,4,0,0,0-2.73,1.08l-.54-.55L3.33,11l-.22.23A3.07,3.07,0,0,0,2,13.66a2.14,2.14,0,0,0,1.18,1.51c.13.07,1.56,1,3.12,2.29-.27.27-1.25.91-1.61,1.16s-2.06,1.79-2.06,1.79l1.07.25.38.73a7.89,7.89,0,0,1,1.07-1.87,6.24,6.24,0,0,1,1.54-1.11,14.83,14.83,0,0,0-.91,1.49,6.52,6.52,0,0,0-.48,2L6,21.71l.45,1a13.79,13.79,0,0,1,.4-2.31,5.24,5.24,0,0,1,1-1.67c2,1.74,4,3.84,4.46,4.27a1.81,1.81,0,0,0,1,.59,2.25,2.25,0,0,0,.45.05,2.59,2.59,0,0,0,2.19-1.47,3.31,3.31,0,0,0-.28-3.86,2.14,2.14,0,0,0-.82-.57Zm-8.39-1c-1.43-1.12-2.74-2-2.93-2.13a1.55,1.55,0,0,1-.88-1.07,2.25,2.25,0,0,1,.74-1.7c1.4,1.43,2.6,2.57,3.61,3.48a2.78,2.78,0,0,0-.54,1.43Zm.89-1.93c-.81-.72-1.73-1.59-2.78-2.64a3.49,3.49,0,0,1,2.12-.91,13.47,13.47,0,0,0,2.3,2.64,2.37,2.37,0,0,0-1.63.92ZM7.91,18a4.81,4.81,0,0,1,.44-1.47,14.79,14.79,0,0,0,3.23,2.17,9.49,9.49,0,0,0,0,2.76c-1-.95-2.36-2.3-3.69-3.46Zm7.46,3.85a1.92,1.92,0,0,1-2,1.13c-1.53-.34-1.36-3.31-1.16-4.43l0-.28L12,18.22A11.55,11.55,0,0,1,8.68,16a3,3,0,0,1,1.69-.84c1.33,1.1,2.65,2.05,3.44,2.61l-.07,0a2.82,2.82,0,0,0-1.09,2.73c.23.84.8,1.38,1.39,1.37.25,0,.87-.15,1.09-1.28l0-.18L15,20.36c-.86-.73-1.32-1.16-1.54-1.37a1.51,1.51,0,0,1,.55-.64c.34-.19.72-.07,1.14.37a2.71,2.71,0,0,1,.19,3.15Zm-.88-1.17c-.1.39-.28.61-.48.62h0c-.25,0-.61-.32-.77-.93a1.71,1.71,0,0,1,0-.78c.25.23.64.59,1.23,1.09Zm0,0"/><path d="M4.77,6.5l-1,3.06A41.89,41.89,0,0,1,11,11a41.49,41.49,0,0,1,6.69,2.93l1-3.12a18.13,18.13,0,0,0-6.4-4A17,17,0,0,0,4.77,6.5Zm0,0"/><path d="M24.4,10.82l-1.14-1.2.11-.36s1-1.85-1.52-1.5a.44.44,0,0,0-.26.12L14.08,0,0,3.11,3.87,6.57l.21-.66a18.91,18.91,0,0,1,8.33.27,20.22,20.22,0,0,1,7.14,4.5l-.36,1.16,2.91-.56-1.21,3.89-.83-.26-.6,1.93,1.34-.42,1,1.14.6-1.93-.89-.28,1.32-4.21Zm-1.67-.43A.61.61,0,0,1,21.57,10a.61.61,0,1,1,1.16.36Zm-.57-1.91c.32-.09.86-.19.71.27,0,0-.05.18-.11.36Zm0,0"/></svg>