<svg xmlns="http://www.w3.org/2000/svg" width="24" height="16" viewBox="0 0 24 16">
  <metadata><?xpacket begin="﻿" id="W5M0MpCehiHzreSzNTczkc9d"?>
<x:xmpmeta xmlns:x="adobe:ns:meta/" x:xmptk="Adobe XMP Core 5.6-c138 79.159824, 2016/09/14-01:09:01        ">
   <rdf:RDF xmlns:rdf="http://www.w3.org/1999/02/22-rdf-syntax-ns#">
      <rdf:Description rdf:about=""/>
   </rdf:RDF>
</x:xmpmeta>
                                                                                                    
                                                                                                    
                                                                                                    
                                                                                                    
                                                                                                    
                                                                                                    
                                                                                                    
                                                                                                    
                                                                                                    
                                                                                                    
                                                                                                    
                                                                                                    
                                                                                                    
                                                                                                    
                                                                                                    
                                                                                                    
                                                                                                    
                                                                                                    
                                                                                                    
                                                                                                    
                           
<?xpacket end="w"?></metadata>
<defs>
    <style>
      .cls-1 {
        fill: #646260;
        fill-rule: evenodd;
      }
    </style>
  </defs>
  <path class="cls-1" d="M92.819,292.415H77.014l3.2-2.286a0.627,0.627,0,0,0,.149-0.865,0.6,0.6,0,0,0-.851-0.151l-3.947,2.82a1.361,1.361,0,0,0,0,2.2l3.947,2.82a0.6,0.6,0,0,0,.851-0.151,0.627,0.627,0,0,0-.149-0.865l-3.2-2.286h15.8a5.051,5.051,0,0,1,0,10.1H90.589a0.621,0.621,0,0,0,0,1.242h2.224A6.293,6.293,0,0,0,92.819,292.415Z" transform="translate(-75 -289)"/>
</svg>
