<svg id="Слой_1" data-name="Слой 1" xmlns="http://www.w3.org/2000/svg" xmlns:xlink="http://www.w3.org/1999/xlink" viewBox="0 0 252.3 318.79"><defs><style>.cls-1{fill:none;}.cls-2{clip-path:url(#clip-path);}</style><clipPath id="clip-path" transform="translate(0 0)"><rect class="cls-1" width="252.96" height="319"/></clipPath></defs><title>icon_27</title><g class="cls-2"><path d="M248.27,99.7h-96A4.26,4.26,0,0,1,148,95.46V3.86S148.11,0,144.31,0H7A7,7,0,0,0,0,7V311.77a7,7,0,0,0,7,7H245.28a7,7,0,0,0,7-7V103.91s0-4.21-4-4.21Zm0,0" transform="translate(0 0)"/><path d="M167,86.29h82.33c3,0,3.64-1.7,1.49-3.77L165.55,1.17c-2.15-2.07-3.91-1.31-3.91,1.69v78a5.45,5.45,0,0,0,5.4,5.46Zm0,0" transform="translate(0 0)"/></g></svg>