<svg id="Layer_1" data-name="Layer 1" xmlns="http://www.w3.org/2000/svg" viewBox="0 0 512 436.51"><title>icon_29</title><path d="M475,142.69h-9.08V0L441.17,19.76C375.26,72.46,307.37,104.15,262,121.45a613,613,0,0,1-65.84,21.12v-12H40.56v27H0V269.77H40.56v27H74.44l30.42,139.71h94.49L168.92,296.8h27.26v-12A612.72,612.72,0,0,1,262,305.88c45.35,17.3,113.24,49,179.15,101.69l24.71,19.76V284.64H475a37.09,37.09,0,0,0,37-37V179.73A37.09,37.09,0,0,0,475,142.69ZM30.42,239.35V188H40.56v51.37ZM161.59,406.09H129.36L105.57,296.8H137.8ZM71,266.39V160.94h94.79V266.39H71ZM435.46,365c-61.14-44.25-121.46-71.92-163.4-87.87a620.16,620.16,0,0,0-75.88-23.74V173.92a620.16,620.16,0,0,0,75.88-23.74c41.93-15.94,102.26-43.61,163.4-87.87V365Zm46.12-117.42a6.64,6.64,0,0,1-6.63,6.63h-9.08V173.11H475a6.64,6.64,0,0,1,6.63,6.63Z"/></svg>