<?xml version="1.0" standalone="no"?>
<!DOCTYPE svg PUBLIC "-//W3C//DTD SVG 1.1//EN" "http://www.w3.org/Graphics/SVG/1.1/DTD/svg11.dtd" >
<svg>
<metadata>
Created by FontForge 20090622 at Wed Mar  7 11:24:46 2018
 By deploy user
&#194;&#169; 2008 Adobe Systems Incorporated. All Rights Reserved.
</metadata>
<defs>
<font id="AdobeClean-Regular" horiz-adv-x="392" >
  <font-face 
    font-family="Adobe Clean"
    font-weight="400"
    font-stretch="normal"
    units-per-em="1000"
    panose-1="2 11 5 3 2 4 4 2 2 4"
    ascent="715"
    descent="-285"
    x-height="482"
    cap-height="657"
    bbox="-164 -242 1188.9 937"
    underline-thickness="50"
    underline-position="-50"
    unicode-range="U+0020-U+FB05"
  />
<missing-glyph horiz-adv-x="500" 
d="M0 0v700h500v-700h-500zM80 50h340l-170 255zM279 350l171 -255v510zM50 605v-510l170 255zM80 650l170 -255l170 255h-340z" />
    <glyph glyph-name="f_f" unicode="ff" horiz-adv-x="536" 
d="M166 482h193v25q0 108 45.5 162.5t119.5 54.5q44 0 59 -10q5 -2 5 -7v-60q0 -3 -1.5 -5t-3.5 -1q-22 10 -49 10q-89 0 -89 -144v-25h96q5 0 5 -6v-54q0 -6 -5 -6l-96 -1v-408q0 -7 -7 -7h-72q-7 0 -7 7v408h-193v-408q0 -7 -6 -7h-73q-7 0 -7 7v409l-65 1q-4 0 -4 5v54
q0 6 5 6h64v29q0 104 45.5 158.5t114.5 54.5q32 0 48 -8q4 -2 4 -8v-58q0 -3 -1 -4.5t-4 -0.5q-16 6 -37 6q-84 0 -84 -141v-28z" />
    <glyph glyph-name="f_f_i" unicode="ffi" horiz-adv-x="786" 
d="M166 482h198v25q0 113 43.5 165t110.5 52q25 0 36 -5q5 -2 5 -7v-58q0 -3 -1 -5t-4 -1q-14 4 -29 4q-75 0 -75 -141v-29h93q5 0 5 -5v-54q0 -7 -6 -7l-92 -1v-408q0 -7 -6 -7h-73q-7 0 -7 7v408h-198v-408q0 -7 -6 -7h-73q-7 0 -7 7v409l-65 1q-4 0 -4 5v54q0 6 5 6h64
v29q0 104 45.5 158.5t114.5 54.5q32 0 48 -8q4 -2 4 -8v-58q0 -3 -1 -4.5t-4 -0.5q-15 7 -37 7q-84 0 -84 -139v-31zM670 569q-22 0 -36 13t-14 34t14.5 34.5t36.5 13.5q23 0 36 -13.5t13 -34.5t-14 -34t-36 -13zM627 7v468q0 6 7 6h73q6 0 6 -6v-468q0 -7 -7 -7h-71
q-8 0 -8 7z" />
    <glyph glyph-name="f_f_l" unicode="ffl" horiz-adv-x="811" 
d="M160 0h-73q-7 0 -7 7v409l-65 1q-4 0 -4 5v54q0 6 5 6h64v29q0 104 45.5 158.5t114.5 54.5q32 0 48 -8q4 -2 4 -8v-58q0 -3 -1 -4.5t-4 -0.5q-15 7 -37 7q-84 0 -84 -139v-31h198v28q0 113 43 163.5t111 50.5q25 0 36 -5q5 -2 5 -7v-58q0 -3 -1 -5t-4 -1q-14 4 -29 4
q-75 0 -75 -141v-29h93q5 0 5 -5v-54q0 -7 -6 -7l-92 -1v-408q0 -7 -6 -7h-73q-7 0 -7 7v408h-198v-408q0 -7 -6 -7zM636 98v610q0 7 7 7h72q7 0 7 -7v-607q0 -26 8.5 -35t25.5 -9q7 0 25 2q2 1 3 -0.5t1 -4.5v-47q0 -7 -5 -9q-20 -8 -53 -8q-42 0 -66.5 23.5t-24.5 84.5z
" />
    <glyph glyph-name="longs_t" unicode="&#x17f;t" horiz-adv-x="569" 
d="M166 527v-520q0 -7 -6 -7h-73q-7 0 -7 7v408l-64 1q-5 0 -5 6v54q0 6 5 6h64v45q0 96 42.5 146.5t109.5 50.5q33 0 51 -9q5 -3 5 -8v-59q0 -6 -7 -5q-16 8 -40 8q-34 0 -54.5 -26t-20.5 -98zM548 63v-47q0 -8 -5 -10q-32 -16 -80 -16q-118 0 -118 131v294l-66 1
q-6 1 -6 8v51q0 7 7 7h66q0 78 9 130q1 6 7 7l69 15q7 2 7 -4q-6 -52 -6 -148h108q6 0 6 -7v-52q0 -5 -6 -7l-109 -1v-285q0 -36 14 -54t47 -18q25 0 50 10q6 2 6 -5z" />
    <glyph glyph-name="T_h" unicode="Th" horiz-adv-x="1015" 
d="M305 0h-72q-7 0 -7 8v579h-215q-7 0 -6 7l10 56q3 7 8 7h521v50q0 8 7 8h71q8 0 8 -8v-270q74 54 155 54q65 0 111.5 -45t46.5 -148v-291q0 -7 -7 -7h-72q-7 0 -7 7v290q0 58 -25.5 90t-75.5 32q-67 0 -126 -52v-359q0 -8 -9 -8h-70q-7 0 -7 8v579h-232v-579q0 -8 -7 -8z
" />
    <glyph glyph-name="Tcaron_h" unicode="&#x164;h" horiz-adv-x="1015" 
d="M305 0h-72q-7 0 -7 8v579h-215q-7 0 -6 7l10 56q3 7 8 7h521v50q0 8 7 8h71q8 0 8 -8v-270q74 54 155 54q65 0 111.5 -45t46.5 -148v-291q0 -7 -7 -7h-72q-7 0 -7 7v290q0 58 -25.5 90t-75.5 32q-67 0 -126 -52v-359q0 -8 -9 -8h-70q-7 0 -7 8v579h-232v-579q0 -8 -7 -8z
M194 823l74 -75l71 74q5 5 9 5h66q2 0 3 -2.5t-1 -4.5l-108 -112q-4 -3 -8 -3h-68q-7 0 -10 4l-112 113q-3 5 3 5h71q6 0 10 -4z" />
    <glyph glyph-name="uni021A_h" unicode="&#x21a;h" horiz-adv-x="1015" 
d="M305 0h-72q-7 0 -7 8v579h-215q-7 0 -6 7l10 56q3 7 8 7h521v50q0 8 7 8h71q8 0 8 -8v-270q74 54 155 54q65 0 111.5 -45t46.5 -148v-291q0 -7 -7 -7h-72q-7 0 -7 7v290q0 58 -25.5 90t-75.5 32q-67 0 -126 -52v-359q0 -8 -9 -8h-70q-7 0 -7 8v579h-232v-579q0 -8 -7 -8z
M270 -224h-65q-7 0 -3 6q37 62 37 115q0 25 -14 59q-2 6 4 6h71q5 0 8 -5q13 -22 13 -54q0 -66 -43 -125q-2 -2 -8 -2z" />
    <glyph glyph-name="f_b" unicode="fb" horiz-adv-x="837" 
d="M80 415l-64 1q-5 1 -5 7v53q0 6 5 6h65v40q0 99 42.5 150.5t107.5 51.5q36 0 52 -8q5 -2 5 -8v-59q0 -6 -7 -5q-17 7 -38 7q-32 0 -54.5 -29t-22.5 -99v-41h94q6 0 6 -6v-53q0 -7 -6 -7l-94 -1v-408q0 -7 -6 -7h-73q-7 0 -7 7v408zM367 715h73q7 0 7 -6v-246
q61 28 125 28q99 0 157 -63.5t58 -163.5q0 -124 -82 -198.5t-196 -74.5q-78 0 -142 21q-6 2 -6 9v688q0 6 6 6zM700 255q0 76 -39.5 121t-108.5 45q-61 0 -105 -25v-329q28 -8 72 -8q72 0 126.5 52t54.5 144z" />
    <glyph glyph-name="f_h" unicode="fh" horiz-adv-x="823" 
d="M80 415l-64 1q-5 1 -5 7v53q0 6 5 6h65v40q0 99 42.5 150.5t107.5 51.5q36 0 52 -8q5 -2 5 -8v-58q0 -8 -7 -5q-15 6 -38 6q-32 0 -54.5 -29t-22.5 -99v-41h94q6 0 6 -6v-53q0 -7 -6 -7l-94 -1v-408q0 -7 -6 -7h-73q-7 0 -7 7v408zM352 7v701q0 7 6 7h74q6 0 6 -6v-272
q69 54 149 54q30 0 56.5 -9t52 -29.5t40 -61t14.5 -96.5v-288q0 -7 -6 -7h-73q-7 0 -7 7v290q0 59 -26 90.5t-76 31.5q-67 0 -124 -51v-362q0 -6 -7 -6h-73q-6 0 -6 7z" />
    <glyph glyph-name="f_i" unicode="fi" horiz-adv-x="508" 
d="M160 0h-73q-7 0 -7 7v409l-64 1q-5 0 -5 6v53q0 6 5 6h65q6 126 65.5 184t151.5 58q74 0 106 -21q5 -4 5 -9v-62q0 -3 -2 -5t-5 0q-48 26 -104 26q-128 0 -131 -171h261q7 0 7 -7v-468q0 -7 -7 -7h-71q-8 0 -8 8v407h-183v-408q0 -7 -6 -7z" />
    <glyph glyph-name="f_j" unicode="fj" horiz-adv-x="509" 
d="M351 -34v449h-185v-408q0 -7 -6 -7h-73q-7 0 -7 7v409l-64 1q-5 0 -5 6v53q0 6 5 6h65q6 126 65.5 184t150.5 58q69 0 108 -21q4 -3 4 -9v-62q0 -8 -6 -5q-48 27 -106 27q-124 0 -130 -172h263q7 0 7 -7v-464q0 -91 -11 -135.5t-33 -71.5q-38 -43 -103 -43q-20 0 -32 3
q-6 2 -6 8l1 53q0 7 6 7q51 -2 71.5 25.5t20.5 108.5z" />
    <glyph glyph-name="f_k" unicode="fk" horiz-adv-x="778" 
d="M80 415l-64 1q-5 1 -5 7v53q0 6 5 6h65v40q0 99 42.5 150.5t107.5 51.5q36 0 52 -8q5 -2 5 -8v-58q0 -8 -7 -5q-15 6 -38 6q-32 0 -54.5 -29t-22.5 -99v-41h94q6 0 6 -6v-53q0 -7 -6 -7l-94 -1v-408q0 -7 -6 -7h-73q-7 0 -7 7v408zM352 709q0 6 6 6h73q7 0 7 -7v-427h41
q14 0 20 8l43 55l60 77.5l42 55.5q4 5 9 5h77q8 0 4 -8q-14 -20 -176 -217q-4 -2 0 -8l218 -242q2 -2 0.5 -4.5t-4.5 -2.5h-95q-7 0 -10 5l-172 198q-8 9 -19 9h-38v-205q0 -7 -7 -7h-72q-7 0 -7 7v702z" />
    <glyph glyph-name="f_l" unicode="fl" horiz-adv-x="527" 
d="M80 415l-64 1q-5 1 -5 7v53q0 6 5 6h65v40q0 99 42.5 150.5t107.5 51.5q36 0 52 -8q5 -2 5 -8v-58q0 -8 -7 -5q-15 6 -38 6q-77 0 -77 -127v-42h94q6 0 6 -6v-53q0 -7 -6 -7l-94 -1v-408q0 -7 -6 -7h-73q-7 0 -7 7v408zM352 98v610q0 7 7 7h72q7 0 7 -7v-607
q0 -26 8.5 -35t25.5 -9q7 0 25 2q2 1 3 -0.5t1 -4.5v-47q0 -7 -5 -9q-20 -8 -53 -8q-42 0 -66.5 23.5t-24.5 84.5z" />
    <glyph glyph-name="f_t" unicode="ft" horiz-adv-x="581" 
d="M358 121v294h-192v-408q0 -7 -6 -7h-73q-7 0 -7 7v408l-63 2q-6 0 -6 6v53q0 6 6 6h64v31q0 104 44.5 157.5t118.5 53.5q41 0 59 -11q4 -1 4 -7v-60q0 -6 -5 -4q-29 9 -47 9q-89 0 -89 -138v-31h192q6 110 10 130q1 5 6 7l70 15q6 2 6 -4q-6 -70 -6 -148h109q5 0 5 -6
v-55q0 -5 -5 -5l-109 -2v-280q0 -37 14.5 -54.5t47.5 -17.5q26 0 49 8q5 0 5 -5v-49q0 -8 -6 -10q-32 -16 -79 -16q-117 0 -117 131z" />
    <glyph glyph-name="f_f_b" unicode="ffb" horiz-adv-x="1128" 
d="M166 482h198v25q0 113 43.5 165t110.5 52q25 0 36 -5q5 -2 5 -7v-59q0 -3 -1 -4.5t-4 -0.5q-11 3 -29 3q-75 0 -75 -141v-28h93q5 0 5 -5v-54q0 -7 -6 -7l-92 -1v-408q0 -7 -6 -7h-73q-7 0 -7 7v408h-198v-408q0 -7 -6 -7h-73q-7 0 -7 7v409l-65 1q-4 0 -4 5v54q0 6 5 6
h64v29q0 104 45.5 158.5t114.5 54.5q32 0 48 -8q4 -2 4 -8v-58q0 -3 -1 -4.5t-4 -0.5q-19 7 -37 7q-84 0 -84 -140v-30zM658 715h73q7 0 7 -6v-246q59 28 125 28q99 0 157 -63.5t58 -163.5q0 -124 -82 -198.5t-197 -74.5q-76 0 -142 21q-5 1 -5 9v688q0 6 6 6zM990 255
q0 76 -39.5 121t-108.5 45q-60 0 -104 -25v-329q28 -8 71 -8q73 0 127 51.5t54 144.5z" />
    <glyph glyph-name="f_f_h" unicode="ffh" horiz-adv-x="1112" 
d="M166 482h198v27q0 113 43 164t111 51q25 0 36 -5q5 -2 5 -7v-58q0 -3 -1 -5t-4 -1q-14 4 -29 4q-75 0 -75 -141v-29h93q5 0 5 -5v-54q0 -7 -6 -7l-92 -1v-408q0 -7 -6 -7h-73q-7 0 -7 7v408h-198v-408q0 -7 -6 -7h-73q-7 0 -7 7v409l-65 1q-4 0 -4 5v54q0 6 5 6h64v29
q0 104 45.5 158.5t114.5 54.5q32 0 48 -8q4 -2 4 -8v-58q0 -3 -1 -4.5t-4 -0.5q-15 7 -37 7q-84 0 -84 -139v-31zM642 7v701q0 7 6 7h74q6 0 6 -6v-272q67 54 149 54q30 0 56.5 -9t52 -29.5t40 -61t14.5 -96.5v-288q0 -7 -7 -7h-72q-7 0 -7 7v290q0 59 -26 90.5t-76 31.5
q-67 0 -124 -51v-362q0 -6 -7 -6h-73q-6 0 -6 7z" />
    <glyph glyph-name="f_f_j" unicode="ffj" horiz-adv-x="785" 
d="M166 482h198v25q0 113 43.5 165t110.5 52q25 0 36 -5q5 -2 5 -7v-59q0 -3 -1 -4.5t-4 -0.5q-14 4 -29 4q-75 0 -75 -144v-26h93q5 0 5 -5v-54q0 -7 -6 -7l-92 -1v-408q0 -7 -6 -7h-73q-7 0 -7 7v408h-198v-408q0 -7 -6 -7h-73q-7 0 -7 7v409l-65 1q-4 0 -4 5v54q0 6 5 6
h64v29q0 104 45.5 158.5t114.5 54.5q32 0 48 -8q4 -2 4 -8v-58q0 -3 -1 -4.5t-4 -0.5q-15 7 -37 7q-84 0 -84 -142v-28zM627 -33v508q0 7 7 7h72q7 0 7 -6v-465q0 -91 -11 -135.5t-33 -71.5q-38 -43 -103 -43q-20 0 -32 3q-6 1 -6 8v53q0 7 7 7q51 -2 71.5 26t20.5 109z
M671 569q-22 0 -36 13t-14 34q0 22 14 35t36 13q23 0 36.5 -13.5t13.5 -34.5q0 -20 -14 -33.5t-36 -13.5z" />
    <glyph glyph-name="f_f_k" unicode="ffk" horiz-adv-x="1057" 
d="M166 482h198v26q0 113 43.5 164.5t110.5 51.5q25 0 36 -5q5 -2 5 -7v-58q0 -3 -1 -5t-4 -1q-14 4 -29 4q-75 0 -75 -141v-29h93q5 0 5 -5v-54q0 -7 -6 -7l-92 -1v-408q0 -7 -6 -7h-73q-7 0 -7 7v408h-198v-408q0 -7 -6 -7h-73q-7 0 -7 7v409l-65 1q-4 0 -4 5v54q0 6 5 6
h64v29q0 104 45.5 158.5t114.5 54.5q32 0 48 -8q4 -2 4 -8v-58q0 -3 -1 -4.5t-4 -0.5q-15 7 -37 7q-84 0 -84 -139v-31zM630 709q0 6 7 6h73q6 0 6 -7v-427h42q14 0 19 8l67 85.5t79 102.5q3 5 9 5h77q9 0 3 -8q-12 -18 -47.5 -61.5l-77 -93.5t-50.5 -62q-5 -3 0 -8
l217 -242q5 -7 -4 -7h-94q-7 0 -11 5l-171 198q-8 9 -20 9h-38v-205q0 -7 -6 -7h-73q-7 0 -7 7v702z" />
    <glyph glyph-name="f_f_t" unicode="fft" horiz-adv-x="855" 
d="M522 724q43 0 60 -10q4 -3 4 -7v-59q0 -3 -1.5 -5t-3.5 -1q-20 10 -49 10q-88 0 -88 -143v-27h188q2 94 10 131q0 5 6 6l69 15q7 1 7 -4q-6 -70 -6 -148h110q6 0 6 -7v-52q0 -7 -7 -7l-110 -2v-283q0 -38 14.5 -55.5t48.5 -17.5q18 0 48 9q6 2 6 -5v-46q0 -7 -6 -10
q-30 -16 -80 -16q-117 0 -117 131v294h-187l-1 -408q0 -7 -7 -7h-72q-7 0 -7 7v408h-191v-408q0 -7 -6 -7h-73q-7 0 -7 7v409l-65 1q-4 0 -4 5v54q0 6 5 6h64v29q0 104 45.5 158.5t114.5 54.5q32 0 48 -8q4 -2 4 -8v-58q0 -3 -1 -4.5t-4 -0.5q-15 7 -37 7q-84 0 -84 -139
v-31h191v25q0 107 45.5 162t119.5 55z" />
    <glyph glyph-name="longs_b" unicode="&#x17f;b" horiz-adv-x="832" 
d="M166 527v-520q0 -7 -6 -7h-73q-7 0 -7 7v408l-64 1q-5 0 -5 6v54q0 6 5 6h64v45q0 96 42.5 146.5t109.5 50.5q33 0 51 -9q5 -3 5 -8v-59q0 -6 -7 -5q-16 8 -40 8q-34 0 -54.5 -26t-20.5 -98zM362 715h73q6 0 6 -6v-246q61 28 126 28q99 0 157 -63.5t58 -163.5
q0 -124 -82 -198.5t-197 -74.5q-76 0 -142 21q-5 1 -5 9v688q0 6 6 6zM694 255q0 76 -39.5 121t-108.5 45q-61 0 -105 -25v-329q29 -8 72 -8q73 0 127 51.5t54 144.5z" />
    <glyph glyph-name="longs_h" unicode="&#x17f;h" horiz-adv-x="814" 
d="M166 527v-520q0 -7 -6 -7h-73q-7 0 -7 7v408l-64 1q-5 0 -5 6v54q0 6 5 6h64v45q0 96 42.5 146.5t109.5 50.5q33 0 51 -9q5 -3 5 -8v-59q0 -6 -7 -5q-16 8 -40 8q-34 0 -54.5 -26t-20.5 -98zM343 7v701q0 7 6 7h74q6 0 6 -6v-272q69 54 150 54q30 0 56.5 -9t51.5 -29.5
t39.5 -61t14.5 -96.5v-288q0 -7 -6 -7h-73q-7 0 -7 7v290q0 59 -26 90.5t-76 31.5q-67 0 -124 -51v-362q0 -6 -7 -6h-73q-6 0 -6 7z" />
    <glyph glyph-name="longs_i" unicode="&#x17f;i" horiz-adv-x="491" 
d="M166 527v-520q0 -7 -6 -7h-73q-7 0 -7 7v408l-64 1q-5 0 -5 6v54q0 6 5 6h64v45q0 96 42.5 146.5t109.5 50.5q33 0 51 -9q5 -3 5 -8v-59q0 -6 -7 -5q-16 8 -40 8q-34 0 -54.5 -26t-20.5 -98zM375 569q-22 0 -35.5 13t-13.5 34q0 22 14 35t36 13q23 0 36 -13.5t13 -34.5
t-13.5 -34t-36.5 -13zM333 8v467q0 7 6 7h73q6 0 6 -6v-469q0 -7 -6 -7h-72q-7 0 -7 8z" />
    <glyph glyph-name="longs_k" unicode="&#x17f;k" horiz-adv-x="772" 
d="M166 527v-520q0 -7 -6 -7h-73q-7 0 -7 7v408l-64 1q-5 0 -5 6v54q0 6 5 6h64v45q0 96 42.5 146.5t109.5 50.5q33 0 51 -9q5 -3 5 -8v-59q0 -6 -7 -5q-16 8 -40 8q-34 0 -54.5 -26t-20.5 -98zM345 709q0 6 7 6h72q7 0 7 -7v-427h41q14 0 20 8l43 55l60 77.5l42 55.5
q4 5 9 5h78q9 0 3 -8q-14 -20 -176 -217q-4 -2 0 -8l218 -242q2 -2 0.5 -4.5t-4.5 -2.5h-95q-8 0 -10 5l-171 198q-9 9 -20 9h-38v-205q0 -7 -7 -7h-72q-7 0 -7 7v702z" />
    <glyph glyph-name="longs_l" unicode="&#x17f;l" horiz-adv-x="520" 
d="M166 527v-520q0 -7 -6 -7h-73q-7 0 -7 7v408l-64 1q-5 0 -5 6v54q0 6 5 6h64v45q0 96 42.5 146.5t109.5 50.5q33 0 51 -9q5 -3 5 -8v-59q0 -6 -7 -5q-16 8 -40 8q-34 0 -54.5 -26t-20.5 -98zM345 98v610q0 7 7 7h72q7 0 7 -7v-607q0 -26 8.5 -35t25.5 -9q7 0 25 2
q2 1 3 -0.5t1 -4.5v-47q0 -7 -5 -9q-20 -8 -53 -8q-42 0 -66.5 23.5t-24.5 84.5z" />
    <glyph glyph-name="longs_longs_b" unicode="&#x17f;&#x17f;b" horiz-adv-x="1104" 
d="M444 524v-517q0 -7 -7 -7h-72q-7 0 -7 7v405l-64 2q-6 0 -6 6v56q0 6 6 6h64v45q0 96 42 146.5t109 50.5q33 0 51 -9q5 -2 5 -8v-62q0 -7 -6 -5q-18 8 -41 8q-33 0 -53.5 -26t-20.5 -98zM166 524v-517q0 -7 -6 -7h-73q-7 0 -7 7v405l-64 2q-5 0 -5 6v56q0 6 5 6h64v45
q0 96 42.5 146.5t109.5 50.5q33 0 51 -9q5 -3 5 -8v-62q0 -6 -7 -5q-16 8 -40 8q-34 0 -54.5 -26t-20.5 -98zM634 715h74q6 0 6 -6v-246q61 28 125 28q99 0 157 -63.5t58 -163.5q0 -125 -82 -199t-196 -74q-78 0 -142 21q-6 2 -6 9v688q0 6 6 6zM967 255q0 76 -39.5 121
t-108.5 45q-61 0 -105 -25v-329q28 -8 72 -8q73 0 127 51.5t54 144.5z" />
    <glyph glyph-name="longs_longs_i" unicode="&#x17f;&#x17f;i" horiz-adv-x="776" 
d="M444 527v-520q0 -7 -7 -7h-72q-7 0 -7 7v408l-64 1q-6 0 -6 6v54q0 6 6 6h64v45q0 96 42 146.5t109 50.5q33 0 51 -9q5 -2 5 -8v-59q0 -6 -6 -5q-18 8 -41 8q-33 0 -53.5 -26t-20.5 -98zM166 527v-520q0 -7 -6 -7h-73q-7 0 -7 7v408l-64 1q-5 0 -5 6v54q0 6 5 6h64v45
q0 96 42.5 146.5t109.5 50.5q33 0 51 -9q5 -3 5 -8v-59q0 -6 -7 -5q-16 8 -40 8q-34 0 -54.5 -26t-20.5 -98zM661 569q-22 0 -36 13t-14 34q0 22 14 35t36 13q23 0 36.5 -13.5t13.5 -34.5q0 -20 -14 -33.5t-36 -13.5zM618 8v467q0 7 6 7h73q7 0 7 -6v-469q0 -7 -7 -7h-71
q-8 0 -8 8z" />
    <glyph glyph-name="longs_longs_l" unicode="&#x17f;&#x17f;l" horiz-adv-x="797" 
d="M444 527v-520q0 -7 -7 -7h-72q-7 0 -7 7v408l-64 1q-6 0 -6 6v54q0 6 6 6h64v45q0 96 42 146.5t109 50.5q33 0 51 -9q5 -2 5 -8v-59q0 -6 -6 -5q-18 8 -41 8q-33 0 -53.5 -26t-20.5 -98zM166 527v-520q0 -7 -6 -7h-73q-7 0 -7 7v408l-64 1q-5 0 -5 6v54q0 6 5 6h64v45
q0 96 42.5 146.5t109.5 50.5q33 0 51 -9q5 -3 5 -8v-59q0 -6 -7 -5q-16 8 -40 8q-34 0 -54.5 -26t-20.5 -98zM622 98v610q0 7 7 7h72q7 0 7 -7v-607q0 -26 8.5 -35t25.5 -9q7 0 25 2q2 1 3 -0.5t1 -4.5v-47q0 -7 -5 -9q-18 -8 -53 -8q-42 0 -66.5 23.5t-24.5 84.5z" />
    <glyph glyph-name="t_t" unicode="tt" horiz-adv-x="604" 
d="M466 413v-279q0 -36 14 -54t47 -18q27 0 51 9q2 1 3.5 -0.5t1.5 -4.5v-50q0 -7 -6 -10q-30 -16 -80 -16q-117 0 -117 131v293h-214v-280q0 -72 60 -72q27 0 51 9q2 1 3.5 -0.5t1.5 -4.5v-51q0 -7 -6 -10q-30 -15 -79 -15q-117 0 -117 131v293l-66 1q-6 0 -6 7v54q0 6 6 6
h67q3 100 9 129q2 7 7 7l67 15q8 1 8 -5q-5 -58 -5 -146h214q0 78 9 130q1 6 7 7l69 15q7 2 7 -4q-7 -61 -7 -148h109q6 0 6 -6v-55q0 -6 -6 -6z" />
    <glyph glyph-name=".notdef" horiz-adv-x="500" 
d="M0 0v700h500v-700h-500zM80 50h340l-170 255zM279 350l171 -255v510zM50 605v-510l170 255zM80 650l170 -255l170 255h-340z" />
    <glyph glyph-name=".null" horiz-adv-x="0" 
 />
    <glyph glyph-name="nonmarkingreturn" horiz-adv-x="333" 
 />
    <glyph glyph-name="space" unicode=" " horiz-adv-x="233" 
 />
    <glyph glyph-name="exclam" unicode="!" horiz-adv-x="281" 
d="M168 667q26 0 42 -6q5 -4 5 -9v-75q0 -58 -5.5 -200t-8.5 -168q0 -5 -6 -5h-56q-5 0 -5 5q-2 30 -7.5 170t-5.5 195v76q0 5 4 8q16 9 43 9zM167 -8q-23 0 -38 14.5t-15 36.5t15 36.5t38 14.5q24 0 39 -14t15 -37t-15 -37t-39 -14z" />
    <glyph glyph-name="quotedbl" unicode="&#x22;" horiz-adv-x="349" 
d="M57 474v241q-1 6 6 6h69q8 0 6 -6l-12 -241q0 -6 -6 -6h-56q-7 0 -7 6zM215 474l-1 240q0 7 7 7h69q6 0 6 -7l-13 -241q0 -5 -6 -5h-56q-6 0 -6 6z" />
    <glyph glyph-name="numbersign" unicode="#" horiz-adv-x="530" 
d="M122 42h-47q-5 0 -4 7l47 167h-76q-6 0 -6 6v52q0 5 5 5h94l34 123h-79q-4 0 -4 5v54q0 4 5 4h96l42 151q3 5 7 5h47q5 0 3 -6l-41 -150h109l42 151q1 5 5 5h48q5 0 4 -6l-42 -150h75q5 0 5 -5v-53q0 -5 -5 -5h-92l-33 -123h73q5 0 5 -5v-53q0 -5 -5 -5h-90l-46 -168
q-3 -6 -7 -6h-47q-7 0 -4 7l46 167h-110l-48 -169q-2 -5 -6 -5zM226 402l-33 -123h110l34 123h-111z" />
    <glyph glyph-name="dollar" unicode="$" horiz-adv-x="530" 
d="M304 23v-81q0 -6 -6 -6h-60q-5 0 -5 6v77q-101 5 -169 53q-6 4 -6 12v67q0 3 2.5 4.5t4.5 -0.5q87 -65 192 -65q64 0 96 24.5t32 64.5t-30 66.5t-112 57.5q-104 39 -143 81t-39 106q0 63 47 109t126 56v77q0 6 5 6h61q5 0 5 -6v-76q88 -5 136 -40q4 -3 4 -8v-66
q0 -2 -2.5 -3.5t-4.5 0.5q-74 50 -166 50q-67 0 -97 -28t-30 -64t30 -62t110 -56q113 -42 150.5 -86.5t37.5 -105.5q0 -70 -48.5 -113t-120.5 -51z" />
    <glyph glyph-name="percent" unicode="%" horiz-adv-x="808" 
d="M654 651l-431 -647q-3 -4 -7 -4h-60q-7 0 -2 7l433 646q3 4 7 4h58q4 -1 2 -6zM202 667q75 0 114.5 -50t39.5 -130q0 -73 -40 -127.5t-115 -54.5q-76 0 -115.5 51t-39.5 128q0 82 45 132.5t111 50.5zM114 487q0 -56 23.5 -91.5t66.5 -35.5q39 0 62 33.5t23 92.5
q0 60 -22.5 94t-64.5 34q-39 0 -63.5 -33.5t-24.5 -93.5zM607 352q75 0 114.5 -49.5t39.5 -130.5q0 -73 -39.5 -127.5t-114.5 -54.5q-76 0 -115.5 51.5t-39.5 128.5q0 82 44.5 132t110.5 50zM519 172q0 -53 23.5 -90t66.5 -37q40 0 62.5 34t22.5 93q0 57 -22.5 92t-63.5 35
q-39 0 -64 -34.5t-25 -92.5z" />
    <glyph glyph-name="ampersand" unicode="&#x26;" horiz-adv-x="694" 
d="M607 304h-230q64 -45 131 -150q34 -52 61 -73t56 -21q11 0 28 3q5 0 5 -6v-49q0 -8 -6 -10q-16 -8 -49 -8q-48 0 -86 26t-88 106q-42 71 -99 126t-75 55q-39 0 -74 -32t-35 -83t38 -89.5t103 -38.5q57 0 101 22q6 1 6 -5v-56q0 -6 -6 -9q-44 -22 -118 -22
q-92 0 -152 51.5t-60 138.5q0 64 40.5 110.5t104.5 64.5q-75 60 -75 136q0 71 53 114t130 43q73 0 112 -25q4 -3 4 -10v-57q0 -9 -7 -4q-49 28 -104 28q-46 0 -73.5 -24.5t-27.5 -66.5q0 -63 92 -117h313q7 0 5 -7l-10 -55q-2 -6 -8 -6z" />
    <glyph glyph-name="quotesingle" unicode="'" horiz-adv-x="198" 
d="M59 473v242q0 6 6 6h71q5 0 5 -5l-14 -243q0 -5 -6 -5h-56q-6 0 -6 5z" />
    <glyph glyph-name="parenleft" unicode="(" horiz-adv-x="331" 
d="M50 291q0 258 163 459q5 5 10 5h66q9 0 4 -7q-164 -212 -164 -451q0 -270 160 -460q6 -8 -3 -8h-67q-6 0 -11 5q-67 75 -112.5 192.5t-45.5 264.5z" />
    <glyph glyph-name="parenright" unicode=")" horiz-adv-x="332" 
d="M278 294q0 -261 -160 -459q-6 -6 -12 -6h-66q-11 0 -4 7q165 211 165 452q0 270 -161 460q-2 2 -1.5 4.5t4.5 2.5h68q6 0 11 -6q67 -75 111.5 -190.5t44.5 -264.5z" />
    <glyph glyph-name="asterisk" unicode="*" horiz-adv-x="325" 
d="M196 489l82 -112q3 -3 -1 -7l-40 -26q-6 -3 -7 3l-71 120l-92 -99q-3 -3 -6 0l-31 33q-3 2 0 7l100 88l-112 47q-6 0 -2 6l22 44q2 5 6 2l103 -62l10 129q0 5 5 5l53 -7q5 0 4 -5l-29 -128l117 32q5 0 6 -3l9 -48q0 -6 -4 -6z" />
    <glyph glyph-name="plus" unicode="+" horiz-adv-x="558" 
d="M251 515h56q6 0 6 -6v-217h209q5 0 5 -6v-51q0 -6 -6 -6h-208v-220q0 -5 -6 -5h-56q-5 0 -5 5v220h-209q-7 0 -7 6v52q0 5 7 5h209v218q0 5 5 5z" />
    <glyph glyph-name="comma" unicode="," horiz-adv-x="202" 
d="M71 -146h-60q-9 0 -5 7q70 122 61 256q0 5 5 5h68q6 0 7 -7q10 -152 -67 -256q-5 -5 -9 -5z" />
    <glyph glyph-name="hyphen" unicode="-" horiz-adv-x="346" 
d="M285 213h-224q-6 0 -6 5v62q0 5 6 5h224q6 0 6 -5v-62q0 -5 -6 -5z" />
    <glyph glyph-name="period" unicode="." horiz-adv-x="198" 
d="M99 -10q-24 0 -39 15t-15 40q0 23 15 38.5t39 15.5t39 -15.5t15 -38.5q0 -25 -14.5 -40t-39.5 -15z" />
    <glyph glyph-name="slash" unicode="/" horiz-adv-x="355" 
d="M314 698l-204 -735q-1 -4 -5 -4h-60q-5 0 -4 5l203 735q1 4 6 4h60q6 0 4 -5z" />
    <glyph glyph-name="zero" unicode="0" horiz-adv-x="530" 
d="M265 601q-60 0 -98.5 -70.5t-38.5 -200.5q0 -122 36 -197t105 -75q132 0 132 270q0 273 -136 273zM268 -10q-113 0 -170 95t-57 245q0 145 59 241t166 96q52 0 92.5 -21.5t64 -55t39 -79.5t21 -89.5t5.5 -91.5q0 -67 -11 -124.5t-34.5 -107.5t-68.5 -79t-106 -29z" />
    <glyph glyph-name="one" unicode="1" horiz-adv-x="530" 
d="M236 70v505q-59 -24 -118 -40q-7 -1 -7 6v53q0 6 5 7q85 25 140 52q7 4 14 4h47q5 0 5 -5v-582h126q6 0 8 -6v-56q2 -8 -6 -8h-347q-6 0 -5 7v57q2 6 8 6h130z" />
    <glyph glyph-name="two" unicode="2" horiz-adv-x="530" 
d="M468 0h-414q-6 0 -6 7v41q0 6 4 10q104 93 203 198q61 65 85.5 108.5t24.5 97.5q0 58 -37.5 95t-102.5 37q-77 0 -161 -51q-7 -5 -7 4v59q0 5 4 9q81 52 182 52q98 0 152 -56.5t54 -139.5q0 -60 -23.5 -110t-77.5 -109q-67 -75 -178 -183q55 2 182 2h134q7 0 6 -6
l-16 -59q-1 -6 -8 -6z" />
    <glyph glyph-name="three" unicode="3" horiz-adv-x="530" 
d="M229 304h-65q-7 0 -7 6v57q0 7 6 7h63q66 0 99.5 30t33.5 80q0 49 -34 80.5t-99 31.5q-77 0 -153 -47q-8 -3 -8 4v57q0 5 5 9q80 48 173 48t146.5 -47.5t53.5 -121.5q0 -59 -29.5 -96t-73.5 -53v-1q54 -14 93 -55t39 -106q0 -92 -66.5 -144t-169.5 -52q-105 0 -175 44
q-5 4 -5 10v64q0 9 7 5q81 -51 170 -51q78 0 114.5 36t36.5 88q0 56 -42.5 86.5t-112.5 30.5z" />
    <glyph glyph-name="four" unicode="4" horiz-adv-x="530" 
d="M317 182h-280q-6 0 -6 6v39q0 5 3 11q92 142 287 414q6 6 11 6h61q7 0 7 -7v-404h105q6 0 4 -7l-10 -53q-1 -5 -7 -5h-92v-176q0 -6 -6 -6h-71q-6 0 -6 6v176zM317 247v128q0 123 3 177h-1q-15 -26 -103 -156.5t-99 -148.5h200z" />
    <glyph glyph-name="five" unicode="5" horiz-adv-x="530" 
d="M426 586h-210q-23 -76 -47 -184q148 -15 225.5 -63.5t77.5 -146.5q0 -92 -65 -147t-170 -55q-101 0 -171 45q-5 3 -5 10v65q0 8 7 4q80 -52 171 -52q71 0 108 36.5t37 88.5q0 70 -70 104t-218 45q-7 0 -7 6v31q1 9 20 77l37.5 134t18.5 67q3 6 8 6h273q6 0 5 -7l-17 -59
q-1 -5 -8 -5z" />
    <glyph glyph-name="six" unicode="6" horiz-adv-x="530" 
d="M268 352q-73 0 -131 -49q-6 -24 -6 -63q0 -89 39 -136t100 -47t98 41t37 108t-37.5 106.5t-99.5 39.5zM434 679v-63q0 -6 -5 -7q-77 -28 -136.5 -71t-90 -83t-48.5 -83q68 44 142 44q87 0 142 -58t55 -149t-60 -155t-164 -64t-165 68.5t-61 178.5q0 84 35 160.5t92 131.5
t123 94t135 60q6 2 6 -4z" />
    <glyph glyph-name="seven" unicode="7" horiz-adv-x="530" 
d="M58 657h416q6 0 6 -5v-42q0 -8 -3 -12l-265 -592q-3 -6 -9 -6h-79q-8 0 -5 7l269 580h-331q-6 0 -6 6l2 58q0 6 5 6z" />
    <glyph glyph-name="eight" unicode="8" horiz-adv-x="530" 
d="M263 603q-54 0 -86 -33.5t-32 -84.5q0 -76 58 -111q14 -9 29 -9h64q19 0 32 10q53 37 53 108q0 60 -34 90t-84 30zM268 56q58 0 91 35t33 83q0 82 -67 116q-12 7 -28 7h-65q-16 0 -24 -5q-30 -16 -50 -46t-20 -67q0 -56 37.5 -89.5t92.5 -33.5zM266 667q92 0 144 -52
t52 -126q0 -104 -89 -155q103 -47 103 -157q0 -85 -60.5 -136t-153.5 -51q-94 0 -151.5 52.5t-57.5 129.5q0 103 104 157q-94 50 -94 159q0 73 55.5 126t147.5 53z" />
    <glyph glyph-name="nine" unicode="9" horiz-adv-x="530" 
d="M118 -16v63q0 6 5 7q94 33 162 92.5t100 138.5q-60 -46 -140 -46q-92 0 -148.5 56t-56.5 152q0 92 63.5 156t163.5 64q99 0 161 -70.5t62 -191.5q0 -87 -33.5 -162.5t-88.5 -127.5t-117 -86.5t-126 -49.5q-7 -1 -7 5zM268 306q81 0 131 53q5 20 5 55q0 86 -37.5 137
t-102.5 51q-60 0 -98.5 -43t-38.5 -107q0 -72 40.5 -109t100.5 -37z" />
    <glyph glyph-name="colon" unicode=":" horiz-adv-x="273" 
d="M137 -10q-24 0 -39 14.5t-15 38.5q0 23 15 38t39 15t39 -15t15 -38q0 -24 -14.5 -38.5t-39.5 -14.5zM137 340q-24 0 -39 14.5t-15 38.5q0 23 15 38t39 15t39 -15t15 -38q0 -24 -14.5 -38.5t-39.5 -14.5z" />
    <glyph glyph-name="semicolon" unicode=";" horiz-adv-x="273" 
d="M137 340q-24 0 -39 14.5t-15 38.5q0 23 15 38t39 15t39 -15t15 -38q0 -24 -14.5 -38.5t-39.5 -14.5zM104 -146h-60q-8 0 -5 7q69 119 61 255q0 6 5 6h68q6 0 7 -7q10 -152 -68 -256q-2 -5 -8 -5z" />
    <glyph glyph-name="less" unicode="&#x3c;" horiz-adv-x="558" 
d="M62 235v51q0 4 4 7l423 221q7 4 7 -3v-58q0 -5 -6 -7l-355 -185v-1l356 -185q5 -3 5 -8v-57q0 -6 -6 -4l-424 222q-4 3 -4 7z" />
    <glyph glyph-name="equal" unicode="=" horiz-adv-x="558" 
d="M32 382q0 5 7 5h480q6 0 6 -5v-52q0 -6 -8 -6h-478q-7 0 -7 6v52zM32 191q0 6 7 6h480q6 0 6 -7v-50q0 -7 -8 -7h-478q-7 0 -7 7v51z" />
    <glyph glyph-name="greater" unicode="&#x3e;" horiz-adv-x="558" 
d="M496 286v-49q0 -5 -4 -8l-426 -223q-2 -1 -3 -0.5t-1 4.5v56q0 7 4 8l356 185v2l-356 185q-4 3 -4 7v58q0 6 5 4l425 -222q4 -3 4 -7z" />
    <glyph glyph-name="question" unicode="?" horiz-adv-x="429" 
d="M202 667q82 0 132 -44t50 -117q0 -38 -23 -75.5t-50 -62t-50 -52.5t-23 -50q0 -29 22 -60q4 -6 -5 -6h-62q-6 0 -10 4q-26 30 -26 70q0 23 14.5 47t34.5 44l40.5 41t35 46.5t14.5 51.5q0 38 -30 65t-79 27q-61 0 -118 -26q-6 -4 -6 4v56q0 7 3 8q58 29 136 29zM218 -10
q-24 0 -38 14t-14 39q0 23 14.5 37t37.5 14t37.5 -14.5t14.5 -36.5q0 -24 -14 -38.5t-38 -14.5z" />
    <glyph glyph-name="at" unicode="@" horiz-adv-x="807" 
d="M445 67l66 324q-15 5 -40 5q-79 0 -126.5 -58t-47.5 -134q0 -131 134 -137h14zM448 620q132 0 224.5 -80.5t92.5 -223.5q0 -98 -47.5 -170.5t-119 -106t-154.5 -33.5q-98 0 -158.5 47t-60.5 147q0 107 76 179.5t185 72.5q64 0 97 -17q4 -1 4 -6l-73 -360q27 4 56 19
t59.5 42t50 75t19.5 109q0 120 -71.5 185.5t-187.5 65.5q-139 0 -233.5 -99.5t-94.5 -257.5q0 -101 46 -178.5t134 -122.5q5 -3 5 -9v-58q0 -6 -6 -4q-115 46 -182 144.5t-67 223.5q0 181 115 298.5t291 117.5z" />
    <glyph glyph-name="A" unicode="A" horiz-adv-x="639" 
d="M439 214h-246l-74 -208q-1 -6 -8 -6h-72q-8 0 -6 8l219 601q5 13 7 42q0 6 5 6h100q5 0 6 -5l235 -645q3 -7 -4 -7h-78q-5 0 -8 5zM213 285h205q-8 27 -50 145.5t-53 156.5h-1q-7 -27 -101 -302z" />
    <glyph glyph-name="B" unicode="B" horiz-adv-x="561" 
d="M78 7v642q0 7 5 8q66 2 175 2q230 0 230 -168q0 -55 -29.5 -92.5t-75.5 -52.5v-1q59 -15 96.5 -57t37.5 -104q0 -96 -73.5 -141.5t-199.5 -45.5q-76 0 -160 3q-6 2 -6 7zM163 306v-237q14 -2 86 -2q180 0 180 120q0 55 -40.5 87t-123.5 32h-102zM163 588v-212h102
q74 0 106.5 30t32.5 78q0 106 -148 106q-69 0 -93 -2z" />
    <glyph glyph-name="C" unicode="C" horiz-adv-x="593" 
d="M55 327q0 144 95 242t248 98q91 0 135 -22q5 -3 5 -9v-64q0 -9 -6 -5q-58 26 -133 26q-114 0 -185 -72.5t-71 -190.5q0 -74 24.5 -128.5t64 -82t79.5 -39.5t81 -12q86 0 148 30q7 4 7 -4v-62q0 -8 -6 -10q-57 -32 -164 -32q-61 0 -116 18.5t-102.5 57t-75.5 106
t-28 155.5z" />
    <glyph glyph-name="D" unicode="D" horiz-adv-x="660" 
d="M78 8v641q0 7 6 8q90 2 183 2q165 0 250.5 -87.5t85.5 -235.5q0 -83 -24.5 -146t-61.5 -98.5t-87.5 -58t-94 -29.5t-89.5 -7q-33 0 -162 3q-6 0 -6 8zM164 588v-520q30 -2 84 -2q127 0 197 66t70 202q0 126 -65.5 191t-183.5 65q-82 0 -102 -2z" />
    <glyph glyph-name="E" unicode="E" horiz-adv-x="513" 
d="M485 64l-11 -58q-1 -6 -8 -6h-380q-8 0 -8 8v642q0 7 7 7h366q6 0 8 -6l7 -57q2 -7 -5 -7h-297v-217h264q5 0 5 -6v-58q0 -6 -6 -6h-263v-230h316q6 0 5 -6z" />
    <glyph glyph-name="F" unicode="F" horiz-adv-x="488" 
d="M164 287v-280q0 -7 -7 -7h-73q-6 0 -6 7v643q0 7 7 7h365q7 0 8 -6l7 -57q1 -7 -6 -7h-295v-229h263q7 0 7 -6v-58q0 -7 -7 -7h-263z" />
    <glyph glyph-name="G" unicode="G" horiz-adv-x="666" 
d="M513 265l-134 2q-7 1 -7 7v56q0 6 6 6h214q7 0 7 -7v-284q0 -6 -6 -10q-95 -45 -207 -45q-162 0 -246.5 95t-84.5 238q0 156 95 250t248 94q115 0 178 -37q4 -4 4 -10v-65q0 -9 -6 -5q-76 42 -174 42q-121 0 -189 -71t-68 -195q0 -51 15 -97t44.5 -83.5t79 -60
t113.5 -22.5q70 0 118 23v179z" />
    <glyph glyph-name="H" unicode="H" horiz-adv-x="660" 
d="M575 0h-73q-7 0 -7 7v293h-331v-293q0 -7 -7 -7h-72q-7 0 -7 7v643q0 7 7 7h72q7 0 7 -6v-281h331v280q0 7 7 7h74q5 0 5 -7v-643q0 -7 -6 -7z" />
    <glyph glyph-name="I" unicode="I" horiz-adv-x="243" 
d="M164 651v-644q0 -7 -6 -7h-73q-7 0 -7 7v643q0 7 7 7h73q6 0 6 -6z" />
    <glyph glyph-name="J" unicode="J" horiz-adv-x="371" 
d="M206 153v498q0 6 7 6h74q5 0 5 -5v-504q0 -205 -179 -205q-66 0 -105 23q-5 3 -5 10v62q0 8 7 5q45 -24 96 -24q54 0 77 30t23 104z" />
    <glyph glyph-name="K" unicode="K" horiz-adv-x="604" 
d="M157 0h-71q-8 0 -8 8v643q0 6 7 6h73q6 0 6 -7v-282h68q8 0 16 9l209 274q4 6 10 6h80q11 0 4 -9q-147 -193 -242 -306q-3 -4 0 -7l278 -326q2 -3 1 -6t-5 -3h-87q-8 0 -13 6l-239 282q-7 9 -18 9h-62v-290q0 -7 -7 -7z" />
    <glyph glyph-name="L" unicode="L" horiz-adv-x="498" 
d="M457 0h-370q-9 0 -9 9v641q0 7 7 7h74q5 0 5 -6v-581h308q7 0 5 -7l-12 -57q-1 -6 -8 -6z" />
    <glyph glyph-name="M" unicode="M" horiz-adv-x="860" 
d="M137 651q0 6 6 6h113q5 0 8 -6q144 -439 167 -534h1q13 46 88 276l84 258q2 6 7 6h107q6 0 7 -5l72 -646q0 -6 -6 -6h-81q-6 0 -6 6q-47 480 -51 587h-1q-13 -50 -86.5 -282t-94.5 -305q-1 -6 -8 -6h-70q-7 0 -10 6q-148 474 -178 589h-1q-6 -121 -58 -589q-1 -6 -7 -6
h-70q-6 0 -6 6z" />
    <glyph glyph-name="N" unicode="N" horiz-adv-x="663" 
d="M78 651q0 6 6 6h98q6 0 10 -6q299 -516 312 -548h2q-3 39 -3 163v384q0 7 7 7h68q6 0 6 -7v-642q0 -8 -8 -8h-94q-6 0 -11 6q-23 46 -161 288t-154 278h-1q3 -32 5 -187v-378q0 -7 -6 -7h-68q-8 0 -8 7v644z" />
    <glyph glyph-name="O" unicode="O" horiz-adv-x="714" 
d="M357 667q134 0 217 -95t83 -240q1 -160 -83 -251t-216 -91q-139 0 -221 92t-82 248q0 153 85.5 245t216.5 92zM143 330q0 -117 57.5 -192t160.5 -75q96 0 152 72t56 195q0 118 -59 191.5t-155 73.5q-92 0 -152 -69.5t-60 -195.5z" />
    <glyph glyph-name="P" unicode="P" horiz-adv-x="549" 
d="M78 6v644q0 7 6 7q66 2 167 2q130 0 192 -59t62 -155q0 -112 -76.5 -168.5t-193.5 -56.5h-47l-24 1v-214q0 -7 -6 -7h-73q-7 0 -7 6zM164 588v-297q20 -2 73 -2q36 0 66.5 7.5t57.5 24t43 48t16 75.5q0 72 -45 109t-124 37q-69 0 -87 -2z" />
    <glyph glyph-name="Q" unicode="Q" horiz-adv-x="714" 
d="M355 595q-99 0 -155.5 -74t-56.5 -190q0 -122 60 -195t158 -73q92 -1 150 69t58 197q0 119 -59 192.5t-155 73.5zM358 667q134 0 216.5 -95t82.5 -238q0 -117 -42 -193t-104 -109q117 -94 213 -152q2 -2 2 -6.5t-2 -5.5l-94 -10q-6 -2 -10 2q-63 36 -192 141
q-23 -11 -68 -11q-140 0 -222.5 95t-82.5 242q0 156 85 248t218 92z" />
    <glyph glyph-name="R" unicode="R" horiz-adv-x="593" 
d="M157 0h-72q-7 0 -7 6v643q0 8 6 8q88 2 174 2q112 0 176.5 -46t64.5 -137q0 -135 -148 -178q7 -10 110 -140t117 -150q6 -8 -2 -8h-89q-9 0 -11 5q-31 38 -193 255q-11 17 -31 17h-89v-271q0 -6 -6 -6zM163 346h92q80 0 119 34.5t39 90.5q0 58 -41 88.5t-119 30.5h-47
t-31.5 -0.5t-11.5 -0.5v-243z" />
    <glyph glyph-name="S" unicode="S" horiz-adv-x="488" 
d="M229 -10q-117 0 -191 53q-5 5 -5 13v68q0 9 7 4q85 -65 193 -65q65 0 97 27.5t32 69.5q0 41 -29 68.5t-118 67.5q-99 43 -136.5 87t-37.5 109q0 76 59 125t156 49q95 0 156 -37q5 -4 5 -11v-64q0 -9 -8 -4q-75 46 -155 46q-72 0 -99.5 -31t-27.5 -66q0 -36 26.5 -64.5
t102.5 -61.5q114 -49 153.5 -94t39.5 -110q0 -80 -58 -129.5t-162 -49.5z" />
    <glyph glyph-name="T" unicode="T" horiz-adv-x="539" 
d="M222 7v580h-211q-7 0 -6 7l10 57q1 6 8 6h495q7 0 8 -7l7 -56q1 -7 -5 -7h-220v-579q0 -8 -7 -8h-71q-8 0 -8 7z" />
    <glyph glyph-name="U" unicode="U" horiz-adv-x="660" 
d="M164 651v-414q0 -82 44 -128t124 -46q163 0 163 180v407q0 7 6 7h73q7 0 7 -7v-411q0 -128 -69.5 -188.5t-181.5 -60.5q-115 0 -183.5 62t-68.5 183v415q0 7 7 7h73q6 0 6 -6z" />
    <glyph glyph-name="V" unicode="V" horiz-adv-x="637" 
d="M325 85h2q30 101 200 565q3 7 8 7h77q7 0 4 -8l-243 -643q-2 -6 -9 -6h-83q-7 0 -9 5l-250 644q-3 8 5 8h80q6 0 7 -5q192 -500 211 -567z" />
    <glyph glyph-name="W" unicode="W" horiz-adv-x="889" 
d="M503 650l135 -561h1q42 183 138 561q3 7 8 7h74q6 0 5 -8l-175 -643q-1 -6 -9 -6h-84q-7 0 -9 6l-138 568h-1q-15 -72 -150 -566q-2 -8 -9 -8h-82q-6 0 -9 7l-174 643q-1 7 5 7h78q7 0 8 -6q129 -494 140 -563h1q24 104 146 562q2 7 9 7h84q5 0 8 -7z" />
    <glyph glyph-name="X" unicode="X" horiz-adv-x="593" 
d="M555 648l-204 -311l219 -328q5 -9 -3 -9h-86q-7 0 -12 6l-180 275h-1l-171 -275q-4 -6 -10 -6h-82q-4 0 -4.5 3t1.5 5l212 324l-206 317q-4 8 4 8h85q8 0 10 -6l169 -269h1l167 269q3 6 10 6h78q8 0 3 -9z" />
    <glyph glyph-name="Y" unicode="Y" horiz-adv-x="580" 
d="M240 265l-220 384q-5 8 4 8h84q5 0 8 -5q164 -300 178 -333l174 333q3 5 8 5h81q7 0 3 -6l-221 -388q-7 -10 -7 -27v-229q0 -7 -7 -7h-71q-8 0 -8 7v233q0 13 -6 25z" />
    <glyph glyph-name="Z" unicode="Z" horiz-adv-x="541" 
d="M508 0h-485q-7 0 -7 6v39q0 6 4 10l373 532h-360q-7 0 -6 6l12 58q2 6 8 6h450q5 0 5 -6v-41q0 -5 -4 -12l-368 -528h394q6 0 5 -7l-13 -57q-2 -6 -8 -6z" />
    <glyph glyph-name="bracketleft" unicode="[" horiz-adv-x="303" 
d="M136 701v-816l132 -2q4 0 4 -5v-44q0 -5 -5 -5h-193q-7 0 -7 8v911q0 8 7 8h193q4 0 4 -5v-43q0 -5 -4 -5z" />
    <glyph glyph-name="backslash" unicode="\" horiz-adv-x="352" 
d="M239 -36l-198 733q-1 6 4 6h58q6 0 7 -5l200 -732q2 -7 -4 -7h-60q-6 0 -7 5z" />
    <glyph glyph-name="bracketright" unicode="]" horiz-adv-x="312" 
d="M177 -117v816l-133 3q-4 0 -4 5v43q0 6 5 6h194q6 0 6 -8v-911q0 -8 -7 -8h-193q-4 0 -4 5v43q0 5 4 5z" />
    <glyph glyph-name="asciicircum" unicode="^" horiz-adv-x="498" 
d="M459 240h-59q-6 0 -8 5l-144 315h-1l-137 -314q-3 -7 -8 -6h-57q-8 0 -5 6l167 371q4 4 6 4h69q5 0 6 -4l174 -370q4 -7 -3 -7z" />
    <glyph glyph-name="underscore" unicode="_" horiz-adv-x="519" 
d="M0 -74h519v-49h-519v49z" />
    <glyph glyph-name="grave" unicode="`" 
d="M170 696l84 -150q2 -6 -4 -6h-65q-5 0 -8 5l-99 149q-2 5 3 7h81q6 0 8 -5z" />
    <glyph glyph-name="a" unicode="a" horiz-adv-x="486" 
d="M330 70v174q-116 5 -163.5 -19.5t-47.5 -77.5q0 -39 30 -65t92 -26q53 0 89 14zM414 307v-218q0 -32 2 -49q0 -3 -2 -4q-89 -46 -189 -46q-84 0 -137.5 39t-53.5 116q0 171 296 159v20q0 14 -4 28t-14.5 30.5t-34 27t-56.5 10.5q-71 0 -135 -36q-7 -2 -7 5v57q0 6 5 8
q67 37 152 37q89 0 133.5 -50.5t44.5 -133.5z" />
    <glyph glyph-name="b" unicode="b" horiz-adv-x="548" 
d="M78 715h73q7 0 7 -6v-246q61 28 125 28q99 0 157 -63.5t58 -163.5q0 -124 -82 -198.5t-196 -74.5q-78 0 -142 21q-6 2 -6 9v688q0 6 6 6zM411 255q0 76 -39.5 121t-108.5 45q-61 0 -105 -25v-329q28 -8 72 -8q72 0 126.5 52t54.5 144z" />
    <glyph glyph-name="c" unicode="c" horiz-adv-x="442" 
d="M406 80v-58q0 -5 -4 -8q-47 -24 -120 -24q-116 0 -175.5 70.5t-59.5 178.5q0 110 69.5 181t182.5 71q66 0 104 -19q4 -3 4 -9v-58q0 -7 -7 -4q-45 21 -98 21q-76 0 -121.5 -50t-45.5 -130q0 -88 45.5 -134t117.5 -46q58 0 102 22q6 1 6 -4z" />
    <glyph glyph-name="d" unicode="d" horiz-adv-x="546" 
d="M288 -10q-110 0 -175.5 64t-65.5 183q0 111 74 182.5t192 71.5q47 0 75 -10v228q0 6 6 6h74q6 0 6 -6v-613q0 -24 2 -48q0 -6 -5 -9q-87 -49 -183 -49zM388 74v336q-29 13 -77 13q-82 0 -129 -50t-47 -132q0 -92 47 -136t116 -44q57 0 90 13z" />
    <glyph glyph-name="e" unicode="e" horiz-adv-x="505" 
d="M349 232h-216q-2 -76 41 -123t124 -47q71 0 125 27q5 3 5 -4v-57q0 -8 -4 -9q-52 -28 -142 -29q-62 0 -109.5 20.5t-74 57t-39.5 79t-13 91.5q0 111 59.5 182t162.5 71q96 0 145.5 -60.5t49.5 -134.5q0 -52 -8 -58q-18 -6 -106 -6zM134 290h189q56 0 58 7v15q0 38 -28 77
t-90 39q-56 0 -89 -38.5t-40 -99.5z" />
    <glyph glyph-name="f" unicode="f" horiz-adv-x="257" 
d="M80 415l-64 1q-5 1 -5 7v53q0 6 5 6h64v25q0 103 44 160t121 57q39 0 59 -11q5 -2 5 -8v-58q0 -8 -6 -5q-23 9 -47 9q-90 0 -90 -139v-30h96q6 0 6 -6v-53q0 -7 -6 -7l-96 -1v-408q0 -7 -6 -7h-73q-7 0 -7 7v408z" />
    <glyph glyph-name="g" unicode="g" horiz-adv-x="508" 
d="M343 325q0 51 -26 79.5t-76 28.5q-47 0 -77 -29t-30 -79q0 -49 28.5 -78t76.5 -29t76 28.5t28 78.5zM412 -78q0 85 -163 85q-48 0 -71 -5q-23 -12 -44 -35.5t-21 -48.5q0 -40 39.5 -68t107.5 -28q76 0 114 29.5t38 70.5zM242 491q47 0 76 -7q10 -2 24 -2h138q6 0 6 -6
v-53q0 -6 -6 -6l-89 3q32 -32 32 -97q0 -78 -50.5 -121t-130.5 -43q-31 0 -50 7q-12 -19 -12 -44q0 -30 19 -49q24 2 60 2q112 0 174 -32t62 -111q0 -74 -64.5 -124t-174.5 -50q-101 0 -161.5 44.5t-60.5 113.5q0 58 94 128q-24 32 -24 73q0 37 20 67q-72 44 -72 140
q0 73 52 120t138 47z" />
    <glyph glyph-name="h" unicode="h" horiz-adv-x="542" 
d="M72 7v701q0 7 6 7h74q5 0 5 -6v-272q69 54 150 54q30 0 56.5 -9t52 -29.5t40 -61t14.5 -96.5v-288q0 -7 -7 -7h-72q-7 0 -7 7v290q0 59 -26 90.5t-76 31.5q-66 0 -125 -51v-362q0 -6 -6 -6h-73q-6 0 -6 7z" />
    <glyph glyph-name="i" unicode="i" horiz-adv-x="231" 
d="M115 569q-22 0 -36 13t-14 34q0 22 14 35t37 13q22 0 35.5 -13.5t13.5 -34.5q0 -20 -14 -33.5t-36 -13.5zM72 8v467q0 7 6 7h73q7 0 7 -6v-469q0 -7 -7 -7h-71q-8 0 -8 8z" />
    <glyph glyph-name="j" unicode="j" horiz-adv-x="230" 
d="M72 -33v508q0 7 7 7h73q6 0 6 -6v-465q0 -91 -11 -135.5t-33 -71.5q-38 -43 -103 -43q-20 0 -32 3q-6 2 -6 8v53q0 7 7 7q51 -2 71.5 26t20.5 109zM116 569q-22 0 -36 13t-14 34q0 22 14 35t37 13q22 0 35.5 -13.5t13.5 -34.5q0 -20 -14 -33.5t-36 -13.5z" />
    <glyph glyph-name="k" unicode="k" horiz-adv-x="498" 
d="M72 709q0 6 6 6h73q6 0 6 -7v-427h42q14 0 20 8l43 55l60 77.5l42 55.5q4 5 9 5h77q8 0 4 -8q-12 -18 -48 -62l-77 -93.5l-51 -61.5q-5 -3 0 -8l218 -242q2 -2 0.5 -4.5t-5.5 -2.5h-94q-7 0 -11 5l-171 198q-8 9 -19 9h-39v-205q0 -7 -6 -7h-73q-6 0 -6 7v702z" />
    <glyph glyph-name="l" unicode="l" horiz-adv-x="247" 
d="M72 98v610q0 7 7 7h72q6 0 6 -7v-607q0 -26 9 -35t26 -9q8 0 24 2q3 1 3.5 0t0.5 -5v-47q0 -7 -5 -9q-18 -8 -52 -8q-42 0 -66.5 23.5t-24.5 84.5z" />
    <glyph glyph-name="m" unicode="m" horiz-adv-x="841" 
d="M611 491q26 0 51 -8.5t50 -27.5t40.5 -58t15.5 -93v-297q0 -7 -7 -7h-72q-7 0 -7 7v295q0 117 -97 117q-66 0 -128 -59q6 -26 6 -57v-296q0 -7 -6 -7h-73q-7 0 -7 7v295q0 56 -24.5 86.5t-72.5 30.5q-60 0 -123 -56v-357q0 -6 -6 -6h-73q-6 0 -6 7v370q0 26 -4 98
q-2 7 6 7h64q5 0 8 -5q4 -10 7 -50q72 64 153 64q92 0 130 -74q85 74 175 74z" />
    <glyph glyph-name="n" unicode="n" horiz-adv-x="542" 
d="M72 7v362q0 39 -4 107q-2 6 6 6h64q6 0 9 -6q1 -2 6 -49q69 64 157 64q29 0 54.5 -8.5t50.5 -28.5t40 -60.5t15 -97.5v-289q0 -7 -7 -7h-72q-7 0 -7 8v288q0 123 -102 123q-67 0 -125 -58v-354q0 -7 -6 -7h-73q-6 0 -6 7z" />
    <glyph glyph-name="o" unicode="o" horiz-adv-x="559" 
d="M282 491q106 0 168 -69t62 -180q0 -115 -64 -183.5t-167 -68.5q-116 0 -175 74.5t-59 176.5q0 110 65 180t170 70zM277 426q-64 0 -103.5 -50t-39.5 -133t39 -135t110 -52q60 0 101 45t41 138q0 82 -36.5 134.5t-111.5 52.5z" />
    <glyph glyph-name="p" unicode="p" horiz-adv-x="546" 
d="M268 491q108 0 169 -64.5t61 -167.5q0 -85 -43 -148t-105 -91.5t-132 -29.5q-35 0 -61 7v-212q0 -6 -6 -6l-73 -8q-6 -1 -6 5v624q0 24 -3 44q0 4 3 5q110 42 196 42zM258 421q-45 0 -101 -16v-338q32 -9 64 -9q81 0 135.5 53t54.5 144q0 77 -41.5 121.5t-111.5 44.5z
" />
    <glyph glyph-name="q" unicode="q" horiz-adv-x="547" 
d="M280 -10q-100 0 -166.5 63.5t-66.5 179.5q0 113 77.5 185.5t200.5 72.5q82 0 150 -29q3 -1 3 -5q-3 -25 -3 -48v-623q0 -7 -6 -7q-14 -2 -43 -5t-32 -3q-5 0 -5 6v234q-48 -21 -109 -21zM389 80v332q-33 11 -73 11q-82 0 -131.5 -51t-49.5 -136q0 -88 48 -131.5
t113 -43.5q59 0 93 19z" />
    <glyph glyph-name="r" unicode="r" horiz-adv-x="333" 
d="M72 482h66q6 0 9 -7q4 -13 9 -62q27 37 68.5 57.5t79.5 20.5q9 0 13 -1t4 -8v-64q0 -6 -7 -6q-45 1 -88 -19t-68 -52v-334q0 -7 -6 -7h-73q-7 0 -7 7v340q0 82 -5 129q-1 6 5 6z" />
    <glyph glyph-name="s" unicode="s" horiz-adv-x="389" 
d="M327 389q-61 35 -129 35q-44 0 -63 -18t-19 -43q0 -26 19.5 -43t79.5 -41q76 -31 109.5 -62t33.5 -83q0 -70 -49.5 -107t-124.5 -37q-87 0 -147 39q-5 3 -5 9v66q0 7 6 5q79 -52 152 -52q43 0 63.5 19t20.5 46t-22 45t-83 43q-72 30 -102.5 62t-30.5 84q0 60 45.5 97.5
t123.5 37.5q76 0 125 -28q5 -4 5 -10l-1 -60q0 -8 -7 -4z" />
    <glyph glyph-name="t" unicode="t" horiz-adv-x="304" 
d="M283 63v-47q0 -8 -5 -10q-32 -16 -80 -16q-118 0 -118 131v294l-66 1q-6 1 -6 8v51q0 7 7 7h66q3 96 10 130q1 6 6 7l70 15q6 2 6 -4q-6 -52 -6 -148h108q6 0 6 -7v-52q0 -5 -6 -7l-109 -1v-285q0 -72 61 -72q26 0 50 10q6 2 6 -5z" />
    <glyph glyph-name="u" unicode="u" horiz-adv-x="535" 
d="M463 475v-369q0 -56 6 -100q0 -6 -6 -6h-66q-5 0 -8 5q-3 9 -5 44q-64 -59 -151 -59q-69 0 -115 41.5t-46 141.5v302q0 7 6 7h74q5 0 5 -7v-289q0 -124 101 -124q72 0 119 53v360q0 7 7 7h73q6 0 6 -7z" />
    <glyph glyph-name="v" unicode="v" horiz-adv-x="478" 
d="M281 0h-87q-6 0 -8 5l-90 245l-83 225q-2 7 5 7h79q5 0 8 -6q128 -377 137 -409h1q25 79 141 409q1 6 7 6h71q7 0 5 -7l-177 -469q-2 -6 -9 -6z" />
    <glyph glyph-name="w" unicode="w" horiz-adv-x="724" 
d="M556 0h-84q-7 0 -8 7q-78 286 -102 388h-1q-13 -59 -113 -388q-2 -7 -9 -7h-81q-10 0 -11 7l-135 468q-2 7 5 7h75q6 0 7 -5q86 -304 106 -399h2q2 6 12.5 44.5l37 133l62.5 219.5q1 7 8 7h78q5 0 7 -6q85 -307 104 -399h2q28 120 113 400q2 5 6 5h70q7 0 5 -6l-148 -469
q-3 -7 -8 -7z" />
    <glyph glyph-name="x" unicode="x" horiz-adv-x="464" 
d="M174 241l-154 233q-4 8 4 8h84q7 0 10 -6l115 -187h2l121 188q3 5 8 5h75q9 0 4 -7q-117 -174 -158 -229q19 -29 166 -239q5 -7 -4 -7h-87q-7 0 -10 6l-124 191h-1l-122 -192q-3 -5 -9 -5h-76q-10 0 -4 8z" />
    <glyph glyph-name="y" unicode="y" horiz-adv-x="467" 
d="M14 482h82q5 0 7 -5q134 -351 141 -371h2q67 162 127 370q3 6 9 6h69q8 0 6 -8q-60 -225 -168 -446q-90 -178 -151 -253q-8 -6 -13 -6h-81q-10 0 -3 9q35 41 83 115.5t71 120.5q3 8 1 13q-15 34 -92.5 221l-93.5 227q-4 7 4 7z" />
    <glyph glyph-name="z" unicode="z" horiz-adv-x="412" 
d="M384 0h-359q-5 0 -5 5v37q0 4 3 8l257 363h-102h-151q-7 0 -6 7l11 55q1 7 7 7h338q5 0 6 -6v-37q0 -5 -5 -12l-252 -359q37 1 121 1h152q6 0 5 -7l-13 -56q-1 -6 -7 -6z" />
    <glyph glyph-name="braceleft" unicode="{" horiz-adv-x="371" 
d="M32 264q-4 0 -4 6v56q0 4 4 4q69 0 95.5 24.5t27.5 76.5q0 22 -4 79.5t-4 79.5q0 25 7.5 49t26.5 51t58.5 48t95.5 30q5 2 5 -3v-54q0 -5 -4 -6q-115 -26 -115 -120q0 -22 3.5 -77.5t3.5 -77.5q0 -107 -100 -132v-2q103 -21 103 -135q0 -26 -5 -83t-5 -81
q0 -47 27.5 -74.5t88.5 -40.5q4 -1 4 -6v-54q0 -5 -5 -5q-96 12 -142.5 59t-46.5 114q0 28 5.5 83t5.5 79q0 54 -27.5 83t-98.5 29z" />
    <glyph glyph-name="bar" unicode="|" horiz-adv-x="209" 
d="M142 -196h-75v980h75v-980z" />
    <glyph glyph-name="braceright" unicode="}" horiz-adv-x="371" 
d="M337 329q5 0 5 -5v-56q0 -5 -5 -5q-69 0 -95.5 -24t-27.5 -76q0 -21 4 -83.5t4 -83.5q0 -25 -7.5 -49t-26.5 -51t-58 -48t-95 -30q-6 -2 -6 3v54q0 5 5 6q114 26 114 120q0 22 -3.5 81.5t-3.5 81.5q0 107 100 131v3q-103 21 -103 135q0 25 5 78.5t5 78.5q0 46 -27.5 73.5
t-88.5 40.5q-4 1 -4 6v54q0 5 5 5q96 -12 142.5 -59t46.5 -114q0 -28 -5.5 -79.5t-5.5 -75.5q0 -54 27.5 -83t98.5 -29z" />
    <glyph glyph-name="asciitilde" unicode="~" horiz-adv-x="561" 
d="M98 193h-52q-5 0 -5 6q-4 85 31 128t90 43q32 0 57.5 -12.5t71.5 -48.5q42 -33 64.5 -45t46.5 -12q30 0 43.5 25t11.5 82q0 5 6 5h51q6 0 6 -5q6 -91 -28.5 -131t-88.5 -40q-59 0 -133 57l-32 25t-28 21t-20.5 10.5t-24.5 5.5q-66 0 -62 -108q0 -6 -5 -6z" />
    <glyph glyph-name="uni00A0" unicode="&#xa0;" horiz-adv-x="233" 
 />
    <glyph glyph-name="exclamdown" unicode="&#xa1;" horiz-adv-x="252" 
d="M102 -213q-26 0 -42 6q-5 4 -5 9v75q0 58 5.5 200t8.5 168q0 5 6 5h56q5 0 5 -5q2 -30 7.5 -170t5.5 -195v-76q0 -6 -4 -8q-16 -9 -43 -9zM103 462q23 0 38 -14.5t15 -36.5t-15 -36.5t-38 -14.5q-24 0 -39 14t-15 37t15 37t39 14z" />
    <glyph glyph-name="cent" unicode="&#xa2;" horiz-adv-x="530" 
d="M348 99v-91q0 -5 -5 -5h-59q-6 0 -6 6v91q-92 10 -144 73t-52 154q0 94 55 156t142 76v90q0 5 5 5h59q5 0 5 -5v-86q55 0 93 -22q4 -2 4 -8v-60q0 -7 -7 -4q-50 24 -110 24q-72 0 -116.5 -45t-44.5 -117q0 -79 48 -120.5t114 -41.5q64 0 114 25q5 1 5 -4v-58q0 -5 -5 -7
q-34 -21 -95 -26z" />
    <glyph glyph-name="sterling" unicode="&#xa3;" horiz-adv-x="530" 
d="M467 0h-422q-4 0 -4 4v50q0 4 4 5q56 20 82.5 75t26.5 123v9v14v13h-88q-5 0 -5 5v51q0 6 6 6h83q0 16 -0.5 43t-0.5 33q0 112 55 174t146 62q61 0 97 -20q7 -3 7 -10v-58q0 -7 -7 -4q-44 21 -90 21q-122 0 -122 -165q0 -54 1 -76h151q5 0 5 -6v-51q0 -5 -5 -5h-149
q0 -152 -81 -222h322q8 0 5 -6l-11 -60q-1 -5 -6 -5z" />
    <glyph glyph-name="currency" unicode="&#xa4;" horiz-adv-x="530" 
d="M143 328q0 -66 36.5 -99t83.5 -33q50 0 85 31t35 100q0 55 -32 95t-90 40q-54 0 -86 -37.5t-32 -96.5zM77 328q0 62 36 111l-70 69q-5 3 0 8l34 35q5 5 8 0l70 -68q45 35 107 35t110 -35l70 67q4 4 8 0l34 -35q3 -3 -1 -7l-70 -69q36 -47 36 -113t-34 -109l68 -69
q3 -4 0 -7l-34 -33q-5 -5 -8 0l-66 67q-43 -37 -112 -37t-112 36l-64 -66q-5 -5 -9 -1l-33 33q-5 4 -1 9l67 67q-34 47 -34 112z" />
    <glyph glyph-name="yen" unicode="&#xa5;" horiz-adv-x="530" 
d="M297 0h-71q-7 1 -7 7v169h-131q-7 0 -7 6v43q0 6 7 6h131v70h-131q-7 0 -7 7v40q0 6 7 6h116l-178 297q-2 6 4 6h83q4 0 7 -4q131 -238 145 -277h2q12 35 140 275q2 6 7 6h81q6 0 4 -6l-176 -297h116q4 0 4 -5v-42q0 -6 -4 -6h-136v-70h135q5 0 5 -4v-45q0 -6 -6 -6h-134
v-170q-1 -6 -6 -6z" />
    <glyph glyph-name="brokenbar" unicode="&#xa6;" horiz-adv-x="209" 
d="M142 392h-74v392h74v-392zM142 196v-392h-75v392h75z" />
    <glyph glyph-name="section" unicode="&#xa7;" horiz-adv-x="472" 
d="M348 -46q67 57 67 149q0 57 -28.5 108.5t-106.5 129.5q-83 85 -107 125t-23 85q-47 -65 -46 -138q0 -57 29.5 -106t111.5 -137q65 -70 90 -118.5t13 -97.5zM70 -89v60q0 9 6 3q75 -58 157 -58q63 0 63 43q0 34 -20 65.5t-90 106.5q-80 86 -111.5 143t-31.5 124
q0 103 72.5 186t177.5 83q91 0 132 -37q3 -2 5 -8v-58q0 -9 -8 -4q-60 47 -131 47q-38 0 -60.5 -15.5t-22.5 -38.5q0 -16 4.5 -28t29.5 -43t78 -84q40 -40 62.5 -65.5t48 -61.5t36.5 -73t11 -78q0 -109 -71.5 -189t-174.5 -80q-51 0 -94 16t-64 34q-4 6 -4 10z" />
    <glyph glyph-name="dieresis" unicode="&#xa8;" 
d="M103 570q-20 0 -33 12.5t-13 33.5q0 22 13.5 35t33.5 13t32.5 -13t12.5 -35q0 -21 -13 -33.5t-33 -12.5zM287 570q-20 0 -33 12.5t-13 33.5q0 22 13.5 35t32.5 13q20 0 33 -13t13 -35q0 -20 -13 -33t-33 -13z" />
    <glyph glyph-name="copyright" unicode="&#xa9;" horiz-adv-x="763" 
d="M54 330q0 140 94 234.5t233 94.5q140 0 233 -94t93 -235q0 -144 -93 -237.5t-233 -93.5q-141 0 -234 94t-93 237zM105 330q0 -123 79.5 -204t196.5 -81q123 0 199.5 80t76.5 205q0 123 -80 203.5t-197 80.5q-121 0 -198 -81t-77 -203zM512 219v-42q0 -5 -5 -7
q-40 -25 -104 -25q-90 0 -141.5 54.5t-51.5 129.5q0 79 56 133.5t144 54.5q59 0 95 -19q3 -2 3 -9v-43q0 -6 -6 -3q-37 20 -87 20q-61 0 -98.5 -37.5t-37.5 -94.5q0 -60 38.5 -95t95.5 -35q54 0 93 21q6 4 6 -3z" />
    <glyph glyph-name="ordfeminine" unicode="&#xaa;" horiz-adv-x="342" 
d="M164 610q63 0 97.5 -34t34.5 -89v-173q0 -4 -5 -7q-63 -22 -125 -22q-61 0 -100 24.5t-39 75.5q0 31 20 52.5t56 31.5t63.5 14t64.5 6v7q0 62 -76 62q-47 0 -92 -21q-5 -2 -5 4v41q0 4 3 5q48 23 103 23zM90 387q0 -53 80 -53q37 0 61 8v104q-21 -1 -28 -2t-28.5 -3
t-32.5 -6t-25 -10t-20.5 -16t-6.5 -22z" />
    <glyph glyph-name="guillemotleft" unicode="&#xab;" horiz-adv-x="644" 
d="M80 220v45q0 4 5 6l217 175q8 3 8 -5v-60q0 -6 -5 -10l-154 -129l154 -131q5 -3 5 -9v-63q0 -9 -8 -4l-218 177q-4 3 -4 8zM325 220v45q0 3 5 5l217 176q7 4 7 -5v-60q0 -7 -5 -10l-154 -129l154 -130q5 -4 5 -10v-63q0 -9 -8 -4l-217 177q-4 3 -4 8z" />
    <glyph glyph-name="logicalnot" unicode="&#xac;" horiz-adv-x="558" 
d="M35 388h485q6 0 6 -6v-261q0 -6 -5 -6h-57q-5 0 -5 6v204h-423q-5 0 -5 5v53q0 5 4 5z" />
    <glyph glyph-name="uni00AD" unicode="&#xad;" horiz-adv-x="346" 
d="M285 213h-224q-6 0 -6 5v62q0 5 6 5h224q6 0 6 -5v-62q0 -5 -6 -5z" />
    <glyph glyph-name="registered" unicode="&#xae;" horiz-adv-x="194" 
d="M112 454q-42 0 -70.5 28t-28.5 69t28.5 69t70.5 28q41 0 68.5 -28t27.5 -69t-28 -69t-68 -28zM112 472q34 0 54.5 22.5t20.5 56.5t-21.5 57t-55.5 23q-33 0 -54 -22.5t-21 -57.5q0 -34 21.5 -56.5t55.5 -22.5zM94 541v-36q0 -2 -2 -2h-16q-2 0 -2 2v95q0 2 2 2h32
q42 0 42 -29q0 -19 -23 -27q22 -26 31 -40q0 -2 -1 -3h-18q-4 0 -5 2q-7 8 -24 33q-3 3 -5 3h-11zM94 586v-30h12q23 0 23 15t-22 15h-13z" />
    <glyph glyph-name="macron" unicode="&#xaf;" 
d="M65 648h265q4 0 4 -5v-52q0 -5 -5 -5h-265q-5 0 -5 6v51q0 5 6 5z" />
    <glyph glyph-name="degree" unicode="&#xb0;" horiz-adv-x="275" 
d="M139 631q52 0 85.5 -35t33.5 -88q0 -54 -33.5 -89.5t-85.5 -35.5q-53 0 -87 36t-34 89q0 52 34 87.5t87 35.5zM139 585q-31 0 -51 -22t-20 -55t20 -55t51 -22q30 0 50 22t20 55t-20.5 55t-49.5 22z" />
    <glyph glyph-name="plusminus" unicode="&#xb1;" horiz-adv-x="558" 
d="M30 58q0 5 7 5h483q7 0 7 -5v-51q0 -7 -8 -7h-481q-8 0 -8 6v52zM252 616h55q6 0 6 -6v-211h208q6 0 6 -6v-51q0 -6 -6 -6h-208v-213q0 -6 -6 -6h-56q-5 0 -5 6v213h-210q-6 0 -6 5v53q0 5 6 5h210v211q0 6 6 6z" />
    <glyph glyph-name="twosuperior" unicode="&#xb2;" horiz-adv-x="329" 
d="M293 452h-262q-4 0 -4 4v32q0 3 2 5l29 21l30.5 22l28 21.5t27.5 23l23.5 22t21.5 24l15 23t11 25t3 24.5q0 32 -20.5 52.5t-61.5 20.5q-47 0 -100 -31q-6 -4 -6 3v43q0 4 4 7q54 34 117 34q64 0 98 -34t34 -86q0 -29 -11.5 -56t-36.5 -53.5t-47 -45.5t-59 -47h176
q3 0 3 -4l-9 -46q-1 -4 -6 -4z" />
    <glyph glyph-name="threesuperior" unicode="&#xb3;" horiz-adv-x="326" 
d="M134 618h-33q-4 0 -4 3v39q0 4 4 4h34q76 0 76 56q0 25 -19 40.5t-56 15.5q-47 0 -93 -26q-5 -3 -5 3v41q0 3 3 6q48 28 108 28q58 0 91 -27.5t33 -69.5q0 -60 -62 -82v-1q80 -20 80 -90q0 -54 -40.5 -83t-103.5 -29q-65 0 -110 26q-4 1 -4 7v46q0 4 4 2q51 -30 108 -30
q41 0 61.5 17.5t20.5 43.5q0 60 -93 60z" />
    <glyph glyph-name="acute" unicode="&#xb4;" 
d="M153 546l80 148q3 7 9 7h80q8 0 5 -8l-96 -149q-3 -4 -10 -4h-65q-6 0 -3 6z" />
    <glyph glyph-name="mu" unicode="&#xb5;" horiz-adv-x="556" 
d="M466 476v-359q1 -62 42 -62q16 0 26 3q5 1 5 -4v-47q0 -5 -3 -7q-20 -10 -54 -10q-83 0 -91 95v20q-46 -115 -152 -115q-59 0 -86 36q5 -89 3 -235q0 -6 -6 -7q-53 -8 -72 -8q-6 0 -6 8v691q0 7 7 7h73q6 0 6 -6v-326q0 -41 22.5 -65.5t61.5 -24.5q59 0 98.5 52t39.5 148
v216q0 6 6 6h75q5 0 5 -6z" />
    <glyph glyph-name="paragraph" unicode="&#xb6;" horiz-adv-x="471" 
d="M335 -159q-1 -3 -8 -3h-49q-4 0 -3 6q42 74 42 188v17q-54 5 -99.5 19.5t-87.5 43t-66 80t-24 120.5q0 105 72 174t202 85q6 58 19 80q1 5 6 5h50q5 0 3 -6q-16 -60 -16 -109q0 -92 2 -243.5t2 -227.5q0 -165 -45 -229z" />
    <glyph glyph-name="periodcentered" unicode="&#xb7;" horiz-adv-x="255" 
d="M128 197q-24 0 -39 15t-15 40q0 23 15 38.5t39 15.5t39 -15.5t15 -38.5q0 -25 -14.5 -40t-39.5 -15z" />
    <glyph glyph-name="cedilla" unicode="&#xb8;" 
d="M178 5h57l-35 -50q86 -23 86 -91q0 -39 -30 -63.5t-77 -24.5q-43 0 -69 13q-4 3 -4 9v37q0 6 6 5q30 -14 62 -14q48 0 48 36q0 42 -94 54q-2 1 -2.5 9t1.5 11z" />
    <glyph glyph-name="onesuperior" unicode="&#xb9;" horiz-adv-x="261" 
d="M116 457v308q-27 -12 -73 -25q-5 -2 -5 4v40q0 4 3 5q50 13 89 32q4 2 8 2h43q3 0 3 -4v-362q0 -5 -4 -5h-59q-5 0 -5 5z" />
    <glyph glyph-name="ordmasculine" unicode="&#xba;" 
d="M198 610q76 0 119 -45t43 -117q0 -75 -44 -119t-119 -44q-85 0 -125.5 47.5t-40.5 114.5q0 72 45 117.5t122 45.5zM197 559q-44 0 -70 -29.5t-26 -80.5q0 -48 25.5 -80t72.5 -32q39 0 66 27t27 83q0 46 -23 79t-72 33z" />
    <glyph glyph-name="guillemotright" unicode="&#xbb;" horiz-adv-x="644" 
d="M564 260v-44q0 -5 -5 -7l-217 -174q-8 -5 -8 4v60q0 7 5 10l154 129l-154 131q-5 3 -5 9v63q0 9 8 4l217 -177q5 -3 5 -8zM319 260v-44q0 -4 -5 -6l-217 -175q-7 -5 -7 4v60q0 7 5 10l153 129l-153 131q-5 3 -5 9v63q0 8 8 4l216 -177q5 -3 5 -8z" />
    <glyph glyph-name="onequarter" unicode="&#xbc;" horiz-adv-x="708" 
d="M118 296v308q-32 -14 -74 -25q-2 -1 -3 0.5t-1 3.5v40q0 3 3 5q49 14 88 32q6 2 8 2h43q4 0 4 -4v-362q0 -5 -5 -5h-58q-5 0 -5 5zM184 -11h-52q-6 0 -3 6l361 668q3 4 6 4h53q5 0 3 -5l-361 -668q-2 -5 -7 -5zM377 99v28q0 4 3 7l84 112.5l90 119.5q4 4 8 4h45q5 0 5 -5
v-226h64q3 0 3 -4l-6 -36q-1 -4 -5 -4h-56v-90q0 -6 -4 -6h-54q-4 0 -4 6v90h-169q-4 0 -4 4zM434 139h116q0 108 3 165h-2q-20 -34 -117 -165z" />
    <glyph glyph-name="onehalf" unicode="&#xbd;" horiz-adv-x="734" 
d="M114 296v308q-28 -12 -74 -25q-5 -2 -5 4v40q0 3 4 5q49 14 88 32q4 2 8 2h43q3 0 3 -4v-362q0 -5 -4 -5h-59q-4 0 -4 5zM167 -11h-51q-7 0 -4 6l361 669q2 3 6 3h53q5 0 3 -5l-361 -668q-2 -5 -7 -5zM691 0h-262q-4 0 -4 4v31q0 4 2 6l29 21l30.5 22l28 21.5t27.5 23
l23.5 22t21.5 24l15 23t11 25t3 24.5q0 32 -20.5 52.5t-61.5 20.5q-47 0 -100 -31q-6 -4 -6 3v43q0 4 4 7q54 34 117 34q64 0 98 -34t34 -86q0 -29 -11.5 -56t-36.5 -53.5t-47 -45.5t-59 -47h176q3 0 3 -4l-9 -46q-1 -4 -6 -4z" />
    <glyph glyph-name="threequarters" unicode="&#xbe;" horiz-adv-x="740" 
d="M142 457h-33q-4 0 -4 3v39q0 4 4 4h34q76 0 76 56q0 25 -19 40.5t-56 15.5q-47 0 -93 -26q-5 -3 -5 3v41q0 3 3 6q48 28 108 28q58 0 91 -27.5t33 -69.5q0 -60 -62 -82v-1q80 -20 80 -90q0 -54 -40.5 -83t-103.5 -29q-65 0 -109 26q-5 1 -5 7v46q0 4 5 2q49 -30 107 -30
q41 0 61.5 17.5t20.5 43.5q0 60 -93 60zM237 -11h-52q-6 0 -3 6l361 669q2 3 6 3h53q5 0 2 -5l-360 -668q-3 -5 -7 -5zM415 99v28q0 5 2 7l175 232q4 4 7 4h46q5 0 5 -5v-226h63q4 0 3 -4l-6 -36q-1 -4 -5 -4h-55v-91q0 -5 -5 -5h-53q-5 0 -5 5v91h-168q-4 0 -4 4zM471 139
h116q0 105 3 165h-1q-16 -27 -118 -165z" />
    <glyph glyph-name="questiondown" unicode="&#xbf;" horiz-adv-x="404" 
d="M222 -213q-81 0 -131.5 44t-50.5 117q0 31 15 61t37 53l43.5 44t36.5 42.5t15 39.5q0 27 -22 60q-4 6 4 6h63q5 0 9 -4q27 -30 27 -70q0 -23 -14.5 -47t-35 -44l-40.5 -41t-34.5 -46.5t-14.5 -51.5q0 -38 30 -65t79 -27q59 0 118 26q6 4 6 -4v-56q0 -7 -4 -8
q-58 -29 -136 -29zM207 464q23 0 37.5 -14t14.5 -39q0 -23 -14.5 -37t-37.5 -14q-24 0 -38 14.5t-14 36.5q0 24 14 38.5t38 14.5z" />
    <glyph glyph-name="Agrave" unicode="&#xc0;" horiz-adv-x="639" 
d="M439 214h-246l-74 -208q-1 -6 -8 -6h-72q-8 0 -6 8l219 601q5 13 7 42q0 6 5 6h100q5 0 6 -5l235 -645q3 -7 -4 -7h-78q-5 0 -8 5zM213 285h205q-8 27 -50 145.5t-53 156.5h-1q-7 -27 -101 -302zM255 817l114 -111q4 -7 -4 -7h-71q-6 0 -12 5l-129 110q-2 2 -1 4.5t4 2.5
h88q6 0 11 -4z" />
    <glyph glyph-name="Aacute" unicode="&#xc1;" horiz-adv-x="639" 
d="M439 214h-246l-74 -208q-1 -6 -8 -6h-72q-8 0 -6 8l219 601q5 13 7 42q0 6 5 6h100q5 0 6 -5l235 -645q3 -7 -4 -7h-78q-5 0 -8 5zM213 285h205q-8 27 -50 145.5t-53 156.5h-1q-7 -27 -101 -302zM261 706l115 112q3 4 10 4h85q3 0 3.5 -2.5t-1.5 -4.5l-126 -110
q-4 -5 -11 -5h-72q-7 0 -3 6z" />
    <glyph glyph-name="Acircumflex" unicode="&#xc2;" horiz-adv-x="639" 
d="M439 214h-246l-74 -208q-1 -6 -8 -6h-72q-8 0 -6 8l219 601q5 13 7 42q0 6 5 6h100q5 0 6 -5l235 -645q3 -7 -4 -7h-78q-5 0 -8 5zM213 285h205q-8 27 -50 145.5t-53 156.5h-1q-7 -27 -101 -302zM387 703l-74 74l-71 -74q-3 -5 -9 -5h-65q-3 0 -3.5 3t1.5 5l107 111
q5 3 8 3h68q7 0 10 -4l112 -113q3 -5 -3 -5h-71q-7 0 -10 5z" />
    <glyph glyph-name="Atilde" unicode="&#xc3;" horiz-adv-x="639" 
d="M439 214h-246l-74 -208q-1 -6 -8 -6h-72q-8 0 -6 8l219 601q5 13 7 42q0 6 5 6h100q5 0 6 -5l235 -645q3 -7 -4 -7h-78q-5 0 -8 5zM213 285h205q-8 27 -50 145.5t-53 156.5h-1q-7 -27 -101 -302zM216 705h-49q-6 0 -6 5q1 50 27 79.5t66 29.5q34 0 72.5 -27t53.5 -27
q30 0 35 46q0 5 5 5h49q5 0 5 -5q-5 -108 -88 -108q-31 0 -70 27t-56 27q-33 0 -39 -48q0 -4 -5 -4z" />
    <glyph glyph-name="Adieresis" unicode="&#xc4;" horiz-adv-x="639" 
d="M439 214h-246l-74 -208q-1 -6 -8 -6h-72q-8 0 -6 8l219 601q5 13 7 42q0 6 5 6h100q5 0 6 -5l235 -645q3 -7 -4 -7h-78q-5 0 -8 5zM213 285h205q-8 27 -50 145.5t-53 156.5h-1q-7 -27 -101 -302zM219 709q-22 0 -35.5 13t-13.5 33t14.5 33t36.5 13q21 0 34 -13t13 -33
t-13.5 -33t-35.5 -13zM412 709q-21 0 -34.5 12.5t-13.5 33.5q0 20 14 33t35 13t35 -13t14 -33q0 -21 -13.5 -33.5t-36.5 -12.5z" />
    <glyph glyph-name="Aring" unicode="&#xc5;" horiz-adv-x="639" 
d="M439 214h-246l-74 -208q-1 -6 -8 -6h-72q-8 0 -6 8l219 601q5 13 7 42q0 6 5 6h100q5 0 6 -5l235 -645q3 -7 -4 -7h-78q-5 0 -8 5zM213 285h205q-8 27 -50 145.5t-53 156.5h-1q-7 -27 -101 -302zM212 762q0 39 29 62.5t74 23.5q46 0 74.5 -24t28.5 -62q0 -39 -29 -63.5
t-74 -24.5q-47 0 -75 24t-28 64zM262 762q0 -21 15 -34t38 -13q24 0 38.5 13t14.5 34t-14.5 34t-38.5 13t-38.5 -13t-14.5 -34z" />
    <glyph glyph-name="AE" unicode="&#xc6;" horiz-adv-x="839" 
d="M119 0h-80q-7 0 -4 7l277 605q4 10 12 41q1 4 6 4h406q6 0 7 -6l8 -59q1 -5 -5 -5h-276l26 -223h246q5 0 5 -6v-60q0 -4 -6 -4h-234l25 -224h270q6 0 4 -6l-10 -59q-1 -5 -7 -5h-328q-5 0 -5 4l-27 218h-206l-97 -217q-2 -5 -7 -5zM251 292h170l-23 189q-1 15 -6 57
l-7 60h-1l-44 -105z" />
    <glyph glyph-name="Ccedilla" unicode="&#xc7;" horiz-adv-x="593" 
d="M538 636v-64q0 -9 -6 -5q-58 26 -133 26q-114 0 -185 -72.5t-71 -190.5q0 -74 24.5 -128.5t64 -82t79.5 -39.5t81 -12q86 0 148 30q7 4 7 -4v-62q0 -8 -6 -10q-53 -29 -145 -32l-25 -35q85 -23 85 -91q0 -40 -30 -64t-76 -24q-43 0 -69 13q-4 3 -4 7v41q0 4 5 3
q30 -14 63 -14q48 0 48 36q0 42 -94 54q-2 1 -2.5 9t1.5 11l41 56q-56 6 -105 27.5t-90 60t-65 102.5t-24 145q0 144 95 242t248 98q91 0 135 -22q5 -3 5 -9z" />
    <glyph glyph-name="Egrave" unicode="&#xc8;" horiz-adv-x="513" 
d="M485 64l-11 -58q-1 -6 -8 -6h-380q-8 0 -8 8v642q0 7 7 7h366q6 0 8 -6l7 -57q2 -7 -5 -7h-297v-217h264q5 0 5 -6v-58q0 -6 -6 -6h-263v-230h316q6 0 5 -6zM214 825l114 -111q3 -3 1.5 -5t-4.5 -2h-71q-7 0 -12 5l-129 110q-3 2 -2 4.5t5 2.5h88q7 0 10 -4z" />
    <glyph glyph-name="Eacute" unicode="&#xc9;" horiz-adv-x="513" 
d="M485 64l-11 -58q-1 -6 -8 -6h-380q-8 0 -8 8v642q0 7 7 7h366q6 0 8 -6l7 -57q2 -7 -5 -7h-297v-217h264q5 0 5 -6v-58q0 -6 -6 -6h-263v-230h316q6 0 5 -6zM212 713l115 112q3 4 10 4h85q3 0 3.5 -2.5t-1.5 -4.5l-126 -111q-4 -4 -11 -4h-72q-7 0 -3 6z" />
    <glyph glyph-name="Ecircumflex" unicode="&#xca;" horiz-adv-x="513" 
d="M485 64l-11 -58q-1 -6 -8 -6h-380q-8 0 -8 8v642q0 7 7 7h366q6 0 8 -6l7 -57q2 -7 -5 -7h-297v-217h264q5 0 5 -6v-58q0 -6 -6 -6h-263v-230h316q6 0 5 -6zM338 710l-74 74l-71 -74q-5 -5 -9 -5h-65q-3 0 -3.5 3t1.5 5l107 111q3 3 8 3h68q7 0 10 -4l112 -113
q1 -3 -3 -5h-71q-7 0 -10 5z" />
    <glyph glyph-name="Edieresis" unicode="&#xcb;" horiz-adv-x="513" 
d="M485 64l-11 -58q-1 -6 -8 -6h-380q-8 0 -8 8v642q0 7 7 7h366q6 0 8 -6l7 -57q2 -7 -5 -7h-297v-217h264q5 0 5 -6v-58q0 -6 -6 -6h-263v-230h316q6 0 5 -6zM170 713q-22 0 -35 13t-13 33t14 33t36 13q21 0 34.5 -13t13.5 -33t-14 -33t-36 -13zM363 714q-21 0 -34.5 12
t-13.5 33q0 20 14.5 33t35.5 13t34.5 -13t13.5 -33q0 -21 -13.5 -33t-36.5 -12z" />
    <glyph glyph-name="Igrave" unicode="&#xcc;" horiz-adv-x="243" 
d="M164 651v-644q0 -7 -6 -7h-73q-7 0 -7 7v643q0 7 7 7h73q6 0 6 -6zM58 823l114 -111q5 -7 -4 -7h-71q-6 0 -12 5l-129 110q-5 7 3 7h88q7 0 11 -4z" />
    <glyph glyph-name="Iacute" unicode="&#xcd;" horiz-adv-x="243" 
d="M164 651v-644q0 -7 -6 -7h-73q-7 0 -7 7v643q0 7 7 7h73q6 0 6 -6zM67 706l115 113q3 3 10 3h85q3 0 3.5 -2.5t-1.5 -4.5l-126 -110q-4 -5 -11 -5h-72q-7 0 -3 6z" />
    <glyph glyph-name="Icircumflex" unicode="&#xce;" horiz-adv-x="243" 
d="M164 651v-644q0 -7 -6 -7h-73q-7 0 -7 7v643q0 7 7 7h73q6 0 6 -6zM190 705l-73 75l-71 -75q-5 -5 -10 -5h-65q-2 0 -3 1.5t-0.5 3t1.5 3.5l108 111q3 4 7 4h68q8 0 11 -5l111 -113q2 -1 1 -3t-4 -2h-70q-8 0 -11 5z" />
    <glyph glyph-name="Idieresis" unicode="&#xcf;" horiz-adv-x="243" 
d="M164 651v-644q0 -7 -6 -7h-73q-7 0 -7 7v643q0 7 7 7h73q6 0 6 -6zM24 712q-21 0 -34.5 12.5t-13.5 32.5t14 33.5t36 13.5q21 0 34.5 -13.5t13.5 -33.5t-14 -32.5t-36 -12.5zM217 712q-21 0 -34.5 12.5t-13.5 32.5t14.5 33.5t35.5 13.5t34.5 -13.5t13.5 -33.5
q0 -21 -13.5 -33t-36.5 -12z" />
    <glyph glyph-name="Eth" unicode="&#xd0;" horiz-adv-x="670" 
d="M88 8v295h-64q-5 0 -5 6v53q0 5 5 5h64v284q0 6 5 6q76 2 175 2q166 0 256 -86t90 -234q0 -85 -26 -149t-63.5 -99.5t-89.5 -57.5t-95 -28.5t-89 -6.5q-101 0 -156 2q-7 0 -7 8zM174 588v-221h154q5 0 5 -5v-53q0 -6 -6 -6h-153v-234q24 -2 78 -2q127 0 200.5 67.5
t73.5 202.5q0 126 -71.5 189.5t-187.5 63.5q-63 0 -93 -2z" />
    <glyph glyph-name="Ntilde" unicode="&#xd1;" horiz-adv-x="663" 
d="M78 651q0 6 6 6h98q6 0 10 -6q299 -516 312 -548h2q-3 39 -3 163v384q0 7 7 7h68q6 0 6 -7v-642q0 -8 -8 -8h-94q-6 0 -11 6q-23 46 -161 288t-154 278h-1q3 -32 5 -187v-378q0 -7 -6 -7h-68q-8 0 -8 7v644zM234 712h-49q-6 0 -6 5q1 50 27 79.5t66 29.5q34 0 72.5 -27
t53.5 -27q30 0 35 46q0 5 5 5h49q5 0 5 -5q-5 -108 -88 -108q-31 0 -70 27t-56 27q-33 0 -39 -48q0 -4 -5 -4z" />
    <glyph glyph-name="Ograve" unicode="&#xd2;" horiz-adv-x="714" 
d="M357 667q134 0 217 -95t83 -240q1 -160 -83 -251t-216 -91q-139 0 -221 92t-82 248q0 153 85.5 245t216.5 92zM143 330q0 -117 57.5 -192t160.5 -75q96 0 152 72t56 195q0 118 -59 191.5t-155 73.5q-92 0 -152 -69.5t-60 -195.5zM298 831l113 -111q6 -7 -3 -7h-71
q-7 0 -12 5l-129 110q-2 2 -1 4.5t4 2.5h88q7 0 11 -4z" />
    <glyph glyph-name="Oacute" unicode="&#xd3;" horiz-adv-x="714" 
d="M357 667q134 0 217 -95t83 -240q1 -160 -83 -251t-216 -91q-139 0 -221 92t-82 248q0 153 85.5 245t216.5 92zM143 330q0 -117 57.5 -192t160.5 -75q96 0 152 72t56 195q0 118 -59 191.5t-155 73.5q-92 0 -152 -69.5t-60 -195.5zM297 716l116 112q3 4 9 4h85q8 0 3 -7
l-126 -110q-5 -5 -12 -5h-71q-8 0 -4 6z" />
    <glyph glyph-name="Ocircumflex" unicode="&#xd4;" horiz-adv-x="714" 
d="M357 667q134 0 217 -95t83 -240q1 -160 -83 -251t-216 -91q-139 0 -221 92t-82 248q0 153 85.5 245t216.5 92zM143 330q0 -117 57.5 -192t160.5 -75q96 0 152 72t56 195q0 118 -59 191.5t-155 73.5q-92 0 -152 -69.5t-60 -195.5zM425 714l-73 75l-71 -74q-5 -5 -10 -5
h-65q-5 1 -2 7l108 112q3 3 7 3h68q8 0 11 -4l111 -113q5 -5 -3 -5h-70q-7 0 -11 4z" />
    <glyph glyph-name="Otilde" unicode="&#xd5;" horiz-adv-x="714" 
d="M357 667q134 0 217 -95t83 -240q1 -160 -83 -251t-216 -91q-139 0 -221 92t-82 248q0 153 85.5 245t216.5 92zM143 330q0 -117 57.5 -192t160.5 -75q96 0 152 72t56 195q0 118 -59 191.5t-155 73.5q-92 0 -152 -69.5t-60 -195.5zM256 717h-49q-6 0 -6 5q1 51 27 80t66 29
q34 0 72.5 -27t53.5 -27q30 0 35 46q0 5 5 5h49q5 0 5 -5q-6 -107 -88 -107q-32 0 -70.5 26.5t-55.5 26.5q-33 0 -39 -47q0 -5 -5 -5z" />
    <glyph glyph-name="Odieresis" unicode="&#xd6;" horiz-adv-x="714" 
d="M357 667q134 0 217 -95t83 -240q1 -160 -83 -251t-216 -91q-139 0 -221 92t-82 248q0 153 85.5 245t216.5 92zM143 330q0 -117 57.5 -192t160.5 -75q96 0 152 72t56 195q0 118 -59 191.5t-155 73.5q-92 0 -152 -69.5t-60 -195.5zM259 718q-21 0 -34.5 12.5t-13.5 32.5
t14.5 33t35.5 13t34.5 -13t13.5 -33t-14 -32.5t-36 -12.5zM452 718q-21 0 -34.5 12t-13.5 33q0 20 14.5 33t35.5 13t34.5 -13t13.5 -33q0 -21 -13.5 -33t-36.5 -12z" />
    <glyph glyph-name="multiply" unicode="&#xd7;" horiz-adv-x="558" 
d="M44 463l34 35q5 4 10 -1l192 -198l191 198q5 5 10 0l33 -35q5 -5 0 -10l-193 -195l193 -196q4 -6 0 -10l-34 -34q-5 -4 -10 1l-191 196l-191 -196q-5 -5 -9 -1l-35 35q-4 4 1 10l192 194l-193 198q-3 3 0 9z" />
    <glyph glyph-name="Oslash" unicode="&#xd8;" horiz-adv-x="714" 
d="M187 41l-26 -38q-2 -3 -7 -3h-54q-7 0 -3 6l48 68q-89 99 -89 255q-1 153 84.5 245.5t217.5 92.5q91 0 158 -46l23 32q3 4 6 4h53q7 0 4 -6l-43 -64q97 -91 99 -255q0 -158 -83.5 -250t-214.5 -92q-102 0 -173 51zM198 147l275 408q-45 41 -119 41q-90 0 -150.5 -69
t-60.5 -197q0 -109 55 -183zM510 516l-275 -411q55 -44 126 -44q100 1 155 74t55 196q0 119 -61 185z" />
    <glyph glyph-name="Ugrave" unicode="&#xd9;" horiz-adv-x="660" 
d="M164 651v-414q0 -82 44 -128t124 -46q163 0 163 180v407q0 7 6 7h73q7 0 7 -7v-411q0 -128 -69.5 -188.5t-181.5 -60.5q-115 0 -183.5 62t-68.5 183v415q0 7 7 7h73q6 0 6 -6zM280 818l114 -111q5 -7 -4 -7h-70q-7 0 -13 5l-129 110q-5 7 3 7h89q7 0 10 -4z" />
    <glyph glyph-name="Uacute" unicode="&#xda;" horiz-adv-x="660" 
d="M164 651v-414q0 -82 44 -128t124 -46q163 0 163 180v407q0 7 6 7h73q7 0 7 -7v-411q0 -128 -69.5 -188.5t-181.5 -60.5q-115 0 -183.5 62t-68.5 183v415q0 7 7 7h73q6 0 6 -6zM277 706l115 112q3 4 10 4h84q4 0 4.5 -3t-1.5 -4l-126 -111q-5 -4 -11 -4h-72q-9 0 -3 6z
" />
    <glyph glyph-name="Ucircumflex" unicode="&#xdb;" horiz-adv-x="660" 
d="M164 651v-414q0 -82 44 -128t124 -46q163 0 163 180v407q0 7 6 7h73q7 0 7 -7v-411q0 -128 -69.5 -188.5t-181.5 -60.5q-115 0 -183.5 62t-68.5 183v415q0 7 7 7h73q6 0 6 -6zM400 705l-73 74l-71 -74q-5 -5 -10 -5h-65q-2 0 -3 3t1 5l108 111q4 4 7 4h68q8 0 11 -5
l112 -113q2 -1 0.5 -3t-4.5 -2h-70q-6 0 -11 5z" />
    <glyph glyph-name="Udieresis" unicode="&#xdc;" horiz-adv-x="660" 
d="M164 651v-414q0 -82 44 -128t124 -46q163 0 163 180v407q0 7 6 7h73q7 0 7 -7v-411q0 -128 -69.5 -188.5t-181.5 -60.5q-115 0 -183.5 62t-68.5 183v415q0 7 7 7h73q6 0 6 -6zM232 712q-22 0 -35 12.5t-13 32.5t14 33t36 13q21 0 34.5 -13t13.5 -33t-14 -32.5t-36 -12.5z
M425 712q-21 0 -34.5 12t-13.5 33q0 20 14.5 33t35.5 13t34.5 -13t13.5 -33q0 -21 -13.5 -33t-36.5 -12z" />
    <glyph glyph-name="Yacute" unicode="&#xdd;" horiz-adv-x="580" 
d="M240 265l-220 384q-5 8 4 8h84q5 0 8 -5q164 -300 178 -333l174 333q3 5 8 5h81q7 0 3 -6l-221 -388q-7 -10 -7 -27v-229q0 -7 -7 -7h-71q-8 0 -8 7v233q0 13 -6 25zM237 706l116 113q3 3 9 3h85q8 0 3 -7l-126 -110q-5 -5 -11 -5h-72q-3 0 -4.5 2t0.5 4z" />
    <glyph glyph-name="Thorn" unicode="&#xde;" horiz-adv-x="537" 
d="M78 6v646q0 5 5 5h75q5 0 5 -5v-125q32 2 88 2q110 0 172.5 -50.5t62.5 -145.5q0 -101 -69 -151.5t-187 -50.5q-35 0 -67 2v-127q0 -6 -5 -6h-75q-5 0 -5 6zM163 460v-258q32 -2 69 -2q84 0 126.5 34.5t42.5 96.5t-40 96t-119 34q-21 0 -47.5 -0.5t-31.5 -0.5z" />
    <glyph glyph-name="germandbls" unicode="&#xdf;" horiz-adv-x="573" 
d="M161 0h-75q-6 0 -6 6v410l-65 1q-4 0 -4 7v52q0 6 5 6h64q2 118 64.5 180t165.5 62q99 0 147.5 -55.5t48.5 -122.5q0 -40 -7 -51q-41 -42 -135 -107q49 -36 82 -63q56 -44 76 -81t20 -86q0 -72 -51.5 -120t-133.5 -48q-83 0 -126 30q-6 4 -6 12v64q0 7 6 3
q58 -37 127 -37q45 0 72.5 26.5t27.5 63.5q0 31 -15 55.5t-56 57.5q-48 40 -103 75q-3 3 -3 7v57q0 4 3 5q98 70 135 108q4 12 4 29q0 45 -31 79.5t-85 34.5q-141 0 -141 -187v-466q0 -7 -5 -7z" />
    <glyph glyph-name="agrave" unicode="&#xe0;" horiz-adv-x="486" 
d="M330 70v174q-116 5 -163.5 -19.5t-47.5 -77.5q0 -39 30 -65t92 -26q53 0 89 14zM414 307v-218q0 -32 2 -49q0 -3 -2 -4q-89 -46 -189 -46q-84 0 -137.5 39t-53.5 116q0 171 296 159v20q0 14 -4 28t-14.5 30.5t-34 27t-56.5 10.5q-71 0 -135 -36q-7 -2 -7 5v57q0 6 5 8
q67 37 152 37q89 0 133.5 -50.5t44.5 -133.5zM218 696l83 -150q4 -6 -4 -6h-64q-6 0 -8 5l-99 149q-5 7 3 7h81q6 0 8 -5z" />
    <glyph glyph-name="aacute" unicode="&#xe1;" horiz-adv-x="486" 
d="M330 70v174q-116 5 -163.5 -19.5t-47.5 -77.5q0 -39 30 -65t92 -26q53 0 89 14zM414 307v-218q0 -32 2 -49q0 -3 -2 -4q-89 -46 -189 -46q-84 0 -137.5 39t-53.5 116q0 171 296 159v20q0 14 -4 28t-14.5 30.5t-34 27t-56.5 10.5q-71 0 -135 -36q-7 -2 -7 5v57q0 6 5 8
q67 37 152 37q89 0 133.5 -50.5t44.5 -133.5zM196 546l80 148q4 7 9 7h80q8 0 5 -8l-96 -149q-3 -4 -10 -4h-65q-6 0 -3 6z" />
    <glyph glyph-name="acircumflex" unicode="&#xe2;" horiz-adv-x="486" 
d="M330 70v174q-116 5 -163.5 -19.5t-47.5 -77.5q0 -39 30 -65t92 -26q53 0 89 14zM414 307v-218q0 -32 2 -49q0 -3 -2 -4q-89 -46 -189 -46q-84 0 -137.5 39t-53.5 116q0 171 296 159v20q0 14 -4 28t-14.5 30.5t-34 27t-56.5 10.5q-71 0 -135 -36q-7 -2 -7 5v57q0 6 5 8
q67 37 152 37q89 0 133.5 -50.5t44.5 -133.5zM239 654l-69 -113q-2 -3 -8 -3h-55q-8 0 -3 7l97 150q3 4 7 4h66q6 0 8 -5l100 -150q2 -2 1 -4t-4 -2h-61q-5 0 -9 4z" />
    <glyph glyph-name="atilde" unicode="&#xe3;" horiz-adv-x="486" 
d="M330 70v174q-116 5 -163.5 -19.5t-47.5 -77.5q0 -39 30 -65t92 -26q53 0 89 14zM414 307v-218q0 -32 2 -49q0 -3 -2 -4q-89 -46 -189 -46q-84 0 -137.5 39t-53.5 116q0 171 296 159v20q0 14 -4 28t-14.5 30.5t-34 27t-56.5 10.5q-71 0 -135 -36q-7 -2 -7 5v57q0 6 5 8
q67 37 152 37q89 0 133.5 -50.5t44.5 -133.5zM133 563h-47q-6 0 -6 7q2 54 27.5 82.5t67.5 28.5q33 0 78.5 -27t59.5 -27q32 0 37 46q0 6 5 6h49q5 0 5 -5q-5 -112 -89 -112q-30 0 -75 27t-65 27q-36 0 -42 -47q0 -6 -5 -6z" />
    <glyph glyph-name="adieresis" unicode="&#xe4;" horiz-adv-x="486" 
d="M330 70v174q-116 5 -163.5 -19.5t-47.5 -77.5q0 -39 30 -65t92 -26q53 0 89 14zM414 307v-218q0 -32 2 -49q0 -3 -2 -4q-89 -46 -189 -46q-84 0 -137.5 39t-53.5 116q0 171 296 159v20q0 14 -4 28t-14.5 30.5t-34 27t-56.5 10.5q-71 0 -135 -36q-7 -2 -7 5v57q0 6 5 8
q67 37 152 37q89 0 133.5 -50.5t44.5 -133.5zM150 570q-20 0 -33 12.5t-13 33.5q0 22 13.5 35t33.5 13t32.5 -13t12.5 -35q0 -21 -13 -33.5t-33 -12.5zM334 570q-20 0 -33 12.5t-13 33.5q0 22 13.5 35t32.5 13q20 0 33 -13t13 -35q0 -20 -13 -33t-33 -13z" />
    <glyph glyph-name="aring" unicode="&#xe5;" horiz-adv-x="486" 
d="M330 70v174q-116 5 -163.5 -19.5t-47.5 -77.5q0 -39 30 -65t92 -26q53 0 89 14zM414 307v-218q0 -32 2 -49q0 -3 -2 -4q-89 -46 -189 -46q-84 0 -137.5 39t-53.5 116q0 171 296 159v20q0 14 -4 28t-14.5 30.5t-34 27t-56.5 10.5q-71 0 -135 -36q-7 -2 -7 5v57q0 6 5 8
q67 37 152 37q89 0 133.5 -50.5t44.5 -133.5zM143 621q0 41 27.5 66t71.5 25t72 -25t28 -66t-28 -66t-72 -25t-71.5 24.5t-27.5 66.5zM191 621q0 -23 14.5 -36.5t36.5 -13.5q23 0 37.5 13.5t14.5 36.5t-15 37t-37 14t-36.5 -13.5t-14.5 -37.5z" />
    <glyph glyph-name="ae" unicode="&#xe6;" horiz-adv-x="788" 
d="M118 143q0 -41 28.5 -63.5t78.5 -22.5q72 0 131 53q-25 52 -25 119h-76q-61 0 -99 -20.5t-38 -65.5zM33 142q0 71 61 107.5t161 36.5h77v34q0 17 -4.5 32t-15.5 32t-35 27.5t-59 10.5q-66 0 -134 -34q-6 -3 -6 5v55q0 6 4 7q72 36 151 36q115 0 150 -87q58 87 169 87
q51 0 90 -19t60.5 -49t32.5 -63t11 -65q0 -57 -9 -61q-23 -8 -106 -8h-219q-1 -73 43 -118.5t126 -45.5q68 0 128 29q6 3 6 -4v-56q0 -7 -5 -9q-58 -32 -148 -32q-109 0 -169 69q-84 -69 -184 -69q-72 0 -124 38t-52 114zM545 428q-55 0 -92.5 -39.5t-40.5 -104.5h206
q40 0 44 8q3 6 3 22q0 38 -29 76t-91 38z" />
    <glyph glyph-name="ccedilla" unicode="&#xe7;" horiz-adv-x="442" 
d="M407 463v-58q0 -7 -7 -4q-45 21 -98 21q-76 0 -121.5 -50t-45.5 -130q0 -88 45.5 -134t117.5 -46q58 0 102 22q6 1 6 -4v-58q0 -5 -4 -8q-41 -21 -103 -24l-25 -35q86 -23 86 -91q0 -39 -30 -63.5t-77 -24.5q-43 0 -69 13q-4 3 -4 9v37q0 6 6 5q30 -14 62 -14q48 0 48 36
q0 42 -94 54q-2 1 -2.5 9t1.5 11l42 56q-97 13 -146.5 81t-49.5 166q0 110 69.5 181t182.5 71q66 0 104 -19q4 -3 4 -9z" />
    <glyph glyph-name="egrave" unicode="&#xe8;" horiz-adv-x="505" 
d="M349 232h-216q-2 -76 41 -123t124 -47q71 0 125 27q5 3 5 -4v-57q0 -8 -4 -9q-52 -28 -142 -29q-62 0 -109.5 20.5t-74 57t-39.5 79t-13 91.5q0 111 59.5 182t162.5 71q96 0 145.5 -60.5t49.5 -134.5q0 -52 -8 -58q-18 -6 -106 -6zM134 290h189q56 0 58 7v15q0 38 -28 77
t-90 39q-56 0 -89 -38.5t-40 -99.5zM229 696l83 -150q4 -6 -4 -6h-64q-5 0 -8 5l-99 149q-5 7 3 7h81q5 0 8 -5z" />
    <glyph glyph-name="eacute" unicode="&#xe9;" horiz-adv-x="505" 
d="M349 232h-216q-2 -76 41 -123t124 -47q71 0 125 27q5 3 5 -4v-57q0 -8 -4 -9q-52 -28 -142 -29q-62 0 -109.5 20.5t-74 57t-39.5 79t-13 91.5q0 111 59.5 182t162.5 71q96 0 145.5 -60.5t49.5 -134.5q0 -52 -8 -58q-18 -6 -106 -6zM134 290h189q56 0 58 7v15q0 38 -28 77
t-90 39q-56 0 -89 -38.5t-40 -99.5zM215 546l80 148q3 7 9 7h80q8 0 5 -8l-96 -149q-3 -4 -10 -4h-65q-6 0 -3 6z" />
    <glyph glyph-name="ecircumflex" unicode="&#xea;" horiz-adv-x="505" 
d="M349 232h-216q-2 -76 41 -123t124 -47q71 0 125 27q5 3 5 -4v-57q0 -8 -4 -9q-52 -28 -142 -29q-62 0 -109.5 20.5t-74 57t-39.5 79t-13 91.5q0 111 59.5 182t162.5 71q96 0 145.5 -60.5t49.5 -134.5q0 -52 -8 -58q-18 -6 -106 -6zM134 290h189q56 0 58 7v15q0 38 -28 77
t-90 39q-56 0 -89 -38.5t-40 -99.5zM258 654l-69 -113q-1 -3 -8 -3h-56q-8 0 -3 7l98 150q3 4 6 4h67q5 0 8 -5l100 -150q4 -6 -4 -6h-60q-6 0 -9 4z" />
    <glyph glyph-name="edieresis" unicode="&#xeb;" horiz-adv-x="505" 
d="M349 232h-216q-2 -76 41 -123t124 -47q71 0 125 27q5 3 5 -4v-57q0 -8 -4 -9q-52 -28 -142 -29q-62 0 -109.5 20.5t-74 57t-39.5 79t-13 91.5q0 111 59.5 182t162.5 71q96 0 145.5 -60.5t49.5 -134.5q0 -52 -8 -58q-18 -6 -106 -6zM134 290h189q56 0 58 7v15q0 38 -28 77
t-90 39q-56 0 -89 -38.5t-40 -99.5zM166 570q-20 0 -33 12.5t-13 33.5q0 22 13.5 35t33.5 13t32.5 -13t12.5 -35q0 -21 -13 -33.5t-33 -12.5zM350 570q-20 0 -33 12.5t-13 33.5q0 22 13.5 35t32.5 13q20 0 33 -13t13 -35q0 -20 -13 -33t-33 -13z" />
    <glyph glyph-name="igrave" unicode="&#xec;" horiz-adv-x="231" 
d="M72 8v467q0 7 6 7h73q7 0 7 -6v-469q0 -7 -7 -7h-71q-8 0 -8 8zM74 696l83 -150q4 -6 -4 -6h-64q-5 0 -8 5l-99 149q-5 7 3 7h81q6 0 8 -5z" />
    <glyph glyph-name="iacute" unicode="&#xed;" horiz-adv-x="231" 
d="M72 8v467q0 7 6 7h73q7 0 7 -6v-469q0 -7 -7 -7h-71q-8 0 -8 8zM71 546l80 148q3 7 9 7h80q8 0 5 -8l-96 -149q-3 -4 -10 -4h-65q-6 0 -3 6z" />
    <glyph glyph-name="icircumflex" unicode="&#xee;" horiz-adv-x="231" 
d="M72 8v467q0 7 6 7h73q7 0 7 -6v-469q0 -7 -7 -7h-71q-8 0 -8 8zM112 654l-69 -113q-1 -3 -8 -3h-55q-8 0 -3 7l97 150q3 4 7 4h66q5 0 8 -5l100 -150q4 -6 -3 -6h-61q-6 0 -9 4z" />
    <glyph glyph-name="idieresis" unicode="&#xef;" horiz-adv-x="231" 
d="M72 8v467q0 7 6 7h73q7 0 7 -6v-469q0 -7 -7 -7h-71q-8 0 -8 8zM23 570q-20 0 -33 12.5t-13 33.5q0 22 13.5 35t33.5 13t32.5 -13t12.5 -35q0 -21 -13 -33.5t-33 -12.5zM207 570q-20 0 -33 12.5t-13 33.5q0 22 13.5 35t32.5 13q20 0 33 -13t13 -35q0 -20 -13 -33t-33 -13
z" />
    <glyph glyph-name="eth" unicode="&#xf0;" horiz-adv-x="563" 
d="M289 401q-68 0 -111.5 -42.5t-43.5 -128.5q0 -75 40 -123.5t108 -48.5q61 0 102 49.5t41 152.5q0 45 -9 77q-2 8 -11 17q-44 47 -116 47zM452 649l-82 -45q141 -122 141 -332q0 -133 -65 -207.5t-171 -74.5q-112 0 -170 70t-58 170q0 107 66.5 172t171.5 65q62 0 109 -33
q-31 81 -96 130l-141 -75q-6 -2 -6 3v39q0 6 4 7l99 53q-59 41 -151 61q-6 2 -6 8v58q0 6 5 6q16 0 26 -3q114 -25 204 -86l120 65q5 1 5 -3v-41q0 -6 -5 -7z" />
    <glyph glyph-name="ntilde" unicode="&#xf1;" horiz-adv-x="542" 
d="M72 7v362q0 39 -4 107q-2 6 6 6h64q6 0 9 -6q1 -2 6 -49q69 64 157 64q29 0 54.5 -8.5t50.5 -28.5t40 -60.5t15 -97.5v-289q0 -7 -7 -7h-72q-7 0 -7 8v288q0 123 -102 123q-67 0 -125 -58v-354q0 -7 -6 -7h-73q-6 0 -6 7zM157 563h-48q-5 0 -5 7q1 53 27 82t67 29
q34 0 79.5 -27t59.5 -27q33 0 36 46q0 6 6 6h48q6 0 6 -5q-5 -112 -89 -112q-30 0 -75 27t-65 27q-36 0 -42 -47q0 -6 -5 -6z" />
    <glyph glyph-name="ograve" unicode="&#xf2;" horiz-adv-x="559" 
d="M282 491q106 0 168 -69t62 -180q0 -115 -64 -183.5t-167 -68.5q-116 0 -175 74.5t-59 176.5q0 110 65 180t170 70zM277 426q-64 0 -103.5 -50t-39.5 -133t39 -135t110 -52q60 0 101 45t41 138q0 82 -36.5 134.5t-111.5 52.5zM246 696l84 -150q4 -6 -4 -6h-64q-6 0 -8 5
l-99 149q-2 2 -1 4.5t4 2.5h81q5 0 7 -5z" />
    <glyph glyph-name="oacute" unicode="&#xf3;" horiz-adv-x="559" 
d="M282 491q106 0 168 -69t62 -180q0 -115 -64 -183.5t-167 -68.5q-116 0 -175 74.5t-59 176.5q0 110 65 180t170 70zM277 426q-64 0 -103.5 -50t-39.5 -133t39 -135t110 -52q60 0 101 45t41 138q0 82 -36.5 134.5t-111.5 52.5zM230 546l80 148q4 7 9 7h80q8 0 5 -8
l-96 -149q-3 -4 -10 -4h-65q-6 0 -3 6z" />
    <glyph glyph-name="ocircumflex" unicode="&#xf4;" horiz-adv-x="559" 
d="M282 491q106 0 168 -69t62 -180q0 -115 -64 -183.5t-167 -68.5q-116 0 -175 74.5t-59 176.5q0 110 65 180t170 70zM277 426q-64 0 -103.5 -50t-39.5 -133t39 -135t110 -52q60 0 101 45t41 138q0 82 -36.5 134.5t-111.5 52.5zM276 654l-69 -113q-1 -3 -8 -3h-55q-8 0 -3 7
l97 150q3 4 7 4h66q6 0 8 -5l100 -150q2 -2 0.5 -4t-3.5 -2h-61q-6 0 -9 4z" />
    <glyph glyph-name="otilde" unicode="&#xf5;" horiz-adv-x="559" 
d="M282 491q106 0 168 -69t62 -180q0 -115 -64 -183.5t-167 -68.5q-116 0 -175 74.5t-59 176.5q0 110 65 180t170 70zM277 426q-64 0 -103.5 -50t-39.5 -133t39 -135t110 -52q60 0 101 45t41 138q0 82 -36.5 134.5t-111.5 52.5zM170 563h-48q-5 0 -5 7q1 53 27 82t67 29
q34 0 79.5 -27t59.5 -27q33 0 36 46q0 6 6 6h48q6 0 6 -5q-5 -112 -89 -112q-30 0 -75 27t-65 27q-36 0 -42 -47q0 -6 -5 -6z" />
    <glyph glyph-name="odieresis" unicode="&#xf6;" horiz-adv-x="559" 
d="M282 491q106 0 168 -69t62 -180q0 -115 -64 -183.5t-167 -68.5q-116 0 -175 74.5t-59 176.5q0 110 65 180t170 70zM277 426q-64 0 -103.5 -50t-39.5 -133t39 -135t110 -52q60 0 101 45t41 138q0 82 -36.5 134.5t-111.5 52.5zM187 570q-20 0 -33 12.5t-13 33.5
q0 22 13.5 35t33.5 13t32.5 -13t12.5 -35q0 -21 -13 -33.5t-33 -12.5zM371 570q-20 0 -33 12.5t-13 33.5q0 22 13.5 35t32.5 13q20 0 33 -13t13 -35q0 -20 -13 -33t-33 -13z" />
    <glyph glyph-name="divide" unicode="&#xf7;" horiz-adv-x="558" 
d="M278 388q-19 0 -31.5 13.5t-11.5 33.5q0 20 12 33t32 13t32 -13t13 -33q0 -21 -12.5 -34t-33.5 -13zM278 42q-19 0 -31.5 13t-11.5 33q0 21 12 34t32 13t32 -13t13 -34q0 -20 -12.5 -33t-33.5 -13zM30 288q0 7 6 7h486q5 0 5 -6v-52q0 -6 -5 -6h-486q-6 0 -6 6v51z" />
    <glyph glyph-name="oslash" unicode="&#xf8;" horiz-adv-x="562" 
d="M166 126l203 273q-36 30 -89 30q-66 0 -107 -50.5t-41 -136.5q0 -72 34 -116zM151 29l-23 -29q-3 -4 -10 -4h-46q-7 0 -2 7l42 55q-65 74 -65 182q0 111 64.5 181t170.5 70q77 0 129 -37l19 25q3 3 8 3h46q8 0 4 -7l-40 -51q67 -67 67 -183q0 -114 -64 -182.5t-168 -68.5
q-80 0 -132 39zM397 358l-203 -273q38 -31 91 -31q60 0 103 44.5t43 139.5q0 76 -34 120z" />
    <glyph glyph-name="ugrave" unicode="&#xf9;" horiz-adv-x="535" 
d="M463 475v-369q0 -56 6 -100q0 -6 -6 -6h-66q-5 0 -8 5q-3 9 -5 44q-64 -59 -151 -59q-69 0 -115 41.5t-46 141.5v302q0 7 6 7h74q5 0 5 -7v-289q0 -124 101 -124q72 0 119 53v360q0 7 7 7h73q6 0 6 -7zM240 696l83 -150q4 -6 -4 -6h-64q-6 0 -8 5l-99 149q-5 7 3 7h81
q6 0 8 -5z" />
    <glyph glyph-name="uacute" unicode="&#xfa;" horiz-adv-x="535" 
d="M463 475v-369q0 -56 6 -100q0 -6 -6 -6h-66q-5 0 -8 5q-3 9 -5 44q-64 -59 -151 -59q-69 0 -115 41.5t-46 141.5v302q0 7 6 7h74q5 0 5 -7v-289q0 -124 101 -124q72 0 119 53v360q0 7 7 7h73q6 0 6 -7zM220 546l80 148q4 7 9 7h80q8 0 5 -8l-96 -149q-3 -4 -10 -4h-65
q-6 0 -3 6z" />
    <glyph glyph-name="ucircumflex" unicode="&#xfb;" horiz-adv-x="535" 
d="M463 475v-369q0 -56 6 -100q0 -6 -6 -6h-66q-5 0 -8 5q-3 9 -5 44q-64 -59 -151 -59q-69 0 -115 41.5t-46 141.5v302q0 7 6 7h74q5 0 5 -7v-289q0 -124 101 -124q72 0 119 53v360q0 7 7 7h73q6 0 6 -7zM266 654l-69 -113q-1 -3 -8 -3h-56q-8 0 -3 7l98 150q3 4 6 4h67
q5 0 8 -5l100 -150q4 -6 -4 -6h-60q-6 0 -9 4z" />
    <glyph glyph-name="udieresis" unicode="&#xfc;" horiz-adv-x="535" 
d="M463 475v-369q0 -56 6 -100q0 -6 -6 -6h-66q-5 0 -8 5q-3 9 -5 44q-64 -59 -151 -59q-69 0 -115 41.5t-46 141.5v302q0 7 6 7h74q5 0 5 -7v-289q0 -124 101 -124q72 0 119 53v360q0 7 7 7h73q6 0 6 -7zM178 570q-20 0 -33 12.5t-13 33.5q0 22 13.5 35t33.5 13t32.5 -13
t12.5 -35q0 -21 -13 -33.5t-33 -12.5zM362 570q-20 0 -33 12.5t-13 33.5q0 22 13.5 35t32.5 13q20 0 33 -13t13 -35q0 -20 -13 -33t-33 -13z" />
    <glyph glyph-name="yacute" unicode="&#xfd;" horiz-adv-x="467" 
d="M14 482h82q5 0 7 -5q134 -351 141 -371h2q67 162 127 370q3 6 9 6h69q8 0 6 -8q-60 -225 -168 -446q-90 -178 -151 -253q-8 -6 -13 -6h-81q-10 0 -3 9q35 41 83 115.5t71 120.5q3 8 1 13q-15 34 -92.5 221l-93.5 227q-4 7 4 7zM187 546l80 148q3 7 9 7h80q8 0 5 -8
l-96 -149q-3 -4 -10 -4h-65q-6 0 -3 6z" />
    <glyph glyph-name="thorn" unicode="&#xfe;" horiz-adv-x="543" 
d="M275 491q102 0 161.5 -70t59.5 -172q0 -118 -70 -188.5t-171 -70.5q-58 0 -98 20v-222q0 -6 -5 -6l-74 -8q-6 0 -6 7v927q0 7 6 7h73q6 0 6 -7v-244q50 27 118 27zM254 423q-46 0 -97 -27v-315q35 -23 96 -23q64 0 109.5 49t45.5 139q0 81 -42 129t-112 48z" />
    <glyph glyph-name="ydieresis" unicode="&#xff;" horiz-adv-x="467" 
d="M14 482h82q5 0 7 -5q134 -351 141 -371h2q67 162 127 370q3 6 9 6h69q8 0 6 -8q-60 -225 -168 -446q-90 -178 -151 -253q-8 -6 -13 -6h-81q-10 0 -3 9q35 41 83 115.5t71 120.5q3 8 1 13q-15 34 -92.5 221l-93.5 227q-4 7 4 7zM142 570q-20 0 -33 12.5t-13 33.5
q0 22 13.5 35t33.5 13t32.5 -13t12.5 -35q0 -21 -13 -33.5t-33 -12.5zM326 570q-20 0 -33 12.5t-13 33.5q0 22 13.5 35t32.5 13q20 0 33 -13t13 -35q0 -20 -13 -33t-33 -13z" />
    <glyph glyph-name="Amacron" unicode="&#x100;" horiz-adv-x="639" 
d="M439 214h-246l-74 -208q-1 -6 -8 -6h-72q-8 0 -6 8l219 601q5 13 7 42q0 6 5 6h100q5 0 6 -5l235 -645q3 -7 -4 -7h-78q-5 0 -8 5zM213 285h205q-8 27 -50 145.5t-53 156.5h-1q-7 -27 -101 -302zM191 795h255q5 0 5 -6v-54q0 -6 -6 -6h-252q-7 0 -7 6v55q0 5 5 5z" />
    <glyph glyph-name="amacron" unicode="&#x101;" horiz-adv-x="486" 
d="M330 70v174q-116 5 -163.5 -19.5t-47.5 -77.5q0 -39 30 -65t92 -26q53 0 89 14zM414 307v-218q0 -32 2 -49q0 -3 -2 -4q-89 -46 -189 -46q-84 0 -137.5 39t-53.5 116q0 171 296 159v20q0 14 -4 28t-14.5 30.5t-34 27t-56.5 10.5q-71 0 -135 -36q-7 -2 -7 5v57q0 6 5 8
q67 37 152 37q89 0 133.5 -50.5t44.5 -133.5zM107 648h265q5 0 5 -5v-52q0 -5 -5 -5h-265q-5 0 -5 6v51q0 5 5 5z" />
    <glyph glyph-name="Abreve" unicode="&#x102;" horiz-adv-x="639" 
d="M439 214h-246l-74 -208q-1 -6 -8 -6h-72q-8 0 -6 8l219 601q5 13 7 42q0 6 5 6h100q5 0 6 -5l235 -645q3 -7 -4 -7h-78q-5 0 -8 5zM213 285h205q-8 27 -50 145.5t-53 156.5h-1q-7 -27 -101 -302zM172 835h58q5 0 6 -5q20 -59 79 -59q62 0 82 59q2 5 6 5h57q5 0 5 -7
q-8 -56 -50 -89.5t-100 -33.5q-60 0 -101 31.5t-47 92.5q0 6 5 6z" />
    <glyph glyph-name="abreve" unicode="&#x103;" horiz-adv-x="486" 
d="M330 70v174q-116 5 -163.5 -19.5t-47.5 -77.5q0 -39 30 -65t92 -26q53 0 89 14zM414 307v-218q0 -32 2 -49q0 -3 -2 -4q-89 -46 -189 -46q-84 0 -137.5 39t-53.5 116q0 171 296 159v20q0 14 -4 28t-14.5 30.5t-34 27t-56.5 10.5q-71 0 -135 -36q-7 -2 -7 5v57q0 6 5 8
q67 37 152 37q89 0 133.5 -50.5t44.5 -133.5zM89 675h57q4 0 5 -3q21 -60 82 -60q66 0 84 59q1 4 5 4h57q4 0 4 -5q-10 -57 -49 -89t-101 -32q-60 0 -99.5 30.5t-48.5 91.5q-1 4 4 4z" />
    <glyph glyph-name="Aogonek" unicode="&#x104;" horiz-adv-x="639" 
d="M213 285h205q-8 27 -50 145.5t-53 156.5h-1q-7 -27 -101 -302zM439 214h-246l-74 -208q-1 -6 -8 -6h-72q-8 0 -6 8l219 601q5 13 7 42q0 6 5 6h100q5 0 6 -5l234 -640q4 -9 -3 -12q-84 -52 -84 -107q0 -24 16.5 -38t46.5 -14q33 0 51 8q7 3 7 -4v-46q0 -8 -6 -11
q-27 -15 -77 -15q-49 0 -85 24.5t-36 74.5q0 70 87 131q-4 2 -9 9z" />
    <glyph glyph-name="aogonek" unicode="&#x105;" horiz-adv-x="486" 
d="M330 70v174q-115 5 -163 -20t-48 -78q0 -38 30 -64t92 -26q53 0 89 14zM414 307v-218q0 -35 2 -52q0 -6 -5 -8q-125 -70 -125 -132q0 -25 16.5 -39.5t45.5 -14.5q34 0 56 9q7 3 7 -4v-46q0 -8 -6 -11q-28 -16 -81 -16q-47 0 -82.5 24.5t-35.5 74.5q0 35 24.5 66.5
t61.5 54.5q-30 -5 -67 -5q-84 0 -137.5 39t-53.5 116q0 171 296 159v19q0 15 -4 29t-14 30.5t-33.5 27t-57.5 10.5q-68 0 -135 -36q-7 -2 -7 4v58q0 6 5 8q67 37 152 37q89 0 133.5 -50.5t44.5 -133.5z" />
    <glyph glyph-name="Cacute" unicode="&#x106;" horiz-adv-x="593" 
d="M55 327q0 144 95 242t248 98q91 0 135 -22q5 -3 5 -9v-64q0 -9 -6 -5q-58 26 -133 26q-114 0 -185 -72.5t-71 -190.5q0 -74 24.5 -128.5t64 -82t79.5 -39.5t81 -12q86 0 148 30q7 4 7 -4v-62q0 -8 -6 -10q-57 -32 -164 -32q-61 0 -116 18.5t-102.5 57t-75.5 106
t-28 155.5zM287 713l116 112q3 4 9 4h85q8 0 3 -7l-126 -110q-5 -5 -11 -5h-72q-8 0 -4 6z" />
    <glyph glyph-name="cacute" unicode="&#x107;" horiz-adv-x="442" 
d="M406 80v-58q0 -5 -4 -8q-47 -24 -120 -24q-116 0 -175.5 70.5t-59.5 178.5q0 110 69.5 181t182.5 71q66 0 104 -19q4 -3 4 -9v-58q0 -7 -7 -4q-45 21 -98 21q-76 0 -121.5 -50t-45.5 -130q0 -88 45.5 -134t117.5 -46q58 0 102 22q6 1 6 -4zM243 546l80 148q3 7 9 7h81
q7 0 4 -8l-95 -149q-4 -4 -11 -4h-64q-5 0 -4 6z" />
    <glyph glyph-name="Ccircumflex" unicode="&#x108;" horiz-adv-x="593" 
d="M55 327q0 144 95 242t248 98q91 0 135 -22q5 -3 5 -9v-64q0 -9 -6 -5q-58 26 -133 26q-114 0 -185 -72.5t-71 -190.5q0 -74 24.5 -128.5t64 -82t79.5 -39.5t81 -12q86 0 148 30q7 4 7 -4v-62q0 -8 -6 -10q-57 -32 -164 -32q-61 0 -116 18.5t-102.5 57t-75.5 106
t-28 155.5zM410 710l-73 75l-72 -74q-3 -5 -9 -5h-65q-5 1 -2 7l107 112q5 3 8 3h68q8 0 10 -4l112 -113q5 -5 -3 -5h-70q-8 0 -11 4z" />
    <glyph glyph-name="ccircumflex" unicode="&#x109;" horiz-adv-x="442" 
d="M406 80v-58q0 -5 -4 -8q-47 -24 -120 -24q-116 0 -175.5 70.5t-59.5 178.5q0 110 69.5 181t182.5 71q66 0 104 -19q4 -3 4 -9v-58q0 -7 -7 -4q-45 21 -98 21q-76 0 -121.5 -50t-45.5 -130q0 -88 45.5 -134t117.5 -46q58 0 102 22q6 1 6 -4zM264 655l-69 -113q-1 -3 -8 -3
h-55q-4 0 -4.5 2.5t1.5 4.5l97 150q3 4 6 4h67q5 0 8 -5l100 -150q4 -6 -4 -6h-60q-6 0 -9 4z" />
    <glyph glyph-name="Cdotaccent" unicode="&#x10a;" horiz-adv-x="593" 
d="M55 327q0 144 95 242t248 98q91 0 135 -22q5 -3 5 -9v-64q0 -9 -6 -5q-58 26 -133 26q-114 0 -185 -72.5t-71 -190.5q0 -74 24.5 -128.5t64 -82t79.5 -39.5t81 -12q86 0 148 30q7 4 7 -4v-62q0 -8 -6 -10q-57 -32 -164 -32q-61 0 -116 18.5t-102.5 57t-75.5 106
t-28 155.5zM355 720q-23 0 -36.5 12.5t-13.5 33.5q0 20 14 33t38 13q22 0 36 -13t14 -33q0 -21 -14 -33.5t-38 -12.5z" />
    <glyph glyph-name="cdotaccent" unicode="&#x10b;" horiz-adv-x="442" 
d="M406 80v-58q0 -5 -4 -8q-47 -24 -120 -24q-116 0 -175.5 70.5t-59.5 178.5q0 110 69.5 181t182.5 71q66 0 104 -19q4 -3 4 -9v-58q0 -7 -7 -4q-45 21 -98 21q-76 0 -121.5 -50t-45.5 -130q0 -88 45.5 -134t117.5 -46q58 0 102 22q6 1 6 -4zM273 569q-22 0 -36 13t-14 34
q0 22 14 35t37 13q22 0 35.5 -13.5t13.5 -34.5q0 -20 -14 -33.5t-36 -13.5z" />
    <glyph glyph-name="Ccaron" unicode="&#x10c;" horiz-adv-x="593" 
d="M55 327q0 144 95 242t248 98q91 0 135 -22q5 -3 5 -9v-64q0 -9 -6 -5q-58 26 -133 26q-114 0 -185 -72.5t-71 -190.5q0 -74 24.5 -128.5t64 -82t79.5 -39.5t81 -12q86 0 148 30q7 4 7 -4v-62q0 -8 -6 -10q-57 -32 -164 -32q-61 0 -116 18.5t-102.5 57t-75.5 106
t-28 155.5zM281 821l73 -74l72 74q3 5 9 5h65q3 0 3.5 -3t-1.5 -5l-107 -111q-5 -3 -8 -3h-68q-7 0 -10 4l-112 113q-3 5 3 5h71q7 0 10 -5z" />
    <glyph glyph-name="ccaron" unicode="&#x10d;" horiz-adv-x="442" 
d="M406 80v-58q0 -5 -4 -8q-47 -24 -120 -24q-116 0 -175.5 70.5t-59.5 178.5q0 110 69.5 181t182.5 71q66 0 104 -19q4 -3 4 -9v-58q0 -7 -7 -4q-45 21 -98 21q-76 0 -121.5 -50t-45.5 -130q0 -88 45.5 -134t117.5 -46q58 0 102 22q6 1 6 -4zM283 582q23 41 69 113q2 4 8 4
h55q3 0 4 -2.5t-1 -4.5l-97 -150q-3 -4 -7 -4h-66q-5 0 -8 4l-100 150q-2 5 3 7h61q6 0 9 -5q57 -90 70 -112z" />
    <glyph glyph-name="Dcaron" unicode="&#x10e;" horiz-adv-x="660" 
d="M78 8v641q0 7 6 8q90 2 183 2q165 0 250.5 -87.5t85.5 -235.5q0 -83 -24.5 -146t-61.5 -98.5t-87.5 -58t-94 -29.5t-89.5 -7q-33 0 -162 3q-6 0 -6 8zM164 588v-520q30 -2 84 -2q127 0 197 66t70 202q0 126 -65.5 191t-183.5 65q-82 0 -102 -2zM223 818l73 -75l72 74
q3 5 9 5h65q3 0 3.5 -3t-1.5 -4l-107 -112q-4 -3 -8 -3h-68q-8 0 -10 4l-112 113q-5 5 3 5h70q8 0 11 -4z" />
    <glyph glyph-name="dcaron" unicode="&#x10f;" horiz-adv-x="597" 
d="M544 494v226q0 6 6 6h56q6 0 5 -6l-11 -225q0 -7 -6 -7h-45q-5 0 -5 6zM288 -10q-110 0 -175.5 64t-65.5 183q0 111 74 182.5t192 71.5q47 0 75 -10v228q0 6 6 6h74q6 0 6 -6v-613q0 -24 2 -48q0 -5 -5 -9q-87 -49 -183 -49zM388 74v336q-29 13 -77 13q-82 0 -129 -50
t-47 -132q0 -92 47 -136t116 -44q57 0 90 13z" />
    <glyph glyph-name="Dcroat" unicode="&#x110;" horiz-adv-x="670" 
d="M88 8v295h-64q-5 0 -5 6v53q0 5 5 5h64v284q0 6 5 6q76 2 175 2q166 0 256 -86t90 -234q0 -85 -26 -149t-63.5 -99.5t-89.5 -57.5t-95 -28.5t-89 -6.5q-101 0 -156 2q-7 0 -7 8zM174 588v-221h154q5 0 5 -5v-53q0 -6 -6 -6h-153v-234q24 -2 78 -2q127 0 200.5 67.5
t73.5 202.5q0 126 -71.5 189.5t-187.5 63.5q-63 0 -93 -2z" />
    <glyph glyph-name="dcroat" unicode="&#x111;" horiz-adv-x="543" 
d="M472 619h69q5 0 5 -4v-43q0 -5 -5 -5h-69v-484q0 -31 2 -49q0 -5 -6 -7q-86 -37 -169 -37q-117 0 -184.5 63t-67.5 179q0 107 74 175.5t191 68.5q46 0 74 -11v102h-112q-6 0 -6 6v41q0 5 5 5h113v89q0 7 7 7h73q6 0 6 -7v-89zM386 72v327q-28 14 -74 14q-81 0 -129 -49
t-48 -129q0 -90 49 -134t121 -44q54 0 81 15z" />
    <glyph glyph-name="Emacron" unicode="&#x112;" horiz-adv-x="513" 
d="M485 64l-11 -58q-1 -6 -8 -6h-380q-8 0 -8 8v642q0 7 7 7h366q6 0 8 -6l7 -57q2 -7 -5 -7h-297v-217h264q5 0 5 -6v-58q0 -6 -6 -6h-263v-230h316q6 0 5 -6zM141 794h255q5 0 5 -6v-54q0 -6 -6 -6h-252q-7 0 -7 6v54q0 6 5 6z" />
    <glyph glyph-name="emacron" unicode="&#x113;" horiz-adv-x="505" 
d="M349 232h-216q-2 -76 41 -123t124 -47q71 0 125 27q5 3 5 -4v-57q0 -8 -4 -9q-52 -28 -142 -29q-62 0 -109.5 20.5t-74 57t-39.5 79t-13 91.5q0 111 59.5 182t162.5 71q96 0 145.5 -60.5t49.5 -134.5q0 -52 -8 -58q-18 -6 -106 -6zM134 290h189q56 0 58 7v15q0 38 -28 77
t-90 39q-56 0 -89 -38.5t-40 -99.5zM131 648h265q4 0 4 -5v-52q0 -5 -5 -5h-265q-5 0 -5 6v51q0 5 6 5z" />
    <glyph glyph-name="Ebreve" unicode="&#x114;" horiz-adv-x="513" 
d="M485 64l-11 -58q-1 -6 -8 -6h-380q-8 0 -8 8v642q0 7 7 7h366q6 0 8 -6l7 -57q2 -7 -5 -7h-297v-217h264q5 0 5 -6v-58q0 -6 -6 -6h-263v-230h316q6 0 5 -6zM124 836h57q6 0 7 -5q19 -59 79 -59q62 0 82 59q2 5 6 5h57q5 0 5 -7q-8 -56 -50 -89.5t-100 -33.5
q-60 0 -101 31.5t-47 92.5q-1 6 5 6z" />
    <glyph glyph-name="ebreve" unicode="&#x115;" horiz-adv-x="505" 
d="M349 232h-216q-2 -76 41 -123t124 -47q71 0 125 27q5 3 5 -4v-57q0 -8 -4 -9q-52 -28 -142 -29q-62 0 -109.5 20.5t-74 57t-39.5 79t-13 91.5q0 111 59.5 182t162.5 71q96 0 145.5 -60.5t49.5 -134.5q0 -52 -8 -58q-18 -6 -106 -6zM134 290h189q56 0 58 7v15q0 38 -28 77
t-90 39q-56 0 -89 -38.5t-40 -99.5zM115 676h57q4 0 5 -3q21 -60 82 -60q66 0 84 59q1 4 5 4h57q4 0 4 -5q-10 -57 -49 -89t-101 -32q-60 0 -99.5 30.5t-48.5 91.5q-1 4 4 4z" />
    <glyph glyph-name="Edotaccent" unicode="&#x116;" horiz-adv-x="513" 
d="M485 64l-11 -58q-1 -6 -8 -6h-380q-8 0 -8 8v642q0 7 7 7h366q6 0 8 -6l7 -57q2 -7 -5 -7h-297v-217h264q5 0 5 -6v-58q0 -6 -6 -6h-263v-230h316q6 0 5 -6zM270 714q-23 0 -36.5 12.5t-13.5 33.5t14 33.5t37 12.5t37 -13t14 -33q0 -21 -14 -33.5t-38 -12.5z" />
    <glyph glyph-name="edotaccent" unicode="&#x117;" horiz-adv-x="505" 
d="M349 232h-216q-2 -76 41 -123t124 -47q71 0 125 27q5 3 5 -4v-57q0 -8 -4 -9q-52 -28 -142 -29q-62 0 -109.5 20.5t-74 57t-39.5 79t-13 91.5q0 111 59.5 182t162.5 71q96 0 145.5 -60.5t49.5 -134.5q0 -52 -8 -58q-18 -6 -106 -6zM134 290h189q56 0 58 7v15q0 38 -28 77
t-90 39q-56 0 -89 -38.5t-40 -99.5zM261 569q-22 0 -36 13t-14 34q0 22 14 35t37 13q22 0 35.5 -13.5t13.5 -34.5q0 -20 -14 -33.5t-36 -13.5z" />
    <glyph glyph-name="Eogonek" unicode="&#x118;" horiz-adv-x="513" 
d="M466 0h-24q-77 -55 -77 -105q0 -24 16.5 -38t44.5 -14q31 0 55 8q5 2 5 -3v-49q0 -7 -4 -9q-28 -16 -80 -16q-48 0 -84.5 25t-36.5 75q0 63 84 126h-279q-8 0 -8 8v642q0 7 7 7h366q6 0 8 -6l7 -57q2 -7 -5 -7h-297v-217h264q5 0 5 -6v-58q0 -6 -6 -6h-263v-230h316
q6 0 5 -6l-11 -58q-1 -6 -8 -6z" />
    <glyph glyph-name="eogonek" unicode="&#x119;" horiz-adv-x="505" 
d="M349 232h-216q-3 -74 40 -122t125 -48q71 0 132 31q7 3 7 -5v-51q0 -7 -6 -12q-127 -65 -127 -131q0 -24 17 -38.5t47 -14.5q29 0 53 10q7 2 7 -5v-46q0 -8 -7 -11q-27 -15 -77 -15q-48 0 -83 24t-35 74q0 62 76 121q-55 -4 -99 8t-73 35.5t-48 57t-27.5 69.5t-8.5 75
q0 111 59.5 182t162.5 71q96 0 145.5 -60.5t49.5 -134.5q0 -52 -8 -58q-18 -6 -106 -6zM134 290h189q56 0 58 7v15q0 38 -28 77t-90 39q-56 0 -89 -39t-40 -99z" />
    <glyph glyph-name="Ecaron" unicode="&#x11a;" horiz-adv-x="513" 
d="M485 64l-11 -58q-1 -6 -8 -6h-380q-8 0 -8 8v642q0 7 7 7h366q6 0 8 -6l7 -57q2 -7 -5 -7h-297v-217h264q5 0 5 -6v-58q0 -6 -6 -6h-263v-230h316q6 0 5 -6zM197 820l73 -75l71 74q5 5 10 5h65q5 -1 2 -7l-108 -112q-3 -3 -7 -3h-68q-8 0 -11 4l-111 113q-5 5 3 5h70
q7 0 11 -4z" />
    <glyph glyph-name="ecaron" unicode="&#x11b;" horiz-adv-x="505" 
d="M349 232h-216q-2 -76 41 -123t124 -47q71 0 125 27q5 3 5 -4v-57q0 -8 -4 -9q-52 -28 -142 -29q-62 0 -109.5 20.5t-74 57t-39.5 79t-13 91.5q0 111 59.5 182t162.5 71q96 0 145.5 -60.5t49.5 -134.5q0 -52 -8 -58q-18 -6 -106 -6zM134 290h189q56 0 58 7v15q0 38 -28 77
t-90 39q-56 0 -89 -38.5t-40 -99.5zM257 582q23 41 69 113q2 4 8 4h55q3 0 4 -2.5t-1 -4.5l-97 -150q-3 -4 -7 -4h-66q-5 0 -8 4l-100 150q-2 2 -0.5 4.5t4.5 2.5h60q6 0 9 -5q57 -90 70 -112z" />
    <glyph glyph-name="Gcircumflex" unicode="&#x11c;" horiz-adv-x="666" 
d="M513 265l-134 2q-7 1 -7 7v56q0 6 6 6h214q7 0 7 -7v-284q0 -6 -6 -10q-95 -45 -207 -45q-162 0 -246.5 95t-84.5 238q0 156 95 250t248 94q115 0 178 -37q4 -4 4 -10v-65q0 -9 -6 -5q-76 42 -174 42q-121 0 -189 -71t-68 -195q0 -51 15 -97t44.5 -83.5t79 -60
t113.5 -22.5q70 0 118 23v179zM427 709l-73 74l-72 -74q-3 -5 -9 -5h-65q-3 0 -3.5 3t1.5 5l107 111q3 3 8 3h68q7 0 10 -4l112 -113q1 -3 -3 -5h-71q-7 0 -10 5z" />
    <glyph glyph-name="gcircumflex" unicode="&#x11d;" horiz-adv-x="508" 
d="M343 325q0 51 -26 79.5t-76 28.5q-47 0 -77 -29t-30 -79q0 -49 28.5 -78t76.5 -29t76 28.5t28 78.5zM412 -78q0 85 -163 85q-48 0 -71 -5q-23 -12 -44 -35.5t-21 -48.5q0 -40 39.5 -68t107.5 -28q76 0 114 29.5t38 70.5zM242 491q47 0 76 -7q10 -2 24 -2h138q6 0 6 -6
v-53q0 -6 -6 -6l-89 3q32 -32 32 -97q0 -78 -50.5 -121t-130.5 -43q-31 0 -50 7q-12 -19 -12 -44q0 -30 19 -49q24 2 60 2q112 0 174 -32t62 -111q0 -74 -64.5 -124t-174.5 -50q-101 0 -161.5 44.5t-60.5 113.5q0 58 94 128q-24 32 -24 73q0 37 20 67q-72 44 -72 140
q0 73 52 120t138 47zM253 654l-69 -113q-2 -3 -8 -3h-56q-8 0 -3 7l97 150q4 4 7 4h67q5 0 8 -5l100 -150q4 -6 -4 -6h-60q-6 0 -9 4q-7 12 -35 56t-35 56z" />
    <glyph glyph-name="Gbreve" unicode="&#x11e;" horiz-adv-x="666" 
d="M513 265l-134 2q-7 1 -7 7v56q0 6 6 6h214q7 0 7 -7v-284q0 -6 -6 -10q-95 -45 -207 -45q-162 0 -246.5 95t-84.5 238q0 156 95 250t248 94q115 0 178 -37q4 -4 4 -10v-65q0 -9 -6 -5q-76 42 -174 42q-121 0 -189 -71t-68 -195q0 -51 15 -97t44.5 -83.5t79 -60
t113.5 -22.5q70 0 118 23v179zM218 840h57q5 0 7 -6q19 -59 79 -59q61 0 82 60q2 5 6 5h57q5 0 5 -7q-8 -56 -50.5 -90t-99.5 -34q-60 0 -101 32t-47 93q-2 6 5 6z" />
    <glyph glyph-name="gbreve" unicode="&#x11f;" horiz-adv-x="508" 
d="M343 325q0 51 -26 79.5t-76 28.5q-47 0 -77 -29t-30 -79q0 -49 28.5 -78t76.5 -29t76 28.5t28 78.5zM412 -78q0 85 -163 85q-48 0 -71 -5q-23 -12 -44 -35.5t-21 -48.5q0 -40 39.5 -68t107.5 -28q76 0 114 29.5t38 70.5zM242 491q47 0 76 -7q10 -2 24 -2h138q6 0 6 -6
v-53q0 -6 -6 -6l-89 3q32 -32 32 -97q0 -78 -50.5 -121t-130.5 -43q-31 0 -50 7q-12 -19 -12 -44q0 -30 19 -49q24 2 60 2q112 0 174 -32t62 -111q0 -74 -64.5 -124t-174.5 -50q-101 0 -161.5 44.5t-60.5 113.5q0 58 94 128q-24 32 -24 73q0 37 20 67q-72 44 -72 140
q0 73 52 120t138 47zM108 676h57q4 0 5 -3q21 -60 82 -60q66 0 84 59q1 4 5 4h57q4 0 4 -5q-10 -57 -49 -89t-101 -32q-60 0 -99.5 30.5t-48.5 91.5q-1 4 4 4z" />
    <glyph glyph-name="Gdotaccent" unicode="&#x120;" horiz-adv-x="666" 
d="M513 265l-134 2q-7 1 -7 7v56q0 6 6 6h214q7 0 7 -7v-284q0 -6 -6 -10q-95 -45 -207 -45q-162 0 -246.5 95t-84.5 238q0 156 95 250t248 94q115 0 178 -37q4 -4 4 -10v-65q0 -9 -6 -5q-76 42 -174 42q-121 0 -189 -71t-68 -195q0 -51 15 -97t44.5 -83.5t79 -60
t113.5 -22.5q70 0 118 23v179zM370 718q-23 0 -37 13t-14 33q0 21 14.5 33.5t37.5 12.5q22 0 36 -13t14 -33q0 -21 -13.5 -33.5t-37.5 -12.5z" />
    <glyph glyph-name="gdotaccent" unicode="&#x121;" horiz-adv-x="508" 
d="M343 325q0 51 -26 79.5t-76 28.5q-47 0 -77 -29t-30 -79q0 -49 28.5 -78t76.5 -29t76 28.5t28 78.5zM412 -78q0 85 -163 85q-48 0 -71 -5q-23 -12 -44 -35.5t-21 -48.5q0 -40 39.5 -68t107.5 -28q76 0 114 29.5t38 70.5zM242 491q47 0 76 -7q10 -2 24 -2h138q6 0 6 -6
v-53q0 -6 -6 -6l-89 3q32 -32 32 -97q0 -78 -50.5 -121t-130.5 -43q-31 0 -50 7q-12 -19 -12 -44q0 -30 19 -49q24 2 60 2q112 0 174 -32t62 -111q0 -74 -64.5 -124t-174.5 -50q-101 0 -161.5 44.5t-60.5 113.5q0 58 94 128q-24 32 -24 73q0 37 20 67q-72 44 -72 140
q0 73 52 120t138 47zM245 569q-22 0 -36 13t-14 34q0 22 14 35t37 13q22 0 35.5 -13.5t13.5 -34.5q0 -20 -14 -33.5t-36 -13.5z" />
    <glyph glyph-name="uni0122" unicode="&#x122;" horiz-adv-x="666" 
d="M513 265l-134 2q-7 1 -7 7v56q0 6 6 6h214q7 0 7 -7v-284q0 -6 -6 -10q-95 -45 -207 -45q-162 0 -246.5 95t-84.5 238q0 156 95 250t248 94q115 0 178 -37q4 -4 4 -10v-65q0 -9 -6 -5q-76 42 -174 42q-121 0 -189 -71t-68 -195q0 -51 15 -97t44.5 -83.5t79 -60
t113.5 -22.5q70 0 118 23v179zM373 -230h-65q-7 0 -3 6q37 63 37 116q0 25 -14 59q-2 5 4 5h71q5 0 8 -4q13 -22 13 -54q0 -66 -43 -125q-3 -3 -8 -3z" />
    <glyph glyph-name="uni0123" unicode="&#x123;" horiz-adv-x="508" 
d="M241 718h66q7 0 3 -6q-38 -61 -38 -115q0 -26 14 -60q2 -5 -4 -5h-71q-6 0 -7 5q-14 22 -14 54q0 67 43 124q3 3 8 3zM343 325q0 51 -26 79.5t-76 28.5q-47 0 -77 -29t-30 -79q0 -49 28.5 -78t76.5 -29t76 28.5t28 78.5zM412 -78q0 85 -163 85q-48 0 -71 -5
q-23 -12 -44 -35.5t-21 -48.5q0 -40 39.5 -68t107.5 -28q76 0 114 29.5t38 70.5zM242 491q47 0 76 -7q10 -2 24 -2h138q6 0 6 -6v-53q0 -6 -6 -6l-89 3q32 -32 32 -97q0 -78 -50.5 -121t-130.5 -43q-31 0 -50 7q-12 -19 -12 -44q0 -30 19 -49q24 2 60 2q112 0 174 -32
t62 -111q0 -74 -64.5 -124t-174.5 -50q-101 0 -161.5 44.5t-60.5 113.5q0 58 94 128q-24 32 -24 73q0 37 20 67q-72 44 -72 140q0 73 52 120t138 47z" />
    <glyph glyph-name="Hcircumflex" unicode="&#x124;" horiz-adv-x="660" 
d="M575 0h-73q-7 0 -7 7v293h-331v-293q0 -7 -7 -7h-72q-7 0 -7 7v643q0 7 7 7h72q7 0 7 -6v-281h331v280q0 7 7 7h74q5 0 5 -7v-643q0 -7 -6 -7zM398 706l-73 74l-71 -74q-5 -5 -10 -5h-65q-2 0 -3 1.5t-0.5 3t1.5 3.5l108 111q2 3 7 3h68q8 0 11 -4l111 -113q5 -5 -3 -5
h-70q-6 0 -11 5z" />
    <glyph glyph-name="hcircumflex" unicode="&#x125;" horiz-adv-x="542" 
d="M187 728l-74 53l-67 -53q-3 -3 -11 -3h-67q-7 0 -2 5l109 91q3 3 8 3h65q7 0 10 -4l114 -90q5 -5 -3 -5h-71q-5 0 -11 3zM72 7v701q0 7 6 7h74q5 0 5 -6v-272q69 54 150 54q30 0 56.5 -9t52 -29.5t40 -61t14.5 -96.5v-288q0 -7 -7 -7h-72q-7 0 -7 7v290q0 59 -26 90.5
t-76 31.5q-66 0 -125 -51v-362q0 -6 -6 -6h-73q-6 0 -6 7z" />
    <glyph glyph-name="Hbar" unicode="&#x126;" horiz-adv-x="660" 
d="M164 340h331v108h-331v-108zM78 651q0 6 6 6h75q5 0 5 -5v-144h331v143q0 6 6 6h75q5 0 5 -7v-142h44q5 0 5 -5v-50q0 -5 -6 -5h-43v-441q0 -7 -5 -7h-74q-7 0 -7 6v263h-331v-263q0 -6 -6 -6h-74q-6 0 -6 6v442h-48q-5 0 -5 6v49q0 5 5 5h48v143z" />
    <glyph glyph-name="hbar" unicode="&#x127;" horiz-adv-x="546" 
d="M151 0h-72q-6 0 -6 6v556h-66q-6 0 -6 5v51q0 5 5 5h67v85q0 7 7 7h71q7 0 7 -7v-85h135q5 0 5 -4v-51q0 -6 -6 -6h-134v-153q72 56 151 56q65 0 114.5 -45.5t49.5 -147.5v-266q0 -6 -6 -6h-73q-7 0 -7 6v265q0 58 -27 90.5t-78 32.5q-67 0 -124 -50v-337q0 -7 -7 -7z
" />
    <glyph glyph-name="Itilde" unicode="&#x128;" horiz-adv-x="243" 
d="M164 651v-644q0 -7 -6 -7h-73q-7 0 -7 7v643q0 7 7 7h73q6 0 6 -6zM21 708h-49q-6 0 -6 5q1 51 27 80t65 29q35 0 73.5 -27t53.5 -27q29 0 34 46q2 5 6 5h49q5 0 5 -5q-6 -107 -88 -107q-32 0 -70.5 26.5t-56.5 26.5q-14 0 -25 -12t-13 -35q0 -5 -5 -5z" />
    <glyph glyph-name="itilde" unicode="&#x129;" horiz-adv-x="231" 
d="M72 8v467q0 7 6 7h73q7 0 7 -6v-469q0 -7 -7 -7h-71q-8 0 -8 8zM6 563h-48q-5 0 -5 7q1 53 27 82t67 29q34 0 79.5 -27t59.5 -27q33 0 36 46q0 6 6 6h48q6 0 6 -5q-5 -112 -89 -112q-30 0 -75 27t-65 27q-36 0 -42 -47q0 -6 -5 -6z" />
    <glyph glyph-name="Imacron" unicode="&#x12a;" horiz-adv-x="243" 
d="M164 651v-644q0 -7 -6 -7h-73q-7 0 -7 7v643q0 7 7 7h73q6 0 6 -6zM-5 794h255q5 0 5 -6v-54q0 -6 -6 -6h-252q-7 0 -7 6v54q0 6 5 6z" />
    <glyph glyph-name="imacron" unicode="&#x12b;" horiz-adv-x="231" 
d="M72 8v467q0 7 6 7h73q7 0 7 -6v-469q0 -7 -7 -7h-71q-8 0 -8 8zM-15 648h265q5 0 5 -5v-52q0 -5 -6 -5h-265q-5 0 -5 6v51q0 5 6 5z" />
    <glyph glyph-name="Ibreve" unicode="&#x12c;" horiz-adv-x="243" 
d="M164 651v-644q0 -7 -6 -7h-73q-7 0 -7 7v643q0 7 7 7h73q6 0 6 -6zM-22 835h57q5 0 7 -5q19 -59 79 -59q61 0 81 59q3 5 7 5h57q5 0 5 -7q-8 -55 -50.5 -89t-99.5 -34q-60 0 -101 31.5t-47 92.5q-1 6 5 6z" />
    <glyph glyph-name="ibreve" unicode="&#x12d;" horiz-adv-x="231" 
d="M72 8v467q0 7 6 7h73q7 0 7 -6v-469q0 -7 -7 -7h-71q-8 0 -8 8zM-29 676h57q4 0 5 -3q21 -60 82 -60q66 0 84 59q1 4 5 4h57q4 0 4 -5q-10 -57 -49 -89t-101 -32q-60 0 -99.5 30.5t-48.5 91.5q-1 4 4 4z" />
    <glyph glyph-name="Iogonek" unicode="&#x12e;" horiz-adv-x="243" 
d="M78 14v637q0 6 6 6h75q5 0 5 -5v-644q0 -5 -4 -8q-70 -58 -70 -107q0 -26 18 -41.5t47 -15.5q31 0 55 8q5 2 5 -4v-49q0 -7 -5 -9q-26 -14 -80 -14q-50 0 -85 25.5t-35 77.5q0 60 72 132q-4 6 -4 11z" />
    <glyph glyph-name="iogonek" unicode="&#x12f;" horiz-adv-x="231" 
d="M77 3q-5 3 -5 10v462q0 7 7 7h73q6 0 6 -7v-467q0 -3 -5 -8q-59 -49 -59 -98q0 -26 17 -42t46 -16q32 0 54 8q6 2 6 -4v-49q0 -7 -5 -9q-28 -15 -79 -15q-49 0 -84.5 26t-35.5 78q0 62 64 124zM115 569q-22 0 -36 13.5t-14 33.5q0 21 14.5 35t36.5 14t35.5 -13.5
t13.5 -34.5t-13.5 -34.5t-36.5 -13.5z" />
    <glyph glyph-name="Idotaccent" unicode="&#x130;" horiz-adv-x="243" 
d="M164 651v-644q0 -7 -6 -7h-73q-7 0 -7 7v643q0 7 7 7h73q6 0 6 -6zM120 712q-23 0 -36.5 12.5t-13.5 33.5q0 20 14 33t38 13q22 0 36 -13t14 -33q0 -21 -14 -33.5t-38 -12.5z" />
    <glyph glyph-name="dotlessi" unicode="&#x131;" horiz-adv-x="231" 
d="M72 8v467q0 7 6 7h73q7 0 7 -6v-469q0 -7 -7 -7h-71q-8 0 -8 8z" />
    <glyph glyph-name="IJ" unicode="&#x132;" horiz-adv-x="489" 
d="M164 651v-644q0 -7 -6 -7h-73q-7 0 -7 7v643q0 7 7 7h73q6 0 6 -6zM331 657h74q6 0 6 -5v-626q0 -97 -44 -144.5t-118 -47.5q-42 0 -66 12q-6 2 -6 10v62q0 8 8 5q23 -12 58 -12q82 0 82 119v621q0 6 6 6z" />
    <glyph glyph-name="ij" unicode="&#x133;" horiz-adv-x="461" 
d="M115 569q-22 0 -36 13t-14 34q0 22 14 35t37 13q22 0 35.5 -13.5t13.5 -34.5q0 -20 -14 -33.5t-36 -13.5zM72 8v467q0 7 6 7h73q7 0 7 -6v-469q0 -7 -7 -7h-71q-8 0 -8 8zM303 -33v508q0 7 6 7h73q6 0 6 -6v-465q0 -91 -10.5 -135.5t-32.5 -71.5q-38 -43 -104 -43
q-19 0 -31 3q-6 1 -6 8v53q0 7 6 7q52 -2 72.5 26t20.5 109zM346 569q-22 0 -36 13t-14 34q0 22 14 35t37 13t36 -13.5t13 -34.5q0 -20 -14 -33.5t-36 -13.5z" />
    <glyph glyph-name="Jcircumflex" unicode="&#x134;" horiz-adv-x="371" 
d="M206 153v498q0 6 7 6h74q5 0 5 -5v-504q0 -205 -179 -205q-66 0 -105 23q-5 3 -5 10v62q0 8 7 5q45 -24 96 -24q54 0 77 30t23 104zM313 705l-73 75l-72 -74q-3 -5 -9 -5h-65q-3 0 -3.5 2.5t1.5 4.5l107 112q5 3 8 3h68q7 0 10 -4l112 -113q3 -5 -3 -5h-71q-7 0 -10 4z
" />
    <glyph glyph-name="jcircumflex" unicode="&#x135;" horiz-adv-x="230" 
d="M72 -33v508q0 7 7 7h73q6 0 6 -6v-465q0 -91 -11 -135.5t-33 -71.5q-38 -43 -103 -43q-20 0 -32 3q-6 2 -6 8v53q0 7 7 7q51 -2 71.5 26t20.5 109zM112 654l-69 -113q-1 -3 -8 -3h-56q-8 0 -3 7l98 150q3 4 6 4h67q5 0 8 -5l100 -150q4 -6 -4 -6h-60q-6 0 -9 4z" />
    <glyph glyph-name="uni0136" unicode="&#x136;" horiz-adv-x="604" 
d="M157 0h-71q-8 0 -8 8v643q0 6 7 6h73q6 0 6 -7v-282h68q8 0 16 9l209 274q4 6 10 6h80q11 0 4 -9q-147 -193 -242 -306q-3 -4 0 -7l278 -326q2 -3 1 -6t-5 -3h-87q-8 0 -13 6l-239 282q-7 9 -18 9h-62v-290q0 -7 -7 -7zM315 -227h-66q-5 0 -3 6q38 62 38 116q0 25 -14 59
q-2 5 4 5h71q6 0 7 -4q14 -21 14 -55q0 -65 -43 -124q-1 -3 -8 -3z" />
    <glyph glyph-name="uni0137" unicode="&#x137;" horiz-adv-x="498" 
d="M72 709q0 6 6 6h73q6 0 6 -7v-427h42q14 0 20 8l43 55l60 77.5l42 55.5q4 5 9 5h77q8 0 4 -8q-12 -18 -48 -62l-77 -93.5l-51 -61.5q-5 -3 0 -8l218 -242q2 -2 0.5 -4.5t-5.5 -2.5h-94q-7 0 -11 5l-171 198q-8 9 -19 9h-39v-205q0 -7 -6 -7h-73q-6 0 -6 7v702zM248 -224
h-65q-7 0 -3 6q37 63 37 116q0 25 -14 59q-2 5 4 5h71q5 0 8 -4q13 -22 13 -54q0 -66 -43 -125q-2 -3 -8 -3z" />
    <glyph glyph-name="kgreenlandic" unicode="&#x138;" horiz-adv-x="500" 
d="M72 473q0 6 5 6h75q5 0 5 -5v-201h56q9 0 16 10l144 192q4 4 9 4h79q8 0 4 -6q-29 -41 -178 -222q13 -13 51.5 -56.5l88.5 -101.5l74 -85q6 -8 -3 -8h-94q-8 0 -11 5q-8 7 -84.5 100.5t-82.5 98.5q-8 8 -19 8h-50v-206q0 -6 -6 -6h-73q-6 0 -6 6v467z" />
    <glyph glyph-name="Lacute" unicode="&#x139;" horiz-adv-x="498" 
d="M457 0h-370q-9 0 -9 9v641q0 7 7 7h74q5 0 5 -6v-581h308q7 0 5 -7l-12 -57q-1 -6 -8 -6zM88 706l116 112q3 4 9 4h85q8 0 3 -7l-126 -110q-5 -5 -11 -5h-72q-8 0 -4 6z" />
    <glyph glyph-name="lacute" unicode="&#x13a;" horiz-adv-x="247" 
d="M74 742l93 81q6 5 14 5h79q3 0 4 -3t-3 -5l-103 -82q-7 -4 -13 -4h-68q-9 0 -3 8zM72 98v610q0 7 7 7h72q6 0 6 -7v-607q0 -26 9 -35t26 -9q8 0 24 2q3 1 3.5 0t0.5 -5v-47q0 -7 -5 -9q-18 -8 -52 -8q-42 0 -66.5 23.5t-24.5 84.5z" />
    <glyph glyph-name="uni013B" unicode="&#x13b;" horiz-adv-x="498" 
d="M457 0h-370q-9 0 -9 9v641q0 7 7 7h74q5 0 5 -6v-581h308q7 0 5 -7l-12 -57q-1 -6 -8 -6zM276 -226h-65q-7 0 -3 6q37 59 37 115q0 23 -13 59q-4 6 3 6h71q5 0 8 -5q14 -24 14 -54q0 -65 -44 -125q-2 -2 -8 -2z" />
    <glyph glyph-name="uni013C" unicode="&#x13c;" horiz-adv-x="247" 
d="M72 98v610q0 7 7 7h72q6 0 6 -7v-607q0 -26 9 -35t26 -9q8 0 24 2q3 1 3.5 0t0.5 -5v-47q0 -7 -5 -9q-18 -8 -52 -8q-42 0 -66.5 23.5t-24.5 84.5zM141 -226h-66q-7 0 -3 6q38 61 38 115q0 26 -14 59q-2 6 4 6h70q6 0 8 -5q14 -22 14 -54q0 -66 -43 -125q-4 -2 -8 -2z
" />
    <glyph glyph-name="Lcaron" unicode="&#x13d;" horiz-adv-x="498" 
d="M457 0h-370q-9 0 -9 9v641q0 7 7 7h74q5 0 5 -6v-581h308q7 0 5 -7l-12 -57q-1 -6 -8 -6zM360 448l1 226q0 6 6 6h64q6 0 5 -6l-14 -227q0 -5 -5 -5h-51q-6 0 -6 6z" />
    <glyph glyph-name="lcaron" unicode="&#x13e;" horiz-adv-x="282" 
d="M230 494l1 226q0 6 5 6h56q6 0 6 -6l-11 -225q-2 -7 -7 -7h-44q-6 0 -6 6zM72 98v610q0 7 7 7h72q6 0 6 -7v-607q0 -26 9 -35t26 -9q8 0 24 2q3 1 3.5 0t0.5 -5v-47q0 -7 -5 -9q-18 -8 -52 -8q-42 0 -66.5 23.5t-24.5 84.5z" />
    <glyph glyph-name="Ldot" unicode="&#x13f;" horiz-adv-x="498" 
d="M457 0h-370q-9 0 -9 9v641q0 7 7 7h74q5 0 5 -6v-581h308q7 0 5 -7l-12 -57q-1 -6 -8 -6zM383 307q-23 0 -36.5 12.5t-13.5 33.5q0 20 14.5 33t37.5 13q22 0 36 -13t14 -33q0 -21 -14 -33.5t-38 -12.5z" />
    <glyph glyph-name="ldot" unicode="&#x140;" horiz-adv-x="264" 
d="M248 367q-42 0 -42 51q0 52 42 52t42 -52q0 -51 -42 -51zM72 98v610q0 7 7 7h72q6 0 6 -7v-607q0 -26 9 -35t26 -9q8 0 24 2q3 1 3.5 0t0.5 -5v-47q0 -7 -5 -9q-18 -8 -52 -8q-42 0 -66.5 23.5t-24.5 84.5z" />
    <glyph glyph-name="Lslash" unicode="&#x141;" horiz-adv-x="509" 
d="M468 0h-373q-7 0 -7 6v251l-69 -30q-5 -3 -5 3v52q0 2 4 6l70 32v332q0 5 6 5h75q5 0 5 -6v-294l150 68q6 2 6 -5v-48q0 -7 -6 -9l-150 -68v-225h309q7 0 5 -6l-12 -57q-3 -7 -8 -7z" />
    <glyph glyph-name="lslash" unicode="&#x142;" horiz-adv-x="257" 
d="M167 404v-303q0 -26 9.5 -35.5t26.5 -9.5q11 0 17 1q5 0 5 -6v-45q0 -7 -4 -9q-19 -7 -48 -7q-42 0 -66.5 23.5t-24.5 84.5v266l-66 -34q-6 -4 -6 4v49q0 5 4 7l68 34v285q0 6 5 6h75q5 0 5 -6v-244l79 39q6 3 6 -3v-41q0 -13 -4 -15z" />
    <glyph glyph-name="Nacute" unicode="&#x143;" horiz-adv-x="663" 
d="M78 651q0 6 6 6h98q6 0 10 -6q299 -516 312 -548h2q-3 39 -3 163v384q0 7 7 7h68q6 0 6 -7v-642q0 -8 -8 -8h-94q-6 0 -11 6q-23 46 -161 288t-154 278h-1q3 -32 5 -187v-378q0 -7 -6 -7h-68q-8 0 -8 7v644zM263 709l116 112q3 3 9 3h85q3 0 4 -2t-1 -4l-126 -111
q-7 -5 -11 -5h-72q-3 0 -4.5 2.5t0.5 4.5z" />
    <glyph glyph-name="nacute" unicode="&#x144;" horiz-adv-x="542" 
d="M72 7v362q0 39 -4 107q-2 6 6 6h64q6 0 9 -6q1 -2 6 -49q69 64 157 64q29 0 54.5 -8.5t50.5 -28.5t40 -60.5t15 -97.5v-289q0 -7 -7 -7h-72q-7 0 -7 8v288q0 123 -102 123q-67 0 -125 -58v-354q0 -7 -6 -7h-73q-6 0 -6 7zM233 546l80 148q3 7 9 7h80q8 0 5 -8l-96 -149
q-3 -4 -10 -4h-65q-6 0 -3 6z" />
    <glyph glyph-name="uni0145" unicode="&#x145;" horiz-adv-x="663" 
d="M78 651q0 6 6 6h98q6 0 10 -6q299 -516 312 -548h2q-3 39 -3 163v384q0 7 7 7h68q6 0 6 -7v-642q0 -8 -8 -8h-94q-6 0 -11 6q-23 46 -161 288t-154 278h-1q3 -32 5 -187v-378q0 -7 -6 -7h-68q-8 0 -8 7v644zM334 -223h-66q-7 0 -3 6q37 59 37 115q0 23 -13 59q-4 6 3 6
h71q5 0 8 -5q14 -24 14 -54q0 -67 -44 -125q-2 -2 -7 -2z" />
    <glyph glyph-name="uni0146" unicode="&#x146;" horiz-adv-x="542" 
d="M72 7v362q0 39 -4 107q-2 6 6 6h64q6 0 9 -6q1 -2 6 -49q69 64 157 64q29 0 54.5 -8.5t50.5 -28.5t40 -60.5t15 -97.5v-289q0 -7 -7 -7h-72q-7 0 -7 8v288q0 123 -102 123q-67 0 -125 -58v-354q0 -7 -6 -7h-73q-6 0 -6 7zM274 -223h-65q-7 0 -3 6q37 59 37 115
q0 26 -14 60q-2 5 4 5h71q6 0 8 -5q14 -22 14 -54q0 -65 -44 -124q-2 -3 -8 -3z" />
    <glyph glyph-name="Ncaron" unicode="&#x147;" horiz-adv-x="663" 
d="M78 651q0 6 6 6h98q6 0 10 -6q299 -516 312 -548h2q-3 39 -3 163v384q0 7 7 7h68q6 0 6 -7v-642q0 -8 -8 -8h-94q-6 0 -11 6q-23 46 -161 288t-154 278h-1q3 -32 5 -187v-378q0 -7 -6 -7h-68q-8 0 -8 7v644zM263 819l73 -75l71 74q5 5 10 5h65q5 -1 2 -7l-108 -112
q-3 -3 -7 -3h-69q-7 0 -10 4l-111 113q-5 5 3 5h70q7 0 11 -4z" />
    <glyph glyph-name="ncaron" unicode="&#x148;" horiz-adv-x="542" 
d="M72 7v362q0 39 -4 107q-2 6 6 6h64q6 0 9 -6q1 -2 6 -49q69 64 157 64q29 0 54.5 -8.5t50.5 -28.5t40 -60.5t15 -97.5v-289q0 -7 -7 -7h-72q-7 0 -7 8v288q0 123 -102 123q-67 0 -125 -58v-354q0 -7 -6 -7h-73q-6 0 -6 7zM268 582q23 41 69 113q2 4 8 4h55q3 0 4 -2.5
t-1 -4.5l-97 -150q-3 -4 -7 -4h-66q-5 0 -8 4l-100 150q-2 5 3 7h61q6 0 9 -5q57 -90 70 -112z" />
    <glyph glyph-name="napostrophe" unicode="&#x149;" horiz-adv-x="542" 
d="M70 515l1 227q0 6 6 6h64q7 0 5 -6l-14 -227q0 -5 -6 -5h-50q-6 0 -6 5zM72 7v362q0 39 -4 107q-2 6 6 6h64q6 0 9 -6q1 -2 6 -49q69 64 157 64q29 0 54.5 -8.5t50.5 -28.5t40 -60.5t15 -97.5v-289q0 -7 -7 -7h-72q-7 0 -7 8v288q0 123 -102 123q-67 0 -125 -58v-354
q0 -7 -6 -7h-73q-6 0 -6 7z" />
    <glyph glyph-name="Eng" unicode="&#x14a;" horiz-adv-x="663" 
d="M155 0h-71q-6 0 -6 6v646q0 5 6 5h100q4 0 8 -6l235 -394q67 -121 78 -144h1q-3 36 -3 163v375q0 6 6 6h70q5 0 5 -5v-622q0 -96 -10.5 -140.5t-32.5 -71.5q-36 -41 -104 -41q-24 0 -32 3q-4 0 -4 7v55q0 7 6 7q52 -1 72.5 25.5t19.5 103.5l-275 459q-49 85 -67 132h-1
q4 -52 4 -187v-376q0 -6 -5 -6z" />
    <glyph glyph-name="eng" unicode="&#x14b;" horiz-adv-x="542" 
d="M150 0h-71q-7 0 -7 8v360q0 74 -4 108q-2 6 6 6h63q7 0 9 -6q5 -14 7 -48q78 63 159 63q26 0 50.5 -8t50.5 -27t41.5 -60.5t15.5 -99.5v-289q0 -89 -10.5 -132t-34.5 -69q-36 -41 -101 -41q-20 0 -28 2q-6 1 -6 7v49q0 7 6 7q50 2 69 26.5t19 101.5v340q0 58 -26.5 89.5
t-75.5 31.5q-68 0 -125 -58v-353q0 -8 -7 -8z" />
    <glyph glyph-name="Omacron" unicode="&#x14c;" horiz-adv-x="714" 
d="M357 667q134 0 217 -95t83 -240q1 -160 -83 -251t-216 -91q-139 0 -221 92t-82 248q0 153 85.5 245t216.5 92zM143 330q0 -117 57.5 -192t160.5 -75q96 0 152 72t56 195q0 118 -59 191.5t-155 73.5q-92 0 -152 -69.5t-60 -195.5zM230 794h255q5 0 5 -6v-54q0 -6 -6 -6
h-252q-7 0 -7 6v54q0 6 5 6z" />
    <glyph glyph-name="omacron" unicode="&#x14d;" horiz-adv-x="559" 
d="M282 491q106 0 168 -69t62 -180q0 -115 -64 -183.5t-167 -68.5q-116 0 -175 74.5t-59 176.5q0 110 65 180t170 70zM277 426q-64 0 -103.5 -50t-39.5 -133t39 -135t110 -52q60 0 101 45t41 138q0 82 -36.5 134.5t-111.5 52.5zM149 648h265q4 0 4 -5v-52q0 -5 -5 -5h-265
q-5 0 -5 6v51q0 5 6 5z" />
    <glyph glyph-name="Obreve" unicode="&#x14e;" horiz-adv-x="714" 
d="M357 667q134 0 217 -95t83 -240q1 -160 -83 -251t-216 -91q-139 0 -221 92t-82 248q0 153 85.5 245t216.5 92zM143 330q0 -117 57.5 -192t160.5 -75q96 0 152 72t56 195q0 118 -59 191.5t-155 73.5q-92 0 -152 -69.5t-60 -195.5zM213 840h57q6 0 7 -5q20 -59 79 -59
q62 0 82 59q2 5 6 5h57q5 0 5 -7q-8 -56 -50 -89.5t-100 -33.5q-60 0 -101 31.5t-47 92.5q-2 6 5 6z" />
    <glyph glyph-name="obreve" unicode="&#x14f;" horiz-adv-x="559" 
d="M282 491q106 0 168 -69t62 -180q0 -115 -64 -183.5t-167 -68.5q-116 0 -175 74.5t-59 176.5q0 110 65 180t170 70zM277 426q-64 0 -103.5 -50t-39.5 -133t39 -135t110 -52q60 0 101 45t41 138q0 82 -36.5 134.5t-111.5 52.5zM135 676h57q4 0 5 -3q21 -60 82 -60
q66 0 84 59q1 4 5 4h57q4 0 4 -5q-10 -57 -49 -89t-101 -32q-60 0 -99.5 30.5t-48.5 91.5q-1 4 4 4z" />
    <glyph glyph-name="Ohungarumlaut" unicode="&#x150;" horiz-adv-x="714" 
d="M357 667q134 0 217 -95t83 -240q1 -160 -83 -251t-216 -91q-139 0 -221 92t-82 248q0 153 85.5 245t216.5 92zM143 330q0 -117 57.5 -192t160.5 -75q96 0 152 72t56 195q0 118 -59 191.5t-155 73.5q-92 0 -152 -69.5t-60 -195.5zM228 709l75 112q4 5 9 5h72q5 0 3 -7
l-87 -111q-3 -4 -9 -4h-60q-7 0 -3 5zM396 710l75 111q3 5 10 5h71q9 0 3 -8l-85 -108q-4 -6 -11 -6h-59q-6 0 -4 6z" />
    <glyph glyph-name="ohungarumlaut" unicode="&#x151;" horiz-adv-x="559" 
d="M282 491q106 0 168 -69t62 -180q0 -115 -64 -183.5t-167 -68.5q-116 0 -175 74.5t-59 176.5q0 110 65 180t170 70zM277 426q-64 0 -103.5 -50t-39.5 -133t39 -135t110 -52q60 0 101 45t41 138q0 82 -36.5 134.5t-111.5 52.5zM159 550l69 136q3 7 11 7h63q4 0 5 -3t-1 -5
l-80 -139q-4 -6 -11 -6h-51q-9 0 -5 10zM321 551l69 136q4 6 10 6h64q10 0 5 -8l-81 -138q-3 -6 -12 -6h-49q-9 0 -6 10z" />
    <glyph glyph-name="OE" unicode="&#x152;" horiz-adv-x="927" 
d="M492 68v518q-28 6 -96 6q-115 0 -184 -70.5t-69 -193.5q0 -129 68.5 -196.5t186.5 -67.5q54 0 94 4zM881 0h-351q-70 -6 -142 -6q-154 0 -243.5 87.5t-89.5 244.5q0 159 95.5 247.5t246.5 88.5q66 0 126 -5h343q5 0 6 -5l8 -60q1 -5 -5 -5h-297v-217h264q5 0 5 -6v-59
q0 -5 -5 -5h-264v-230h317q5 0 4 -6l-11 -59q-1 -5 -7 -5z" />
    <glyph glyph-name="oe" unicode="&#x153;" horiz-adv-x="886" 
d="M47 240q0 112 64.5 181.5t168.5 69.5q138 0 188 -119q51 119 181 119q49 0 88 -18.5t61 -48t33 -62.5t11 -66q0 -54 -8 -57q-16 -7 -107 -7h-215q-2 -74 40.5 -122t124.5 -48q70 0 126 26q6 3 6 -5v-52q0 -9 -5 -12q-47 -27 -142 -29q-148 0 -195 116q-54 -116 -188 -116
q-78 0 -132.5 39t-77 93.5t-22.5 117.5zM278 424q-65 0 -104.5 -48.5t-39.5 -132.5q0 -79 39 -131t109 -52q59 0 101 44t42 134q0 82 -37 134t-110 52zM513 290h190q57 0 57 6q1 3 1 15q0 16 -5.5 34t-18 37.5t-37 32.5t-57.5 13q-56 0 -89 -38.5t-41 -99.5z" />
    <glyph glyph-name="Racute" unicode="&#x154;" horiz-adv-x="593" 
d="M157 0h-72q-7 0 -7 6v643q0 8 6 8q88 2 174 2q112 0 176.5 -46t64.5 -137q0 -135 -148 -178q7 -10 110 -140t117 -150q6 -8 -2 -8h-89q-9 0 -11 5q-31 38 -193 255q-11 17 -31 17h-89v-271q0 -6 -6 -6zM163 346h92q80 0 119 34.5t39 90.5q0 58 -41 88.5t-119 30.5h-47
t-31.5 -0.5t-11.5 -0.5v-243zM203 707l115 113q3 3 10 3h85q3 0 3.5 -2.5t-1.5 -4.5l-126 -110q-4 -5 -11 -5h-72q-3 0 -4 2.5t1 3.5z" />
    <glyph glyph-name="racute" unicode="&#x155;" horiz-adv-x="333" 
d="M72 482h66q6 0 9 -7q4 -13 9 -62q27 37 68.5 57.5t79.5 20.5q9 0 13 -1t4 -8v-64q0 -6 -7 -6q-45 1 -88 -19t-68 -52v-334q0 -7 -6 -7h-73q-7 0 -7 7v340q0 82 -5 129q-1 6 5 6zM122 546l80 148q4 7 9 7h81q7 0 4 -8l-95 -149q-4 -4 -10 -4h-65q-6 0 -4 6z" />
    <glyph glyph-name="uni0156" unicode="&#x156;" horiz-adv-x="593" 
d="M157 0h-72q-7 0 -7 6v643q0 8 6 8q88 2 174 2q112 0 176.5 -46t64.5 -137q0 -135 -148 -178q7 -10 110 -140t117 -150q6 -8 -2 -8h-89q-9 0 -11 5q-31 38 -193 255q-11 17 -31 17h-89v-271q0 -6 -6 -6zM163 346h92q80 0 119 34.5t39 90.5q0 58 -41 88.5t-119 30.5h-47
t-31.5 -0.5t-11.5 -0.5v-243zM295 -220h-66q-2 0 -3 2.5t1 4.5q37 62 37 115q0 25 -14 59q-2 6 4 6h71q5 0 8 -5q13 -22 13 -54q0 -66 -43 -125q-3 -3 -8 -3z" />
    <glyph glyph-name="uni0157" unicode="&#x157;" horiz-adv-x="333" 
d="M72 482h66q6 0 9 -7q4 -13 9 -62q27 37 68.5 57.5t79.5 20.5q9 0 13 -1t4 -8v-64q0 -6 -7 -6q-45 1 -88 -19t-68 -52v-334q0 -7 -6 -7h-73q-7 0 -7 7v340q0 82 -5 129q-1 6 5 6zM120 -218h-65q-7 0 -3 6q37 59 37 115q0 23 -13 59q-4 6 3 6h71q5 0 8 -5q14 -24 14 -54
q0 -65 -44 -125q-2 -2 -8 -2z" />
    <glyph glyph-name="Rcaron" unicode="&#x158;" horiz-adv-x="593" 
d="M157 0h-72q-7 0 -7 6v643q0 8 6 8q88 2 174 2q112 0 176.5 -46t64.5 -137q0 -135 -148 -178q7 -10 110 -140t117 -150q6 -8 -2 -8h-89q-9 0 -11 5q-31 38 -193 255q-11 17 -31 17h-89v-271q0 -6 -6 -6zM163 346h92q80 0 119 34.5t39 90.5q0 58 -41 88.5t-119 30.5h-47
t-31.5 -0.5t-11.5 -0.5v-243zM195 819l73 -75l72 74q3 5 9 5h65q3 0 3.5 -2.5t-1.5 -4.5l-107 -112q-5 -3 -8 -3h-68q-6 0 -10 4l-112 113q-3 5 3 5h71q7 0 10 -4z" />
    <glyph glyph-name="rcaron" unicode="&#x159;" horiz-adv-x="333" 
d="M72 482h66q6 0 9 -7q4 -13 9 -62q27 37 68.5 57.5t79.5 20.5q9 0 13 -1t4 -8v-64q0 -6 -7 -6q-45 1 -88 -19t-68 -52v-334q0 -7 -6 -7h-73q-7 0 -7 7v340q0 82 -5 129q-1 6 5 6zM179 582q23 41 69 113q2 4 8 4h56q3 0 4 -2.5t-1 -4.5l-97 -150q-4 -4 -7 -4h-67q-5 0 -8 4
l-100 150q-2 2 -0.5 4.5t4.5 2.5h60q6 0 9 -5q64 -101 70 -112z" />
    <glyph glyph-name="Sacute" unicode="&#x15a;" horiz-adv-x="488" 
d="M229 -10q-117 0 -191 53q-5 5 -5 13v68q0 9 7 4q85 -65 193 -65q65 0 97 27.5t32 69.5q0 41 -29 68.5t-118 67.5q-99 43 -136.5 87t-37.5 109q0 76 59 125t156 49q95 0 156 -37q5 -4 5 -11v-64q0 -9 -8 -4q-75 46 -155 46q-72 0 -99.5 -31t-27.5 -66q0 -36 26.5 -64.5
t102.5 -61.5q114 -49 153.5 -94t39.5 -110q0 -80 -58 -129.5t-162 -49.5zM187 717l116 112q3 4 9 4h85q8 0 3 -7l-126 -110q-5 -5 -12 -5h-71q-8 0 -4 6z" />
    <glyph glyph-name="sacute" unicode="&#x15b;" horiz-adv-x="389" 
d="M327 389q-61 35 -129 35q-44 0 -63 -18t-19 -43q0 -26 19.5 -43t79.5 -41q76 -31 109.5 -62t33.5 -83q0 -70 -49.5 -107t-124.5 -37q-87 0 -147 39q-5 3 -5 9v66q0 7 6 5q79 -52 152 -52q43 0 63.5 19t20.5 46t-22 45t-83 43q-72 30 -102.5 62t-30.5 84q0 60 45.5 97.5
t123.5 37.5q76 0 125 -28q5 -4 5 -10l-1 -60q0 -8 -7 -4zM138 546l80 148q4 7 9 7h80q8 0 5 -8l-96 -149q-3 -4 -10 -4h-65q-6 0 -3 6z" />
    <glyph glyph-name="Scircumflex" unicode="&#x15c;" horiz-adv-x="488" 
d="M229 -10q-117 0 -191 53q-5 5 -5 13v68q0 9 7 4q85 -65 193 -65q65 0 97 27.5t32 69.5q0 41 -29 68.5t-118 67.5q-99 43 -136.5 87t-37.5 109q0 76 59 125t156 49q95 0 156 -37q5 -4 5 -11v-64q0 -9 -8 -4q-75 46 -155 46q-72 0 -99.5 -31t-27.5 -66q0 -36 26.5 -64.5
t102.5 -61.5q114 -49 153.5 -94t39.5 -110q0 -80 -58 -129.5t-162 -49.5zM315 714l-74 74l-71 -74q-5 -5 -9 -5h-65q-8 0 -3 8l108 111q4 4 8 4h68q7 0 10 -5l112 -113q2 -2 0.5 -3.5t-4.5 -1.5h-70q-7 0 -10 5z" />
    <glyph glyph-name="scircumflex" unicode="&#x15d;" horiz-adv-x="389" 
d="M327 389q-61 35 -129 35q-44 0 -63 -18t-19 -43q0 -26 19.5 -43t79.5 -41q76 -31 109.5 -62t33.5 -83q0 -70 -49.5 -107t-124.5 -37q-87 0 -147 39q-5 3 -5 9v66q0 7 6 5q79 -52 152 -52q43 0 63.5 19t20.5 46t-22 45t-83 43q-72 30 -102.5 62t-30.5 84q0 60 45.5 97.5
t123.5 37.5q76 0 125 -28q5 -4 5 -10l-1 -60q0 -8 -7 -4zM190 654l-69 -113q-1 -3 -8 -3h-55q-4 0 -4.5 2.5t1.5 4.5l97 150q3 4 6 4h67q5 0 8 -5l100 -150q4 -6 -4 -6h-60q-6 0 -9 4z" />
    <glyph glyph-name="uni015E" unicode="&#x15e;" horiz-adv-x="488" 
d="M417 618v-64q0 -9 -8 -4q-75 46 -155 46q-72 0 -99.5 -31t-27.5 -66q0 -36 26.5 -64.5t102.5 -61.5q114 -49 153.5 -94t39.5 -110q0 -72 -47.5 -120t-134.5 -57l-26 -37q86 -23 86 -91q0 -39 -30 -63.5t-77 -24.5q-43 0 -69 13q-4 3 -4 9v37q0 6 6 5q30 -14 62 -14
q48 0 48 36q0 42 -94 54q-2 2 -2 9.5t2 10.5l40 55q-106 5 -171 52q-5 5 -5 13v68q0 9 7 4q85 -65 193 -65q65 0 97 27.5t32 69.5q0 41 -29 68.5t-118 67.5q-99 43 -136.5 87t-37.5 109q0 76 59 125t156 49q95 0 156 -37q5 -4 5 -11z" />
    <glyph glyph-name="uni015F" unicode="&#x15f;" horiz-adv-x="389" 
d="M335 453l-1 -60q0 -8 -7 -4q-61 35 -129 35q-44 0 -63 -18t-19 -43q0 -26 19.5 -43t79.5 -41q76 -31 109.5 -62t33.5 -83q0 -60 -37.5 -96t-98.5 -45l-26 -38q86 -23 86 -91q0 -39 -30 -63.5t-77 -24.5q-44 0 -68 13q-5 3 -5 9v37q0 7 6 5q30 -14 62 -14q48 0 48 36
q0 42 -94 54q-2 2 -2 9.5t2 10.5l40 55q-76 5 -127 38q-5 3 -5 9v66q0 7 6 5q79 -52 152 -52q43 0 63.5 19t20.5 46t-22 45t-83 43q-72 30 -102.5 62t-30.5 84q0 60 45.5 97.5t123.5 37.5q76 0 125 -28q5 -4 5 -10z" />
    <glyph glyph-name="Scaron" unicode="&#x160;" horiz-adv-x="488" 
d="M229 -10q-117 0 -191 53q-5 5 -5 13v68q0 9 7 4q85 -65 193 -65q65 0 97 27.5t32 69.5q0 41 -29 68.5t-118 67.5q-99 43 -136.5 87t-37.5 109q0 76 59 125t156 49q95 0 156 -37q5 -4 5 -11v-64q0 -9 -8 -4q-75 46 -155 46q-72 0 -99.5 -31t-27.5 -66q0 -36 26.5 -64.5
t102.5 -61.5q114 -49 153.5 -94t39.5 -110q0 -80 -58 -129.5t-162 -49.5zM177 826l73 -75l71 75q5 5 10 5h65q2 0 3 -1.5t0.5 -3t-1.5 -3.5l-108 -111q-3 -4 -7 -4h-69q-7 0 -10 5l-111 113q-2 2 -1 3.5t4 1.5h70q6 0 11 -5z" />
    <glyph glyph-name="scaron" unicode="&#x161;" horiz-adv-x="389" 
d="M327 389q-61 35 -129 35q-44 0 -63 -18t-19 -43q0 -26 19.5 -43t79.5 -41q76 -31 109.5 -62t33.5 -83q0 -70 -49.5 -107t-124.5 -37q-87 0 -147 39q-5 3 -5 9v66q0 7 6 5q79 -52 152 -52q43 0 63.5 19t20.5 46t-22 45t-83 43q-72 30 -102.5 62t-30.5 84q0 60 45.5 97.5
t123.5 37.5q76 0 125 -28q5 -4 5 -10l-1 -60q0 -8 -7 -4zM199 582q23 41 69 113q2 4 8 4h55q3 0 4 -2.5t-1 -4.5l-97 -150q-3 -4 -7 -4h-66q-5 0 -8 4l-100 150q-2 5 3 7h61q6 0 9 -5q57 -90 70 -112z" />
    <glyph glyph-name="uni0162" unicode="&#x162;" horiz-adv-x="539" 
d="M194 -64l46 64h-12q-6 0 -6 6v581h-211q-7 0 -6 7l10 57q1 6 8 6h495q7 0 8 -7l7 -56q1 -7 -5 -7h-220v-581q0 -6 -5 -6h-8l-31 -46q88 -22 88 -91q0 -39 -29.5 -63t-76.5 -24q-45 0 -69 13q-5 3 -5 9v37q0 7 6 5q30 -14 62 -14q48 0 48 36q0 42 -93 54q-2 1 -2.5 9
t1.5 11z" />
    <glyph glyph-name="uni0163" unicode="&#x163;" horiz-adv-x="304" 
d="M166 412v-278q0 -72 61 -72q26 0 50 9q6 2 6 -4v-51q0 -8 -5 -10q-27 -14 -70 -16l-25 -35q85 -22 85 -91q0 -39 -30 -63.5t-76 -24.5q-43 0 -69 13q-4 3 -4 9v37q0 6 6 5q30 -14 62 -14q48 0 48 36q0 42 -94 54q-2 1 -2.5 9t1.5 11l44 59q-74 21 -74 126v291l-66 2
q-6 0 -6 8v53q0 7 7 7h66q3 96 10 130q1 6 6 7l70 15q6 2 6 -4q-6 -52 -6 -148h108q6 0 6 -7v-55q0 -6 -6 -6z" />
    <glyph glyph-name="Tcaron" unicode="&#x164;" horiz-adv-x="539" 
d="M222 7v580h-211q-7 0 -6 7l10 57q1 6 8 6h495q7 0 8 -7l7 -56q1 -7 -5 -7h-220v-579q0 -8 -7 -8h-71q-8 0 -8 7zM201 820l73 -74l71 74q5 5 10 5h65q2 0 3 -1.5t0.5 -3t-1.5 -3.5l-108 -111q-2 -3 -7 -3h-68q-8 0 -11 4l-111 113q-2 2 -1 3.5t4 1.5h70q8 0 11 -5z" />
    <glyph glyph-name="tcaron" unicode="&#x165;" horiz-adv-x="316" 
d="M258 556v182q0 8 7 8h54q8 0 8 -8l-15 -182q0 -7 -7 -7h-41q-6 0 -6 7zM283 63v-47q0 -8 -5 -10q-32 -16 -80 -16q-118 0 -118 131v294l-66 1q-6 1 -6 8v51q0 7 7 7h66q3 96 10 130q1 6 6 7l70 15q6 2 6 -4q-6 -52 -6 -148h108q6 0 6 -7v-52q0 -5 -6 -7l-109 -1v-285
q0 -72 61 -72q26 0 50 10q6 2 6 -5z" />
    <glyph glyph-name="Tbar" unicode="&#x166;" horiz-adv-x="539" 
d="M526 650l7 -56q1 -7 -5 -7h-220v-233h109q5 0 5 -5v-49q0 -5 -5 -5h-109v-287q0 -8 -7 -8h-71q-8 0 -8 7v288h-100q-6 0 -6 5v49q0 5 6 5h100v233h-211q-7 0 -6 7l10 57q1 6 8 6h495q7 0 8 -7z" />
    <glyph glyph-name="tbar" unicode="&#x167;" horiz-adv-x="304" 
d="M166 228v-98q0 -72 61 -72q26 0 50 10q6 2 6 -5v-47q0 -8 -5 -10q-32 -16 -80 -16q-118 0 -118 131v107h-59q-5 0 -5 6v42q0 5 5 5h59v134l-66 1q-6 1 -6 8v51q0 7 7 7h66q3 96 10 130q1 6 6 7l70 15q6 2 6 -4q-6 -52 -6 -148h108q6 0 6 -7v-52q0 -5 -6 -7l-109 -1v-134
h84q5 0 5 -5v-42q0 -6 -5 -6h-84z" />
    <glyph glyph-name="Utilde" unicode="&#x168;" horiz-adv-x="660" 
d="M164 651v-414q0 -82 44 -128t124 -46q163 0 163 180v407q0 7 6 7h73q7 0 7 -7v-411q0 -128 -69.5 -188.5t-181.5 -60.5q-115 0 -183.5 62t-68.5 183v415q0 7 7 7h73q6 0 6 -6zM229 716h-49q-6 0 -6 5q1 50 27 79.5t65 29.5q35 0 73.5 -27t53.5 -27q29 0 34 46q2 5 6 5h49
q5 0 5 -5q-7 -108 -88 -108q-32 0 -70.5 27t-56.5 27q-14 0 -25 -12.5t-13 -35.5q0 -4 -5 -4z" />
    <glyph glyph-name="utilde" unicode="&#x169;" horiz-adv-x="535" 
d="M463 475v-369q0 -56 6 -100q0 -6 -6 -6h-66q-5 0 -8 5q-3 9 -5 44q-64 -59 -151 -59q-69 0 -115 41.5t-46 141.5v302q0 7 6 7h74q5 0 5 -7v-289q0 -124 101 -124q72 0 119 53v360q0 7 7 7h73q6 0 6 -7zM158 563h-48q-5 0 -5 7q1 53 27 82t67 29q34 0 79.5 -27t59.5 -27
q33 0 36 46q0 6 6 6h48q6 0 6 -5q-5 -112 -89 -112q-30 0 -75 27t-65 27q-36 0 -42 -47q0 -6 -5 -6z" />
    <glyph glyph-name="Umacron" unicode="&#x16a;" horiz-adv-x="660" 
d="M164 651v-414q0 -82 44 -128t124 -46q163 0 163 180v407q0 7 6 7h73q7 0 7 -7v-411q0 -128 -69.5 -188.5t-181.5 -60.5q-115 0 -183.5 62t-68.5 183v415q0 7 7 7h73q6 0 6 -6zM203 794h255q5 0 5 -5v-54q0 -7 -5 -7h-253q-7 0 -7 6v55q0 5 5 5z" />
    <glyph glyph-name="umacron" unicode="&#x16b;" horiz-adv-x="535" 
d="M463 475v-369q0 -56 6 -100q0 -6 -6 -6h-66q-5 0 -8 5q-3 9 -5 44q-64 -59 -151 -59q-69 0 -115 41.5t-46 141.5v302q0 7 6 7h74q5 0 5 -7v-289q0 -124 101 -124q72 0 119 53v360q0 7 7 7h73q6 0 6 -7zM139 648h265q4 0 4 -5v-52q0 -5 -5 -5h-265q-5 0 -5 6v51q0 5 6 5z
" />
    <glyph glyph-name="Ubreve" unicode="&#x16c;" horiz-adv-x="660" 
d="M164 651v-414q0 -82 44 -128t124 -46q163 0 163 180v407q0 7 6 7h73q7 0 7 -7v-411q0 -128 -69.5 -188.5t-181.5 -60.5q-115 0 -183.5 62t-68.5 183v415q0 7 7 7h73q6 0 6 -6zM186 829h58q4 0 6 -6q20 -59 79 -59q62 0 82 60q3 5 6 5h57q5 0 5 -7q-8 -56 -50 -90
t-100 -34q-60 0 -101 31.5t-47 92.5q0 7 5 7z" />
    <glyph glyph-name="ubreve" unicode="&#x16d;" horiz-adv-x="535" 
d="M463 475v-369q0 -56 6 -100q0 -6 -6 -6h-66q-5 0 -8 5q-3 9 -5 44q-64 -59 -151 -59q-69 0 -115 41.5t-46 141.5v302q0 7 6 7h74q5 0 5 -7v-289q0 -124 101 -124q72 0 119 53v360q0 7 7 7h73q6 0 6 -7zM125 676h57q4 0 5 -3q21 -60 82 -60q66 0 84 59q1 4 5 4h57
q4 0 4 -5q-10 -57 -49 -89t-101 -32q-60 0 -99.5 30.5t-48.5 91.5q-1 4 4 4z" />
    <glyph glyph-name="Uring" unicode="&#x16e;" horiz-adv-x="660" 
d="M164 651v-414q0 -82 44 -128t124 -46q163 0 163 180v407q0 7 6 7h73q7 0 7 -7v-411q0 -128 -69.5 -188.5t-181.5 -60.5q-115 0 -183.5 62t-68.5 183v415q0 7 7 7h73q6 0 6 -6zM225 777q0 39 29 62.5t74 23.5q46 0 74.5 -24t28.5 -62q0 -39 -29 -63.5t-74 -24.5
q-47 0 -75 24t-28 64zM275 777q0 -21 15 -34t38 -13q24 0 38.5 13t14.5 34t-14.5 34t-38.5 13t-38.5 -13t-14.5 -34z" />
    <glyph glyph-name="uring" unicode="&#x16f;" horiz-adv-x="535" 
d="M463 475v-369q0 -56 6 -100q0 -6 -6 -6h-66q-5 0 -8 5q-3 9 -5 44q-64 -59 -151 -59q-69 0 -115 41.5t-46 141.5v302q0 7 6 7h74q5 0 5 -7v-289q0 -124 101 -124q72 0 119 53v360q0 7 7 7h73q6 0 6 -7zM170 621q0 41 27.5 66t71.5 25t72 -25t28 -66t-28 -66t-72 -25
t-71.5 24.5t-27.5 66.5zM218 621q0 -23 14.5 -36.5t36.5 -13.5t37 13.5t15 36.5t-15 37t-37 14t-36.5 -13.5t-14.5 -37.5z" />
    <glyph glyph-name="Uhungarumlaut" unicode="&#x170;" horiz-adv-x="660" 
d="M164 651v-414q0 -82 44 -128t124 -46q163 0 163 180v407q0 7 6 7h73q7 0 7 -7v-411q0 -128 -69.5 -188.5t-181.5 -60.5q-115 0 -183.5 62t-68.5 183v415q0 7 7 7h73q6 0 6 -6zM195 705l75 112q4 4 9 4h72q5 0 3 -6l-87 -111q-4 -5 -9 -5h-60q-8 0 -3 6zM363 706l75 110
q3 6 10 6h71q9 0 3 -8l-85 -108q-3 -6 -11 -6h-59q-6 0 -4 6z" />
    <glyph glyph-name="uhungarumlaut" unicode="&#x171;" horiz-adv-x="535" 
d="M463 475v-369q0 -56 6 -100q0 -6 -6 -6h-66q-5 0 -8 5q-3 9 -5 44q-64 -59 -151 -59q-69 0 -115 41.5t-46 141.5v302q0 7 6 7h74q5 0 5 -7v-289q0 -124 101 -124q72 0 119 53v360q0 7 7 7h73q6 0 6 -7zM149 550l68 136q4 7 11 7h63q4 0 5 -3t-1 -5l-80 -139q-3 -6 -11 -6
h-51q-8 0 -4 10zM311 551l69 136q2 6 9 6h64q4 0 5.5 -3t-0.5 -5l-81 -138q-3 -6 -12 -6h-49q-10 0 -5 10z" />
    <glyph glyph-name="Uogonek" unicode="&#x172;" horiz-adv-x="660" 
d="M485 -154v-45q0 -9 -5 -11q-29 -16 -76 -16q-46 0 -80.5 25t-34.5 75q0 61 71 119q-27 -3 -35 -3q-112 1 -179.5 63t-67.5 182v415q0 7 7 7h73q6 0 6 -6v-415q0 -82 44 -127.5t124 -45.5q163 0 163 179v408q0 7 6 7h73q7 0 7 -7v-415q0 -157 -117 -217
q-100 -63 -100 -122q0 -24 17 -39t46 -15q30 0 52 9q6 1 6 -5z" />
    <glyph glyph-name="uogonek" unicode="&#x173;" horiz-adv-x="535" 
d="M384 49q-64 -59 -149 -59q-70 0 -116.5 41.5t-46.5 141.5v302q0 7 6 7h74q5 0 5 -7v-290q0 -123 101 -123q70 0 119 52v361q0 7 7 7h73q6 0 6 -6v-370q0 -62 6 -97q2 -6 -4 -8q-89 -54 -89 -107q0 -51 59 -51q23 0 48 9q8 3 8 -4v-46q0 -8 -7 -11q-28 -16 -74 -16
q-47 0 -80 24.5t-33 75.5q0 62 90 139q-3 18 -3 35z" />
    <glyph glyph-name="Wcircumflex" unicode="&#x174;" horiz-adv-x="889" 
d="M503 650l135 -561h1q42 183 138 561q3 7 8 7h74q6 0 5 -8l-175 -643q-1 -6 -9 -6h-84q-7 0 -9 6l-138 568h-1q-15 -72 -150 -566q-2 -8 -9 -8h-82q-6 0 -9 7l-174 643q-1 7 5 7h78q7 0 8 -6q129 -494 140 -563h1q24 104 146 562q2 7 9 7h84q5 0 8 -7zM522 709l-74 74
l-71 -74q-5 -5 -9 -5h-65q-8 0 -3 8l108 111q3 3 8 3h68q7 0 10 -4l112 -113q3 -5 -4 -5h-70q-7 0 -10 5z" />
    <glyph glyph-name="wcircumflex" unicode="&#x175;" horiz-adv-x="724" 
d="M556 0h-84q-7 0 -8 7q-78 286 -102 388h-1q-13 -59 -113 -388q-2 -7 -9 -7h-81q-10 0 -11 7l-135 468q-2 7 5 7h75q6 0 7 -5q86 -304 106 -399h2q2 6 12.5 44.5l37 133l62.5 219.5q1 7 8 7h78q5 0 7 -6q85 -307 104 -399h2q28 120 113 400q2 5 6 5h70q7 0 5 -6l-148 -469
q-3 -7 -8 -7zM361 654l-69 -113q-2 -3 -8 -3h-56q-8 0 -3 7l98 150q3 4 6 4h67q5 0 8 -5l100 -150q4 -6 -4 -6h-60q-6 0 -9 4z" />
    <glyph glyph-name="Ycircumflex" unicode="&#x176;" horiz-adv-x="580" 
d="M240 265l-220 384q-5 8 4 8h84q5 0 8 -5q164 -300 178 -333l174 333q3 5 8 5h81q7 0 3 -6l-221 -388q-7 -10 -7 -27v-229q0 -7 -7 -7h-71q-8 0 -8 7v233q0 13 -6 25zM359 710l-73 75l-72 -74q-3 -5 -9 -5h-65q-3 0 -3.5 3t1.5 4l107 112q5 3 8 3h68q6 0 10 -4l112 -113
q3 -5 -3 -5h-71q-7 0 -10 4z" />
    <glyph glyph-name="ycircumflex" unicode="&#x177;" horiz-adv-x="467" 
d="M14 482h82q5 0 7 -5q134 -351 141 -371h2q67 162 127 370q3 6 9 6h69q8 0 6 -8q-60 -225 -168 -446q-90 -178 -151 -253q-8 -6 -13 -6h-81q-10 0 -3 9q35 41 83 115.5t71 120.5q3 8 1 13q-15 34 -92.5 221l-93.5 227q-4 7 4 7zM231 654l-69 -113q-2 -3 -8 -3h-55
q-4 0 -4.5 2.5t1.5 4.5l97 150q3 4 6 4h67q5 0 8 -5l100 -150q4 -6 -4 -6h-60q-6 0 -9 4z" />
    <glyph glyph-name="Ydieresis" unicode="&#x178;" horiz-adv-x="580" 
d="M240 265l-220 384q-5 8 4 8h84q5 0 8 -5q164 -300 178 -333l174 333q3 5 8 5h81q7 0 3 -6l-221 -388q-7 -10 -7 -27v-229q0 -7 -7 -7h-71q-8 0 -8 7v233q0 13 -6 25zM192 704q-21 0 -34.5 13t-13.5 33t14.5 33t35.5 13t34.5 -13t13.5 -33t-14 -33t-36 -13zM385 705
q-21 0 -34.5 12t-13.5 33q0 20 14.5 33t35.5 13t34.5 -13t13.5 -33q0 -21 -13.5 -33t-36.5 -12z" />
    <glyph glyph-name="Zacute" unicode="&#x179;" horiz-adv-x="541" 
d="M508 0h-485q-7 0 -7 6v39q0 6 4 10l373 532h-360q-7 0 -6 6l12 58q2 6 8 6h450q5 0 5 -6v-41q0 -5 -4 -12l-368 -528h394q6 0 5 -7l-13 -57q-2 -6 -8 -6zM209 719l115 112q3 4 10 4h85q3 0 3.5 -2.5t-1.5 -4.5l-126 -110q-4 -5 -11 -5h-72q-7 0 -3 6z" />
    <glyph glyph-name="zacute" unicode="&#x17a;" horiz-adv-x="412" 
d="M384 0h-359q-5 0 -5 5v37q0 4 3 8l257 363h-102h-151q-7 0 -6 7l11 55q1 7 7 7h338q5 0 6 -6v-37q0 -5 -5 -12l-252 -359q37 1 121 1h152q6 0 5 -7l-13 -56q-1 -6 -7 -6zM157 546l80 148q3 7 9 7h80q8 0 5 -8l-96 -149q-3 -4 -10 -4h-65q-6 0 -3 6z" />
    <glyph glyph-name="Zdotaccent" unicode="&#x17b;" horiz-adv-x="541" 
d="M508 0h-485q-7 0 -7 6v39q0 6 4 10l373 532h-360q-7 0 -6 6l12 58q2 6 8 6h450q5 0 5 -6v-41q0 -5 -4 -12l-368 -528h394q6 0 5 -7l-13 -57q-2 -6 -8 -6zM269 722q-23 0 -37 13t-14 33t14.5 33t37.5 13t36.5 -12.5t13.5 -33.5t-13.5 -33.5t-37.5 -12.5z" />
    <glyph glyph-name="zdotaccent" unicode="&#x17c;" horiz-adv-x="412" 
d="M384 0h-359q-5 0 -5 5v37q0 4 3 8l257 363h-102h-151q-7 0 -6 7l11 55q1 7 7 7h338q5 0 6 -6v-37q0 -5 -5 -12l-252 -359q37 1 121 1h152q6 0 5 -7l-13 -56q-1 -6 -7 -6zM206 569q-22 0 -35.5 13t-13.5 34q0 22 14 35t36 13q23 0 36 -13.5t13 -34.5t-13.5 -34t-36.5 -13z
" />
    <glyph glyph-name="Zcaron" unicode="&#x17d;" horiz-adv-x="541" 
d="M508 0h-485q-7 0 -7 6v39q0 6 4 10l373 532h-360q-7 0 -6 6l12 58q2 6 8 6h450q5 0 5 -6v-41q0 -5 -4 -12l-368 -528h394q6 0 5 -7l-13 -57q-2 -6 -8 -6zM202 826l73 -74l71 74q5 5 10 5h65q2 0 3 -1.5t0.5 -3t-1.5 -3.5l-108 -111q-2 -3 -7 -3h-68q-8 0 -11 4l-111 113
q-2 2 -1 3.5t4 1.5h70q8 0 11 -5z" />
    <glyph glyph-name="zcaron" unicode="&#x17e;" horiz-adv-x="412" 
d="M384 0h-359q-5 0 -5 5v37q0 4 3 8l257 363h-102h-151q-7 0 -6 7l11 55q1 7 7 7h338q5 0 6 -6v-37q0 -5 -5 -12l-252 -359q37 1 121 1h152q6 0 5 -7l-13 -56q-1 -6 -7 -6zM211 582q23 41 69 113q2 4 8 4h55q3 0 4 -2.5t-1 -4.5l-97 -150q-3 -4 -7 -4h-66q-5 0 -8 4
l-100 150q-2 5 3 7h61q6 0 9 -5q57 -90 70 -112z" />
    <glyph glyph-name="longs" unicode="&#x17f;" horiz-adv-x="237" 
d="M16 482h64v25q0 103 44 160t121 57q39 0 59 -11q5 -2 5 -8v-59q0 -8 -6 -5q-22 10 -47 10q-90 0 -90 -139v-505q0 -7 -6 -7h-73q-7 0 -7 7v408l-64 1q-5 0 -5 6v54q0 6 5 6z" />
    <glyph glyph-name="uni018F" unicode="&#x18f;" horiz-adv-x="675" 
d="M60 333q12 5 160 5h312v18q-2 99 -60.5 166.5t-165.5 67.5q-113 0 -209 -59q-6 -3 -6 4v65q0 6 4 9q90 58 221 58q78 0 138 -29t95.5 -78t53 -106.5t17.5 -121.5q0 -154 -78.5 -248t-217.5 -94q-69 0 -123.5 24t-86 64.5t-47.5 87.5t-16 97q0 65 9 70zM529 268h-285
q-92 0 -101 -3q-1 -9 -1 -22q0 -42 17.5 -81t62 -69t108.5 -30q89 0 139 56t60 149z" />
    <glyph glyph-name="florin" unicode="&#x192;" horiz-adv-x="530" 
d="M128 333v48q0 6 5 6h96l10 76q6 43 18 80t33 70t54.5 51.5t76.5 18.5t69 -12q4 -3 4 -8v-58q0 -5 -6 -4q-24 13 -59 13q-84 0 -104 -149l-9 -78h111q6 0 6 -5v-49q0 -6 -5 -6h-120l-31 -243q-14 -106 -54 -157.5t-115 -51.5q-60 2 -87 21q-5 2 -5 10v58q0 8 7 4
q35 -21 75 -21q44 0 64 32t29 108l31 240h-88q-6 0 -6 6z" />
    <glyph glyph-name="uni019F" unicode="&#x19f;" horiz-adv-x="713" 
d="M358 667q133 0 215.5 -95t83.5 -239q1 -160 -83.5 -251.5t-214.5 -91.5q-139 0 -221 91.5t-83 247.5q0 154 85.5 246t217.5 92zM144 370h424q-6 99 -64 162.5t-149 63.5q-87 0 -146 -60t-65 -166zM569 299h-426q5 -101 62 -169t156 -68q93 0 148.5 65t59.5 172z" />
    <glyph glyph-name="Ohorn" unicode="&#x1a0;" horiz-adv-x="713" 
d="M670 679q0 -47 -27.5 -74.5t-70.5 -32.5q85 -91 85 -239q0 -160 -83.5 -251.5t-214.5 -91.5q-139 0 -221 91.5t-83 247.5q0 154 86 246t217 92q87 0 161 -47q74 -5 74 59q0 22 -5 47q0 5 5 5h64q5 0 8 -5q5 -18 5 -47zM143 330q0 -117 57 -194.5t161 -77.5q96 0 152 73.5
t56 198.5q0 120 -59 194.5t-156 74.5q-91 0 -151 -70.5t-60 -198.5z" />
    <glyph glyph-name="ohorn" unicode="&#x1a1;" horiz-adv-x="559" 
d="M283 491q74 0 131 -39q58 3 58 59q0 18 -5 45q-2 5 4 5h64q5 0 8 -5q6 -24 6 -47q0 -41 -23 -68.5t-64 -34.5q50 -62 50 -165q0 -112 -62.5 -181.5t-168.5 -69.5q-60 0 -107 22t-73.5 59t-40 80t-13.5 89q0 111 64 181t172 70zM278 426q-65 0 -104.5 -49.5t-39.5 -133.5
q0 -82 38.5 -135t110.5 -53q59 0 100.5 45t41.5 139q0 80 -36 133.5t-111 53.5z" />
    <glyph glyph-name="Uhorn" unicode="&#x1af;" horiz-adv-x="660" 
d="M502 657h33q28 0 42 12.5t14 44.5q0 21 -5 44q-2 8 5 8h62q6 0 9 -7q6 -22 6 -45q0 -89 -87 -103v-372q0 -127 -70.5 -188t-180.5 -61q-115 0 -183.5 62t-68.5 183v415q0 7 7 7h73q6 0 6 -6v-419q0 -82 44 -128t124 -46q163 0 163 180v412q0 7 7 7z" />
    <glyph glyph-name="uhorn" unicode="&#x1b0;" horiz-adv-x="539" 
d="M469 591h63q7 0 8 -7q6 -16 6 -45q0 -81 -81 -103v-330q0 -57 6 -97q0 -8 -6 -9h-64q-9 0 -10 6q-5 18 -5 43q-63 -59 -153 -59q-28 0 -53.5 8t-51 26.5t-41 56.5t-15.5 91v302q0 8 7 8h72q6 0 6 -7v-291q0 -62 28 -92t77 -30q66 0 118 52v361q0 7 6 7h23q34 0 46.5 15.5
t12.5 41.5t-4 45q0 7 5 7z" />
    <glyph glyph-name="uni01C4" unicode="&#x1c4;" horiz-adv-x="1201" 
d="M78 8v641q0 7 6 8q90 2 183 2q165 0 250.5 -87.5t85.5 -235.5q0 -83 -24.5 -146t-61.5 -98.5t-87.5 -58t-94 -29.5t-89.5 -7q-33 0 -162 3q-6 0 -6 8zM164 588v-520q30 -2 84 -2q127 0 197 66t70 202q0 126 -65.5 191t-183.5 65q-82 0 -102 -2zM1168 0h-485q-7 0 -7 6v39
q0 6 4 10l373 532h-360q-7 0 -6 6l12 58q1 6 8 6h450q5 0 5 -6v-41q0 -5 -4 -12l-368 -528h394q7 0 4 -7l-12 -57q-2 -6 -8 -6zM862 826l73 -74l71 74q5 5 10 5h65q2 0 3 -1.5t0.5 -3t-1.5 -3.5l-108 -111q-2 -3 -7 -3h-68q-8 0 -11 4l-111 113q-2 2 -1 3.5t4 1.5h70
q6 0 11 -5z" />
    <glyph glyph-name="uni01C5" unicode="&#x1c5;" horiz-adv-x="1072" 
d="M78 8v641q0 7 6 8q90 2 183 2q165 0 250.5 -87.5t85.5 -235.5q0 -83 -24.5 -146t-61.5 -98.5t-87.5 -58t-94 -29.5t-89.5 -7q-33 0 -162 3q-6 0 -6 8zM164 588v-520q30 -2 84 -2q127 0 197 66t70 202q0 126 -65.5 191t-183.5 65q-82 0 -102 -2zM1044 0h-359q-5 0 -5 5v37
q0 4 3 8l257 363h-102h-152q-8 0 -5 7l11 55q0 7 7 7h338q5 0 5 -6l1 -37q0 -5 -5 -12l-252 -359q37 1 121 1h152q6 0 5 -7l-13 -56q-1 -6 -7 -6zM870 582q23 41 69 113q4 4 8 4h56q3 0 4 -2.5t-1 -4.5l-97 -150q-4 -4 -7 -4h-67q-5 0 -8 4l-100 150q-2 2 -0.5 4.5t4.5 2.5
h61q5 0 8 -5q64 -101 70 -112z" />
    <glyph glyph-name="uni01C6" unicode="&#x1c6;" horiz-adv-x="958" 
d="M288 -10q-110 0 -175.5 64t-65.5 183q0 111 74 182.5t192 71.5q47 0 75 -10v228q0 6 6 6h74q6 0 6 -6v-613q0 -24 2 -48q0 -6 -5 -9q-87 -49 -183 -49zM388 74v336q-29 13 -77 13q-82 0 -129 -50t-47 -132q0 -92 47 -136t116 -44q57 0 90 13zM930 0h-359q-5 0 -5 5v37
q0 4 3 8l257 363h-102h-151q-7 0 -6 7l11 55q1 7 7 7h339q4 0 5 -6v-37q0 -5 -5 -12l-252 -359q37 1 122 1h151q6 0 5 -7l-13 -56q-1 -6 -7 -6zM757 582q14 28 69 113q2 4 8 4h55q3 0 4 -2.5t-1 -4.5l-97 -150q-3 -4 -7 -4h-66q-6 0 -9 4l-99 150q-2 2 -1 4.5t4 2.5h61
q5 0 8 -5z" />
    <glyph glyph-name="uni01C7" unicode="&#x1c7;" horiz-adv-x="869" 
d="M457 0h-370q-9 0 -9 9v641q0 7 7 7h74q5 0 5 -6v-581h308q7 0 5 -7l-12 -57q-1 -6 -8 -6zM705 153v498q0 6 6 6h74q5 0 5 -5v-504q0 -205 -178 -205q-68 0 -105 23q-6 4 -6 10v62q0 8 7 5q47 -24 97 -24q54 0 77 30t23 104z" />
    <glyph glyph-name="uni01C8" unicode="&#x1c8;" horiz-adv-x="728" 
d="M457 0h-370q-9 0 -9 9v641q0 7 7 7h74q5 0 5 -6v-581h308q7 0 5 -7l-12 -57q-1 -6 -8 -6zM571 -33v508q0 7 6 7h73q7 0 7 -6v-465q0 -90 -11 -135t-33 -72q-38 -43 -103 -43q-20 0 -32 3q-6 1 -6 8v53q0 7 6 7q52 -2 72.5 25.5t20.5 109.5zM614 569q-22 0 -35.5 13
t-13.5 34q0 22 13.5 35t36.5 13t36 -13.5t13 -34.5t-13.5 -34t-36.5 -13z" />
    <glyph glyph-name="uni01C9" unicode="&#x1c9;" horiz-adv-x="476" 
d="M72 98v610q0 7 7 7h72q6 0 6 -7v-607q0 -26 9 -35t26 -9q8 0 24 2q3 1 3.5 0t0.5 -5v-47q0 -7 -5 -9q-18 -8 -52 -8q-42 0 -66.5 23.5t-24.5 84.5zM319 -33v508q0 7 7 7h72q7 0 7 -6v-465q0 -90 -11 -135t-33 -72q-38 -43 -103 -43q-20 0 -32 3q-6 1 -6 8v53q0 7 6 7
q52 -2 72.5 25.5t20.5 109.5zM362 569q-22 0 -35.5 13t-13.5 34q0 22 14 35t36 13q23 0 36 -13.5t13 -34.5t-13.5 -34t-36.5 -13z" />
    <glyph glyph-name="uni01CA" unicode="&#x1ca;" horiz-adv-x="909" 
d="M751 657h74q5 0 5 -5v-626q0 -97 -43.5 -144.5t-117.5 -47.5q-42 0 -66 12q-6 2 -6 10v62q0 8 7 5q22 -12 59 -12q81 0 81 119v621q0 6 7 6zM78 651q0 6 6 6h98q6 0 10 -6q299 -516 312 -548h2q-3 39 -3 163v384q0 7 7 7h68q6 0 6 -7v-642q0 -8 -8 -8h-94q-6 0 -11 6
q-23 46 -161 288t-154 278h-1q3 -32 5 -187v-378q0 -7 -6 -7h-68q-8 0 -8 7v644z" />
    <glyph glyph-name="uni01CB" unicode="&#x1cb;" horiz-adv-x="893" 
d="M78 651q0 6 6 6h98q6 0 10 -6q299 -516 312 -548h2q-3 39 -3 163v384q0 7 7 7h68q6 0 6 -7v-642q0 -8 -8 -8h-94q-6 0 -11 6q-23 46 -161 288t-154 278h-1q3 -32 5 -187v-378q0 -7 -6 -7h-68q-8 0 -8 7v644zM735 -33v508q0 7 7 7h73q6 0 6 -6v-465q0 -91 -11 -135.5
t-33 -71.5q-38 -43 -103 -43q-20 0 -32 3q-6 2 -6 8v53q0 7 7 7q51 -2 71.5 26t20.5 109zM779 569q-22 0 -36 13t-14 34q0 22 14 35t37 13q22 0 35.5 -13.5t13.5 -34.5q0 -20 -14 -33.5t-36 -13.5z" />
    <glyph glyph-name="uni01CC" unicode="&#x1cc;" horiz-adv-x="772" 
d="M72 7v362q0 39 -4 107q-2 6 6 6h64q6 0 9 -6q1 -2 6 -49q69 64 157 64q29 0 54.5 -8.5t50.5 -28.5t40 -60.5t15 -97.5v-289q0 -7 -7 -7h-72q-7 0 -7 8v288q0 123 -102 123q-67 0 -125 -58v-354q0 -7 -6 -7h-73q-6 0 -6 7zM614 -33v508q0 7 7 7h72q7 0 7 -6v-465
q0 -91 -11 -135.5t-33 -71.5q-38 -43 -103 -43q-20 0 -32 3q-6 1 -6 8v53q0 7 7 7q51 -2 71.5 26t20.5 109zM658 569q-22 0 -36 13t-14 34q0 22 14 35t36 13q23 0 36.5 -13.5t13.5 -34.5q0 -20 -14 -33.5t-36 -13.5z" />
    <glyph glyph-name="uni01CD" unicode="&#x1cd;" horiz-adv-x="639" 
d="M439 214h-246l-74 -208q-1 -6 -8 -6h-72q-8 0 -6 8l219 601q5 13 7 42q0 6 5 6h100q5 0 6 -5l235 -645q3 -7 -4 -7h-78q-5 0 -8 5zM213 285h205q-8 27 -50 145.5t-53 156.5h-1q-7 -27 -101 -302zM246 818l73 -74l72 74q3 5 9 5h65q3 0 3.5 -3t-1.5 -5l-107 -111
q-3 -3 -8 -3h-68q-7 0 -10 4l-112 113q-1 3 3 5h71q7 0 10 -5z" />
    <glyph glyph-name="uni01CE" unicode="&#x1ce;" horiz-adv-x="486" 
d="M330 70v174q-116 5 -163.5 -19.5t-47.5 -77.5q0 -39 30 -65t92 -26q53 0 89 14zM414 307v-218q0 -32 2 -49q0 -3 -2 -4q-89 -46 -189 -46q-84 0 -137.5 39t-53.5 116q0 171 296 159v20q0 14 -4 28t-14.5 30.5t-34 27t-56.5 10.5q-71 0 -135 -36q-7 -2 -7 5v57q0 6 5 8
q67 37 152 37q89 0 133.5 -50.5t44.5 -133.5zM247 582q23 41 69 113q2 4 8 4h55q3 0 4 -2.5t-1 -4.5l-97 -150q-3 -4 -7 -4h-66q-5 0 -8 4l-100 150q-2 5 3 7h61q6 0 9 -5q57 -90 70 -112z" />
    <glyph glyph-name="uni01CF" unicode="&#x1cf;" horiz-adv-x="243" 
d="M164 651v-644q0 -7 -6 -7h-73q-7 0 -7 7v643q0 7 7 7h73q6 0 6 -6zM53 818l73 -74l71 74q5 5 10 5h65q2 0 3 -1.5t0.5 -3t-1.5 -3.5l-108 -111q-2 -3 -7 -3h-68q-8 0 -11 4l-111 113q-2 2 -1 3.5t4 1.5h70q6 0 11 -5z" />
    <glyph glyph-name="uni01D0" unicode="&#x1d0;" horiz-adv-x="231" 
d="M72 8v467q0 7 6 7h73q7 0 7 -6v-469q0 -7 -7 -7h-71q-8 0 -8 8zM120 582q23 41 69 113q2 4 8 4h55q3 0 4 -2.5t-1 -4.5l-97 -150q-3 -4 -7 -4h-66q-5 0 -8 4l-100 150q-2 5 3 7h61q6 0 9 -5q57 -90 70 -112z" />
    <glyph glyph-name="uni01D1" unicode="&#x1d1;" horiz-adv-x="714" 
d="M357 667q134 0 217 -95t83 -240q1 -160 -83 -251t-216 -91q-139 0 -221 92t-82 248q0 153 85.5 245t216.5 92zM143 330q0 -117 57.5 -192t160.5 -75q96 0 152 72t56 195q0 118 -59 191.5t-155 73.5q-92 0 -152 -69.5t-60 -195.5zM282 818l73 -74l72 74q3 5 9 5h65
q3 0 3.5 -3t-1.5 -5l-107 -111q-3 -3 -8 -3h-68q-9 0 -10 4l-112 113q-5 5 3 5h71q7 0 10 -5z" />
    <glyph glyph-name="uni01D2" unicode="&#x1d2;" horiz-adv-x="559" 
d="M282 491q106 0 168 -69t62 -180q0 -115 -64 -183.5t-167 -68.5q-116 0 -175 74.5t-59 176.5q0 110 65 180t170 70zM277 426q-64 0 -103.5 -50t-39.5 -133t39 -135t110 -52q60 0 101 45t41 138q0 82 -36.5 134.5t-111.5 52.5zM282 582q23 41 69 113q2 4 8 4h55q3 0 4 -2.5
t-1 -4.5l-97 -150q-3 -4 -7 -4h-66q-5 0 -8 4l-100 150q-2 5 3 7h61q6 0 9 -5q57 -90 70 -112z" />
    <glyph glyph-name="uni01D3" unicode="&#x1d3;" horiz-adv-x="660" 
d="M164 651v-414q0 -82 44 -128t124 -46q163 0 163 180v407q0 7 6 7h73q7 0 7 -7v-411q0 -128 -69.5 -188.5t-181.5 -60.5q-115 0 -183.5 62t-68.5 183v415q0 7 7 7h73q6 0 6 -6zM260 818l74 -74l71 74q5 5 9 5h66q2 0 3 -3t-1 -5l-108 -111q-3 -3 -8 -3h-68q-7 0 -10 4
l-112 113q-1 3 3 5h71q7 0 10 -5z" />
    <glyph glyph-name="uni01D4" unicode="&#x1d4;" horiz-adv-x="535" 
d="M463 475v-369q0 -56 6 -100q0 -6 -6 -6h-66q-5 0 -8 5q-3 9 -5 44q-64 -59 -151 -59q-69 0 -115 41.5t-46 141.5v302q0 7 6 7h74q5 0 5 -7v-289q0 -124 101 -124q72 0 119 53v360q0 7 7 7h73q6 0 6 -7zM272 582q23 41 69 113q2 4 8 4h55q3 0 4 -2.5t-1 -4.5l-97 -150
q-3 -4 -7 -4h-66q-5 0 -8 4l-100 150q-2 5 3 7h61q6 0 9 -5q57 -90 70 -112z" />
    <glyph glyph-name="uni01D5" unicode="&#x1d5;" horiz-adv-x="660" 
d="M164 651v-414q0 -82 44 -128t124 -46q163 0 163 180v407q0 7 6 7h73q7 0 7 -7v-411q0 -128 -69.5 -188.5t-181.5 -60.5q-115 0 -183.5 62t-68.5 183v415q0 7 7 7h73q6 0 6 -6zM200 865h258q5 0 5 -5v-46q0 -5 -5 -5h-259q-5 0 -5 6v45q0 5 6 5zM227 695q-18 0 -29 9.5
t-11 25.5t11.5 26t29.5 10q17 0 28 -10t11 -26t-11.5 -25.5t-28.5 -9.5zM432 695q-18 0 -28.5 9.5t-10.5 25.5t11 26t29 10q17 0 28 -10t11 -26t-11.5 -25.5t-28.5 -9.5z" />
    <glyph glyph-name="uni01D6" unicode="&#x1d6;" horiz-adv-x="535" 
d="M463 475v-369q0 -56 6 -100q0 -6 -6 -6h-66q-5 0 -8 5q-3 9 -5 44q-64 -59 -151 -59q-69 0 -115 41.5t-46 141.5v302q0 7 6 7h74q5 0 5 -7v-289q0 -124 101 -124q72 0 119 53v360q0 7 7 7h73q6 0 6 -7zM180 539q-18 0 -29 10t-11 27t11.5 27.5t29.5 10.5q17 0 28 -10.5
t11 -27.5t-11.5 -27t-28.5 -10zM354 539q-17 0 -28 10t-11 27t11.5 27.5t28.5 10.5t28 -10.5t11 -27.5q0 -16 -11.5 -26.5t-28.5 -10.5zM140 724h258q5 0 5 -5v-48q0 -5 -5 -5h-259q-5 0 -5 6v47q0 5 6 5z" />
    <glyph glyph-name="uni01D7" unicode="&#x1d7;" horiz-adv-x="660" 
d="M164 651v-414q0 -82 44 -128t124 -46q163 0 163 180v407q0 7 6 7h73q7 0 7 -7v-411q0 -128 -69.5 -188.5t-181.5 -60.5q-115 0 -183.5 62t-68.5 183v415q0 7 7 7h73q6 0 6 -6zM289 790l69 89q3 5 7 5h74q6 0 2 -6l-76 -89q-3 -4 -8 -4h-65q-6 0 -3 5zM227 695
q-18 0 -29 9.5t-11 25.5t11.5 26t29.5 10q17 0 28 -10t11 -26t-11.5 -25.5t-28.5 -9.5zM432 695q-18 0 -28.5 9.5t-10.5 25.5t11 26t29 10q17 0 28 -10t11 -26t-11.5 -25.5t-28.5 -9.5z" />
    <glyph glyph-name="uni01D8" unicode="&#x1d8;" horiz-adv-x="535" 
d="M463 475v-369q0 -56 6 -100q0 -6 -6 -6h-66q-5 0 -8 5q-3 9 -5 44q-64 -59 -151 -59q-69 0 -115 41.5t-46 141.5v302q0 7 6 7h74q5 0 5 -7v-289q0 -124 101 -124q72 0 119 53v360q0 7 7 7h73q6 0 6 -7zM224 640l70 93q4 5 8 5h73q6 0 3 -6l-77 -93q-4 -4 -8 -4h-65
q-6 0 -4 5zM180 532q-17 0 -28 10.5t-11 26.5q0 17 11.5 27.5t28.5 10.5t28 -10.5t11 -27.5t-11.5 -27t-28.5 -10zM354 532q-17 0 -28 10t-11 27t11.5 27.5t28.5 10.5t28 -10.5t11 -27.5t-11 -27t-29 -10z" />
    <glyph glyph-name="uni01D9" unicode="&#x1d9;" horiz-adv-x="660" 
d="M164 651v-414q0 -82 44 -128t124 -46q163 0 163 180v407q0 7 6 7h73q7 0 7 -7v-411q0 -128 -69.5 -188.5t-181.5 -60.5q-115 0 -183.5 62t-68.5 183v415q0 7 7 7h73q6 0 6 -6zM331 824l60 49q4 4 10 4h62q3 0 3.5 -2.5t-1.5 -4.5l-90 -74q-4 -4 -9 -4h-75q-5 0 -9 4
l-94 74q-5 7 3 7h68q5 0 10 -5zM227 696q-18 0 -29 9.5t-11 25.5q0 17 11.5 27t29.5 10q17 0 27.5 -10.5t10.5 -26.5t-11 -25.5t-28 -9.5zM432 696q-17 0 -28 9.5t-11 25.5q0 17 11.5 27t28.5 10t28 -10.5t11 -26.5q0 -15 -11 -25t-29 -10z" />
    <glyph glyph-name="uni01DA" unicode="&#x1da;" horiz-adv-x="535" 
d="M463 475v-369q0 -56 6 -100q0 -6 -6 -6h-66q-5 0 -8 5q-3 9 -5 44q-64 -59 -151 -59q-69 0 -115 41.5t-46 141.5v302q0 7 6 7h74q5 0 5 -7v-289q0 -124 101 -124q72 0 119 53v360q0 7 7 7h73q6 0 6 -7zM180 532q-17 0 -28 10.5t-11 26.5q0 17 11.5 27.5t28.5 10.5
t28 -10.5t11 -27.5t-11.5 -27t-28.5 -10zM354 532q-17 0 -28 10t-11 27t11.5 27.5t28.5 10.5t28 -10.5t11 -27.5t-11 -27t-29 -10zM268 671q14 16 60 58q4 4 9 4h62q3 0 3.5 -3t-1.5 -5l-91 -86q-3 -4 -9 -4h-71q-7 0 -10 4l-94 87q-2 2 -0.5 4.5t4.5 2.5h67q5 0 10 -5
t18 -17l24.5 -22.5t18.5 -17.5z" />
    <glyph glyph-name="uni01DB" unicode="&#x1db;" horiz-adv-x="660" 
d="M164 651v-414q0 -82 44 -128t124 -46q163 0 163 180v407q0 7 6 7h73q7 0 7 -7v-411q0 -128 -69.5 -188.5t-181.5 -60.5q-115 0 -183.5 62t-68.5 183v415q0 7 7 7h73q6 0 6 -6zM307 879l70 -89q2 -5 -4 -5h-65q-5 0 -8 4l-76 89q-4 6 3 6h73q4 0 7 -5zM227 695
q-18 0 -29 9.5t-11 25.5t11.5 26t29.5 10q17 0 28 -10t11 -26t-11.5 -25.5t-28.5 -9.5zM432 695q-18 0 -28.5 9.5t-10.5 25.5t11 26t29 10q17 0 28 -10t11 -26t-11.5 -25.5t-28.5 -9.5z" />
    <glyph glyph-name="uni01DC" unicode="&#x1dc;" horiz-adv-x="535" 
d="M463 475v-369q0 -56 6 -100q0 -6 -6 -6h-66q-5 0 -8 5q-3 9 -5 44q-64 -59 -151 -59q-69 0 -115 41.5t-46 141.5v302q0 7 6 7h74q5 0 5 -7v-289q0 -124 101 -124q72 0 119 53v360q0 7 7 7h73q6 0 6 -7zM244 733l70 -93q3 -5 -3 -5h-66q-4 0 -8 4l-76 93q-3 6 2 6h73
q4 0 8 -5zM180 532q-17 0 -28 10.5t-11 26.5q0 17 11.5 27.5t28.5 10.5t28 -10.5t11 -27.5t-11.5 -27t-28.5 -10zM354 532q-17 0 -28 10t-11 27t11.5 27.5t28.5 10.5t28 -10.5t11 -27.5t-11 -27t-29 -10z" />
    <glyph glyph-name="Gcaron" unicode="&#x1e6;" horiz-adv-x="666" 
d="M513 265l-134 2q-7 1 -7 7v56q0 6 6 6h214q7 0 7 -7v-284q0 -6 -6 -10q-95 -45 -207 -45q-162 0 -246.5 95t-84.5 238q0 156 95 250t248 94q115 0 178 -37q4 -4 4 -10v-65q0 -9 -6 -5q-76 42 -174 42q-121 0 -189 -71t-68 -195q0 -51 15 -97t44.5 -83.5t79 -60
t113.5 -22.5q70 0 118 23v179zM297 818l73 -74l72 74q3 5 9 5h65q3 0 3.5 -3t-1.5 -5l-107 -111q-3 -3 -8 -3h-68q-7 0 -10 4l-112 113q-1 3 3 5h71q7 0 10 -5z" />
    <glyph glyph-name="gcaron" unicode="&#x1e7;" horiz-adv-x="508" 
d="M343 325q0 51 -26 79.5t-76 28.5q-47 0 -77 -29t-30 -79q0 -49 28.5 -78t76.5 -29t76 28.5t28 78.5zM412 -78q0 85 -163 85q-48 0 -71 -5q-23 -12 -44 -35.5t-21 -48.5q0 -40 39.5 -68t107.5 -28q76 0 114 29.5t38 70.5zM242 491q47 0 76 -7q10 -2 24 -2h138q6 0 6 -6
v-53q0 -6 -6 -6l-89 3q32 -32 32 -97q0 -78 -50.5 -121t-130.5 -43q-31 0 -50 7q-12 -19 -12 -44q0 -30 19 -49q24 2 60 2q112 0 174 -32t62 -111q0 -74 -64.5 -124t-174.5 -50q-101 0 -161.5 44.5t-60.5 113.5q0 58 94 128q-24 32 -24 73q0 37 20 67q-72 44 -72 140
q0 73 52 120t138 47zM247 582q23 41 69 113q2 4 8 4h55q3 0 4 -2.5t-1 -4.5l-97 -150q-3 -4 -7 -4h-66q-5 0 -8 4l-100 150q-2 5 3 7h61q6 0 9 -5q57 -90 70 -112z" />
    <glyph glyph-name="uni01F1" unicode="&#x1f1;" horiz-adv-x="1201" 
d="M78 8v641q0 7 6 8q90 2 183 2q165 0 250.5 -87.5t85.5 -235.5q0 -83 -24.5 -146t-61.5 -98.5t-87.5 -58t-94 -29.5t-89.5 -7q-33 0 -162 3q-6 0 -6 8zM164 588v-520q30 -2 84 -2q127 0 197 66t70 202q0 126 -65.5 191t-183.5 65q-82 0 -102 -2zM1168 0h-485q-7 0 -7 6v39
q0 6 4 10l373 532h-360q-7 0 -6 6l12 58q1 6 8 6h450q5 0 5 -6v-41q0 -5 -4 -12l-368 -528h394q7 0 4 -7l-12 -57q-2 -6 -8 -6z" />
    <glyph glyph-name="uni01F2" unicode="&#x1f2;" horiz-adv-x="1072" 
d="M78 8v641q0 7 6 8q90 2 183 2q165 0 250.5 -87.5t85.5 -235.5q0 -83 -24.5 -146t-61.5 -98.5t-87.5 -58t-94 -29.5t-89.5 -7q-33 0 -162 3q-6 0 -6 8zM164 588v-520q30 -2 84 -2q127 0 197 66t70 202q0 126 -65.5 191t-183.5 65q-82 0 -102 -2zM1044 0h-359q-5 0 -5 5v37
q0 4 3 8l257 363h-102h-152q-8 0 -5 7l11 55q0 7 7 7h338q5 0 5 -6l1 -37q0 -5 -5 -12l-252 -359q37 1 121 1h152q6 0 5 -7l-13 -56q-1 -6 -7 -6z" />
    <glyph glyph-name="uni01F3" unicode="&#x1f3;" horiz-adv-x="958" 
d="M288 -10q-110 0 -175.5 64t-65.5 183q0 111 74 182.5t192 71.5q47 0 75 -10v228q0 6 6 6h74q6 0 6 -6v-613q0 -24 2 -48q0 -6 -5 -9q-87 -49 -183 -49zM388 74v336q-29 13 -77 13q-82 0 -129 -50t-47 -132q0 -92 47 -136t116 -44q57 0 90 13zM930 0h-359q-5 0 -5 5v37
q0 4 3 8l257 363h-102h-151q-7 0 -6 7l11 55q1 7 7 7h339q4 0 5 -6v-37q0 -5 -5 -12l-252 -359q37 1 122 1h151q6 0 5 -7l-13 -56q-1 -6 -7 -6z" />
    <glyph glyph-name="Aringacute" unicode="&#x1fa;" horiz-adv-x="639" 
d="M216 729q0 27 26 45t72 18q50 0 74.5 -17t24.5 -46q0 -28 -27 -46t-72 -18q-49 0 -73.5 17t-24.5 47zM268 729q0 -29 46 -29q48 0 48 29q0 28 -48 28q-46 0 -46 -28zM268 811l92 58q5 4 13 4h79q10 0 3 -9l-100 -57q-6 -4 -16 -4h-67q-12 0 -4 8zM439 214h-246l-74 -208
q-1 -6 -8 -6h-72q-8 0 -6 8l219 601q5 13 7 42q0 6 5 6h100q5 0 6 -5l235 -645q3 -7 -4 -7h-78q-5 0 -8 5zM213 285h205q-8 27 -50 145.5t-53 156.5h-1q-7 -27 -101 -302z" />
    <glyph glyph-name="aringacute" unicode="&#x1fb;" horiz-adv-x="486" 
d="M137 579q0 29 26 49t71 20q47 0 72 -20t25 -49t-26 -49.5t-71 -20.5q-46 0 -71.5 20.5t-25.5 49.5zM188 579q0 -15 12.5 -25t33.5 -10q22 0 34 10t12 25t-12.5 25t-33.5 10t-33.5 -10t-12.5 -25zM197 674l61 91q3 5 10 5h72q9 0 3 -8l-73 -91q-4 -5 -11 -5h-59q-9 0 -3 8
zM330 70v174q-116 5 -163.5 -19.5t-47.5 -77.5q0 -39 30 -65t92 -26q53 0 89 14zM414 307v-218q0 -32 2 -49q0 -3 -2 -4q-89 -46 -189 -46q-84 0 -137.5 39t-53.5 116q0 171 296 159v20q0 14 -4 28t-14.5 30.5t-34 27t-56.5 10.5q-71 0 -135 -36q-7 -2 -7 5v57q0 6 5 8
q67 37 152 37q89 0 133.5 -50.5t44.5 -133.5z" />
    <glyph glyph-name="AEacute" unicode="&#x1fc;" horiz-adv-x="839" 
d="M119 0h-80q-7 0 -4 7l277 605q4 10 12 41q1 4 6 4h406q6 0 7 -6l8 -59q1 -5 -5 -5h-276l26 -223h246q5 0 5 -6v-60q0 -4 -6 -4h-234l25 -224h270q6 0 4 -6l-10 -59q-1 -5 -7 -5h-328q-5 0 -5 4l-27 218h-206l-97 -217q-2 -5 -7 -5zM251 292h170l-23 189q-1 15 -6 57
l-7 60h-1l-44 -105zM364 709l115 112q3 4 10 4h85q3 0 3.5 -2.5t-1.5 -4.5l-126 -110q-4 -5 -11 -5h-72q-7 0 -3 6z" />
    <glyph glyph-name="aeacute" unicode="&#x1fd;" horiz-adv-x="788" 
d="M118 143q0 -41 28.5 -63.5t78.5 -22.5q72 0 131 53q-25 52 -25 119h-76q-61 0 -99 -20.5t-38 -65.5zM33 142q0 71 61 107.5t161 36.5h77v34q0 17 -4.5 32t-15.5 32t-35 27.5t-59 10.5q-66 0 -134 -34q-6 -3 -6 5v55q0 6 4 7q72 36 151 36q115 0 150 -87q58 87 169 87
q51 0 90 -19t60.5 -49t32.5 -63t11 -65q0 -57 -9 -61q-23 -8 -106 -8h-219q-1 -73 43 -118.5t126 -45.5q68 0 128 29q6 3 6 -4v-56q0 -7 -5 -9q-58 -32 -148 -32q-109 0 -169 69q-84 -69 -184 -69q-72 0 -124 38t-52 114zM545 428q-55 0 -92.5 -39.5t-40.5 -104.5h206
q40 0 44 8q3 6 3 22q0 38 -29 76t-91 38zM355 546l80 148q3 7 9 7h80q8 0 5 -8l-96 -149q-3 -4 -10 -4h-65q-6 0 -3 6z" />
    <glyph glyph-name="Oslashacute" unicode="&#x1fe;" horiz-adv-x="714" 
d="M187 41l-26 -38q-2 -3 -7 -3h-54q-7 0 -3 6l48 68q-89 99 -89 255q-1 153 84.5 245.5t217.5 92.5q91 0 158 -46l23 32q3 4 6 4h53q7 0 4 -6l-43 -64q97 -91 99 -255q0 -158 -83.5 -250t-214.5 -92q-102 0 -173 51zM198 147l275 408q-45 41 -119 41q-90 0 -150.5 -69
t-60.5 -197q0 -109 55 -183zM510 516l-275 -411q55 -44 126 -44q100 1 155 74t55 196q0 119 -61 185zM290 708l116 112q4 4 9 4h85q3 0 4 -3t-1 -4l-126 -111q-5 -4 -11 -4h-72q-8 0 -4 6z" />
    <glyph glyph-name="oslashacute" unicode="&#x1ff;" horiz-adv-x="562" 
d="M166 126l203 273q-36 30 -89 30q-66 0 -107 -50.5t-41 -136.5q0 -72 34 -116zM151 29l-23 -29q-3 -4 -10 -4h-46q-7 0 -2 7l42 55q-65 74 -65 182q0 111 64.5 181t170.5 70q77 0 129 -37l19 25q3 3 8 3h46q8 0 4 -7l-40 -51q67 -67 67 -183q0 -114 -64 -182.5t-168 -68.5
q-80 0 -132 39zM397 358l-203 -273q38 -31 91 -31q60 0 103 44.5t43 139.5q0 76 -34 120zM229 546l80 148q3 7 9 7h80q8 0 5 -8l-96 -149q-3 -4 -10 -4h-65q-6 0 -3 6z" />
    <glyph glyph-name="uni0218" unicode="&#x218;" horiz-adv-x="488" 
d="M229 -10q-117 0 -191 53q-5 5 -5 13v68q0 9 7 4q85 -65 193 -65q65 0 97 27.5t32 69.5q0 41 -29 68.5t-118 67.5q-99 43 -136.5 87t-37.5 109q0 76 59 125t156 49q95 0 156 -37q5 -4 5 -11v-64q0 -9 -8 -4q-75 46 -155 46q-72 0 -99.5 -31t-27.5 -66q0 -36 26.5 -64.5
t102.5 -61.5q114 -49 153.5 -94t39.5 -110q0 -80 -58 -129.5t-162 -49.5zM239 -233h-66q-7 0 -3 6q38 62 38 116q0 21 -14 59q-3 5 4 5h70q5 0 8 -4q14 -24 14 -55q0 -66 -44 -124q-2 -3 -7 -3z" />
    <glyph glyph-name="uni0219" unicode="&#x219;" horiz-adv-x="389" 
d="M327 389q-61 35 -129 35q-44 0 -63 -18t-19 -43q0 -26 19.5 -43t79.5 -41q76 -31 109.5 -62t33.5 -83q0 -70 -49.5 -107t-124.5 -37q-87 0 -147 39q-5 3 -5 9v66q0 7 6 5q79 -52 152 -52q43 0 63.5 19t20.5 46t-22 45t-83 43q-72 30 -102.5 62t-30.5 84q0 60 45.5 97.5
t123.5 37.5q76 0 125 -28q5 -4 5 -10l-1 -60q0 -8 -7 -4zM186 -227h-66q-5 0 -3 6q38 61 38 115q0 26 -14 59q-2 6 4 6h71q5 0 7 -5q14 -19 14 -54q0 -67 -43 -124q-2 -3 -8 -3z" />
    <glyph glyph-name="uni021A" unicode="&#x21a;" horiz-adv-x="539" 
d="M222 7v580h-211q-7 0 -6 7l10 57q1 6 8 6h495q7 0 8 -7l7 -56q1 -7 -5 -7h-220v-579q0 -8 -7 -8h-71q-8 0 -8 7zM266 -227h-65q-7 0 -3 6q37 59 37 115q0 26 -14 59q-2 6 4 6h71q5 0 8 -5q13 -20 13 -54q0 -67 -43 -124q-2 -3 -8 -3z" />
    <glyph glyph-name="uni021B" unicode="&#x21b;" horiz-adv-x="304" 
d="M283 63v-47q0 -8 -5 -10q-32 -16 -80 -16q-118 0 -118 131v294l-66 1q-6 1 -6 8v51q0 7 7 7h66q3 96 10 130q1 6 6 7l70 15q6 2 6 -4q-6 -52 -6 -148h108q6 0 6 -7v-52q0 -5 -6 -7l-109 -1v-285q0 -72 61 -72q26 0 50 10q6 2 6 -5zM172 -227h-66q-7 0 -3 6q38 62 38 116
q0 25 -14 59q-2 5 4 5h71q6 0 7 -4q14 -24 14 -55q0 -65 -43 -124q-3 -3 -8 -3z" />
    <glyph glyph-name="uni021C" unicode="&#x21c;" horiz-adv-x="516" 
d="M433 596l-220 -233q113 3 186.5 -47t73.5 -147q0 -109 -80 -167t-193 -58q-104 0 -166 36q-4 3 -4 9v65q0 6 6 4q69 -40 164 -40q92 0 139 40.5t47 104.5q0 69 -53.5 102t-133.5 33q-56 0 -91 -10q-6 -2 -6 3v43q0 4 3 8l233 246q-19 -1 -113 -1h-190q-5 0 -5 6l15 60
q1 4 6 4h381q4 0 4 -5v-48q0 -5 -3 -8z" />
    <glyph glyph-name="uni021D" unicode="&#x21d;" horiz-adv-x="420" 
d="M370 420l-188 -225q96 0 161.5 -50.5t65.5 -149.5q0 -112 -72 -170t-179 -58q-94 0 -150 35q-5 4 -5 10v63q0 7 6 3q62 -40 150 -40q81 0 122 40.5t41 106.5q0 143 -173 143q-31 0 -63 -4q-7 -1 -7 4v43q0 6 3 9l199 234q-38 -2 -104 -2h-166q-7 0 -5 9l10 55q2 6 7 6
h346q5 0 5 -7v-45q0 -4 -4 -10z" />
    <glyph glyph-name="uni0232" unicode="&#x232;" horiz-adv-x="580" 
d="M240 265l-220 384q-5 8 4 8h84q5 0 8 -5q164 -300 178 -333l174 333q3 5 8 5h81q7 0 3 -6l-221 -388q-7 -10 -7 -27v-229q0 -7 -7 -7h-71q-8 0 -8 7v233q0 13 -6 25zM163 786h255q5 0 5 -5v-54q0 -7 -6 -7h-252q-7 0 -7 6v55q0 5 5 5z" />
    <glyph glyph-name="uni0233" unicode="&#x233;" horiz-adv-x="467" 
d="M14 482h82q5 0 7 -5q134 -351 141 -371h2q67 162 127 370q3 6 9 6h69q8 0 6 -8q-60 -225 -168 -446q-90 -178 -151 -253q-8 -6 -13 -6h-81q-10 0 -3 9q35 41 83 115.5t71 120.5q3 8 1 13q-15 34 -92.5 221l-93.5 227q-4 7 4 7zM108 648h265q4 0 4 -5v-52q0 -5 -5 -5h-265
q-5 0 -5 6v51q0 5 6 5z" />
    <glyph glyph-name="uni0237" unicode="&#x237;" horiz-adv-x="230" 
d="M72 -33v508q0 7 7 7h73q6 0 6 -6v-465q0 -91 -11 -135.5t-33 -71.5q-38 -43 -103 -43q-20 0 -32 3q-6 2 -6 8v53q0 7 7 7q51 -2 71.5 26t20.5 109z" />
    <glyph glyph-name="uni0251" unicode="&#x251;" horiz-adv-x="546" 
d="M474 462v-366q0 -24 2 -48q0 -6 -5 -9q-87 -49 -183 -49q-110 0 -175.5 64t-65.5 183q0 110 74 182t192 72q86 0 155 -22q6 -1 6 -7zM388 78v328q-29 13 -77 13q-82 0 -129 -49t-47 -129q0 -90 47 -133t116 -43q57 0 90 13z" />
    <glyph glyph-name="uni0259" unicode="&#x259;" horiz-adv-x="508" 
d="M53 252q9 6 103 6h221v5q0 70 -40 114t-118 44q-73 0 -139 -34q-7 -2 -7 4v49q0 7 5 10q66 39 156 39q61 0 107 -21t71.5 -57t38 -78.5t12.5 -90.5q0 -111 -61 -181.5t-163 -70.5q-96 0 -145.5 61.5t-49.5 140.5q0 53 9 60zM376 202h-193q-53 0 -54 -6q-1 -4 -1 -25
q0 -44 28.5 -83t89.5 -39q58 0 92.5 42.5t37.5 110.5z" />
    <glyph glyph-name="uni0261" unicode="&#x261;" horiz-adv-x="546" 
d="M388 90v322q-31 11 -70 11q-82 0 -128.5 -49t-46.5 -133q0 -88 46 -129t110 -41q55 0 89 19zM474 409v-372q0 -81 -19 -137t-53.5 -83.5t-71.5 -38.5t-85 -11q-88 0 -147 30q-5 1 -5 7v71q0 5 6 3q70 -35 140 -35q80 0 112.5 43t36.5 135q-47 -21 -105 -21
q-99 0 -163 60.5t-64 176.5q0 115 74 184.5t196 69.5q79 0 149 -29q2 -1 2 -5q-3 -25 -3 -48z" />
    <glyph glyph-name="uni0275" unicode="&#x275;" horiz-adv-x="560" 
d="M282 491q104 0 167 -69t63 -179q0 -115 -62 -184t-167 -69q-61 0 -108.5 22t-74 58.5t-40 79.5t-13.5 90q0 110 64.5 180.5t170.5 70.5zM133 277h293q-3 63 -40 106.5t-106 43.5q-64 0 -103 -41t-44 -109zM427 210h-294q4 -65 44 -110t107 -45q57 0 98 37.5t45 117.5z
" />
    <glyph glyph-name="uni02BB" unicode="&#x2bb;" horiz-adv-x="163" 
d="M85 720h59q6 0 4 -6q-37 -99 -37 -177q0 -34 5 -64q0 -6 -5 -6h-61q-7 0 -8 7q-6 26 -6 64q0 90 42 178q3 4 7 4z" />
    <glyph glyph-name="uni02BC" unicode="&#x2bc;" horiz-adv-x="164" 
d="M78 467h-58q-7 0 -4 6q37 93 37 171q0 35 -6 71q0 5 5 5h63q5 0 7 -6q6 -26 6 -68q0 -90 -42 -174q-5 -5 -8 -5z" />
    <glyph glyph-name="uni02BE" unicode="&#x2be;" horiz-adv-x="400" 
d="M146 672v40q49 2 78.5 -23.5t29.5 -67.5q0 -43 -29.5 -68.5t-78.5 -22.5v41q28 -1 44 12.5t16 37.5t-16 38t-44 13z" />
    <glyph glyph-name="uni02BF" unicode="&#x2bf;" horiz-adv-x="400" 
d="M252 574v-45q-48 -1 -77 24.5t-29 66.5t29.5 66.5t76.5 24.5v-45q-53 -3 -53 -46q0 -41 53 -46z" />
    <glyph glyph-name="circumflex" unicode="&#x2c6;" 
d="M192 654l-69 -113q-1 -3 -8 -3h-55q-4 0 -4.5 2.5t1.5 4.5l97 150q3 4 6 4h67q5 0 8 -5l100 -150q4 -6 -4 -6h-60q-6 0 -9 4z" />
    <glyph glyph-name="caron" unicode="&#x2c7;" 
d="M200 582q23 41 69 113q2 4 8 4h55q3 0 4 -2.5t-1 -4.5l-97 -150q-3 -4 -7 -4h-66q-5 0 -8 4l-100 150q-2 5 3 7h61q6 0 9 -5q57 -90 70 -112z" />
    <glyph glyph-name="uni02C8" unicode="&#x2c8;" horiz-adv-x="400" 
d="M165 545l-6 149q0 6 6 6h70q6 0 5 -5l-7 -150q0 -5 -6 -5h-56q-6 0 -6 5z" />
    <glyph glyph-name="uni02C9" unicode="&#x2c9;" 
d="M65 648h265q4 0 4 -5v-52q0 -5 -5 -5h-265q-5 0 -5 6v51q0 5 6 5z" />
    <glyph glyph-name="uni02CA" unicode="&#x2ca;" 
d="M153 546l80 148q3 7 9 7h80q8 0 5 -8l-96 -149q-3 -4 -10 -4h-65q-6 0 -3 6z" />
    <glyph glyph-name="uni02CB" unicode="&#x2cb;" 
d="M170 696l84 -150q2 -6 -4 -6h-65q-5 0 -8 5l-99 149q-2 5 3 7h81q6 0 8 -5z" />
    <glyph glyph-name="uni02CC" unicode="&#x2cc;" horiz-adv-x="400" 
d="M165 -210l-6 149q0 7 6 7h70q7 0 5 -5l-7 -151q0 -5 -6 -5h-56q-6 0 -6 5z" />
    <glyph glyph-name="breve" unicode="&#x2d8;" 
d="M51 676h57q4 0 5 -3q21 -60 82 -60q66 0 84 59q1 4 5 4h57q4 0 4 -5q-10 -57 -49 -89t-101 -32q-60 0 -99.5 30.5t-48.5 91.5q-1 4 4 4z" />
    <glyph glyph-name="dotaccent" unicode="&#x2d9;" 
d="M196 569q-22 0 -36 13t-14 34q0 22 14 35t37 13q22 0 35.5 -13.5t13.5 -34.5q0 -20 -14 -33.5t-36 -13.5z" />
    <glyph glyph-name="ring" unicode="&#x2da;" 
d="M96 621q0 41 27.5 66t71.5 25t72 -25t28 -66t-28 -66t-72 -25t-71.5 24.5t-27.5 66.5zM144 621q0 -23 14.5 -36.5t36.5 -13.5q23 0 37.5 13.5t14.5 36.5t-15 37t-37 14t-36.5 -13.5t-14.5 -37.5z" />
    <glyph glyph-name="ogonek" unicode="&#x2db;" 
d="M88 -126q0 82 133 155h70q-123 -69 -123 -133q0 -24 16 -38.5t46 -14.5q34 0 56 9q6 2 6 -5v-46q0 -9 -5 -11q-29 -15 -79 -15q-48 0 -84 24.5t-36 74.5z" />
    <glyph glyph-name="tilde" unicode="&#x2dc;" 
d="M86 563h-48q-5 0 -5 7q1 53 27 82t67 29q34 0 79.5 -27t59.5 -27q33 0 36 46q0 6 6 6h48q6 0 6 -5q-5 -112 -89 -112q-30 0 -75 27t-65 27q-36 0 -42 -47q0 -6 -5 -6z" />
    <glyph glyph-name="hungarumlaut" unicode="&#x2dd;" 
d="M79 550l69 136q4 7 11 7h63q4 0 5 -3t-1 -5l-80 -139q-4 -6 -11 -6h-51q-9 0 -5 10zM242 551l68 136q4 6 10 6h64q10 0 5 -8l-81 -138q-3 -6 -12 -6h-49q-10 0 -5 10z" />
    <glyph glyph-name="gravecomb" unicode="&#x300;" horiz-adv-x="0" 
d="M5 696l83 -150q4 -6 -4 -6h-64q-5 0 -8 5l-99 149q-5 7 3 7h81q5 0 8 -5z" />
    <glyph glyph-name="acutecomb" unicode="&#x301;" horiz-adv-x="0" 
d="M-87 546l80 148q3 7 9 7h81q7 0 4 -8l-95 -149q-4 -4 -11 -4h-64q-7 0 -4 6z" />
    <glyph glyph-name="uni0302" unicode="&#x302;" horiz-adv-x="0" 
d="M-4 654l-69 -113q-1 -3 -8 -3h-56q-8 0 -3 7l98 150q3 4 6 4h67q5 0 8 -5l100 -150q4 -6 -4 -6h-60q-6 0 -9 4z" />
    <glyph glyph-name="tildecomb" unicode="&#x303;" horiz-adv-x="0" 
d="M-111 563h-48q-5 0 -5 7q1 53 27 82t67 29q34 0 79.5 -27t59.5 -27q33 0 36 46q0 6 6 6h48q5 0 5 -5q-4 -112 -89 -112q-30 0 -74.5 27t-64.5 27q-36 0 -42 -47q0 -6 -5 -6z" />
    <glyph glyph-name="uni0304" unicode="&#x304;" horiz-adv-x="0" 
d="M-132 648h265q5 0 5 -5v-52q0 -5 -5 -5h-266q-5 0 -5 6v51q0 5 6 5z" />
    <glyph glyph-name="uni0306" unicode="&#x306;" horiz-adv-x="0" 
d="M-145 676h58q4 0 5 -3q21 -60 82 -60q66 0 84 59q1 4 5 4h57q5 0 3 -5q-9 -57 -48.5 -89t-101.5 -32q-127 0 -148 122q-1 4 4 4z" />
    <glyph glyph-name="uni0307" unicode="&#x307;" horiz-adv-x="0" 
d="M0 569q-22 0 -36 13t-14 34q0 22 14 35t37 13q22 0 35.5 -13.5t13.5 -34.5q0 -20 -14 -33.5t-36 -13.5z" />
    <glyph glyph-name="uni0308" unicode="&#x308;" horiz-adv-x="0" 
d="M-92 570q-20 0 -33 12.5t-13 33.5q0 22 13.5 35t33.5 13t32.5 -13t12.5 -35q0 -21 -13 -33.5t-33 -12.5zM92 570q-20 0 -33 12.5t-13 33.5q0 22 13.5 35t32.5 13q21 0 33.5 -13t12.5 -35q0 -20 -13 -33t-33 -13z" />
    <glyph glyph-name="hookabovecomb" unicode="&#x309;" horiz-adv-x="0" 
d="M-90 652v42q0 4 3 6q31 22 82 22q44 0 70 -22.5t26 -60.5q0 -41 -35.5 -72.5t-78.5 -45.5q-6 -2 -7 4v41q0 5 4 7q47 30 47 60q0 15 -9.5 25t-27.5 10q-35 0 -68 -20q-6 -4 -6 4z" />
    <glyph glyph-name="uni030A" unicode="&#x30a;" horiz-adv-x="0" 
d="M-100 621q0 41 27.5 66t71.5 25t72 -25t28 -66t-28 -66t-72 -25t-71.5 24.5t-27.5 66.5zM-52 621q0 -23 14.5 -36.5t36.5 -13.5q23 0 37.5 13.5t14.5 36.5t-15 37t-37 14t-36.5 -13.5t-14.5 -37.5z" />
    <glyph glyph-name="uni030B" unicode="&#x30b;" horiz-adv-x="0" 
d="M-155 550l69 136q3 7 11 7h63q9 0 4 -8l-80 -139q-4 -6 -11 -6h-51q-9 0 -5 10zM7 551l69 136q2 6 10 6h64q4 0 5.5 -3t-0.5 -5l-81 -138q-4 -6 -12 -6h-50q-10 0 -5 10z" />
    <glyph glyph-name="uni030C" unicode="&#x30c;" horiz-adv-x="0" 
d="M4 582q23 41 69 113q2 4 8 4h55q3 0 4 -2.5t-1 -4.5l-97 -150q-3 -4 -7 -4h-66q-7 0 -8 4l-100 150q-2 2 -0.5 4.5t3.5 2.5h61q6 0 9 -5q57 -90 70 -112z" />
    <glyph glyph-name="uni031B" unicode="&#x31b;" horiz-adv-x="0" 
d="M216 591h62q8 0 9 -7q5 -15 5 -46q0 -80 -84 -102h-77q-9 0 -9 6v33q0 7 7 7h25q37 0 49 15t12 42q0 15 -4 45q-2 7 5 7z" />
    <glyph glyph-name="dotbelowcomb" unicode="&#x323;" horiz-adv-x="0" 
d="M-1 -167q-22 0 -35.5 14t-13.5 35q0 22 14.5 36t36.5 14t35 -14t13 -36q0 -21 -13.5 -35t-36.5 -14z" />
    <glyph glyph-name="uni0324" unicode="&#x324;" horiz-adv-x="0" 
d="M-92 -165q-20 0 -33 13t-13 34t13.5 34.5t33.5 13.5t32.5 -13t12.5 -35q0 -21 -13 -34t-33 -13zM92 -165q-20 0 -33 12.5t-13 34.5q0 21 13.5 34.5t33.5 13.5t32.5 -13.5t12.5 -34.5t-13 -34t-33 -13z" />
    <glyph glyph-name="uni0326" unicode="&#x326;" horiz-adv-x="0" 
d="M10 -227h-66q-7 0 -3 6q38 62 38 116q0 21 -14 59q-2 5 4 5h70q5 0 8 -4q14 -24 14 -55q0 -65 -43 -124q-3 -3 -8 -3z" />
    <glyph glyph-name="uni0327" unicode="&#x327;" horiz-adv-x="0" 
d="M-18 5h57l-35 -50q86 -23 86 -91q0 -39 -30 -63.5t-77 -24.5q-44 0 -68 13q-5 3 -5 9v37q0 7 6 5q30 -14 62 -14q48 0 48 36q0 42 -94 54q-2 2 -2 9.5t2 10.5z" />
    <glyph glyph-name="uni0328" unicode="&#x328;" horiz-adv-x="0" 
d="M-103 -126q0 82 133 155h70q-123 -69 -123 -133q0 -24 16.5 -38.5t46.5 -14.5q33 0 55 9q7 1 7 -5v-46q0 -8 -6 -11q-29 -15 -79 -15q-48 0 -84 24.5t-36 74.5z" />
    <glyph glyph-name="uni032E" unicode="&#x32e;" horiz-adv-x="0" 
d="M-143 -72h57q5 0 6 -5q20 -59 80 -59q61 0 81 59q2 5 7 5h56q6 0 6 -7q-9 -56 -51 -89.5t-99 -33.5q-60 0 -101 31.5t-47 92.5q-2 6 5 6z" />
    <glyph glyph-name="uni0331" unicode="&#x331;" horiz-adv-x="0" 
d="M-114 -83h228q5 0 5 -6v-51q0 -5 -5 -5h-228q-5 0 -5 5v51q0 6 5 6z" />
    <glyph glyph-name="uni0374" unicode="&#x374;" horiz-adv-x="182" 
d="M12 417l69 229q3 5 8 5h75q6 0 5 -7l-80 -229q-2 -6 -9 -6h-63q-7 0 -5 8z" />
    <glyph glyph-name="uni0375" unicode="&#x375;" horiz-adv-x="196" 
d="M23 -106l69 229q2 5 8 5h75q7 0 5 -7l-81 -230q-1 -5 -8 -5h-63q-6 0 -5 8z" />
    <glyph glyph-name="uni037A" unicode="&#x37a;" 
d="M130 -115q0 41 11 72q1 4 6 4h65q4 0 3 -4q-6 -36 -6 -53q0 -53 46 -53q25 0 37 5q3 1 4 -0.5t1 -4.5v-44q0 -7 -4 -9q-22 -13 -65 -13q-52 0 -75 30t-23 70z" />
    <glyph glyph-name="uni037E" unicode="&#x37e;" horiz-adv-x="233" 
d="M125 340q-24 0 -39 14.5t-15 38.5q0 23 15 38t39 15t39 -15t15 -38q0 -24 -14.5 -38.5t-39.5 -14.5zM92 -146h-60q-8 0 -5 7q69 119 61 255q0 6 5 6h68q6 0 7 -7q10 -152 -67 -256q-5 -5 -9 -5z" />
    <glyph glyph-name="tonos" unicode="&#x384;" 
d="M156 546l80 148q4 7 8 7h81q9 0 4 -8l-95 -149q-3 -4 -10 -4h-65q-6 0 -3 6z" />
    <glyph glyph-name="dieresistonos" unicode="&#x385;" 
d="M138 538l54 175q2 5 5 5h66q7 0 3 -6l-66 -175q-2 -4 -6 -4h-52q-6 0 -4 5zM63 571q-18 0 -29.5 11.5t-11.5 30.5q0 20 12 32t30 12q20 0 31 -12.5t11 -31.5t-12 -30.5t-31 -11.5zM327 571q-19 0 -30.5 11.5t-11.5 30.5q0 20 12 32t30 12t30 -12.5t12 -31.5
q0 -18 -11.5 -30t-30.5 -12z" />
    <glyph glyph-name="Alphatonos" unicode="&#x386;" horiz-adv-x="677" 
d="M476 214h-245l-74 -208q-3 -6 -9 -6h-71q-8 0 -6 8l219 601q5 13 7 42q0 6 5 6h100q5 0 6 -5l235 -645q3 -7 -4 -7h-78q-6 0 -8 5zM251 285h205q-7 23 -49.5 143t-53.5 159h-1q-7 -27 -101 -302zM20 454l56 200q1 4 6 4h73q6 0 5 -6l-66 -199q-1 -4 -7 -4h-62q-6 0 -5 5z
" />
    <glyph glyph-name="anoteleia" unicode="&#x387;" horiz-adv-x="233" 
d="M117 340q-24 0 -39 14.5t-15 38.5q0 23 15 38t39 15t39 -15t15 -38t-14.5 -38t-39.5 -15z" />
    <glyph glyph-name="Epsilontonos" unicode="&#x388;" horiz-adv-x="652" 
d="M624 64l-11 -58q-1 -6 -8 -6h-380q-7 0 -7 8v642q0 7 7 7h365q7 0 8 -6l8 -57q2 -7 -6 -7h-297v-217h264q6 0 6 -6v-58q0 -6 -7 -6h-263v-230h316q7 0 5 -6zM1 454l55 199q2 5 7 5h73q7 0 4 -6l-65 -199q-1 -5 -7 -5h-62q-6 0 -5 6z" />
    <glyph glyph-name="Etatonos" unicode="&#x389;" horiz-adv-x="799" 
d="M714 0h-73q-7 0 -7 7v293h-331v-293q0 -7 -7 -7h-72q-7 0 -7 7v643q0 7 7 7h72q7 0 7 -6v-281h331v280q0 7 6 7h74q6 0 6 -7v-643q0 -7 -6 -7zM1 454l55 199q2 5 7 5h73q7 0 4 -6l-65 -199q-1 -5 -7 -5h-62q-6 0 -5 6z" />
    <glyph glyph-name="Iotatonos" unicode="&#x38a;" horiz-adv-x="375" 
d="M296 651v-644q0 -7 -7 -7h-72q-7 0 -7 7v643q0 7 7 7h73q6 0 6 -6zM1 454l55 199q2 5 7 5h73q7 0 4 -6l-65 -199q-1 -5 -7 -5h-62q-6 0 -5 6z" />
    <glyph glyph-name="Omicrontonos" unicode="&#x38c;" horiz-adv-x="811" 
d="M455 667q134 0 216.5 -95t83.5 -240q0 -160 -84 -251t-215 -91q-139 0 -221 92t-82 248q0 153 85 245t217 92zM241 330q0 -117 57.5 -192t159.5 -75q97 0 153 72t56 195q0 117 -59 191t-155 74q-92 0 -152 -69.5t-60 -195.5zM1 454l55 199q2 5 7 5h73q7 0 4 -6l-65 -199
q-1 -5 -7 -5h-62q-6 0 -5 6z" />
    <glyph glyph-name="Upsilontonos" unicode="&#x38e;" horiz-adv-x="751" 
d="M411 265l-220 384q-5 8 4 8h84q6 0 8 -5q164 -300 178 -333l174 333q3 5 8 5h81q7 0 3 -6l-221 -388q-7 -10 -7 -27v-229q0 -7 -7 -7h-71q-8 0 -8 7v233q0 13 -6 25zM1 454l55 199q2 5 7 5h73q7 0 4 -6l-65 -199q-1 -5 -7 -5h-62q-6 0 -5 6z" />
    <glyph glyph-name="Omegatonos" unicode="&#x38f;" horiz-adv-x="811" 
d="M392 0h-256q-6 0 -6 6l-7 58q0 6 6 6h169q-134 110 -134 281q0 139 82.5 227.5t217.5 88.5q132 0 208.5 -88t76.5 -223q0 -168 -135 -286h172q6 0 6 -6l-8 -58q0 -6 -6 -6h-256q-6 0 -6 6v50q0 5 5 9q141 107 141 282q0 107 -53 177.5t-151 70.5t-152.5 -72t-54.5 -179
q0 -172 142 -278q6 -4 6 -9v-50q0 -7 -7 -7zM1 454l55 199q2 5 7 5h73q7 0 4 -6l-65 -199q-1 -5 -7 -5h-62q-6 0 -5 6z" />
    <glyph glyph-name="iotadieresistonos" unicode="&#x390;" horiz-adv-x="250" 
d="M72 475q0 7 6 7h75q5 0 5 -5v-371q0 -51 41 -51q14 0 28 4q3 -1 4 -4v-47q0 -6 -4 -7q-22 -11 -55 -11q-100 0 -100 118v367zM83 538l54 175q2 5 6 5h65q6 0 4 -6l-66 -175q-4 -4 -7 -4h-52q-6 0 -4 5zM8 571q-18 0 -29 11.5t-11 30.5q0 20 12 32t30 12q19 0 30 -12.5
t11 -31.5t-11.5 -30.5t-31.5 -11.5zM272 571q-18 0 -29.5 11.5t-11.5 30.5q0 20 12 32t30 12t29.5 -12.5t11.5 -31.5q0 -18 -11.5 -30t-30.5 -12z" />
    <glyph glyph-name="Alpha" unicode="&#x391;" horiz-adv-x="639" 
d="M439 214h-246l-74 -208q-1 -6 -8 -6h-72q-8 0 -6 8l219 601q5 13 7 42q0 6 5 6h100q5 0 6 -5l235 -645q3 -7 -4 -7h-78q-5 0 -8 5zM213 285h205q-8 27 -50 145.5t-53 156.5h-1q-7 -27 -101 -302z" />
    <glyph glyph-name="Beta" unicode="&#x392;" horiz-adv-x="561" 
d="M78 7v642q0 7 5 8q66 2 175 2q230 0 230 -168q0 -55 -29.5 -92.5t-75.5 -52.5v-1q59 -15 96.5 -57t37.5 -104q0 -96 -73.5 -141.5t-199.5 -45.5q-76 0 -160 3q-6 2 -6 7zM163 306v-237q14 -2 86 -2q180 0 180 120q0 55 -40.5 87t-123.5 32h-102zM163 588v-212h102
q74 0 106.5 30t32.5 78q0 106 -148 106q-69 0 -93 -2z" />
    <glyph glyph-name="Gamma" unicode="&#x393;" horiz-adv-x="479" 
d="M78 651q0 6 5 6h365q6 0 7 -5l7 -59q1 -6 -5 -6h-293v-581q0 -6 -6 -6h-74q-6 0 -6 6v645z" />
    <glyph glyph-name="uni0394" unicode="&#x394;" horiz-adv-x="642" 
d="M587 0h-533q-5 0 -5 6v39q0 6 2 12l203 551q5 16 6 44q1 5 6 5h99q6 0 7 -4l218 -594q2 -8 2 -13v-39q0 -7 -5 -7zM137 70h361l-65.5 187l-76.5 214.5t-39 113.5h-2q-14 -57 -178 -515z" />
    <glyph glyph-name="Epsilon" unicode="&#x395;" horiz-adv-x="513" 
d="M485 64l-11 -58q-1 -6 -8 -6h-380q-8 0 -8 8v642q0 7 7 7h366q6 0 8 -6l7 -57q2 -7 -5 -7h-297v-217h264q5 0 5 -6v-58q0 -6 -6 -6h-263v-230h316q6 0 5 -6z" />
    <glyph glyph-name="Zeta" unicode="&#x396;" horiz-adv-x="541" 
d="M508 0h-485q-7 0 -7 6v39q0 6 4 10l373 532h-360q-7 0 -6 6l12 58q2 6 8 6h450q5 0 5 -6v-41q0 -5 -4 -12l-368 -528h394q6 0 5 -7l-13 -57q-2 -6 -8 -6z" />
    <glyph glyph-name="Eta" unicode="&#x397;" horiz-adv-x="660" 
d="M575 0h-73q-7 0 -7 7v293h-331v-293q0 -7 -7 -7h-72q-7 0 -7 7v643q0 7 7 7h72q7 0 7 -6v-281h331v280q0 7 7 7h74q5 0 5 -7v-643q0 -7 -6 -7z" />
    <glyph glyph-name="Theta" unicode="&#x398;" horiz-adv-x="714" 
d="M208 370h291q6 0 6 -6v-58q0 -6 -6 -6h-290q-6 0 -6 6v58q0 6 5 6zM355 667q134 0 217 -95t83 -240q1 -160 -83 -251t-216 -91q-139 0 -221 92t-82 248q0 153 85 245t217 92zM141 330q0 -117 57.5 -192t159.5 -75q97 0 153 72t56 195q0 118 -59 191.5t-155 73.5
q-92 0 -152 -69.5t-60 -195.5z" />
    <glyph glyph-name="Iota" unicode="&#x399;" horiz-adv-x="243" 
d="M164 651v-644q0 -7 -6 -7h-73q-7 0 -7 7v643q0 7 7 7h73q6 0 6 -6z" />
    <glyph glyph-name="Kappa" unicode="&#x39a;" horiz-adv-x="604" 
d="M157 0h-71q-8 0 -8 8v643q0 6 7 6h73q6 0 6 -7v-282h68q8 0 16 9l209 274q4 6 10 6h80q11 0 4 -9q-147 -193 -242 -306q-3 -4 0 -7l278 -326q2 -3 1 -6t-5 -3h-87q-8 0 -13 6l-239 282q-7 9 -18 9h-62v-290q0 -7 -7 -7z" />
    <glyph glyph-name="Lambda" unicode="&#x39b;" horiz-adv-x="637" 
d="M111 0h-73q-7 0 -6 7l219 600q5 22 8 44q1 6 7 6h96q6 0 9 -6l234 -644q1 -7 -6 -7h-75q-6 0 -9 7l-109 309.5t-91 268.5h-1q-7 -31 -41.5 -134l-87.5 -255.5l-66 -189.5q-1 -6 -8 -6z" />
    <glyph glyph-name="Mu" unicode="&#x39c;" horiz-adv-x="860" 
d="M137 651q0 6 6 6h113q5 0 8 -6q144 -439 167 -534h1q13 46 88 276l84 258q2 6 7 6h107q6 0 7 -5l72 -646q0 -6 -6 -6h-81q-6 0 -6 6q-47 480 -51 587h-1q-13 -50 -86.5 -282t-94.5 -305q-1 -6 -8 -6h-70q-7 0 -10 6q-148 474 -178 589h-1q-6 -121 -58 -589q-1 -6 -7 -6
h-70q-6 0 -6 6z" />
    <glyph glyph-name="Nu" unicode="&#x39d;" horiz-adv-x="663" 
d="M78 651q0 6 6 6h98q6 0 10 -6q299 -516 312 -548h2q-3 39 -3 163v384q0 7 7 7h68q6 0 6 -7v-642q0 -8 -8 -8h-94q-6 0 -11 6q-23 46 -161 288t-154 278h-1q3 -32 5 -187v-378q0 -7 -6 -7h-68q-8 0 -8 7v644z" />
    <glyph glyph-name="Xi" unicode="&#x39e;" horiz-adv-x="518" 
d="M33 72h452q6 0 5 -6l-10 -61q-1 -5 -7 -5h-431q-6 0 -7 6l-7 60q-1 6 5 6zM83 369h351q6 0 6 -5v-62q0 -5 -6 -5h-350q-6 0 -6 6v60q0 6 5 6zM51 657h415q6 0 7 -5l8 -61q1 -7 -5 -7h-435q-5 0 -4 7l8 61q1 5 6 5z" />
    <glyph glyph-name="Omicron" unicode="&#x39f;" horiz-adv-x="714" 
d="M357 667q134 0 217 -95t83 -240q1 -160 -83 -251t-216 -91q-139 0 -221 92t-82 248q0 153 85.5 245t216.5 92zM143 330q0 -117 57.5 -192t160.5 -75q96 0 152 72t56 195q0 118 -59 191.5t-155 73.5q-92 0 -152 -69.5t-60 -195.5z" />
    <glyph glyph-name="Pi" unicode="&#x3a0;" horiz-adv-x="661" 
d="M576 0h-73q-7 0 -7 7v580h-331v-580q0 -7 -6 -7h-73q-7 0 -7 7v643q0 7 7 7h490q7 0 7 -7v-643q0 -7 -7 -7z" />
    <glyph glyph-name="Rho" unicode="&#x3a1;" horiz-adv-x="549" 
d="M78 6v644q0 7 6 7q66 2 167 2q130 0 192 -59t62 -155q0 -112 -76.5 -168.5t-193.5 -56.5h-47l-24 1v-214q0 -7 -6 -7h-73q-7 0 -7 6zM164 588v-297q20 -2 73 -2q36 0 66.5 7.5t57.5 24t43 48t16 75.5q0 72 -45 109t-124 37q-69 0 -87 -2z" />
    <glyph glyph-name="Sigma" unicode="&#x3a3;" horiz-adv-x="555" 
d="M488 657q5 0 6 -6l9 -58q1 -6 -6 -6h-348l224 -254q4 -5 0 -11l-228 -252h381q5 0 5 -5l-12 -59q-1 -6 -7 -6h-476q-6 0 -6 6v40q0 5 4 9l243 268l-239 273q-4 4 -4 11v45q0 5 5 5h449z" />
    <glyph glyph-name="Tau" unicode="&#x3a4;" horiz-adv-x="539" 
d="M222 7v580h-211q-7 0 -6 7l10 57q1 6 8 6h495q7 0 8 -7l7 -56q1 -7 -5 -7h-220v-579q0 -8 -7 -8h-71q-8 0 -8 7z" />
    <glyph glyph-name="Upsilon" unicode="&#x3a5;" horiz-adv-x="580" 
d="M240 265l-220 384q-5 8 4 8h84q5 0 8 -5q164 -300 178 -333l174 333q3 5 8 5h81q7 0 3 -6l-221 -388q-7 -10 -7 -27v-229q0 -7 -7 -7h-71q-8 0 -8 7v233q0 13 -6 25z" />
    <glyph glyph-name="Phi" unicode="&#x3a6;" horiz-adv-x="729" 
d="M327 680h72q6 0 6 -5v-64q113 -5 190.5 -75t77.5 -203q0 -134 -76.5 -202.5t-191.5 -78.5v-68q0 -6 -6 -6h-72q-5 0 -5 6v68q-116 8 -191.5 76t-75.5 200q0 70 24 124.5t64 87t85 50t94 21.5v63q0 6 5 6zM322 121v424q-71 -5 -125 -57.5t-54 -155.5q0 -100 50.5 -152
t128.5 -59zM405 545v-424q78 5 129 56t51 155q0 106 -53.5 158t-126.5 55z" />
    <glyph glyph-name="Chi" unicode="&#x3a7;" horiz-adv-x="593" 
d="M555 648l-204 -311l219 -328q5 -9 -3 -9h-86q-7 0 -12 6l-180 275h-1l-171 -275q-4 -6 -10 -6h-82q-4 0 -4.5 3t1.5 5l212 324l-206 317q-4 8 4 8h85q8 0 10 -6l169 -269h1l167 269q3 6 10 6h78q8 0 3 -9z" />
    <glyph glyph-name="Psi" unicode="&#x3a8;" horiz-adv-x="683" 
d="M299 272v401q0 5 6 5h72q6 0 6 -5v-401q70 3 112.5 47.5t46.5 154.5q6 131 15 155q3 5 8 5h68q8 0 6 -7q-8 -34 -13 -156q-9 -254 -243 -270v-195q0 -6 -6 -6h-71q-7 0 -7 7v194q-234 16 -242 268q-4 109 -13 158q-2 7 5 7h68q7 0 9 -5q9 -28 14 -154q2 -59 16 -99.5
t37.5 -61.5t48 -30t57.5 -12z" />
    <glyph glyph-name="uni03A9" unicode="&#x3a9;" horiz-adv-x="709" 
d="M290 0h-256q-7 0 -7 6l-6 58q0 6 6 6h168q-133 110 -133 281q0 139 82.5 227.5t216.5 88.5q133 0 209.5 -88t76.5 -223q0 -167 -136 -286h173q6 0 6 -6l-9 -58q0 -6 -6 -6h-255q-7 0 -7 6v50q0 5 5 9q142 106 142 282q0 107 -53.5 177.5t-150.5 70.5q-99 0 -153 -72
t-54 -179q0 -173 142 -278q5 -4 5 -9v-50q0 -7 -6 -7z" />
    <glyph glyph-name="Iotadieresis" unicode="&#x3aa;" horiz-adv-x="243" 
d="M164 651v-644q0 -7 -6 -7h-73q-7 0 -7 7v643q0 7 7 7h73q6 0 6 -6zM24 712q-21 0 -34.5 12.5t-13.5 32.5t14 33.5t36 13.5q21 0 34.5 -13.5t13.5 -33.5t-14 -32.5t-36 -12.5zM217 712q-21 0 -34.5 12.5t-13.5 32.5t14.5 33.5t35.5 13.5t34.5 -13.5t13.5 -33.5
q0 -21 -13.5 -33t-36.5 -12z" />
    <glyph glyph-name="Upsilondieresis" unicode="&#x3ab;" horiz-adv-x="580" 
d="M240 265l-220 384q-5 8 4 8h84q5 0 8 -5q164 -300 178 -333l174 333q3 5 8 5h81q7 0 3 -6l-221 -388q-7 -10 -7 -27v-229q0 -7 -7 -7h-71q-8 0 -8 7v233q0 13 -6 25zM195 712q-22 0 -35.5 12.5t-13.5 32.5t14.5 33.5t35.5 13.5t34.5 -13.5t13.5 -33.5t-13.5 -32.5
t-35.5 -12.5zM387 712q-21 0 -34.5 12.5t-13.5 32.5t14.5 33.5t35.5 13.5t34.5 -13.5t13.5 -33.5q0 -21 -13.5 -33t-36.5 -12z" />
    <glyph glyph-name="alphatonos" unicode="&#x3ac;" horiz-adv-x="562" 
d="M236 -10q-87 0 -138 65.5t-51 176.5q0 113 59 186t154 73q105 0 143 -94q5 59 15 82q2 3 5 3h64q6 0 5 -7q-21 -86 -21 -198v-164q0 -56 38 -56q19 0 32 5q6 2 6 -5v-48q0 -4 -5 -7q-21 -12 -56 -12q-79 0 -85 87v21q-49 -108 -165 -108zM135 236q0 -86 34.5 -130
t87.5 -44q66 0 99 53t33 135q0 80 -30.5 127.5t-89.5 47.5q-65 0 -99.5 -52.5t-34.5 -136.5zM242 546l80 148q4 7 9 7h81q7 0 4 -8l-95 -149q-4 -4 -11 -4h-64q-7 0 -4 6z" />
    <glyph glyph-name="epsilontonos" unicode="&#x3ad;" horiz-adv-x="437" 
d="M147 247v2q-87 27 -87 110q0 53 48.5 92.5t142.5 39.5q89 0 138 -29q4 -3 4 -8v-58q0 -7 -7 -5q-53 32 -126 32q-56 0 -84 -20t-28 -51q0 -33 27.5 -52t77.5 -19h67q5 0 5 -6v-54q0 -6 -5 -6h-66q-53 1 -83.5 -19t-30.5 -53q0 -38 34 -60.5t92 -22.5q76 0 133 32
q7 4 7 -4v-52q0 -8 -5 -10q-56 -36 -154 -36q-84 0 -142.5 36.5t-58.5 108.5q0 42 28 70.5t73 41.5zM184 546l80 148q4 7 8 7h81q9 0 4 -8l-95 -149q-3 -4 -10 -4h-65q-6 0 -3 6z" />
    <glyph glyph-name="etatonos" unicode="&#x3ae;" horiz-adv-x="540" 
d="M72 7v359q0 67 -10 110q-2 6 5 6h64q8 0 10 -5q11 -25 13 -86q29 49 73 74.5t93 25.5q65 0 106.5 -44.5t41.5 -151.5v-502q0 -6 -5 -7q-63 -10 -75 -10q-6 0 -6 6v518q0 120 -89 120q-56 0 -96 -49.5t-40 -110.5v-252q0 -8 -6 -8h-74q-5 0 -5 7zM222 546l80 148q3 7 8 7
h81q9 0 4 -7l-95 -149q-2 -5 -10 -5h-65q-7 0 -3 6z" />
    <glyph glyph-name="iotatonos" unicode="&#x3af;" horiz-adv-x="250" 
d="M72 475q0 7 6 7h75q5 0 5 -5v-371q0 -51 41 -51q14 0 28 4q3 -1 4 -4v-47q0 -6 -4 -7q-22 -11 -55 -11q-100 0 -100 118v367zM88 546l80 148q4 7 8 7h81q9 0 4 -8l-95 -149q-3 -4 -10 -4h-65q-6 0 -3 6z" />
    <glyph glyph-name="upsilondieresistonos" unicode="&#x3b0;" horiz-adv-x="521" 
d="M353 482h71q6 0 8 -5q15 -32 26.5 -89t11.5 -117q0 -59 -11 -107t-34.5 -88.5t-67 -63t-103.5 -22.5q-83 0 -133 45.5t-50 134.5v157q0 112 -9 149q-2 6 5 6h73q6 0 8 -5q9 -22 9 -93v-218q0 -58 29.5 -83.5t72.5 -25.5q125 0 125 212q0 112 -36 207q-3 6 5 6zM207 538
l54 175q2 5 5 5h66q7 0 3 -6l-66 -175q-2 -4 -6 -4h-52q-6 0 -4 5zM132 571q-18 0 -29.5 11.5t-11.5 30.5q0 20 12 32t30 12q20 0 31 -12.5t11 -31.5t-12 -30.5t-31 -11.5zM396 571q-19 0 -30.5 11.5t-11.5 30.5q0 20 12 32t30 12t30 -12.5t12 -31.5q0 -18 -11.5 -30
t-30.5 -12z" />
    <glyph glyph-name="alpha" unicode="&#x3b1;" horiz-adv-x="562" 
d="M236 -10q-87 0 -138 65.5t-51 176.5q0 113 59 186t154 73q105 0 143 -94q5 59 15 82q2 3 5 3h64q6 0 5 -7q-21 -86 -21 -198v-164q0 -56 38 -56q19 0 32 5q6 2 6 -5v-48q0 -4 -5 -7q-21 -12 -56 -12q-79 0 -85 87v21q-49 -108 -165 -108zM135 236q0 -86 34.5 -130
t87.5 -44q66 0 99 53t33 135q0 80 -30.5 127.5t-89.5 47.5q-65 0 -99.5 -52.5t-34.5 -136.5z" />
    <glyph glyph-name="beta" unicode="&#x3b2;" horiz-adv-x="558" 
d="M157 491v-382q48 -53 129 -53q65 0 101.5 38.5t36.5 100.5q0 67 -42.5 99t-108.5 32h-24q-5 0 -5 5v60q0 6 5 6h26q57 0 91.5 35.5t34.5 100.5q0 57 -32.5 91.5t-84.5 34.5q-61 0 -94 -42t-33 -126zM72 -218v692q1 124 57.5 187t156.5 63q87 0 141.5 -50.5t54.5 -134.5
q0 -67 -32 -109t-80 -61v-2q140 -37 140 -174q0 -98 -62 -150.5t-150 -52.5t-141 43v-244q0 -5 -5 -6q-49 -7 -74 -7q-6 0 -6 6z" />
    <glyph glyph-name="gamma" unicode="&#x3b3;" horiz-adv-x="484" 
d="M262 -217q-58 -7 -73 -7q-6 0 -5 7q17 187 18 226q1 74 -58 213.5t-139 252.5q-5 7 3 7h89q5 0 9 -4q38 -55 83 -159t64 -194h1q20 65 67 184t71 169q1 4 7 4h76q7 0 3 -6q-52 -104 -110.5 -241.5t-78.5 -203.5l-7 -28q-1 -14 -14 -213q0 -4 -6 -7z" />
    <glyph glyph-name="delta" unicode="&#x3b4;" horiz-adv-x="532" 
d="M458 672v-64q0 -7 -6 -3q-78 48 -167 48q-55 0 -81.5 -19t-26.5 -42q0 -26 26 -53.5t96 -64.5q105 -57 145.5 -113t40.5 -139q0 -105 -60.5 -168.5t-157.5 -63.5q-99 0 -159.5 63.5t-60.5 166.5q0 80 44.5 139t117.5 81q-112 72 -112 153q0 49 48.5 89t145.5 40
q108 0 164 -43q3 -3 3 -7zM133 222q0 -78 40.5 -122t95.5 -44q58 0 94.5 43t36.5 119q0 103 -102 167q-22 11 -31 11q-45 -1 -89.5 -48.5t-44.5 -125.5z" />
    <glyph glyph-name="epsilon" unicode="&#x3b5;" horiz-adv-x="437" 
d="M147 247v2q-87 27 -87 110q0 53 48.5 92.5t142.5 39.5q89 0 138 -29q4 -3 4 -8v-58q0 -7 -7 -5q-53 32 -126 32q-56 0 -84 -20t-28 -51q0 -33 27.5 -52t77.5 -19h67q5 0 5 -6v-54q0 -6 -5 -6h-66q-53 1 -83.5 -19t-30.5 -53q0 -38 34 -60.5t92 -22.5q76 0 133 32
q7 4 7 -4v-52q0 -8 -5 -10q-56 -36 -154 -36q-84 0 -142.5 36.5t-58.5 108.5q0 42 28 70.5t73 41.5z" />
    <glyph glyph-name="zeta" unicode="&#x3b6;" horiz-adv-x="400" 
d="M50 202q0 185 236 436h-78q-88 0 -105 3q-5 1 -5 6l9 58q1 4 5 4q45 -3 106 -3h177q6 0 6 -5v-45q0 -5 -4 -8q-19 -12 -35 -27q-227 -234 -227 -404q0 -69 27 -98.5t94 -46.5q73 -18 105.5 -47t32.5 -90q0 -55 -38 -101.5t-114 -63.5q-6 -2 -6 5v62q0 5 4 6q38 13 56 35
t17 46q0 30 -19.5 45t-70.5 26q-60 13 -95.5 33t-56.5 63t-21 111z" />
    <glyph glyph-name="eta" unicode="&#x3b7;" horiz-adv-x="540" 
d="M72 7v359q0 67 -10 110q-2 6 5 6h64q8 0 10 -5q11 -25 13 -86q29 49 73 74.5t93 25.5q65 0 106.5 -44.5t41.5 -151.5v-502q0 -6 -5 -7q-63 -10 -75 -10q-6 0 -6 6v518q0 120 -89 120q-56 0 -96 -49.5t-40 -110.5v-252q0 -8 -6 -8h-74q-5 0 -5 7z" />
    <glyph glyph-name="theta" unicode="&#x3b8;" horiz-adv-x="558" 
d="M280 -10q-106 0 -166 95t-60 274q0 164 61 264.5t169 100.5t163.5 -99t55.5 -266q0 -175 -56.5 -272t-166.5 -97zM140 396h278q-2 116 -35.5 189.5t-102.5 73.5q-68 0 -103 -73.5t-37 -189.5zM419 330h-279q2 -130 40 -202.5t101 -72.5q134 0 138 275z" />
    <glyph glyph-name="iota" unicode="&#x3b9;" horiz-adv-x="250" 
d="M72 475q0 7 6 7h75q5 0 5 -5v-371q0 -51 41 -51q14 0 28 4q3 -1 4 -4v-47q0 -6 -4 -7q-22 -11 -55 -11q-100 0 -100 118v367z" />
    <glyph glyph-name="kappa" unicode="&#x3ba;" horiz-adv-x="496" 
d="M77 482h74q5 0 6 -5l1 -202h63l137 202q4 5 9 5h83q8 0 4 -7l-170 -220q20 -12 64 -71q22 -28 67 -91.5l61 -85.5q4 -7 -4 -7h-84q-7 0 -11 5t-29.5 40.5l-53 72.5l-43.5 57q-16 21 -27 27t-33 6h-33v-202q0 -6 -6 -6h-74q-6 0 -6 6v470q-1 6 5 6z" />
    <glyph glyph-name="lambda" unicode="&#x3bb;" horiz-adv-x="516" 
d="M391 5l-132 385h-2q-18 -74 -134 -385q-3 -5 -7 -5h-78q-7 0 -4 7l179 467q4 10 2 17l-19 49q-21 56 -50.5 81t-72.5 25q-27 0 -46 -4q-5 0 -5 4v65q0 6 5 7q21 6 56 6q69 0 114 -36t82 -136l205 -545q1 -7 -6 -7h-80q-6 0 -7 5z" />
    <glyph glyph-name="uni03BC" unicode="&#x3bc;" horiz-adv-x="556" 
d="M466 476v-359q1 -62 42 -62q16 0 26 3q5 1 5 -4v-47q0 -5 -3 -7q-20 -10 -54 -10q-83 0 -91 95v20q-46 -115 -152 -115q-59 0 -86 36q5 -89 3 -235q0 -6 -6 -7q-53 -8 -72 -8q-6 0 -6 8v691q0 7 7 7h73q6 0 6 -6v-326q0 -41 22.5 -65.5t61.5 -24.5q59 0 98.5 52t39.5 148
v216q0 6 6 6h75q5 0 5 -6z" />
    <glyph glyph-name="nu" unicode="&#x3bd;" horiz-adv-x="471" 
d="M18 482h86q6 0 9 -4q30 -51 69 -172.5t57 -220.5h2q45 70 78 157t33 166q0 40 -4 67q-1 7 5 7h67q6 0 7 -5q7 -23 7 -64q0 -98 -47 -206.5t-119 -199.5q-5 -7 -11 -7h-65q-8 0 -9 6q-21 109 -71 252.5t-98 216.5q-4 7 4 7z" />
    <glyph glyph-name="xi" unicode="&#x3be;" horiz-adv-x="433" 
d="M286 728q73 0 115 -21q4 -3 4 -8v-58q0 -8 -6 -5q-50 24 -106 24q-67 0 -102 -37.5t-35 -90.5q0 -67 40 -99.5t103 -32.5h58q8 0 8 -8v-53q0 -8 -8 -8h-66q-71 0 -112.5 -38t-41.5 -94q0 -65 34.5 -92t124.5 -46q73 -17 101 -47.5t28 -83.5q0 -54 -38 -97t-113 -60
q-7 -1 -7 5v56q0 7 5 8q73 26 73 78q-1 16 -5 26.5t-23.5 23t-54.5 19.5q-115 22 -163.5 63.5t-48.5 133.5q0 61 37 109.5t97 69.5q-114 45 -114 173q0 81 57.5 135.5t158.5 54.5z" />
    <glyph glyph-name="omicron" unicode="&#x3bf;" horiz-adv-x="551" 
d="M278 491q104 0 165 -68.5t61 -180.5q0 -116 -62 -184t-165 -68q-115 0 -172.5 74t-57.5 177q0 111 63.5 180.5t167.5 69.5zM273 426q-62 0 -100.5 -49.5t-38.5 -133.5q0 -82 38.5 -135t106.5 -53q58 0 98 46.5t40 138.5q0 80 -36 133t-108 53z" />
    <glyph glyph-name="pi" unicode="&#x3c0;" horiz-adv-x="535" 
d="M158 0h-69q-6 0 -5 6q21 58 22 141v267h-91q-6 0 -5 6l9 55q1 5 5 5q12 2 88 2h404q5 0 5 -5l-7 -57q-1 -6 -6 -6h-79v-262q0 -91 22 -144q4 -8 -5 -8h-71q-7 0 -9 6q-23 40 -23 148v260h-155v-266q0 -93 -21 -143q-3 -5 -9 -5z" />
    <glyph glyph-name="rho" unicode="&#x3c1;" horiz-adv-x="545" 
d="M284 491q105 0 159 -69.5t54 -174.5q0 -117 -65.5 -187t-165.5 -70q-65 0 -109 35v-234q0 -6 -5 -7l-26.5 -3l-31 -3.5t-15.5 -1.5q-7 0 -7 7v492q0 97 56.5 156.5t155.5 59.5zM278 426q-52 0 -86.5 -36.5t-34.5 -106.5v-184q43 -43 107 -43q62 0 104 49.5t42 138.5
q0 82 -34.5 132t-97.5 50z" />
    <glyph glyph-name="uni03C2" unicode="&#x3c2;" horiz-adv-x="431" 
d="M50 240q0 106 64.5 178.5t174.5 72.5q65 0 99 -18q5 -2 5 -10v-58q0 -8 -6 -5q-41 22 -94 22q-72 0 -115 -49t-43 -128q0 -82 30 -121t110 -59q69 -18 97.5 -46.5t28.5 -79.5q0 -54 -34.5 -98t-103.5 -60q-8 -2 -8 6v59q0 7 5 8q60 23 60 75q0 24 -17.5 39t-61.5 24
q-105 21 -148 80t-43 168z" />
    <glyph glyph-name="sigma" unicode="&#x3c3;" horiz-adv-x="557" 
d="M47 237q0 115 63.5 180.5t171.5 65.5q25 0 82.5 -0.5t85.5 -0.5h92q5 0 5 -6l-7 -57q0 -5 -6 -5q-109 0 -135 2q40 -24 61.5 -74.5t21.5 -107.5q0 -121 -61 -182.5t-152 -61.5q-100 0 -161 66.5t-61 180.5zM270 55q59 0 93 49t34 135q0 80 -33.5 130.5t-94.5 50.5
q-64 0 -99.5 -51.5t-35.5 -130.5q0 -83 38 -133t98 -50z" />
    <glyph glyph-name="tau" unicode="&#x3c4;" horiz-adv-x="433" 
d="M164 104v310h-146q-6 0 -5 6l7 55q1 4 5 5q24 2 68 2h319q5 0 5 -5l-7 -58q0 -5 -6 -5h-155v-307q0 -49 45 -49q20 0 34 5q2 1 3 0t1 -4v-49q0 -6 -5 -9q-25 -11 -61 -11q-102 0 -102 114z" />
    <glyph glyph-name="upsilon" unicode="&#x3c5;" horiz-adv-x="521" 
d="M353 482h71q6 0 8 -5q15 -32 26.5 -89t11.5 -117q0 -59 -11 -107t-34.5 -88.5t-67 -63t-103.5 -22.5q-83 0 -133 45.5t-50 134.5v157q0 112 -9 149q-2 6 5 6h73q6 0 8 -5q9 -22 9 -93v-218q0 -58 29.5 -83.5t72.5 -25.5q125 0 125 212q0 112 -36 207q-3 6 5 6z" />
    <glyph glyph-name="phi" unicode="&#x3c6;" horiz-adv-x="689" 
d="M309 640h72q6 0 6 -8v-144q117 -9 186 -72.5t69 -177.5q0 -117 -70 -178.5t-185 -69.5v-200q0 -7 -7 -8q-66 -6 -72 -6t-6 8v206q-118 8 -186.5 71t-68.5 174q0 114 71 179t184 74v144q0 8 7 8zM302 55v370q-80 -7 -123.5 -57t-43.5 -132q0 -81 46 -127t121 -54zM387 425
v-370q77 6 122.5 51t45.5 133q0 81 -44.5 130t-123.5 56z" />
    <glyph glyph-name="chi" unicode="&#x3c7;" horiz-adv-x="472" 
d="M27 482h84q6 0 7 -5l121 -268h2q24 56 123 267q3 6 9 6h73q7 0 4 -7l-166 -326l170 -347q5 -7 -2 -9q-65 -17 -74 -17q-4 0 -8 5l-138 298h-2l-27 -60.5l-55 -119l-55 -119.5q-2 -5 -6 -5q-3 0 -68 17q-5 3 -2 8l169 348l-162 327q-3 7 3 7z" />
    <glyph glyph-name="psi" unicode="&#x3c8;" horiz-adv-x="689" 
d="M47 475q-3 6 5 6h70q6 0 8 -5q11 -26 23 -180q10 -126 50 -178.5t103 -58.5v547q0 6 6 6h72q6 0 6 -5v-548q67 5 105 58t49 180q9 150 21 179q3 5 8 5h65q6 0 5 -7q-9 -47 -21 -187q-21 -279 -232 -298v-199q0 -6 -5 -7q-67 -7 -73 -7q-7 0 -7 7v206q-105 9 -163 79
t-71 221q-11 123 -24 186z" />
    <glyph glyph-name="omega" unicode="&#x3c9;" horiz-adv-x="710" 
d="M397 346l-1 -184q0 -100 79 -100q41 0 70.5 46.5t29.5 142.5q0 128 -80 224q-3 5 2 7h75q5 0 9 -4q32 -32 55.5 -95t23.5 -134q0 -127 -53 -193t-131 -66q-89 0 -125 82q-18 -38 -50.5 -60t-75.5 -22q-72 0 -124 62t-52 185q0 72 25.5 136t58.5 104q5 5 10 5h69q9 0 3 -8
q-33 -43 -57 -105.5t-24 -125.5q0 -95 29.5 -138t71.5 -43q35 0 56 28.5t20 70.5l-1 185q0 6 8 6h73q6 0 6 -6z" />
    <glyph glyph-name="iotadieresis" unicode="&#x3ca;" horiz-adv-x="250" 
d="M72 475q0 7 6 7h75q5 0 5 -5v-371q0 -51 41 -51q14 0 28 4q3 -1 4 -4v-47q0 -6 -4 -7q-22 -11 -55 -11q-100 0 -100 118v367zM35 570q-20 0 -33 12.5t-13 33.5q0 22 13.5 35t33.5 13t32.5 -13t12.5 -35q0 -20 -13.5 -33t-32.5 -13zM218 570q-20 0 -32.5 12.5t-12.5 33.5
q0 22 13 35t33 13t32.5 -13t12.5 -35q0 -20 -13 -33t-33 -13z" />
    <glyph glyph-name="upsilondieresis" unicode="&#x3cb;" horiz-adv-x="521" 
d="M353 482h71q6 0 8 -5q15 -32 26.5 -89t11.5 -117q0 -59 -11 -107t-34.5 -88.5t-67 -63t-103.5 -22.5q-83 0 -133 45.5t-50 134.5v157q0 112 -9 149q-2 6 5 6h73q6 0 8 -5q9 -22 9 -93v-218q0 -58 29.5 -83.5t72.5 -25.5q125 0 125 212q0 112 -36 207q-3 6 5 6zM164 570
q-20 0 -33 12.5t-13 33.5q0 22 13.5 35t33.5 13t32.5 -13t12.5 -35q0 -21 -13 -33.5t-33 -12.5zM348 570q-20 0 -33 12.5t-13 33.5q0 22 13.5 35t33.5 13t32.5 -13t12.5 -35q0 -20 -13 -33t-33 -13z" />
    <glyph glyph-name="omicrontonos" unicode="&#x3cc;" horiz-adv-x="551" 
d="M278 491q104 0 165 -68.5t61 -180.5q0 -116 -62 -184t-165 -68q-115 0 -172.5 74t-57.5 177q0 111 63.5 180.5t167.5 69.5zM273 426q-62 0 -100.5 -49.5t-38.5 -133.5q0 -82 38.5 -135t106.5 -53q58 0 98 46.5t40 138.5q0 80 -36 133t-108 53zM221 546l80 148q3 7 9 7h81
q7 0 4 -8l-95 -149q-4 -4 -11 -4h-64q-5 0 -4 6z" />
    <glyph glyph-name="upsilontonos" unicode="&#x3cd;" horiz-adv-x="521" 
d="M353 482h71q6 0 8 -5q15 -32 26.5 -89t11.5 -117q0 -59 -11 -107t-34.5 -88.5t-67 -63t-103.5 -22.5q-83 0 -133 45.5t-50 134.5v157q0 112 -9 149q-2 6 5 6h73q6 0 8 -5q9 -22 9 -93v-218q0 -58 29.5 -83.5t72.5 -25.5q125 0 125 212q0 112 -36 207q-3 6 5 6zM212 546
l80 148q4 7 9 7h80q9 0 4 -8l-95 -149q-3 -4 -10 -4h-65q-6 0 -3 6z" />
    <glyph glyph-name="omegatonos" unicode="&#x3ce;" horiz-adv-x="710" 
d="M397 346l-1 -184q0 -100 79 -100q41 0 70.5 46.5t29.5 142.5q0 128 -80 224q-3 5 2 7h75q5 0 9 -4q32 -32 55.5 -95t23.5 -134q0 -127 -53 -193t-131 -66q-89 0 -125 82q-18 -38 -50.5 -60t-75.5 -22q-72 0 -124 62t-52 185q0 72 25.5 136t58.5 104q5 5 10 5h69q9 0 3 -8
q-33 -43 -57 -105.5t-24 -125.5q0 -95 29.5 -138t71.5 -43q35 0 56 28.5t20 70.5l-1 185q0 6 8 6h73q6 0 6 -6zM317 546l79 148q5 7 9 7h81q7 0 4 -8l-95 -149q-3 -4 -10 -4h-65q-6 0 -3 6z" />
    <glyph glyph-name="uni03D1" unicode="&#x3d1;" horiz-adv-x="530" 
d="M38 252h77q7 0 8 -4q31 -106 57 -149.5t78 -43.5q115 0 130 240q-30 -7 -79 -7q-133 0 -196 65t-63 163q0 87 54.5 148t143.5 61q107 0 167.5 -93.5t60.5 -258.5q0 -180 -60 -281.5t-164 -101.5q-48 0 -81.5 16.5t-57.5 54t-38.5 73.5t-35.5 99q-3 9 -4 13q-1 6 3 6z
M391 360q2 137 -33.5 218.5t-110.5 81.5q-55 0 -85 -40t-30 -98q0 -74 46 -121.5t142 -47.5q34 0 71 7z" />
    <glyph glyph-name="uni03D7" unicode="&#x3d7;" horiz-adv-x="550" 
d="M304 258q88 -19 141 -73.5t53 -141.5q0 -111 -77 -177t-207 -66q-132 0 -205 55q-4 3 -4 9v75q0 8 7 3q89 -63 200 -63q96 0 145.5 44.5t49.5 117.5q0 82 -66.5 122.5t-164.5 43.5v-200q0 -7 -6 -7h-73q-7 0 -7 7v365q0 67 -10 103q-1 7 6 7h72q7 0 8 -7q10 -24 10 -106
v-95q15 0 57 -3l150 207q2 4 7 4h85q8 0 3 -7z" />
    <glyph glyph-name="uni03D9" unicode="&#x3d9;" horiz-adv-x="551" 
d="M279 491q104 0 164.5 -69t60.5 -181q0 -104 -50.5 -170t-132.5 -75v-205q0 -7 -8 -7q-9 -1 -25.5 -3l-29 -3.5t-14.5 -1.5q-9 0 -9 7v212q-92 11 -140 81.5t-48 162.5q0 112 63.5 182t168.5 70zM274 426q-63 0 -101.5 -50t-38.5 -134q0 -80 37.5 -133.5t105.5 -53.5
q60 0 100 45.5t40 139.5q0 80 -36.5 133t-106.5 53z" />
    <glyph glyph-name="uni03DB" unicode="&#x3db;" horiz-adv-x="440" 
d="M358 -198h-65q-9 0 -4 8q43 60 43 118q0 25 -14.5 40t-55.5 23q-112 19 -162 78.5t-50 168.5q0 105 60.5 166t169.5 81q38 7 49.5 16t11.5 33q0 42 -11 77q-1 7 5 7h60q6 0 9 -7q14 -36 14 -97q0 -51 -25 -70t-88 -30q-91 -16 -130.5 -56.5t-39.5 -113.5q0 -82 35 -122.5
t123 -57.5q69 -15 94.5 -41.5t25.5 -76.5q0 -42 -14 -80.5t-31 -58.5q-4 -5 -10 -5z" />
    <glyph glyph-name="uni03DD" unicode="&#x3dd;" horiz-adv-x="428" 
d="M157 100v-309q0 -6 -6 -7q-69 -8 -74 -8t-5 6v694q0 6 6 6h313q5 0 5 -5l7 -58q1 -6 -5 -6h-241v-245h215q5 0 5 -6v-57q0 -5 -6 -5h-214z" />
    <glyph glyph-name="uni03E1" unicode="&#x3e1;" horiz-adv-x="535" 
d="M82 578v73q0 7 5 4q185 -78 296 -271t111 -410q0 -56 -3 -82q-1 -5 -6 -5h-61q-5 0 -5 5q8 148 -26 269l-231 -128q-5 -2 -6 2l-28 54q-3 4 2 7l242 131q-28 76 -70 136l-239 -124q-6 -2 -8 1l-27 57q-1 4 2 6l234 119q-75 101 -178 148q-4 1 -4 8z" />
    <glyph glyph-name="uni0400" unicode="&#x400;" horiz-adv-x="513" 
d="M485 64l-11 -58q-1 -6 -8 -6h-380q-8 0 -8 8v642q0 7 7 7h366q6 0 8 -6l7 -57q2 -7 -5 -7h-297v-217h264q5 0 5 -6v-58q0 -6 -6 -6h-263v-230h316q6 0 5 -6zM214 825l114 -111q3 -3 1.5 -5t-4.5 -2h-71q-7 0 -12 5l-129 110q-3 2 -2 4.5t5 2.5h88q7 0 10 -4z" />
    <glyph glyph-name="uni0401" unicode="&#x401;" horiz-adv-x="513" 
d="M485 64l-11 -58q-1 -6 -8 -6h-380q-8 0 -8 8v642q0 7 7 7h366q6 0 8 -6l7 -57q2 -7 -5 -7h-297v-217h264q5 0 5 -6v-58q0 -6 -6 -6h-263v-230h316q6 0 5 -6zM170 713q-22 0 -35 13t-13 33t14 33t36 13q21 0 34.5 -13t13.5 -33t-14 -33t-36 -13zM363 714q-21 0 -34.5 12
t-13.5 33q0 20 14.5 33t35.5 13t34.5 -13t13.5 -33q0 -21 -13.5 -33t-36.5 -12z" />
    <glyph glyph-name="uni0402" unicode="&#x402;" horiz-adv-x="671" 
d="M280 324v-317q0 -7 -7 -7h-73q-6 0 -6 7v580h-184q-6 0 -5 6l11 59q0 5 7 5h504q5 0 6 -5l8 -59q1 -6 -5 -6h-256v-195q59 28 135 28q92 0 152 -62.5t60 -172.5q0 -67 -21 -121.5t-57 -89t-77 -55.5t-88 -30q-7 -1 -7 6v64q0 5 5 7q75 19 116.5 73t41.5 141q0 76 -40 123
t-110 47q-61 0 -110 -26z" />
    <glyph glyph-name="uni0403" unicode="&#x403;" horiz-adv-x="479" 
d="M78 651q0 6 5 6h365q6 0 7 -5l7 -59q1 -6 -5 -6h-293v-581q0 -6 -6 -6h-74q-6 0 -6 6v645zM205 715l115 112q3 4 10 4h85q3 0 3.5 -2.5t-1.5 -4.5l-126 -110q-4 -5 -11 -5h-72q-7 0 -3 6z" />
    <glyph glyph-name="uni0404" unicode="&#x404;" horiz-adv-x="578" 
d="M465 300h-319q3 -65 26.5 -113t60.5 -74t76.5 -38.5t82.5 -12.5q87 0 146 28q5 2 5 -3v-59q0 -4 -4 -7q-59 -31 -158 -31q-61 0 -116 18t-103.5 55.5t-77 105t-28.5 157.5q0 147 91 243.5t248 96.5q93 0 141 -26q4 -4 4 -7v-61q0 -8 -6 -5q-56 29 -141 29
q-105 0 -172.5 -61t-74.5 -165h316q7 0 7 -7v-57q-2 -6 -4 -6z" />
    <glyph glyph-name="uni0405" unicode="&#x405;" horiz-adv-x="488" 
d="M229 -10q-117 0 -191 53q-5 5 -5 13v68q0 9 7 4q85 -65 193 -65q65 0 97 27.5t32 69.5q0 41 -29 68.5t-118 67.5q-99 43 -136.5 87t-37.5 109q0 76 59 125t156 49q95 0 156 -37q5 -4 5 -11v-64q0 -9 -8 -4q-75 46 -155 46q-72 0 -99.5 -31t-27.5 -66q0 -36 26.5 -64.5
t102.5 -61.5q114 -49 153.5 -94t39.5 -110q0 -80 -58 -129.5t-162 -49.5z" />
    <glyph glyph-name="uni0406" unicode="&#x406;" horiz-adv-x="243" 
d="M164 651v-644q0 -7 -6 -7h-73q-7 0 -7 7v643q0 7 7 7h73q6 0 6 -6z" />
    <glyph glyph-name="uni0407" unicode="&#x407;" horiz-adv-x="243" 
d="M164 651v-644q0 -7 -6 -7h-73q-7 0 -7 7v643q0 7 7 7h73q6 0 6 -6zM24 712q-21 0 -34.5 12.5t-13.5 32.5t14 33.5t36 13.5q21 0 34.5 -13.5t13.5 -33.5t-14 -32.5t-36 -12.5zM217 712q-21 0 -34.5 12.5t-13.5 32.5t14.5 33.5t35.5 13.5t34.5 -13.5t13.5 -33.5
q0 -21 -13.5 -33t-36.5 -12z" />
    <glyph glyph-name="uni0408" unicode="&#x408;" horiz-adv-x="371" 
d="M206 153v498q0 6 7 6h74q5 0 5 -5v-504q0 -205 -179 -205q-66 0 -105 23q-5 3 -5 10v62q0 8 7 5q45 -24 96 -24q54 0 77 30t23 104z" />
    <glyph glyph-name="uni0409" unicode="&#x409;" horiz-adv-x="902" 
d="M476 361l109 -296q14 -2 28 -2q66 0 111.5 37t45.5 112q0 74 -49 113t-142 39q-58 0 -103 -3zM586 432q130 0 201 -55t71 -162q0 -108 -73 -163.5t-189 -55.5q-47 0 -71 3q-7 0 -9 9l-112 316t-88 261h-2q-14 -61 -195 -579q-1 -6 -8 -6h-74q-7 0 -5 6l220 602q6 16 8 43
q0 6 6 6h98q4 0 7 -5l81 -224q38 4 134 4z" />
    <glyph glyph-name="uni040A" unicode="&#x40a;" horiz-adv-x="944" 
d="M78 651q0 6 5 6h75q6 0 6 -5v-252h296v251q0 6 5 6h75q6 0 6 -6v-251h103q111 0 178.5 -47t67.5 -148q0 -107 -73.5 -157.5t-198.5 -50.5q-108 0 -158 4q-5 0 -5 6v321h-296v-322q0 -6 -6 -6h-74q-6 0 -6 6v645zM546 328v-261q32 -2 88 -2q172 0 172 133q0 130 -168 130
h-92z" />
    <glyph glyph-name="uni040B" unicode="&#x40b;" horiz-adv-x="673" 
d="M279 317v-311q0 -6 -6 -6h-75q-5 0 -5 6v581h-183q-6 0 -5 7l10 58q3 5 7 5h497q5 0 6 -4l8 -60q1 -6 -5 -6h-249v-204q70 36 151 36q33 0 63 -9t58 -29t44.5 -58.5t16.5 -91.5v-225q0 -6 -5 -6h-74q-7 0 -7 7v219q0 61 -34 92.5t-88 31.5q-66 0 -125 -33z" />
    <glyph glyph-name="uni040C" unicode="&#x40c;" horiz-adv-x="593" 
d="M78 652q0 5 5 5h76q5 0 5 -6v-283h75q22 33 107.5 145.5l105.5 139.5q3 4 8 4h87q7 0 3 -6q-101 -135 -247 -305q28 -15 80 -83q21 -30 102 -134.5t92 -121.5q3 -7 -4 -7h-87q-5 0 -9 4q-31 36 -93.5 124.5l-70.5 99.5q-37 44 -54 57t-32 13h-63v-292q0 -6 -5 -6h-75
q-6 0 -6 6v646zM244 707l115 113q3 3 10 3h85q3 0 3.5 -2.5t-1.5 -4.5l-126 -110q-5 -5 -11 -5h-72q-3 0 -4 2.5t1 3.5z" />
    <glyph glyph-name="uni040D" unicode="&#x40d;" horiz-adv-x="662" 
d="M84 657h71q5 0 5 -6v-264q0 -223 -4 -285h1q43 80 124 216l209 335q2 4 8 4h78q5 0 5 -6v-645q0 -6 -5 -6h-70q-7 0 -7 7v264q0 201 7 280h-1q-25 -57 -126 -226l-200 -320q-3 -5 -9 -5h-85q-7 0 -7 8v643q0 6 6 6zM279 813l114 -110q6 -7 -3 -7h-71q-7 0 -12 4l-130 111
q-2 2 -1 4.5t5 2.5h88q6 0 10 -5z" />
    <glyph glyph-name="uni040E" unicode="&#x40e;" horiz-adv-x="561" 
d="M19 657h86q5 0 8 -4q180 -385 188 -407q72 145 152 406q2 5 7 5h78q7 0 5 -6q-69 -212 -142 -367q-51 -109 -107 -187.5t-95 -111.5q-6 -6 -13 -6h-87q-4 0 -5 3.5t1 4.5q36 30 80.5 82t71.5 98q4 9 0 16l-231 468q-4 6 3 6zM149 826h54q5 0 6 -5q20 -64 76 -64
q63 0 78 63q4 6 6 6h54q6 0 6 -8q-9 -54 -48.5 -87t-95.5 -33q-57 0 -96 31t-46 90q0 7 6 7z" />
    <glyph glyph-name="uni040F" unicode="&#x40f;" horiz-adv-x="660" 
d="M289 0h-204q-7 0 -7 6v645q0 6 7 6h72q7 0 7 -7v-580h332v580q0 7 6 7h74q6 0 6 -7v-643q0 -7 -6 -7h-202l-4 -176q0 -5 -5 -5h-66q-7 0 -7 6z" />
    <glyph glyph-name="uni0410" unicode="&#x410;" horiz-adv-x="639" 
d="M439 214h-246l-74 -208q-1 -6 -8 -6h-72q-8 0 -6 8l219 601q5 13 7 42q0 6 5 6h100q5 0 6 -5l235 -645q3 -7 -4 -7h-78q-5 0 -8 5zM213 285h205q-8 27 -50 145.5t-53 156.5h-1q-7 -27 -101 -302z" />
    <glyph glyph-name="uni0411" unicode="&#x411;" horiz-adv-x="562" 
d="M163 332v-262q24 -3 89 -3q76 0 126 32.5t50 103.5q0 131 -170 131q-63 0 -95 -2zM163 587v-185q6 0 46.5 1t63.5 1q116 0 180.5 -48.5t64.5 -148.5q0 -108 -80.5 -159t-206.5 -51q-63 0 -147 4q-6 0 -6 8v642q0 6 7 6h361q6 0 7 -5l8 -59q1 -6 -5 -6h-293z" />
    <glyph glyph-name="uni0412" unicode="&#x412;" horiz-adv-x="561" 
d="M78 7v642q0 7 5 8q66 2 175 2q230 0 230 -168q0 -55 -29.5 -92.5t-75.5 -52.5v-1q59 -15 96.5 -57t37.5 -104q0 -96 -73.5 -141.5t-199.5 -45.5q-76 0 -160 3q-6 2 -6 7zM163 306v-237q14 -2 86 -2q180 0 180 120q0 55 -40.5 87t-123.5 32h-102zM163 588v-212h102
q74 0 106.5 30t32.5 78q0 106 -148 106q-69 0 -93 -2z" />
    <glyph glyph-name="uni0413" unicode="&#x413;" horiz-adv-x="479" 
d="M78 651q0 6 5 6h365q6 0 7 -5l7 -59q1 -6 -5 -6h-293v-581q0 -6 -6 -6h-74q-6 0 -6 6v645z" />
    <glyph glyph-name="uni0414" unicode="&#x414;" horiz-adv-x="645" 
d="M642 61l-9 -236q0 -5 -6 -5h-66q-6 0 -6 6l-3 174h-452l-6 -175q0 -5 -6 -5h-66q-6 0 -6 6l-3 236q0 5 5 5l53 3l186 547q4 9 7 36q0 4 5 4h82q5 0 6 -4l207 -583l73 -3q5 0 5 -6zM156 70h314q-149 439 -161 489q-8 -46 -153 -489z" />
    <glyph glyph-name="uni0415" unicode="&#x415;" horiz-adv-x="513" 
d="M485 64l-11 -58q-1 -6 -8 -6h-380q-8 0 -8 8v642q0 7 7 7h366q6 0 8 -6l7 -57q2 -7 -5 -7h-297v-217h264q5 0 5 -6v-58q0 -6 -6 -6h-263v-230h316q6 0 5 -6z" />
    <glyph glyph-name="uni0416" unicode="&#x416;" horiz-adv-x="838" 
d="M43 657h90q5 0 8 -5l187 -282h50v280q0 7 7 7h71q7 0 7 -7v-280h49l87.5 135.5t95.5 145.5q5 6 9 6h86q9 0 3 -8l-63 -89l-88.5 -124t-66.5 -86q33 -16 68 -68l98.5 -148t81.5 -127q3 -7 -5 -7h-86q-6 0 -9 5q-16 23 -68.5 111.5t-70.5 113.5q-29 40 -45.5 55.5
t-35.5 15.5h-40v-294q0 -7 -6 -7h-72q-7 0 -7 7v294h-40q-23 0 -42 -14.5t-44 -53.5l-36.5 -61l-54.5 -90t-49 -76q-3 -6 -10 -6h-83q-8 0 -5 7l179 271q42 57 72 72q-28 34 -109 145t-116 155q-2 2 -1.5 4.5t4.5 2.5z" />
    <glyph glyph-name="uni0417" unicode="&#x417;" horiz-adv-x="510" 
d="M47 548v63q0 3 5 8q74 42 178 42q99 0 155.5 -46t56.5 -123q0 -59 -31.5 -97.5t-83.5 -52.5v-2q62 -14 100 -54t38 -106q0 -90 -70 -140.5t-173 -50.5q-112 0 -182 43q-5 3 -5 10v72q0 6 7 4q79 -54 177 -54q74 0 116 33t42 87q0 61 -46 89.5t-121 28.5h-80q-7 0 -7 7v56
q0 5 6 5h79q149 0 149 110q0 48 -37 77.5t-104 29.5q-89 0 -163 -43q-6 -3 -6 4z" />
    <glyph glyph-name="uni0418" unicode="&#x418;" horiz-adv-x="662" 
d="M84 657h71q5 0 5 -6v-264q0 -223 -4 -285h1q43 80 124 216l209 335q2 4 8 4h78q5 0 5 -6v-645q0 -6 -5 -6h-70q-7 0 -7 7v264q0 201 7 280h-1q-25 -57 -126 -226l-200 -320q-3 -5 -9 -5h-85q-7 0 -7 8v643q0 6 6 6z" />
    <glyph glyph-name="uni0419" unicode="&#x419;" horiz-adv-x="662" 
d="M84 657h71q5 0 5 -6v-264q0 -223 -4 -285h1q43 80 124 216l209 335q2 4 8 4h78q5 0 5 -6v-645q0 -6 -5 -6h-70q-7 0 -7 7v264q0 201 7 280h-1q-25 -57 -126 -226l-200 -320q-3 -5 -9 -5h-85q-7 0 -7 8v643q0 6 6 6zM194 823h55q5 0 6 -5q20 -64 76 -64q63 0 78 63
q3 6 6 6h54q7 0 5 -7q-8 -55 -47.5 -88t-95.5 -33q-57 0 -96 31.5t-46 90.5q0 6 5 6z" />
    <glyph glyph-name="uni041A" unicode="&#x41a;" horiz-adv-x="593" 
d="M78 652q0 5 5 5h76q5 0 5 -6v-283h75q22 33 107.5 145.5l105.5 139.5q3 4 8 4h87q7 0 3 -6q-101 -135 -247 -305q28 -15 80 -83q21 -30 102 -134.5t92 -121.5q3 -7 -4 -7h-87q-5 0 -9 4q-31 36 -93.5 124.5l-70.5 99.5q-37 44 -54 57t-32 13h-63v-292q0 -6 -5 -6h-75
q-6 0 -6 6v646z" />
    <glyph glyph-name="uni041B" unicode="&#x41b;" horiz-adv-x="637" 
d="M111 0h-73q-7 0 -6 7l219 600q5 22 8 44q1 6 7 6h96q6 0 9 -6l234 -644q1 -7 -6 -7h-75q-6 0 -9 7l-109 309.5t-91 268.5h-1q-7 -31 -41.5 -134l-87.5 -255.5l-66 -189.5q-1 -6 -8 -6z" />
    <glyph glyph-name="uni041C" unicode="&#x41c;" horiz-adv-x="860" 
d="M137 651q0 6 6 6h113q5 0 8 -6q144 -439 167 -534h1q13 46 88 276l84 258q2 6 7 6h107q6 0 7 -5l72 -646q0 -6 -6 -6h-81q-6 0 -6 6q-47 480 -51 587h-1q-13 -50 -86.5 -282t-94.5 -305q-1 -6 -8 -6h-70q-7 0 -10 6q-148 474 -178 589h-1q-6 -121 -58 -589q-1 -6 -7 -6
h-70q-6 0 -6 6z" />
    <glyph glyph-name="uni041D" unicode="&#x41d;" horiz-adv-x="660" 
d="M575 0h-73q-7 0 -7 7v293h-331v-293q0 -7 -7 -7h-72q-7 0 -7 7v643q0 7 7 7h72q7 0 7 -6v-281h331v280q0 7 7 7h74q5 0 5 -7v-643q0 -7 -6 -7z" />
    <glyph glyph-name="uni041E" unicode="&#x41e;" horiz-adv-x="714" 
d="M357 667q134 0 217 -95t83 -240q1 -160 -83 -251t-216 -91q-139 0 -221 92t-82 248q0 153 85.5 245t216.5 92zM143 330q0 -117 57.5 -192t160.5 -75q96 0 152 72t56 195q0 118 -59 191.5t-155 73.5q-92 0 -152 -69.5t-60 -195.5z" />
    <glyph glyph-name="uni041F" unicode="&#x41f;" horiz-adv-x="661" 
d="M576 0h-73q-7 0 -7 7v580h-331v-580q0 -7 -6 -7h-73q-7 0 -7 7v643q0 7 7 7h490q7 0 7 -7v-643q0 -7 -7 -7z" />
    <glyph glyph-name="uni0420" unicode="&#x420;" horiz-adv-x="549" 
d="M78 6v644q0 7 6 7q66 2 167 2q130 0 192 -59t62 -155q0 -112 -76.5 -168.5t-193.5 -56.5h-47l-24 1v-214q0 -7 -6 -7h-73q-7 0 -7 6zM164 588v-297q20 -2 73 -2q36 0 66.5 7.5t57.5 24t43 48t16 75.5q0 72 -45 109t-124 37q-69 0 -87 -2z" />
    <glyph glyph-name="uni0421" unicode="&#x421;" horiz-adv-x="593" 
d="M55 327q0 144 95 242t248 98q91 0 135 -22q5 -3 5 -9v-64q0 -9 -6 -5q-58 26 -133 26q-114 0 -185 -72.5t-71 -190.5q0 -74 24.5 -128.5t64 -82t79.5 -39.5t81 -12q86 0 148 30q7 4 7 -4v-62q0 -8 -6 -10q-57 -32 -164 -32q-61 0 -116 18.5t-102.5 57t-75.5 106
t-28 155.5z" />
    <glyph glyph-name="uni0422" unicode="&#x422;" horiz-adv-x="539" 
d="M222 7v580h-211q-7 0 -6 7l10 57q1 6 8 6h495q7 0 8 -7l7 -56q1 -7 -5 -7h-220v-579q0 -8 -7 -8h-71q-8 0 -8 7z" />
    <glyph glyph-name="uni0423" unicode="&#x423;" horiz-adv-x="561" 
d="M19 657h86q5 0 8 -4q180 -385 188 -407q72 145 152 406q2 5 7 5h78q7 0 5 -6q-69 -212 -142 -367q-51 -109 -107 -187.5t-95 -111.5q-6 -6 -13 -6h-87q-4 0 -5 3.5t1 4.5q36 30 80.5 82t71.5 98q4 9 0 16l-231 468q-4 6 3 6z" />
    <glyph glyph-name="uni0424" unicode="&#x424;" horiz-adv-x="733" 
d="M330 682h72q5 0 5 -5v-67q54 -2 101 -18.5t86 -48.5t61.5 -86t22.5 -125q0 -73 -22.5 -127.5t-62 -86t-85.5 -48t-101 -20.5v-70q0 -6 -5 -6h-72q-6 0 -6 6v70q-55 5 -100.5 21.5t-85 47t-61.5 83.5t-22 124q0 73 24 128.5t65 87.5t85.5 48.5t94.5 19.5v66q0 6 6 6z
M324 119v425q-33 -2 -62.5 -13.5t-57.5 -34.5t-44.5 -66t-16.5 -100q0 -103 51 -153.5t130 -57.5zM407 544v-425q80 5 131.5 54.5t51.5 156.5q0 59 -16 101.5t-44 65.5t-57.5 34t-65.5 13z" />
    <glyph glyph-name="uni0425" unicode="&#x425;" horiz-adv-x="593" 
d="M555 648l-204 -311l219 -328q5 -9 -3 -9h-86q-7 0 -12 6l-180 275h-1l-171 -275q-4 -6 -10 -6h-82q-4 0 -4.5 3t1.5 5l212 324l-206 317q-4 8 4 8h85q8 0 10 -6l169 -269h1l167 269q3 6 10 6h78q8 0 3 -9z" />
    <glyph glyph-name="uni0426" unicode="&#x426;" horiz-adv-x="663" 
d="M570 0h-485q-7 0 -7 7v644q0 6 5 6h76q5 0 5 -5v-582h331v581q0 6 7 6h74q5 0 5 -5v-583l74 -2q5 0 5 -5l-14 -236q0 -6 -6 -6h-63q-7 0 -7 6v174z" />
    <glyph glyph-name="uni0427" unicode="&#x427;" horiz-adv-x="592" 
d="M65 657h75q5 0 5 -5v-191q0 -134 148 -134q76 0 134 30v294q0 6 6 6h75q6 0 6 -6v-645q0 -6 -6 -6h-74q-7 0 -7 7v284q-71 -34 -161 -34q-29 0 -55.5 4.5t-55.5 18t-49 34.5t-33.5 57t-13.5 83v198q0 5 6 5z" />
    <glyph glyph-name="uni0428" unicode="&#x428;" horiz-adv-x="869" 
d="M78 652q0 5 5 5h76q5 0 5 -6v-581h227v581q0 6 7 6h74q5 0 5 -5v-582h228v581q0 6 6 6h75q5 0 5 -5v-645q0 -7 -8 -7h-697q-8 0 -8 7v645z" />
    <glyph glyph-name="uni0429" unicode="&#x429;" horiz-adv-x="872" 
d="M779 0h-693q-8 0 -8 7v645q0 5 5 5h76q5 0 5 -6v-581h227v581q0 6 7 6h74q5 0 5 -5v-582h228v581q0 6 6 6h75q5 0 5 -5v-583l73 -2q5 0 5 -5l-13 -230q-1 -7 -7 -7h-63q-6 0 -6 7z" />
    <glyph glyph-name="uni042A" unicode="&#x42a;" horiz-adv-x="660" 
d="M10 587q-6 0 -5 6l11 59q2 5 6 5h246q5 0 5 -6v-224q32 2 93 2q117 0 183.5 -53t66.5 -158q0 -112 -76 -167t-205 -55q-96 0 -141 5q-6 0 -6 7v579h-178zM273 359v-293q19 -2 75 -2q179 0 179 150q0 72 -45 110t-125 38q-51 0 -84 -3z" />
    <glyph glyph-name="uni042B" unicode="&#x42b;" horiz-adv-x="773" 
d="M84 657h74q6 0 6 -5v-226q22 3 95 3q118 0 188 -53t70 -157q0 -115 -79.5 -169t-207.5 -54q-101 0 -146 5q-6 1 -6 8v643q0 5 6 5zM164 359v-293q54 -3 82 -3q83 0 133 37t50 115q0 72 -48.5 109t-129.5 37q-43 0 -87 -2zM694 651v-644q0 -7 -6 -7h-73q-7 0 -7 7v643
q0 7 7 7h73q6 0 6 -6z" />
    <glyph glyph-name="uni042C" unicode="&#x42c;" horiz-adv-x="556" 
d="M79 657h74q6 0 6 -5v-226q27 3 95 3q120 0 189 -53t69 -157q0 -114 -79.5 -168.5t-207.5 -54.5q-106 0 -146 5q-6 1 -6 8v643q0 5 6 5zM159 359v-293q54 -3 82 -3q83 0 133 38t50 114q0 71 -48 108.5t-130 37.5q-45 0 -87 -2z" />
    <glyph glyph-name="uni042D" unicode="&#x42d;" horiz-adv-x="590" 
d="M447 300h-321q-7 0 -7 6v59q0 5 5 5h321q-6 99 -61 162t-162 63q-88 0 -172 -41q-6 -4 -6 3v63q0 4 3 6q80 40 184 40q62 0 113.5 -18t86 -49t58 -74t34.5 -91.5t11 -102.5q0 -89 -27 -156.5t-72.5 -106.5t-99.5 -58.5t-114 -19.5q-117 0 -184 42q-4 3 -4 10v66q0 7 6 4
q80 -48 175 -48q43 0 81 11.5t72.5 37t56 73.5t23.5 114z" />
    <glyph glyph-name="uni042E" unicode="&#x42e;" horiz-adv-x="900" 
d="M277 300h-113v-294q0 -6 -6 -6h-74q-6 0 -6 6v645q0 6 5 6h76q5 0 5 -6v-281h114q11 134 88 215.5t197 81.5q130 0 205.5 -94t75.5 -239q0 -168 -81 -256t-207 -88q-121 0 -197 82.5t-82 227.5zM561 62q92 0 143.5 73t51.5 197q0 115 -51 189t-145 74t-146.5 -76
t-52.5 -189q0 -122 54 -195t146 -73z" />
    <glyph glyph-name="uni042F" unicode="&#x42f;" horiz-adv-x="577" 
d="M413 7v270h-87q-19 0 -31 -16l-186 -256q-5 -5 -11 -5h-88q-7 0 -3 7q19 28 118 152.5t108 132.5q-76 18 -114.5 65t-38.5 114q0 93 65.5 140.5t183.5 47.5q140 0 164 -3q5 0 5 -6v-643q0 -7 -6 -7h-72q-7 0 -7 7zM413 345v246q-3 0 -30 0.5t-55 0.5q-162 0 -162 -123
q0 -52 38.5 -88t120.5 -36h88z" />
    <glyph glyph-name="uni0430" unicode="&#x430;" horiz-adv-x="486" 
d="M330 70v174q-116 5 -163.5 -19.5t-47.5 -77.5q0 -39 30 -65t92 -26q53 0 89 14zM414 307v-218q0 -32 2 -49q0 -3 -2 -4q-89 -46 -189 -46q-84 0 -137.5 39t-53.5 116q0 171 296 159v20q0 14 -4 28t-14.5 30.5t-34 27t-56.5 10.5q-71 0 -135 -36q-7 -2 -7 5v57q0 6 5 8
q67 37 152 37q89 0 133.5 -50.5t44.5 -133.5z" />
    <glyph glyph-name="uni0431" unicode="&#x431;" horiz-adv-x="554" 
d="M481 727v-63q0 -6 -6 -8q-21 -9 -118 -24q-100 -18 -146 -70.5t-62 -143.5q71 62 156 62q90 0 145.5 -61.5t55.5 -170.5q0 -118 -62 -188t-163 -70q-62 0 -108.5 26.5t-71.5 72t-37 96.5t-12 108q0 172 82 281q72 101 225 134l56 10.5t61 13.5q2 1 3.5 -0.5t1.5 -4.5z
M283 413q-41 0 -78.5 -19t-61.5 -48q-4 -22 -4 -60q0 -107 37.5 -168.5t106.5 -61.5q68 0 102.5 54.5t34.5 131.5q0 71 -32.5 121t-104.5 50z" />
    <glyph glyph-name="uni0432" unicode="&#x432;" horiz-adv-x="508" 
d="M72 9v465q0 7 5 7q70 3 161 3q206 0 206 -125q0 -42 -24 -68.5t-62 -37.5v-1q105 -22 105 -114q0 -43 -23 -72.5t-62 -43t-76.5 -19t-80.5 -5.5q-99 0 -144 3q-5 0 -5 8zM156 422v-146h87q115 0 115 74q0 73 -122 73q-67 0 -80 -1zM156 217v-157q48 -2 79 -2
q61 0 100.5 19.5t39.5 62.5t-34 60t-97 17h-88z" />
    <glyph glyph-name="uni0433" unicode="&#x433;" horiz-adv-x="379" 
d="M157 413v-407q0 -6 -5 -6h-74q-6 0 -6 7v468q0 7 6 7h274q6 0 8 -6l7 -56q0 -7 -7 -7h-203z" />
    </font>
</defs>
</svg>
