<svg id="Layer_1" data-name="Layer 1" xmlns="http://www.w3.org/2000/svg" xmlns:xlink="http://www.w3.org/1999/xlink" viewBox="0 0 64.38 64.13"><defs><style>.cls-1{fill:none;}.cls-2{fill:#f7f7f7;}.cls-3{clip-path:url(#clip-path);}.cls-4{fill:#e6e6e6;}.cls-5{fill:#003da8;}.cls-6{fill:#2f91ed;}.cls-7{fill:#63c1ff;}.cls-8{fill:#424242;}</style><clipPath id="clip-path"><circle class="cls-1" cx="32.06" cy="32.06" r="32.06"/></clipPath></defs><title>001-mortarboard</title><circle class="cls-2" cx="32.31" cy="32.06" r="32.06"/><g class="cls-3"><rect class="cls-4" x="43.15" y="13.72" width="38.89" height="99.08" transform="translate(-26.4 62.79) rotate(-45)"/></g><path class="cls-5" d="M28.5,27.43l3.4,20.91c10.4,0,18.82-4.19,18.82-7.38V27.43Z"/><path class="cls-6" d="M13.08,27.43V41c0,3.19,8.43,7.38,18.82,7.38V27.43Z"/><polygon class="cls-6" points="31.9 4.9 29.63 21.93 31.9 38.95 59.7 21.93 31.9 4.9"/><polygon class="cls-7" points="4.1 21.93 31.9 38.95 31.9 4.9 4.1 21.93"/><polygon class="cls-8" points="19.7 31.39 33.55 22.93 30.28 20.94 16.3 29.49 16.3 47.23 11.24 52.29 13.64 54.7 16.3 52.05 16.3 56.23 19.7 56.23 19.7 52.05 22.35 54.7 24.76 52.29 19.7 47.23 19.7 31.39"/></svg>