<?xml version="1.0" encoding="utf-8"?>
<!-- Generator: Adobe Illustrator 21.1.0, SVG Export Plug-In . SVG Version: 6.00 Build 0)  -->
<svg version="1.1" id="Layer_1" xmlns="http://www.w3.org/2000/svg" xmlns:xlink="http://www.w3.org/1999/xlink" x="0px" y="0px"
	 viewBox="0 0 64.4 64.1" style="enable-background:new 0 0 64.4 64.1;" xml:space="preserve">
<style type="text/css">
	.st0{fill:#F7F7F7;}
	.st1{clip-path:url(#SVGID_2_);fill:#E6E6E6;}
	.st2{fill:#983300;}
	.st3{fill:#663300;}
	.st4{fill:#424242;}
	.st5{fill:#003DA8;}
	.st6{fill:#2F91ED;}
	.st7{fill:#FF0F4D;}
	.st8{fill:#FF4F67;}
	.st9{fill:#FF8E00;}
	.st10{fill:#FFBA00;}
	.st11{fill:#FDE09C;}
	.st12{fill:#D5681E;}
	.st13{fill:#63C1FF;}
</style>
<circle class="st0" cx="32.3" cy="32.1" r="32.1"/>
<g>
	<defs>
		<circle id="SVGID_1_" cx="32.1" cy="32.1" r="32.1"/>
	</defs>
	<clipPath id="SVGID_2_">
		<use xlink:href="#SVGID_1_"  style="overflow:visible;"/>
	</clipPath>
	<path class="st1" d="M51.5,23.5H38.4c-8.3,10.8-23.2,29.6-24.6,30.1l67.4,67.4l24.6-43.1L51.5,23.5z"/>
	<path class="st1" d="M27.9,15.2c-0.4,0.1-0.7,0.1-1.2,0.2c-2.2,0.1-4.5,0.5-6.7-0.1c-0.3-0.1-1.6-0.3-2.2-0.6
		c-0.1,0.1-0.1,0.1-0.2,0.2c-1.6,1.8-3.4,2.7-4.4,5c-0.7,1.7-1.2,3.4-2.1,5c0,0.2,0,0.4,0,0.6c0.1,0.1,0.1,0.2,0.2,0.3
		c1.8,2.8,4.7,5.8,5.6,9c0.6,1.9,0.4,3.9-0.3,5.7c-0.1,0.3-0.3,0.6-0.4,0.9c0,0.1,0,0.1,0,0.2c0.2,0.5,0.1,1.5,0,2
		c0,1.8-0.7,3.2-1.7,4.3l51.8,51.8L81,68.4L27.9,15.2z"/>
</g>
<g>
	<rect x="13.9" y="43.3" class="st2" width="4" height="10.3"/>
	<rect x="48" y="43.3" class="st3" width="4" height="10.3"/>
	<polygon class="st4" points="18.2,37.9 9.8,24.7 16.3,14.5 18.6,15.9 12.9,24.7 20.5,36.5 	"/>
	<path class="st5" d="M22.6,35.6h-4.8l-0.9,5.8l7.5-1.8v-2.1C24.4,36.4,23.6,35.6,22.6,35.6z"/>
	<path class="st6" d="M13,35.6c-1,0-1.8,0.8-1.8,1.8v2.1l6.6,1.8v-5.8L13,35.6L13,35.6z"/>
	<polygon class="st5" points="21.4,14.4 17.7,10.6 16.1,12.2 20.1,17.3 	"/>
	<polygon class="st6" points="14.6,13.7 18.3,17.5 20.5,16.5 16.1,12.2 	"/>
	<polygon class="st7" points="30.1,37.2 30.1,39.6 41.6,41.3 53.1,39.6 53.1,37.2 41.6,36.3 	"/>
	<polygon class="st8" points="53.1,34.9 41.6,34 30.1,34.9 30.1,37.2 53.1,37.2 	"/>
	<polygon class="st9" points="28.4,25.7 28.4,28.1 40,29 51.5,28.1 51.5,25.7 40,24.9 	"/>
	<rect x="28.4" y="23.4" class="st10" width="23" height="2.3"/>
	<polygon class="st9" points="27.4,34.9 53.1,34.9 53.1,32.8 52.2,31.5 29.9,30.6 	"/>
	<polygon class="st10" points="27.4,28.1 30.8,31.5 52.2,31.5 53.1,30.1 53.1,28.1 	"/>
	<rect x="29" y="30.1" class="st11" width="24.1" height="2.7"/>
	<path class="st12" d="M30.8,31.5c0-1.9-1.5-3.4-3.4-3.4v6.8C29.3,34.9,30.8,33.4,30.8,31.5z"/>
	<path class="st6" d="M28.7,15.8l-0.2-0.2c-2.4-2.4-6.4-2.4-8.9,0l0,0l1.6,3.5l3,1.1L28.7,15.8z"/>
	<path class="st13" d="M19.6,15.7L19.6,15.7c-2.4,2.4-2.4,6.4,0,8.9l0.2,0.2l4.4-4.4L19.6,15.7z"/>
	<polygon class="st2" points="54.7,39.6 32.9,39.6 31.1,42 32.9,44.5 54.7,44.5 	"/>
	<rect x="11.1" y="39.6" class="st12" width="21.8" height="5"/>
</g>
</svg>
