<svg id="Layer_1" data-name="Layer 1" xmlns="http://www.w3.org/2000/svg" xmlns:xlink="http://www.w3.org/1999/xlink" viewBox="0 0 64.38 64.13"><defs><style>.cls-1{fill:none;}.cls-2{fill:#f7f7f7;}.cls-3{clip-path:url(#clip-path);}.cls-4{fill:#e6e6e6;}.cls-5{fill:#424242;}.cls-6{fill:#707070;}.cls-7{fill:#b4b4b4;}.cls-8{fill:#e0e0e0;}.cls-9{fill:#ffba00;}.cls-10{fill:#fde09c;}.cls-11{fill:#ff8e00;}</style><clipPath id="clip-path"><circle class="cls-1" cx="32.06" cy="32.06" r="32.06"/></clipPath></defs><title>3</title><circle class="cls-2" cx="32.25" cy="32.06" r="32.06"/><g class="cls-3"><path class="cls-4" d="M54.59,11.34a5.65,5.65,0,0,1-2,2.87c-5.74,4.7-13.38,4.78-19.25,9.14-2.8,2.08-3.6,5.57-5.35,8.44C26.09,35,23.3,37,20.87,39.71a5.44,5.44,0,0,1-7.64.83,5.47,5.47,0,0,1-3.52,3.88L77.12,112,116.4,73.15Z"/></g><path class="cls-5" d="M55.22,12.77a2.12,2.12,0,0,0-2.12-2.12H32.31L30.44,39.47,55.22,37.6Z"/><path class="cls-6" d="M11.53,10.65A2.12,2.12,0,0,0,9.4,12.77V37.6l22.91,1.87V10.65Z"/><polygon class="cls-6" points="38.63 45.42 30.44 43.55 32.31 52.08 39.59 52.08 38.63 45.42"/><polygon class="cls-7" points="25.99 45.42 25.03 52.08 32.31 52.08 32.31 43.55 25.99 45.42"/><path class="cls-7" d="M30.44,37.6l1.87,7.82H53.1a2.12,2.12,0,0,0,2.12-2.12V37.6Z"/><path class="cls-8" d="M9.4,37.6v5.7a2.12,2.12,0,0,0,2.12,2.12H32.31V37.6Z"/><polygon class="cls-5" points="43.6 50.67 32.31 50.67 30.44 52.08 32.31 53.48 43.6 53.48 43.6 50.67"/><rect class="cls-6" x="21.03" y="50.67" width="11.29" height="2.81"/><polygon class="cls-5" points="34.3 40.1 32.31 40.1 31.38 41.51 32.31 42.91 34.3 42.91 34.3 40.1"/><rect class="cls-6" x="30.32" y="40.1" width="1.99" height="2.81"/><polygon class="cls-9" points="48.1 15.47 40.21 15.47 38.34 24.12 40.21 32.77 48.1 32.77 48.1 15.47"/><polygon class="cls-10" points="32.31 15.47 30.44 24.12 32.31 32.77 40.21 32.77 40.21 15.47 32.31 15.47"/><polygon class="cls-9" points="32.31 15.47 24.42 15.47 22.55 24.12 24.42 32.77 32.31 32.77 32.31 15.47"/><rect class="cls-10" x="16.53" y="15.47" width="7.89" height="17.3"/><polygon class="cls-11" points="28.73 18.27 24.42 18.27 23.48 19.67 24.42 21.08 28.73 21.08 28.73 18.27"/><polygon class="cls-11" points="28.73 22.72 24.42 22.72 23.48 24.12 24.42 25.52 28.73 25.52 28.73 22.72"/><polygon class="cls-11" points="28.73 27.17 24.42 27.17 23.48 28.57 24.42 29.97 28.73 29.97 28.73 27.17"/><rect class="cls-9" x="20.1" y="18.27" width="4.32" height="2.81"/><rect class="cls-9" x="20.1" y="22.72" width="4.32" height="2.81"/><rect class="cls-9" x="20.1" y="27.17" width="4.32" height="2.81"/><polygon class="cls-11" points="44.52 18.27 40.21 18.27 39.27 19.67 40.21 21.08 44.52 21.08 44.52 18.27"/><polygon class="cls-11" points="44.52 22.72 40.21 22.72 39.27 24.12 40.21 25.52 44.52 25.52 44.52 22.72"/><polygon class="cls-11" points="44.52 27.17 40.21 27.17 39.27 28.57 40.21 29.97 44.52 29.97 44.52 27.17"/><rect class="cls-9" x="35.89" y="18.27" width="4.32" height="2.81"/><rect class="cls-9" x="35.89" y="22.72" width="4.32" height="2.81"/><rect class="cls-9" x="35.89" y="27.17" width="4.32" height="2.81"/></svg>