<svg id="Layer_1" data-name="Layer 1" xmlns="http://www.w3.org/2000/svg" xmlns:xlink="http://www.w3.org/1999/xlink" viewBox="0 0 64.38 64.13"><defs><style>.cls-1{fill:none;}.cls-2{fill:#f7f7f7;}.cls-3{clip-path:url(#clip-path);}.cls-4{fill:#e6e6e6;}.cls-5{fill:#324a5e;}.cls-6{fill:#e6e9ee;}.cls-7{fill:#fff;}.cls-8{fill:#ffd05b;}</style><clipPath id="clip-path"><circle class="cls-1" cx="32.06" cy="32.06" r="32.06"/></clipPath></defs><title>2</title><circle class="cls-2" cx="32.31" cy="32.06" r="32.06"/><g class="cls-3"><path class="cls-4" d="M41.07,9.63q-2.62,3.83-5.13,7.75a142.08,142.08,0,0,1-8.68,16.41,33.16,33.16,0,0,1-1.34,5.33,6.31,6.31,0,0,1-6.46,4.32q-2,3.1-4.11,6.15L83,117.21,115.8,84.36Z"/></g><ellipse class="cls-5" cx="32.08" cy="14.97" rx="10.19" ry="10.13"/><path class="cls-6" d="M55.82,22.2a34.86,34.86,0,0,0-23.73,6.66V56.24a34.26,34.26,0,0,1,23.73-6.66Z"/><path class="cls-7" d="M8.35,22.2a34.86,34.86,0,0,1,23.73,6.66V56.24A34.26,34.26,0,0,0,8.35,49.58Z"/><path class="cls-8" d="M40,17.57a7.86,7.86,0,0,1-15.69.81,11.64,11.64,0,0,0,4.86-2.55,12,12,0,0,0,3.24-4.23,12.61,12.61,0,0,0,2.84,2.66,11.92,11.92,0,0,0,4.69,2.14C39.9,16.88,40,17.23,40,17.57Z"/><path class="cls-8" d="M57.9,35.81c0-.58-.29-1-.69-1,.35,0,.69-.46.69-1s-.29-1-.69-1H54.48c-.35,0-.69.46-.69,1s.29,1,.69,1c-.35,0-.69.46-.69,1s.29,1,.69,1c-.35,0-.69.46-.69,1s.29,1,.69,1c-.35,0-.69.46-.69,1s.29,1,.69,1h2.72c.35,0,.69-.46.69-1s-.29-1-.69-1c.35,0,.69-.46.69-1s-.29-1-.69-1C57.55,36.85,57.9,36.39,57.9,35.81Z"/><path class="cls-8" d="M10.38,35.81c0-.58-.29-1-.69-1,.35,0,.69-.46.69-1s-.29-1-.69-1H7c-.35,0-.69.46-.69,1s.29,1,.69,1c-.35,0-.69.46-.69,1s.29,1,.69,1c-.35,0-.69.46-.69,1s.29,1,.69,1c-.35,0-.69.46-.69,1s.29,1,.69,1H9.68c.35,0,.69-.46.69-1s-.29-1-.69-1c.35,0,.69-.46.69-1s-.29-1-.69-1C10.09,36.85,10.38,36.39,10.38,35.81Z"/></svg>