<?xml version="1.0" encoding="utf-8"?>
<!-- Generator: Adobe Illustrator 19.0.0, SVG Export Plug-In . SVG Version: 6.00 Build 0)  -->
<svg version="1.1" id="ImufasserLogo_xA0_Image_1_" xmlns="http://www.w3.org/2000/svg" xmlns:xlink="http://www.w3.org/1999/xlink"
	 x="0px" y="0px" viewBox="0 0 878.7 176.9" style="enable-background:new 0 0 878.7 176.9;" xml:space="preserve">
<g>
	<path style="fill: #052259;"  d="M27.6,47.2c-0.8,2.8-1.8,5.5-2.4,8.4c-2.2,11-4.3,22-6.2,33c-0.8,4.6-0.1,9.1,3.1,12.8c4.3,5.1,10.4,4.1,12.9-2.2
		c0.4-0.9,0.7-1.8,1.1-2.6c0.1-0.3,0.5-0.4,0.8-0.6c1.6,6.6-3.3,17.8-8.9,19.2c-1.5,0.4-3.2,1.5-3.9,2.8c-3.7,6.7-6.6,13.8-6.4,21.7
		c0.2,9.8,6.9,15.9,16.7,15.5c7.6-0.3,13.6-4.1,19.2-8.7c10-8.3,19.8-16.8,30-24.9c7.3-5.9,15.4-10.4,24.7-12.5
		c7.3-1.7,13.8-0.8,18.6,5.7c7.7,10.3,25.2,8.4,32-1.7c0.9-1.4,2.1-2.6,3.7-3.9c-1.3,4.3,0,7.4,3.7,9.1c4.7,2.2,9.5,1.7,13.5-1.6
		c2.5-2.1,4.4-5,6.5-7.5c0.8-1,1.5-2,3-3c-0.8,4,0.3,7,3.4,9.2c4.3,3,9,4.3,14.2,3.7c2.8-0.3,5.7-0.6,8.5-1.1
		c2.1-0.4,2.7-1.5,1.9-3.6c-3.8-9.9,3.4-25,10.3-29.7c5.2-3.5,9.3-2.7,11.9,3c4.3,9.3,3.5,18.3-2.8,26.6c-0.8,1-1.6,2-3,3.7
		c3,0.5,5.2,1.2,7.4,1.3c11.7,0.8,22.3-3.3,32.5-8.5c0.8-0.4,1.7-1.9,1.5-2.8c-0.7-4.3-1.7-8.6-2.6-13.4c-4.4,3.3-8.4,6.2-12.2,9
		c2.7-3.1,5.4-6.6,8.5-9.6c2.7-2.6,3-5.2,2.4-8.7c-2.3-14-4.1-28.1-6.4-42.1c-0.9-5.8-2.3-11.6-3.5-17.4c-0.2-0.9-0.3-2,0.1-2.7
		c1.2-2.8,2.7-5.5,4.5-9.3c4.6,10.6,8.8,20.3,13,30.1c-0.5,0.4-0.9,0.7-1.4,1.1c-1.5-1.1-2.9-2.3-4.5-3.3c-0.6-0.4-1.5-0.6-2.2-0.5
		c-0.2,0-0.5,1.2-0.4,1.9c2,12.6,4,25.2,6,37.8c0.1,0.6,0.4,1.1,0.9,2.8c4.2-5.3,7.8-9.9,11.9-15c-1.7-0.9-2.8-1.6-3.9-2.2
		c-2.5-1.3-4.4-2.8-3.8-6.1c0.9-4.6,4.2-9.2,7-9.1c1.2,0,2.9,1.3,3.4,2.4c0.8,1.8,1.2,4,0.9,5.9c-0.5,3,0.6,4.6,3.1,6
		c3.6,2.1,3.7,3.6,1.3,6.7c-2.1-1-4.4-3.1-6.2-2.7c-1.5,0.3-2.4,3.5-3.7,5.3c-2.6,3.5-5.5,6.9-7.9,10.6c-0.9,1.4-1.4,3.5-1.2,5.2
		c0.5,4.4,1.6,8.7,2.3,13c0.4,2.7,1.5,3.6,4.4,2.7c4.7-1.4,9.5-1.9,14.2,0.7c8.1,4.5,6.6,18.7,0.8,22.3c-2.1,1.3-5.3,1.7-7.7,1.2
		c-6-1.1-10.3-4.9-12.9-10.4c-1.3-2.6-2.6-3.1-5.3-1.7c-8.3,4.3-16.7,8.3-26,9.8c-7.3,1.2-14.3,0.7-20.8-2.9
		c-2.6-1.5-4.8-1.3-7.7-0.6c-6,1.6-12.3,3.2-18.5,3.3c-8.9,0.1-13-3.6-15.6-12.5c-0.8,1-1.4,1.7-2.1,2.4c-2.8,2.9-5.1,6.5-8.4,8.6
		c-6.6,4.3-12.6,2.2-18.1-5.8c-1.2,1.3-2.3,2.4-3.3,3.6c-8.3,9-19.9,9.1-28.3,0.4c-7.6-7.9-13.1-9.1-23.4-4.8
		c-9.8,4.1-18.2,10.4-26.1,17.4c-6.6,5.8-13.3,11.6-20.1,17.3c-2.6,2.2-5.6,4.1-8.6,5.8c-14,8.1-27.1,0.4-31.6-14.3
		c-3.1-10,1.3-18.5,4.7-27.1c1.3-3.2,1.5-5.2-0.7-8.2c-4.2-5.8-4.3-12.8-3.7-19.6c1.1-13,3.7-25.7,7.9-38.1c0.8-2.2,1.9-4.4,2.9-6.5
		C26.8,46.9,27.2,47.1,27.6,47.2z M239.1,103.4c-2.1-3.3-4.2-7-6.7-10.3c-0.5-0.7-3.3-0.8-4-0.1c-3,2.7-5.8,5.6-8.1,8.8
		c-2.5,3.5,1.3,11.4,5.6,12.2c0.5,0.1,1.3,0,1.7-0.3c3.3-2.3,6.6-4.6,9.8-7.1C238,106.1,238.3,105.1,239.1,103.4z M285.5,115.3
		c2.4,3.7,8.3,7.3,12.2,6.9c0.8-0.1,2.2-1.4,2.2-1.9C299.1,115.8,289.4,112.6,285.5,115.3z M290,62.7c0.4-0.3,0.8-0.6,1.2-0.9
		c-0.8-1.7-1.4-3.7-2.7-4.9c-0.5-0.5-2.6,0.4-3.9,0.7c0.3,1,0.3,2.5,1.1,3C286.8,61.6,288.5,62.1,290,62.7z"/>
	<path style="fill: #052259;"  d="M442.8,47c2,2.1,3.5,3.4,4.7,5c9.9,12.8,16.9,27.1,19.7,43.2c0.5,2.9,1.2,5.8,1.9,8.7c3.1,11.3,11.5,17.8,24.6,19.6
		c13.5,1.8,26.6-0.8,39.7-3.7c5-1.1,9.8-2.7,14.9-5c-1-0.6-2.1-1.1-3.1-1.8c-3.6-2.7-7.7-4.9-10.7-8.2c-7.7-8.5-6.4-19.5,2.8-27
		c5.5-4.5,12-6.2,18.9-6.9c9.5-0.9,18.3,1.9,26.8,6.3c-0.7,0-1.4,0.2-2.1,0.1c-16.2-2.6-30.6,2.1-44.4,10.1
		c-3.2,1.8-3.6,3.8-1.2,6.8c6.4,8.3,15.2,12.4,25.4,13.7c7,0.9,13.7-0.8,20.2-3.5c6.4-2.6,12.8-5.3,19.2-7.9
		c0.8-0.3,1.7-0.5,3.4-1.1c-2.2,4.9-3.2,9.3-8.6,11.1c-20.5,7-40.8,14.8-61.4,21.4c-14,4.4-28.7,6.4-43.5,4.2
		c-9.9-1.5-17.9-5.9-21.9-15.6c-0.9-2.3-1.2-4.8-1.8-7.2c-9.9,17.4-24.8,28.9-41.4,38.5c-3.2,1.9-6.9,3.3-10.6,4
		c-9.8,2-16.4-3.4-16.7-13.4c-0.1-4,0.8-8,1.2-12.1c0.1-0.9,0.1-1.9,0.2-3.6c-1.7,0.9-2.8,1.6-4,2.2c-13.8,8.3-27.5,16.7-41.3,24.9
		c-5.3,3.1-11.1,5-17.3,5c-7.3-0.1-12.3-4.5-13.5-11.8c-1.3-7.6,0.9-14.6,3.6-21.6c1.2-3.1,2.4-6.2,3.6-9.2c0.4,0.1,0.8,0.1,1.2,0.2
		c-0.3,2-0.4,4.1-1,6.1c-1.8,5.9-4.6,11.5-3.5,18c1.1,6,4.9,9.8,10.8,9c5.3-0.6,11.1-1.7,15.7-4.3c14.9-8.3,29.3-17.3,43.9-26.2
		c2.8-1.7,5.5-3.7,8.4-5.6c-3.3-5.3-7.9-8.1-12.8-10.5c-9.6-4.7-19.5-9-28.8-14.3c-6.1-3.5-11.7-8.3-16.7-13.3
		c-1.9-1.8-1.5-5.9-2.2-8.9c0.3-0.3,0.7-0.6,1-1c5.2,2.2,10.4,4.4,16.6,6.9c-2.4,1.1-3.9,1.8-5.9,2.7c1.3,1.2,2.2,2.3,3.3,2.9
		c11.2,5.8,22.4,11.6,33.6,17.4c2.5,1.3,5.1,2.6,7.4,4.3c9.2,6.6,9.7,14.4,3,23.5c-4.1,5.6-4.7,12.4-2.3,19.1
		c1.2,3.4,4.2,4.7,7.7,4.8c5.8,0.1,11-2,15.9-4.9c14-8.4,26.8-18.3,36.7-31.4c1.1-1.4,1.7-4,1.2-5.8c-3.1-12.5-9.7-23.5-16.1-34.5
		c-3.1-5.3-6.4-10.4-5.1-16.9C442.4,49.1,442.5,48.6,442.8,47z"/>
	<path style="fill: #052259;"  d="M798.7,110.6c12,12,28.3,10.7,37.3-2.3c2.5-3.6,4.9-7.4,7.9-10.6c5.4-5.7,10.7-5.1,15.2,1.3c1.2,1.8,2.4,3.6,3.3,5.5
		c3.5,6.8,3,8.7-2.1,15.5c-0.7,0.9-3.1,1.2-4.4,0.7c-5.4-1.9-10.8-3.8-15.9-6.4c-3-1.5-4.2-0.5-6.1,1.5c-3.3,3.5-6.8,7-10.9,9.5
		c-5.4,3.4-11.5,3.1-17-0.2c-4.1-2.4-8.1-5.1-11.8-8.1c-2.7-2.2-4.9-2.2-8.1-1c-10,3.9-20.1,7.5-30.2,11.1c-0.9,0.3-1.8,0.6-3,1.1
		c0.7,0.8,1.1,1.4,1.7,1.9c6.9,6.3,7.2,12.4,1.4,21.4c-0.9,1.3-4.1,2.1-5.9,1.7c-8.8-2.2-15-8-19.1-16c-1.2-2.3-1-5.9-5-6
		c-0.4,0-0.7-1.5-0.6-1.4c-6.6,0-12.8,0.5-18.9-0.1c-11.2-1.2-16.8-6.5-19.3-17.5c-0.3-1.5-0.6-3-0.9-4.3c-6.7,18-21,29-35.9,39.4
		c-2.9,2-6.7,3.1-10.3,3.9c-6.1,1.5-11.8-1.6-13.6-7.6c-1.2-3.9-1.8-8.2-1.7-12.3c0.3-8.7,3.6-16.5,7.1-24.3c0.3,0.1,0.7,0.2,1,0.3
		c-0.4,1.5-0.8,3-1.3,4.5c-2.2,6.5-4.6,13-4.1,20.2c0.6,8.6,6.2,12.7,14.5,10.1c2.7-0.9,5.5-1.9,7.8-3.5
		c12.2-8.1,23.1-17.6,31.9-29.4c2.2-3,2.8-5.7,1-9.2c-6.3-12.4-12.5-24.9-18.3-37.6c-1.5-3.3-1.1-7.5-1.6-11.3
		c0.4-0.2,0.9-0.3,1.3-0.5c0.8,0.9,1.7,1.7,2.4,2.7c10.6,14.7,17.8,30.9,21.9,48.6c3,13.4,9.3,18.9,23,19.4c4.9,0.2,9.9-1,14.9-1.5
		c3-0.3,3.8-2.2,4.4-5c2.2-10.2,4.8-20.4,7.3-30.6c0.3-1.1,0.9-2.1,1.8-4.3c3.3,7.7,6.4,14.3,7.5,21.7c1.3,8-2.1,14.3-7,20.2
		c5.7,1.5,34.5-6.6,42.5-11.8c-4.4-4.4-13.7-9.7-21.4-5.1c1.1-8.5,2-9.8,10.2-11.6c14-3.1,27.7-2.2,41.2,2.6
		c1.6,0.5,4.1,2.3,3.9,3.1c-0.6,2.6-1.2,5.6-4.5,6.7C807.6,107.3,803.4,108.9,798.7,110.6z M732.2,117c0.4,0.2,0.7,0.5,1.1,0.7
		c2-0.9,4-1.7,5.9-2.8c6.3-3.9,6.4-4.1,3.6-11c-1.4-3.4-3.1-6.7-4.6-10c-0.4,0.1-0.8,0.2-1.2,0.3C735.2,101.8,733.7,109.4,732.2,117
		z M736,132.8c4,6.9,14.4,13.2,18.9,11.7C752.6,138.5,742.2,131.9,736,132.8z M782.2,99.5c7,7.5,13.9,7.9,20.2,1.1
		C795.5,100.2,789.3,99.9,782.2,99.5z M854.9,111.3c0.3-0.3,0.5-0.6,0.8-0.9c-1.3-3.7-3.2-7-7.2-8.4c-2.7-0.9-4.7,0.6-6.6,3.3
		C846.3,107.4,850.6,109.3,854.9,111.3z"/>
	<path style="fill: #052259;"  d="M243.5,17.2c-1.5,4.1-3.5,6.3-7.2,7.4c-50.8,15.3-100,35-148.8,55.7c-2.8,1.2-5.5,2.7-8.3,4.1c-0.3-4.4,1.7-7,5.6-8.6
		c15.4-6.3,30.8-12.8,46.2-19.1c31.5-12.9,63.5-24.7,96.1-34.5C232.4,20.6,237.6,19,243.5,17.2z"/>
	<path style="fill: #052259;"  d="M614.9,130.4c-0.5-6.1-1-12.2-1.7-18.3c-2.4-20.7-4.7-41.4-7.5-62.1c-1.2-8.9-1.3-18.1-5.4-26.5c-0.3-0.6-0.3-1.7,0-2.3
		c1.1-2.6,2.4-5.1,3.6-7.7c3.2,2.3,14.2,22.1,14.1,25.9c-1.7-1.1-3.1-2-4.6-2.7c-0.7-0.4-1.7-0.8-2.1-0.5c-0.5,0.3-0.8,1.4-0.7,2.1
		c1.8,15.1,4,30.2,5.5,45.4c1.4,13.2,4.2,26.4,2.2,39.8c-0.4,2.5-1.5,4.9-2.3,7.4C615.7,130.7,615.3,130.5,614.9,130.4z"/>
	<path style="fill: #052259;"  d="M299.3,13.2c4.4,8.7,8.8,17.4,13.2,26.1c-0.3,0.3-0.7,0.7-1,1c-1.3-0.9-2.6-1.9-3.9-2.7c-0.7-0.5-1.6-0.7-2.4-1
		c-0.1,0.9-0.5,1.7-0.4,2.5c3.5,21.3,7.2,42.5,10.6,63.8c1.6,10.5,2.4,21.1-0.8,31.6c-0.1,0.4-0.3,0.9-0.5,1.3
		c-0.1,0.2-0.4,0.2-1.2,0.7c-0.2-1.3-0.5-2.3-0.5-3.3c-0.3-22.5-5.1-44.4-8.6-66.5c-1.8-11.3-4.1-22.5-6.3-33.7
		c-0.3-1.4-0.7-2.8-1.1-4.1c-0.6-1.8-2.3-3.7-2-5.2c0.7-3.5,2.4-6.9,3.6-10.3C298.5,13.3,298.9,13.2,299.3,13.2z"/>
	<path style="fill: #052259;"  d="M420.2,35c0.3,2.7,0.5,5.3,0.9,8c2.7,16.4,5.7,32.9,8.2,49.3c1.1,7.2,1.9,14.5,2,21.7c0.1,4.7-1.4,9.4-2.2,14.1
		c-0.5,0-0.9-0.1-1.4-0.1c-0.4-3.3-0.7-6.5-1.2-9.8c-2.5-16.7-5.1-33.4-7.7-50.2c-1.6-10.6-3-21.2-4.9-31.8
		c-0.7-3.8-2.4-7.4-3.5-11.1c-0.3-0.8-0.7-1.9-0.4-2.6c1.3-2.9,2.9-5.7,4.7-9.1c1.3,2.1,2.3,3.6,3.3,5.2c3,5,6.1,10,9,15
		c0.6,1.1,0.6,2.6,0.9,3.9c-1.2-0.4-2.5-0.7-3.7-1.2c-1-0.5-1.9-1.2-2.8-1.9C421,34.6,420.6,34.8,420.2,35z"/>
	<path style="fill: #052259;"  d="M117.7,50.5c-2.6-5.6-5.3-11.2-8.4-17.9C105.5,43,97.8,48.2,90.2,53.3C74,64.3,57.5,75,40.9,85.6c-3.7,2.4-8,3.8-12,5.6
		c-0.2-0.3-0.4-0.7-0.5-1c1.2-0.9,2.4-1.7,3.6-2.6c21.3-14.5,42.6-28.9,63.7-43.6c3.3-2.3,6.1-5.3,8.9-8.2c3-3.2,2.8-4.1-0.2-7.1
		c-3.7-3.7-4-5.9-0.9-11.3c7.7,7.1,10.8,16.7,14.1,26.2c0.4-0.1,0.8-0.2,1.1-0.2c0.1-1.2,0.2-2.3,0.4-3.5c0.9-6.8,1.4-13.7,2.9-20.4
		c1.2-5.2,5-7.1,9-5.6c4.5,1.7,7.2,7,5.7,11.3c-0.1,0.4-0.5,0.7-1,1.4c-1.5-1.7-2.8-3.4-4.3-4.8c-4-3.7-7.9-2.9-9,2.4
		c-1.2,5.4-1.4,11.1-2,16.6c-0.4,3.1-0.7,6.3-1.1,9.4C118.8,50.3,118.2,50.4,117.7,50.5z"/>
	<path style="fill: #052259;"  d="M858.8,20.2c-2.1,1.3-4,3.1-6.3,3.7c-47.3,12.9-92.7,30.7-137.3,50.8c-2.2,1-4.3,2.1-6.2,3.5c-2.4,1.7-2.1,2.9,0.6,3.9
		c1.2,0.5,2.5,0.8,3.9,1.3c-0.3,1.8,0.1,3.8-2.6,3.7c-3.2-0.1-6.1-2.9-5.8-5.5c0.6-4.5,3.2-7.7,7.3-9.5c10.3-4.5,20.6-8.8,30.8-13.3
		c35.8-15.7,72.8-28.4,110.1-40c1.5-0.5,3.2-0.4,4.8-0.6C858.3,18.8,858.6,19.5,858.8,20.2z"/>
	<path style="fill: #052259;"  d="M693.1,68.9c1.9,1.5,2.9,2.6,4.1,3.2c1.9,1.1,1.8,2.7,0.7,3.8c-0.5,0.6-2.5,0.5-3.5,0c-4.4-2.4-3.7-6.8,0.1-12
		c1.4-1.9,3.9-3.2,6.1-4.3c29.5-14.6,60.2-26.3,91.3-37.1c9.5-3.3,19.3-6.1,29-9.1c1-0.3,2-0.5,3.3-0.8c0,3.2-2.1,3.9-4.3,4.6
		c-12.4,4.1-25.1,7.5-37.3,12.4c-27.1,10.8-53.9,22.3-80.8,33.6C698.9,64.6,696.4,66.8,693.1,68.9z"/>
	<path style="fill: #052259;"  d="M559.4,139c-1-0.3-1.6-0.5-2.1-0.6c-5.7-1.2-6.5-2.6-3.2-7.2c1.9-2.7,4.8-4.9,7.5-6.9c0.8-0.6,3,0,4,0.7
		c0.6,0.4,0.6,2.7-0.1,3.4c-0.6,0.7-2.3,0.4-3.5,0.5c-1,0.1-2.2-0.2-3.1,0.2c-1.1,0.6-1.8,1.7-2.7,2.6c1.1,0.6,2.2,1.7,3.2,1.6
		c3-0.2,6.1-0.8,9.1-1.3c1.3-0.2,2.6-0.7,3.9-1c0.3,0.4,0.5,0.8,0.8,1.2c-1.6,1.3-3.1,2.8-4.8,4c-2.9,2.2-6.2,4-8.9,6.3
		c-2.3,1.9-1.6,4.4,1,5.3c2.8,1,6.1,1.7,9,1.4c8.1-1,15.4-4.2,21.1-10.3c0.6-0.6,1.2-1.1,1.9-1.6c0.1-0.1,0.4,0,1.2,0.1
		c-0.7,1.2-1.2,2.4-2,3.3c-6.6,8.2-15.5,12.5-25.8,13.8c-2.1,0.3-4.5-0.4-6.6-1.1c-3.4-1.2-4.4-3.5-3.3-7c0.4-1.2,0.8-2.5,1.3-3.7
		C557.8,141.7,558.5,140.6,559.4,139z"/>
	<path style="fill: #052259;"  d="M543.1,24.2c2.2-6.6,4.2-8.1,10.5-8.2c4.8,0,9.5-0.1,14.3,0.3c4,0.3,4.5,1.2,2.6,4.7c-3.9,7.2-9.2,12.7-18,13.4
		c-1.9,0.2-3.8,0.6-6,0.2c3.1-1.4,6.2-2.8,9.2-4.3c3.1-1.5,6-3.2,9-5.2C557.6,22.3,550.4,24.3,543.1,24.2z"/>
	<path style="fill: #052259;"  d="M221.4,163.3c4.4-1.4,8.8-2.7,13.1-4.2c8.8-3.2,17.7-6.3,26.3-10.2c3-1.4,5.3-4.6,7.7-7.2c1.8-1.9,3.1-4.2,5.1-6
		c3.8-3.4,6.1-2.7,7.8,2.2c0.5,1.5,0.7,3.3,0.3,4.9c-0.9,3.8-2.9,4.7-6.6,3.3c-0.2-0.1-0.4-0.2-0.7-0.3c-5.2-2.2-4.9-1.9-9,2.3
		c-2.6,2.8-6.1,4.9-9.5,6.8c-10.7,5.8-22.6,7.2-34.3,9.2C221.6,163.9,221.5,163.6,221.4,163.3z"/>
	<path style="fill: #052259;"  d="M138.7,162.8c0.2-3.1,0.8-5.1,3.5-6.1c16.8-6.4,33.5-12.9,50.3-19.4c0.3-0.1,0.7,0,2.3,0c-1.6,2.1-2.5,4.5-4,5.1
		C173.7,149.2,156.5,155.9,138.7,162.8z"/>
	<path style="fill: #052259;"  d="M494.2,103.4c-1.5-2.6-3-5.2-4.3-7.9c-1.9-3.7-3.7-7.1-8.1-8.9c-4.2-1.7-4.5-3.7-2.8-9.6c7.8,4.9,11.9,12.3,14.8,20.7
		c0.4-0.1,0.7-0.1,1.1-0.2c0.3-1.2,0.7-2.4,0.8-3.7c0.6-5.4,0.8-10.9,1.7-16.3c0.5-3.2,1.8-6.7,6-7c3.2-0.3,9.6,4.5,10.1,7.5
		c0.2,1.3-0.5,2.7-0.7,4c-0.4,0.2-0.7,0.4-1.1,0.6c-0.9-1.2-1.6-2.7-2.7-3.5c-2.3-1.4-5.7-3.9-7.3-3.1c-2,1-3.4,4.6-3.9,7.2
		c-0.7,3.9-0.3,8.1-0.6,12.1c-0.2,2.5-0.8,5-1.2,7.5C495.3,103.2,494.7,103.3,494.2,103.4z"/>
	<path style="fill: #052259;"  d="M651.6,46.8c-1.5-2.9-3.1-5.7-4.6-8.6c-1.8-3.4-3.5-6.5-7.5-8c-4.4-1.7-4.8-3.9-3-9.8c7.7,4.9,11.9,12.3,14.7,20.7
		c0.4-0.1,0.7-0.2,1.1-0.2c0.3-1.2,0.7-2.5,0.8-3.7c0.6-5.5,0.9-11.1,1.8-16.6c0.5-3.1,1.9-6.4,5.9-6.6c3.3-0.2,9.7,4.6,10.1,7.6
		c0.2,1.3-0.5,2.6-0.9,4.4c-2.6-2.2-4.5-4.2-6.8-5.7c-3.6-2.3-6-1.6-6.9,2.6c-1,4.9-1.1,10.1-1.7,15.1c-0.3,2.9-0.8,5.7-1.2,8.5
		C652.8,46.6,652.2,46.7,651.6,46.8z"/>
	<path style="fill: #052259;"  d="M354.6,46.8c-1.6-2.8-3.1-5.7-4.6-8.5c-1.8-3.4-3.4-6.5-7.5-8c-4.4-1.7-4.8-3.8-3-9.8c7.8,4.9,11.9,12.3,14.8,20.7
		c0.4-0.1,0.7-0.1,1.1-0.2c0.3-1.2,0.7-2.5,0.8-3.7c0.6-5.5,0.9-11.1,1.8-16.6c0.5-3.1,1.9-6.4,5.9-6.6c3.2-0.2,9.7,4.6,10.1,7.6
		c0.2,1.3-0.5,2.7-0.9,4.5c-2.5-2.2-4.3-4.2-6.5-5.6c-3.9-2.6-6.4-1.8-7.4,2.7c-1.1,4.8-1,9.9-1.6,14.8c-0.3,2.9-0.8,5.7-1.2,8.6
		C355.7,46.6,355.2,46.7,354.6,46.8z"/>
	<path style="fill: #052259;"  d="M428.8,47.7c1.1-1.6,1.9-3.8,3.5-4.8c14.7-8.9,29.5-17.6,44.2-26.3c0.5-0.3,1-0.4,1.9-0.8c0.2,3.7-1.9,5.3-4.4,6.7
		c-13.2,7.9-26.4,15.8-39.6,23.6c-1.5,0.9-3,1.8-4.4,2.7C429.6,48.5,429.2,48.1,428.8,47.7z"/>
	<path style="fill: #052259;"  d="M176.1,86.3c-0.9,1.2-1.5,2.6-2.5,3.2c-1.9,0.9-4,1.8-6,1.8c-2.4-0.1-3.9-1.8-4.2-4.5c-0.3-3.1-0.9-6.1-1.2-9.2
		c-0.1-1.2,0.2-2.4,0.3-3.6c0.4,0,0.8,0,1.1,0c0.4,2.6,0.8,5.2,1.1,7.8c0.5,3.5,2.6,5.3,5.7,4.7c3.1-0.6,4.3-3,3.5-6.5
		c-0.6-2.7-0.9-5.5-0.7-8.4c3.5,3.6,2,9.9,7.5,11.9c1,0.4,2.2,0.4,3.5,0.6c-0.6-5.5-7.3-8.8-4-15.6c2.8,5.3,6.9,9.2,7,15.1
		c0.1,5.1-3,7.1-7.7,4.9C178.5,87.7,177.4,87,176.1,86.3z"/>
	<path style="fill: #052259;"  d="M789.2,141.7c-6.8-3.4-7.1-4.7-2-10.3c0.6-0.7,1.4-1.3,2.1-1.9c1.4-1.1,2.9-2.4,4.6-0.5c1.8,2,1,3.6-0.8,5.3
		c-2-1.3-4.1-3.6-5.9,0.2c4,4.3,8.5,1.7,13.4,0.6c-2.1,6.4-9.9,5.3-12.4,11.1c3.2,3.2,7.2,2.9,11.1,2c3.9-1,7.5-2.7,11.7-3.9
		c-1.3,1.4-2.4,3.3-4.1,4c-4.7,1.9-9.5,3.8-14.4,4.7c-2,0.4-5.1-1-6.4-2.6c-0.8-1.1,0.7-4.1,1.4-6.1
		C787.8,143.4,788.5,142.7,789.2,141.7z"/>
	<path style="fill: #052259;"  d="M730.5,25.8c-1-1.1-1.8-2.5-2.9-3.1c-1.7-0.9-3.8-1.9-5.4-1.5c-1.3,0.4-2.7,2.7-2.8,4.3c-0.6,5.1-0.6,10.2-1,15.3
		c-0.1,1.3-0.8,2.5-1.6,4.9c-1.4-2.2-2.2-3.4-2.9-4.7c-1.3-2.4-2.3-5-3.8-7.2c-1.1-1.6-1.9-3.3-5-3.4c-4.7-0.1-6.1-5.4-3.4-10.5
		c7.1,4.8,11.6,11.6,14.2,19.8c0.4-0.1,0.8-0.2,1.2-0.4c0.2-1.1,0.6-2.3,0.7-3.4c0.5-5.2,0.7-10.4,1.6-15.6c0.6-3.7,3.8-5.3,6.9-4.1
		C730.2,17.8,732.3,22.1,730.5,25.8z"/>
	<path style="fill: #052259;"  d="M855.5,53.3c-1-1.1-1.7-2.1-2.6-2.9c-3.6-3.4-7.1-2.5-7.9,2.4c-0.9,5.4-1.4,10.9-2,16.3c-0.2,1.2-0.4,2.4-1.4,3.7
		c-1.1-2.1-2.4-4.1-3.1-6.3c-1.7-4.8-5.5-7-9.5-9.6c-4.1-2.6-4-3.7-1.7-8.6c6.9,4.1,10.5,10.7,14.3,17.5c0.2-1.6,0.2-3.2,0.5-4.7
		c0.9-4.4,1.7-8.9,3-13.2c1.1-3.5,4.2-5,6.9-3.8C855.7,45.6,857.3,49.5,855.5,53.3z"/>
	<path style="fill: #052259;"  d="M522.4,17.6c-0.6,3-1.3,5.9-1.8,8.9c-1.1,6.2-2.1,12.4-3,18.7c-0.5,3.4,1.2,5.8,3.9,7.5c3.1,2,5.5,0.7,6.1-2.8
		c0.1-0.6,0.2-1.2,0.4-1.7c0-0.1,0.2-0.2,0.7-0.7c0.5,0.9,1.4,1.7,1.3,2.4c-0.5,3-0.9,6.1-2.1,8.8c-1.2,2.7-4,2.8-6.6,1.6
		c-3.4-1.5-5.3-4.2-5.8-8c-1.3-9.1,1-17.8,3.2-26.4c0.7-2.9,1.6-5.8,2.4-8.7C521.5,17.4,521.9,17.5,522.4,17.6z"/>
	<path style="fill: #052259;"  d="M237.1,67.9c-4.7,8.6-4.7,8.6-12.5,4.3c-0.9-0.5-1.9-1-2.8-1.6c-1.5-1-4.4-2.5-4.3-3.1c0.6-2.4,2.2-4.6,3.5-6.8
		c0.2-0.4,1.4-0.6,1.8-0.4C227.6,62.7,232.3,65.3,237.1,67.9z"/>
	<path style="fill: #052259;"  d="M55.7,17.5c-0.6,2.2-1.2,4.4-1.7,6.7c-0.9,4-1.9,8.1-2.7,12.2c-0.2,0.8-0.3,1.7-0.1,2.5c0.7,2.8,1,6.4,4.6,6.9
		c3.4,0.5,4.5-2.5,5.6-5c0.1-0.3,0.4-0.5,0.7-0.8c2.2,4-1.5,12.5-5.7,13.3c-3.1,0.6-6.4-1.9-7.2-5.9c-1.6-7.9-0.2-15.6,2.4-23.1
		c0.8-2.4,2-4.7,3-7.1C55,17.2,55.3,17.3,55.7,17.5z"/>
	<path style="fill: #052259;"  d="M100,140.3c-1,1.4-1.7,3.4-3.1,4.2c-10.8,6.2-21.8,12.2-32.7,18.3c-0.2,0.1-0.5,0.1-1.9,0.2c0.9-2,1.2-4.2,2.3-4.9
		c11.3-6.4,22.8-12.6,34.3-18.9C99.3,139.6,99.7,140,100,140.3z"/>
	<path style="fill: #052259;"  d="M615.6,139.4c-3.5,0.3-5.9,0.6-8.3,0.8c2,3.8,4.8,4.3,7.8,4c2.8-0.3,5.6-0.8,9.4-1.4c-1.2,1.7-1.5,3-2.3,3.4
		c-6.3,2.6-12.6,5.1-18.9,7.6c-0.3-0.3-0.5-0.6-0.8-0.9c1.6-1.6,3.1-3.3,4.7-5c0,0,0-0.3-0.2-0.4c-4.5-3.3-4.6-5.4-0.1-8.8
		c1.5-1.1,3.2-2.1,5-2.5c1.2-0.3,2.8,0.3,4.1,0.5C615.9,138,615.7,139.2,615.6,139.4z"/>
	<path style="fill: #052259;"  d="M787.1,56.4c-0.3,1.3-0.6,2.7-1,4.3c1.5,0.5,2.9,1.1,4.3,1.6c5,1.8,6.1,3.9,4.7,9c-1.3,4.7-4.7,7.6-9.3,7.9
		c-4.5,0.2-7.3-2.5-6.7-7C780,66.2,782.7,61,787.1,56.4z M785.4,75.3c2.1-0.6,3.6-0.8,4.8-1.5c1.3-0.7,2.3-1.9,3.5-2.9
		c-1.4-1.3-2.5-3.2-4.2-3.7c-2.3-0.8-4.9-3.6-7.3-0.9c-1.1,1.4-1.6,4.2-1,5.9C781.7,73.5,784.1,74.3,785.4,75.3z"/>
	<path style="fill: #052259;"  d="M133.7,102.7c-1.1-1.7-1.9-2.7-2.4-3.9c-1.3-2.7-2.3-5.5-3.7-8.1c-1.2-2.2-2.2-4.2-5.6-4.7c-4.7-0.7-5.5-5.2-2.4-10.6
		c6,4.5,10.1,10.2,12.2,17.4c0.3,1.1,0.6,2.5,1.4,3.1C135.5,97.8,134.9,99.7,133.7,102.7z"/>
	<path style="fill: #052259;"  d="M386.5,42.7c-0.2,2.1-0.6,4.2-0.6,6.3c-0.1,3.4-0.3,6.9,0.1,10.3c0.2,1.6,1.3,3.3,2.6,4.4c2.9,2.5,5.2,1.5,5.9-2.3
		c0.1-0.6,0.3-1.1,0.4-1.7c0-0.1,0.2-0.2,0.2-0.2c1.8,2.7,0.9,8.1-1.5,9.8c-2.3,1.5-6.3,0.3-8.1-3.1c-1.3-2.5-2.1-5.3-2.4-8.1
		c-0.5-5.2,0.7-10.3,2-15.3C385.5,42.6,386,42.7,386.5,42.7z"/>
	<path style="fill: #052259;"  d="M579.5,33.7c-0.9,3-2,6-2.5,9c-0.6,3.4-1.2,6.9-0.8,10.2c0.2,1.8,2.2,4.2,3.9,4.8c4.2,1.5,3.6-2.7,4.7-5.7
		c2.1,2.7,1.9,4.9,0.8,7.2c-1,2.2-2.4,4.1-5,3.7c-3.1-0.4-5.3-2.3-6-5.3c-1.5-6.6-0.2-13,2.1-19.2c0.6-1.7,1.3-3.4,2-5
		C578.9,33.4,579.2,33.6,579.5,33.7z"/>
	<path style="fill: #052259;"  d="M204.8,162.1c4.4-3.9,8.8-7.8,13.2-11.8c1-0.9,2.2-1.9,2.4-3c0.2-1.1-0.2-2.9-1-3.7c-0.6-0.6-2.6-0.4-3.4,0.2
		c-0.9,0.7-1.2,2.2-1.8,3.4c-0.6-0.6-1.2-1.1-1.8-1.7c1.8-2.3,3.3-4.7,5.4-6.7c0.8-0.7,2.8-0.9,3.9-0.4c1,0.5,1.8,2.1,2,3.3
		c0.2,1.2,0,2.7-0.5,3.8C219.5,153.7,213,158.9,204.8,162.1z"/>
	<path style="fill: #052259;"  d="M477.5,31.8c-1,5.4-2,9.8-2.4,14.2c-0.2,2.3-0.1,4.8,0.8,6.9c0.6,1.4,2.7,2.7,4.3,3c0.9,0.2,2.2-1.9,3.2-3
		c0.3-0.3,0.4-0.7,0.9-1.7c1.1,3.8,0.3,6.8-1.5,9.2c-0.6,0.8-3.1,1.1-4.3,0.6c-5.2-2.3-5.9-7.3-5.6-12.1c0.4-5.1,1.8-10,2.8-15.1
		C476,33.4,476.5,33,477.5,31.8z"/>
	<path style="fill: #052259;"  d="M640.4,63.4c-0.2,1.5-0.5,3.1-0.7,4.6c-0.4,2.8-0.9,5.6-1.1,8.5c-0.2,2.8,1,5.1,3.9,5.5c2.9,0.4,3.3-2.1,3.6-4.3
		c0.1-0.4,0.4-0.7,0.9-1.7c1.2,4,0.7,7.1-1.6,9.8c-1.5,1.8-3.9,2.3-5.3,0.4c-1.8-2.3-3.8-5.2-3.8-7.9c-0.1-4.4,1.2-8.9,2.1-13.3
		c0.1-0.7,0.9-1.2,1.3-1.8C639.9,63.2,640.2,63.3,640.4,63.4z"/>
	<path style="fill: #052259;"  d="M367.9,109.8c0.3,1.1,0.5,1.5,0.5,1.9c0.4,4.8-1.9,9-4.9,9.2c-2.9,0.2-6.7-3.6-6.5-8.1c0.2-5,1.6-10,2.5-15
		c0.1-0.3,0.6-0.6,1.7-1.7c-0.2,2.2-0.3,3.5-0.5,4.8c-0.4,2.9-1,5.9-1.3,8.8c-0.3,2.9,0.8,5.5,3.8,6c3.1,0.5,3.4-2.2,3.8-4.5
		C367.1,110.9,367.4,110.6,367.9,109.8z"/>
	<path style="fill: #052259;"  d="M146.7,78.1c-1.1-1-2-2-3.2-2.8c-3.6-2.5-6.9-1.1-7.3,3.4c-0.4,4.2-0.6,8.4-1.2,12.6c-0.4-6.4-1.8-12.9,1.3-19
		c1.7-3.3,5.2-4.2,8.5-2.4C148.1,71.6,148.7,74.1,146.7,78.1z"/>
	<path style="fill: #052259;"  d="M459,143.1c0.6-1.6,0.7-2.4,1.1-3c2-3.9,4.7-5.5,7.1-4.3c2.4,1.2,3.1,4.7,1.3,8.3c-3,5.8-8.3,8.7-13.9,11
		c-0.2-0.2-0.4-0.5-0.6-0.7c2.5-2,5.1-4.1,7.6-6.1c1.3-1.1,2.7-2.1,3.6-3.4c0.6-0.9,0.4-2.2,0.6-3.4c-1.3-0.1-2.6-0.4-3.9-0.2
		C461.2,141.3,460.5,142.1,459,143.1z"/>
	<path style="fill: #052259;"  d="M179.4,25.1c-0.7,2.7-1.1,5.6-2.2,8.2c-0.4,1-2.6,2.2-3.3,1.9c-1.9-0.9-4.4-2.3-4.9-4c-1.6-5.3,0.3-10.4,2.5-15.1
		c0.4,0,0.7,0.1,1.1,0.1c-0.1,1.4,0,2.8-0.3,4.2c-0.3,1.4-0.8,2.7-1.3,4.1c-0.9,2.6-0.2,4.6,2.4,5.5c3,1,3.2-1.4,3.7-3.4
		c0.1-0.6,0.6-1.2,0.9-1.8C178.4,24.8,178.9,25,179.4,25.1z"/>
	<path style="fill: #052259;"  d="M841.5,138.2c1.1-1.5,2-3.3,3.5-4.4c1.1-0.9,3.5-1.6,4.2-1.1c1.3,0.9,2.5,3.1,2.3,4.6c-0.2,2.1-1.4,4.3-2.8,6
		c-3.3,4.3-7.5,7.4-12.8,8.8c-0.2-0.3-0.4-0.5-0.6-0.8c1.3-1,2.6-1.9,4-2.9c2.6-1.9,5.2-3.7,7.8-5.6c1.8-1.3,2.3-2.9,0.8-4.8
		c-1.6-1.9-3.2-1.7-4.8,0c-0.3,0.3-0.7,0.5-1.1,0.8C841.9,138.6,841.7,138.4,841.5,138.2z"/>
	<path style="fill: #052259;"  d="M237.1,34.6c-0.2,1.3-0.4,2.6-0.6,3.9c-0.4,2.5-1.2,5-0.9,7.4c0.2,1.7,1.7,3.9,3.1,4.5c2.4,0.9,2.5-1.7,3-3.4
		c0.2-0.8,0.5-1.5,0.8-2.2c0.3,0,0.6,0,0.9,0.1c-0.1,2.2,0.2,4.5-0.5,6.4c-0.7,1.8-2.4,4.3-3.8,4.4c-1.5,0.1-3.7-2-4.6-3.6
		C232.4,48,233.7,38.7,237.1,34.6z"/>
	<path style="fill: #052259;"  d="M53.9,105.5c-0.5,2.8-1,5.5-1.4,8.3c-0.2,1.4-0.6,3.1,0,4.1c0.8,1.3,2.4,2.2,3.7,3.2c0.8-1.2,1.6-2.3,2.3-3.5
		c0.3-0.6,0.4-1.2,0.6-1.9c0.3,0,0.6,0.1,0.9,0.1c-0.1,2.5,0.1,5.1-0.6,7.4c-0.4,1.3-2.4,3.2-3.4,3c-1.7-0.4-4.1-1.7-4.6-3.2
		c-2.2-6-0.7-11.9,1.3-17.7C53.1,105.4,53.5,105.5,53.9,105.5z"/>
	<path style="fill: #052259;"  d="M498.4,155c3.1-2.3,5.9-4.1,8.4-6.2c1.1-0.9,1.6-2.4,2.4-3.7c-1.6-0.3-3.2-0.6-4.8-0.9c-0.3,0-0.6,0.1-1.9,0.3
		c1.7-2,2.7-3.8,4.2-4.5c1.3-0.6,3.6-0.5,4.8,0.3c0.8,0.6,1.1,3,0.7,4.3C510,150.4,504,155.1,498.4,155z"/>
	<path style="fill: #052259;"  d="M682.4,151.4c2.9-2.2,6-4.3,8.7-6.7c1.1-1,1.6-2.7,2.4-4.1c-1.6-0.6-3.1-1.2-5.1-2c0.7-0.8,1.6-2.5,2.9-3.3
		c1-0.6,2.9-0.4,3.8,0.3c0.9,0.7,1.5,2.6,1.2,3.6C693.9,145.7,689.7,150.4,682.4,151.4z"/>
	<path style="fill: #052259;"  d="M716.8,106.1c-0.2,1.2-0.4,2.9-0.7,4.7c-0.5,2.8-2.5,3.5-4.3,1.8c-1.5-1.4-3-3.9-3-6c0-3.9,1-7.8,1.6-11.7
		c0.3,0.1,0.6,0.1,0.9,0.2c-0.4,1.8-0.8,3.6-1.1,5.5c-0.2,1.4-0.8,3.1-0.3,4.2c0.8,1.6,2.4,2.9,3.6,4.3
		C714.6,108,715.7,107,716.8,106.1z"/>
</g>
</svg>
